<svg xmlns="http://www.w3.org/2000/svg" viewBox="0 0 1034 272"><title>bryan-school-2lines</title><path d="M3.46085,158.159V2.86872c.76194-.06838,1.4698-.18692,2.17774-.18724,12.06128-.0056,24.125-.132,36.18246.08526a52.12361,52.12361,0,0,1,12.05406,1.6591C64.466,7.1764,71.6552,13.88174,75.10689,24.30126a55.98212,55.98212,0,0,1,1.26335,32.18788C74.14491,65.06954,69.902,72.32366,61.313,76.21331c.28369.33631.40259.59357.60145.69648,11.455,5.92759,16.9075,15.834,18.37526,28.19653,1.229,10.351.61144,20.61085-3.03326,30.48633C71.87624,150.1704,61.335,157.84332,45.35984,158.24581c-13.633.34349-27.28124.08628-40.92274.08812A6.944,6.944,0,0,1,3.46085,158.159Zm24.61388-21.74826c4.477,0,8.64371.25732,12.767-.05625,7.43073-.56513,11.83972-4.30525,13.87949-11.55026a45.60807,45.60807,0,0,0,.266-23.41667c-1.13641-4.68319-3.62258-8.57437-8.14078-10.78873-6.02295-2.95185-12.42011-2.08891-18.77169-2.05394Zm.07063-111.76067V66.56919c3.09448,0,5.986.04243,8.87587-.00822,7.661-.13426,13.53382-4.59753,15.47985-12.01927a34.58949,34.58949,0,0,0-.8752-20.345c-1.89387-5.51-5.831-8.90925-11.66326-9.47585C36.11285,24.34684,32.19729,24.65006,28.14536,24.65006Z" fill="#036"/><path d="M353.262,158.17134V2.673c2.96506,0,5.84414,0,8.72315,0,3.90974,0,7.82406.11084,11.72722-.0495,1.78192-.07321,2.38964.63739,2.91113,2.19248q14.13535,42.152,28.37645,84.26859a4.15781,4.15781,0,0,0,1.36043,2.113V2.88h21.99394V158.1727h-21.215L375.91342,61.49777l-.63265.11725v96.55633Z" fill="#036"/><path d="M151.85192,87.82831c6.97677,23.60846,13.86388,46.91343,20.84016,70.52012-8.19337,0-15.99866.04947-23.80023-.09851-.59316-.01124-1.4577-1.34066-1.69373-2.196-3.44658-12.48658-6.80289-24.998-10.1906-37.50089-2.21047-8.15812-4.437-16.31189-6.68832-24.58486l-12.75289.63593v63.54416H93.15342V2.86668c.66263-.066,1.29949-.18463,1.93634-.18478,11.64775-.00272,23.2983-.13311,34.94185.09244a59.96861,59.96861,0,0,1,12.57073,1.6394c12.9292,3.06442,21.0325,11.26285,24.23,24.12351a81.99766,81.99766,0,0,1,.419,37.82284C165.228,75.546,160.82531,83.27728,151.85192,87.82831Zm-34.3262-15.42019c4.29362,0,8.38461.3713,12.38388-.07656,8.57414-.96018,12.11518-4.3519,13.75583-12.8734a57.8148,57.8148,0,0,0-.26376-23.25367c-1.00775-4.68392-3.35991-8.44537-8.15-10.23187-5.78423-2.15723-11.731-1.25751-17.72591-1.37183Z" fill="#036"/><path d="M705.0887,158.22322H680.80008V2.85437h24.175v63.082h26.4933V2.82156h24.35579V158.17413H731.59663V89.44979H705.0887Z" fill="#036"/><path d="M939.73241,80.37582c0,15.21792.55592,30.46238-.16845,45.64574-.62674,13.13571-6.14111,24.39116-18.5434,30.4178-12.22177,5.93883-25.06906,5.83594-37.36677.08451-10.79-5.0463-15.967-14.63445-18.16007-25.932a55.72345,55.72345,0,0,1-.92987-10.40911q-.111-39.67272-.03157-79.34592c.00634-7.30409,1.114-14.39939,4.36072-21.0454C874.76464,7.7717,884.5627,1.471,897.73555.80358a58.93911,58.93911,0,0,1,16.55434,1.24333c13.735,3.30165,21.13994,13.09661,24.31837,26.30363a58.438,58.438,0,0,1,1.32734,12.85174c.16467,13.05591.05972,26.11524.05972,39.17323Zm-50.48758-.0996-.17235.00014c0,8.81876-.02706,17.63763.00951,26.45624.0245,5.90545-.01914,11.81789.25486,17.71386.32775,7.05811,3.40014,11.416,8.70926,12.40355a27.1195,27.1195,0,0,0,7.169.2035,9.48832,9.48832,0,0,0,9.08674-7.90106,46.46135,46.46135,0,0,0,1.09685-9.86224q.12871-38.81045.01987-77.62154a46.91776,46.91776,0,0,0-.656-8.183c-.68488-3.80827-2.32656-7.11226-6.2179-8.742-9.43058-3.94978-17.65326.60263-19.13284,10.61845a15.41844,15.41844,0,0,0-.16016,2.23857Q889.238,58.93843,889.24484,80.27622Z" fill="#036"/><path d="M850.42007,80.52285c-.00012,13.47344-.021,26.9469.00914,40.42028a46.039,46.039,0,0,1-3.46876,18.48176c-5.54741,12.95012-15.51672,19.92248-29.42723,20.78594a56.868,56.868,0,0,1-16.56019-1.1977c-14.38184-3.44828-21.78045-13.75512-24.83724-27.59386a47.987,47.987,0,0,1-1.029-10.141q-.1203-40.7942-.041-81.589a45.03262,45.03262,0,0,1,4.04272-19.36019C784.72585,8.34453,794.28818,1.74753,807.36462.862a58.522,58.522,0,0,1,17.29882,1.171C838.82893,5.41363,846.2156,15.58719,849.288,29.22352a53.17081,53.17081,0,0,1,1.08332,11.129C850.49527,53.74162,850.42007,67.13258,850.42007,80.52285Zm-24.43928.07878c0-13.312.10043-26.62537-.07021-39.93523a40.391,40.391,0,0,0-1.54369-10.03476,8.76574,8.76574,0,0,0-7.73916-6.53149,30.07208,30.07208,0,0,0-7.16715-.0911c-4.51978.48144-7.613,3.0777-8.58566,7.497a53.0715,53.0715,0,0,0-1.3193,11.08481c-.11079,25.2924-.07082,50.58551-.03839,75.87834a62.97561,62.97561,0,0,0,.45878,7.46379c1.00178,8.28339,6.20632,12.32481,14.49519,11.36368.57811-.067,1.15158-.173,1.72688-.263,4.15644-.65029,7.18056-2.85575,8.26437-6.94559a39.56352,39.56352,0,0,0,1.4491-9.55115C826.06855,107.22677,825.97774,93.91366,825.98079,80.60162Z" fill="#036"/><path d="M314.90018,158.16042c-1.388-10.90767-2.76932-21.62238-4.09123-32.3444-.151-1.2248-.331-1.99782-1.85151-1.9865-8.23615.06138-16.47292.038-24.7095.05489a4.50313,4.50313,0,0,0-.9231.25384q-2.16168,16.92581-4.35213,34.07654H255.28918q13.2138-77.85636,26.382-155.44387h30.54663Q325.39583,80.388,338.60034,158.16042ZM297.28134,34.1143l-.63619-.24357q-4.8394,33.207-9.69592,66.53184H306.936C303.69506,78.15053,300.48823,56.13241,297.28134,34.1143Z" fill="#036"/><path d="M657.2,54.43734H632.79c0-3.43954.14175-6.82293-.03864-10.189A58.07254,58.07254,0,0,0,631.61,33.3878c-1.89058-7.60312-7.31037-10.82968-14.78138-9.32485-3.7079.74685-6.46033,2.77221-7.59436,6.42568a26.35249,26.35249,0,0,0-1.46288,7.53211c-.10263,28.28828-.07069,56.577-.05119,84.86566a28.991,28.991,0,0,0,.36968,3.4642c1.34367,10.97264,10.20882,12.10394,17.27066,10.34846a7.70779,7.70779,0,0,0,5.78874-5.36563,35.5019,35.5019,0,0,0,1.56429-8.518c.24012-5.64775.07435-11.31273.07654-16.97059.00024-.89358,0-1.78714,0-2.84522h24.02816c.15687.233.32763.3682.32641.50184-.093,10.20011,1.12928,20.4678-1.46568,30.54326-4.276,16.60286-16.23719,26.14562-33.39694,26.312a52.5061,52.5061,0,0,1-13.3335-1.328c-14.90583-3.79375-22.217-14.525-25.02787-28.89663a51.28536,51.28536,0,0,1-.80079-9.67747q-.0916-39.93771-.03108-79.87578c.00244-7.23013,1.10636-14.24307,4.31051-20.8121C593.12271,8.033,602.66993,1.702,615.529.84721a56.48471,56.48471,0,0,1,16.3035,1.17464c10.92356,2.53605,17.47373,10.33209,21.73011,20.29646C657.95263,32.59516,657.34235,43.41948,657.2,54.43734Z" fill="#036"/><path d="M541.95586,40.8817c-.56659-2.72214-.89458-5.27826-1.64217-7.70513-2.20224-7.14946-8.12164-10.64081-15.196-9.14727-4.8827,1.03083-7.91535,4.76568-8.74125,10.55757-.9239,6.47949.24719,12.561,4.22878,17.70769a166.01663,166.01663,0,0,0,12.475,14.21c6.03239,6.18818,12.77562,11.71765,18.50245,18.16193,9.572,10.77145,15.23632,23.33142,14.62713,38.12635-.34762,8.44155-2.11192,16.48919-7.3005,23.42523-6.30505,8.42854-14.96129,12.71824-25.23166,13.91927-12.92658,1.51166-24.30813-1.35231-32.7443-12.08838a48.96341,48.96341,0,0,1-9.93635-24.13124c-.27863-2.0385-.419-4.09589-.65032-6.4193l23.16557-3.62816c.46414,2.83276.70926,5.47455,1.36366,8.01073a40.48309,40.48309,0,0,0,2.759,7.96535c3.16,6.33237,8.18179,8.56686,15.07647,7.073,6.08834-1.31913,9.90947-6.09717,10.16957-12.79109a24.69778,24.69778,0,0,0-4.54843-16.022,143.91089,143.91089,0,0,0-12.42855-14.55262c-4.74948-4.87816-10.10644-9.15853-15.00242-13.90191-9.45416-9.15936-15.90883-20.016-17.62432-33.26343-1.02342-7.90284-.71565-15.79614,1.94238-23.403C499.618,10.39743,508.74462,3.26712,521.71642,1.328a61.065,61.065,0,0,1,15.36717-.17819c7.92254.84786,14.06268,5.191,18.79388,11.53,5.53217,7.41217,8.06326,15.89912,9.09,25.4202Z" fill="#036"/><path d="M231.79829,158.25531H207.36218v-2.987q0-29.56948-.03029-59.13887a14.46919,14.46919,0,0,0-.69768-4.37858q-14.07959-43.2145-28.24115-86.40236c-.255-.77951-.47377-1.57088-.80506-2.67555h13.06888c2.99438,0,5.99631.12951,8.98057-.04425,2.08413-.12135,3.00114.52162,3.60021,2.62213,5.12312,17.96183,10.38281,35.8847,15.60814,53.81731a5.85524,5.85524,0,0,0,1.42741,2.66444q2.56244-9.18772,5.124-18.37569c3.55646-12.79741,7.14259-25.58679,10.6197-38.40574.47755-1.76069,1.20789-2.3505,3.04685-2.32329,7.39045.10935,14.78358.04525,22.51043.04525-1.195,3.72209-2.28665,7.18256-3.416,10.63071q-12.79028,39.05-25.56063,78.10639a16.08065,16.08065,0,0,0-.76605,4.86287q-.07688,29.44454-.03315,58.88939C231.79835,156.13825,231.79829,157.114,231.79829,158.25531Z" fill="#036"/><path d="M963.009,2.75815H987.2673v132.386h38.66912v23.01964H963.009Z" fill="#036"/><path d="M104.41284,187.6988c8.39119.27732,16.72077.07353,24.93005.97044,6.98688.76333,11.40379,5.36788,13.12513,12.29414a28.72861,28.72861,0,0,1,.29777,13.82685c-1.10983,4.59685-3.2674,8.53593-7.69784,10.725.0493.27373.02468.52076.11262.5711,8.72053,4.98956,10.2992,13.113,9.51779,22.12777a32.83972,32.83972,0,0,1-1.8442,8.22528c-2.43913,6.75161-7.48064,10.70273-14.565,11.09509-7.86751.43574-15.77774.09976-23.87629.09976ZM117.02843,244.22v6.72745c0,6.2087,0,6.2087,6.18719,5.74538,4.85314-.36343,7.48595-2.54971,8.30691-7.37216a31.25556,31.25556,0,0,0,.39485-7.66944c-.5257-6.54212-3.72052-9.4506-10.28415-9.75672-.91177-.04251-1.83006.03382-2.73964-.028-1.39225-.09474-1.91057.48907-1.88424,1.88905C117.075,237.24255,117.031,240.73167,117.02843,244.22Zm.00817-44.88727c0,6.88125-.02035,13.42266.04047,19.96331a1.86992,1.86992,0,0,0,.91226,1.44261c3.22925,1.09862,8.39948-.4501,10.48282-3.02314,3.033-3.7459,2.90449-12.65553-.43928-16.09631a7.85688,7.85688,0,0,0-4.02785-2.19125A43.55176,43.55176,0,0,0,117.0366,199.33269Z" fill="#036"/><path d="M893.2527,267.604H881.69484v-3.32268c-.00012-13.47324.02231-26.94651-.02316-40.41959-.00743-2.17606.49669-4.69335-1.96712-6.02174-2.48989-1.34252-4.606.08674-6.77943,1.1684-2.34814,1.16854-3.15612,2.83356-3.12553,5.52676.15187,13.30516.06923,26.613.06911,39.91989v3.12635H858.59339V208.52827h10.65078v5.74338c1.89679-1.53532,3.38831-2.65061,4.775-3.88386,3.09542-2.753,6.74238-3.39817,10.70356-2.97095a7.98105,7.98105,0,0,1,6.02374,3.96482c.58152.9006,1.16706,1.79866,1.80891,2.78749a37.74784,37.74784,0,0,1,4.63753-3.89129,18.59885,18.59885,0,0,1,6.28774-2.76673c7.55085-1.22223,12.18716,2.51631,12.8813,10.15748.27022,2.97273.21976,5.97929.22488,8.97063q.03273,18.96223.00926,37.92461v3.045H904.93488v-2.82663c-.00024-13.97224-.162-27.94725.07715-41.91538.09861-5.76413-3.88134-6.52481-7.718-4.53539-2.7879,1.44569-4.22263,3.16136-4.14986,6.70206.27168,13.21816.10848,26.44522.10836,39.669C893.25258,265.60181,893.2527,266.50115,893.2527,267.604Z" fill="#036"/><path d="M591.348,267.601H580.55149v-5.10182c-1.52333,1.279-3.03155,2.56784-4.56354,3.82747a11.73918,11.73918,0,0,1-18.44869-4.60456,22.10238,22.10238,0,0,1-1.5315-7.51343c-.165-10.7233-.10909-21.45084-.03206-32.17613a22.01072,22.01072,0,0,1,.83516-5.39793c2.42212-9.14922,11.20463-12.22037,18.87066-6.633,1.27176.92694,2.45613,1.97389,4.08221,3.29042V188.12772H591.348Zm-11.42232-29.30732q0-7.72289-.0011-15.44581c-.00232-2.7635-1.6752-4.42058-5.37616-5.34431a4.72773,4.72773,0,0,0-5.79106,2.65688,8.23636,8.23636,0,0,0-.96534,3.30653q-.1075,14.68.01414,29.3608a8.19658,8.19658,0,0,0,1.09941,3.521c1.15792,2.20739,3.43085,2.98475,5.98924,2.26337,3.49033-.98414,5.026-2.53874,5.029-5.12172Q579.93322,245.892,579.92573,238.29367Z" fill="#036"/><path d="M661.22369,188.08037V199.7H639.85985v20.82389h16.28168v11.71137H639.84559v23.66146H662.583v11.71722H626.98927V188.08037Z" fill="#036"/><path d="M498.10152,267.74972c-2.6807,0-5.91.05723-9.13269-.06189-.481-.01776-1.12635-.78586-1.34928-1.345a15.36463,15.36463,0,0,1-.51436-3.00681,16.24249,16.24249,0,0,1-2.51835,1.75507c-3.02643,1.27581-6.00875,3.10249-9.16871,3.52891-8.27321,1.11642-13.38213-3.43774-13.79788-11.79615-.38309-7.70449,2.03885-14.41554,8.43983-18.97165a102.80852,102.80852,0,0,1,13.76491-7.94378c2.11022-1.05395,3.086-2.13569,2.73592-4.43519-.14931-.98021-.00737-2.00616-.17-2.98265-.56458-3.39022-2.51646-5.14038-5.665-5.18886-3.46681-.05339-5.44935,1.46737-6.24277,4.848-.2634,1.12239-.4224,2.26925-.64423,3.488H462.86428c-1.24086-6.868,3.89853-14.87859,11.07763-17.235a23.8383,23.8383,0,0,1,14.005-.235c5.99509,1.6539,9.60689,5.97724,9.93049,12.26568.2946,5.72478.20081,11.47123.21665,17.20832C498.12157,247.59331,498.10152,257.54492,498.10152,267.74972ZM486.53994,238.164l-.8156-.64417c-3.34748,2.884-7.00852,5.48954-9.91581,8.76429-1.55368,1.7501-2.243,4.61108-2.48636,7.054a6.03126,6.03126,0,0,0,2.08511,4.63259c3.59631,2.6626,10.92819-1.12781,11.09378-5.62426C486.67487,247.62488,486.53994,242.89195,486.53994,238.164Z" fill="#036"/><path d="M348.14792,247.95163a25.86909,25.86909,0,0,1-2.71946,12.97734,13.57034,13.57034,0,0,1-8.16089,6.90153,23.1575,23.1575,0,0,1-13.98589.06542c-5.31759-1.63486-8.37974-5.53564-9.87071-10.6935a24.90246,24.90246,0,0,1-1.128-6.85467c.02358-9.46516-.51552-19.02372.61169-28.372,1.58086-13.11076,16.17692-19.21347,27.46212-12.16805a15.163,15.163,0,0,1,7.09664,11.50819c.72571,6.1526.74418,12.3886,1.0843,18.92085H323.38589c.287,4.84565.27211,9.39788.91488,13.85526.47316,3.28121,2.925,4.81484,6.06969,4.74707,2.94958-.0635,5.00739-1.704,5.75991-4.89854.45037-1.91215.56817-3.90264.85345-5.98894Zm-10.98871-17.72173a85.87939,85.87939,0,0,0-1.55862-9.28325c-.682-2.4479-2.78894-3.61112-5.36336-3.63388a5.54952,5.54952,0,0,0-5.521,3.47878c-1.33459,3.03338-1.26359,6.20532-.89836,9.43835Z" fill="#036"/><path d="M544.99643,267.64182H533.49611c0-1.08445-.00006-2.05329-.00006-3.02214-.00018-13.89058-.1693-27.78414.07849-41.6703.10671-5.97933-3.98452-6.51009-7.65013-4.65258-2.90126,1.47022-4.398,3.162-4.31306,6.85055.30234,13.135.11811,26.28122.11811,39.4232v3.03932H510.19781V208.53877h10.63189c.09434,1.73593.186,3.423.31209,5.74245,1.47629-1.27153,2.56893-2.20882,3.65738-3.15085a15.45524,15.45524,0,0,1,12.02822-3.73027c4.10348.38365,7.26021,3.84229,7.957,8.68447a33.69179,33.69179,0,0,1,.35591,4.72263q.03958,22.33292.01024,44.666C545.15019,266.1237,545.06055,266.77414,544.99643,267.64182Z" fill="#036"/><path d="M4.01056,237.21985c.27366-4.74814.12326-10.126.9831-15.33715,1.6245-9.84583,7.4275-14.4921,17.15073-14.54957,10.04424-.05936,16.03318,4.31875,17.55521,14.29967a105.405,105.405,0,0,1-.08264,33.26746c-1.69659,10.14684-8.05783,14.42834-18.828,13.90743-9.1794-.444-14.97478-5.9262-15.99628-15.58687C4.25232,248.11087,4.27075,242.94186,4.01056,237.21985Zm24.70935.82346.26276-.00052c0-3.24409.0312-6.48858-.01341-9.73206a38.85081,38.85081,0,0,0-.30319-4.72583c-.54444-3.97833-2.82736-6.24236-6.19279-6.27953-3.46577-.03829-5.7963,2.27993-6.34923,6.38588a28.80406,28.80406,0,0,0-.27878,3.729c-.02544,7.15353-.07974,14.30825.03169,21.46014a21.92617,21.92617,0,0,0,.95227,6.11342c.83876,2.68817,2.9271,3.89506,5.75108,3.84228,3.44947-.06445,5.845-2.37574,6.07926-6.584C28.92248,247.52929,28.71991,242.78067,28.71991,238.04332Z" fill="#036"/><path d="M812.09368,221.52947c2.1619-13.06632,17.43972-18.999,28.26577-11.206,4.63241,3.33447,6.60221,8.30808,6.75676,13.60943.29228,10.03111.66148,20.16449-.40454,30.10488-1.42083,13.24958-16.17808,19.49759-27.54189,12.3052-5.45526-3.4527-7.17325-8.99429-7.59619-14.95976C811.25694,246.91846,811.20489,226.90228,812.09368,221.52947Zm10.80192,16.5043H822.886c0,4.06689-.09787,8.13724.04632,12.199a16.4718,16.4718,0,0,0,1.02116,5.07184,5.32252,5.32252,0,0,0,5.44856,3.547,5.41741,5.41741,0,0,0,5.46794-3.5393,12.24635,12.24635,0,0,0,1.00763-4.32827c.09544-8.54733.18344-17.099.00561-25.6436-.10933-5.25375-2.69161-8.10915-6.60318-8.03722-3.86916.07114-6.24045,3.06429-6.36441,8.28151C822.817,229.73226,822.8956,233.88395,822.8956,238.03378Z" fill="#036"/><path d="M719.2325,221.54712c2.15019-13.07412,17.40669-19.01452,28.2531-11.23032,4.63826,3.32885,6.61367,8.3,6.76992,13.60015.29545,10.03.66525,20.1629-.40186,30.10211-1.42351,13.25893-16.168,19.51654-27.52495,12.33162-5.45538-3.45124-7.18592-8.98582-7.61265-14.95135C718.39685,246.93522,718.34858,226.921,719.2325,221.54712Zm10.78863,16.24475c0,3.99388-.07228,7.9897.03474,11.98068a18.48492,18.48492,0,0,0,.77,4.89135,5.98865,5.98865,0,0,0,11.38429.09979,13.42093,13.42093,0,0,0,.82968-4.12877c.07715-8.31965.09653-16.641-.00512-24.96013a14.02163,14.02163,0,0,0-1.05846-4.83084,5.407,5.407,0,0,0-5.50377-3.531,5.32429,5.32429,0,0,0-5.40285,3.65832,18.85554,18.85554,0,0,0-1.00276,5.34C729.919,230.133,730.02162,233.96439,730.02113,237.79186Z" fill="#036"/><path d="M190.6614,267.65617H180.02811v-5.7927a34.6435,34.6435,0,0,1-3.61514,2.9789c-2.1068,1.27636-4.209,2.76581-6.52481,3.45444-7.83509,2.32988-13.68745-1.94585-13.85389-10.13779-.18417-9.06306-.06454-18.13237-.07088-27.19893-.00518-7.39636-.001-14.79275-.001-22.38507h11.46736v2.97591q.00018,20.712.003,41.424c.00341,5.6944,2.92545,7.32908,8.077,4.70344,2.76621-1.40989,4.0579-3.14829,3.99433-6.55059-.2453-13.138-.09958-26.28323-.09958-39.42578v-3.14194h11.257Z" fill="#036"/><path d="M800.32618,267.66733H788.957v-2.96406q-.00018-20.71428-.003-41.4286c-.00341-5.75285-2.88407-7.40558-8.01865-4.781-2.75073,1.406-4.09464,3.10158-4.02846,6.53005.25316,13.13915.10214,26.286.102,39.43006,0,.98432.00012,1.96864.00012,3.12745H765.73281V208.52213h10.66894v5.79631c1.44472-1.21892,2.446-2.01687,3.3949-2.873a15.49615,15.49615,0,0,1,10.92-4.11779c4.19459.04367,7.21688,1.97878,8.61309,5.90817a17.32087,17.32087,0,0,1,1.05566,5.58882c.08337,15.7225.05083,31.44557.0479,47.16849C800.4332,266.4761,800.37323,266.95911,800.32618,267.66733Z" fill="#036"/><path d="M277.19206,208.37818v5.99618a25.09207,25.09207,0,0,1,2.87822-2.46c2.3886-1.43824,4.70792-3.24162,7.31707-4.01641,7.67639-2.2795,13.15774,1.75662,13.75565,9.748.08666,1.15873.06356,2.32688.06387,3.49068q.00567,21.82648.0025,43.653v2.82261H289.71093v-2.93493q-.00018-20.704-.00317-41.40794c-.0036-5.75217-2.87267-7.39369-8.01383-4.76759-2.748,1.40375-4.10007,3.09059-4.0337,6.52184.25419,13.13257.10287,26.27293.10281,39.41041v3.13957H266.5088V208.37818h10.68326Z" fill="#036"/><path d="M975.32733,245.48438h11.111c3.333,11.03423-4.67982,22.74607-15.912,23.32347-11.845.60891-18.54754-4.704-19.44353-16.99081a168.41689,168.41689,0,0,1,.35079-29.37865c1.36805-13.27161,15.56353-19.66692,27.16648-12.85819,5.49414,3.2239,7.23858,8.63186,7.99842,14.49862a35.53973,35.53973,0,0,1,.02633,4.37413H975.5672c-.23841-1.939-.3247-3.91642-.749-5.81845-.81469-3.65134-2.97061-5.4122-6.18195-5.3308-3.14028.07962-5.24232,2.01985-5.95633,5.64606a22.57683,22.57683,0,0,0-.44732,4.20267c-.04315,7.3207-.063,14.64222.01194,21.9624a20.3527,20.3527,0,0,0,.70487,5.16091,5.6275,5.6275,0,0,0,6.01082,4.5629,5.5653,5.5653,0,0,0,5.70635-4.62412,38.54577,38.54577,0,0,0,.64819-5.92007C975.38839,247.40478,975.32733,246.504,975.32733,245.48438Z" fill="#036"/><path d="M696.6777,245.46039h11.39319c.28034,6.25678-.27449,12.18844-3.97812,17.39877a13.39527,13.39527,0,0,1-2.79314,2.82368c-10.46625,7.96785-26.06695,2.10187-28.52393-10.748a36.20213,36.20213,0,0,1-.68744-7.18217c.10373-8.63841-.37638-17.37338.74777-25.88921,1.72786-13.08733,16.44062-19.219,27.55347-11.93973,6.61964,4.336,7.53171,11.23693,7.77354,18.56074H696.92733c-.2562-2.0256-.36688-4.0074-.78019-5.92394-.73887-3.4266-2.9338-5.24872-6.02081-5.25736-3.11041-.0087-5.81312,1.74063-5.929,5.22881q-.51576,15.5361-.00573,31.0981c.11738,3.54311,2.71343,5.20192,5.90368,5.20811,3.26058.00631,5.31058-1.76756,6.09711-5.4169a26.5663,26.5663,0,0,0,.4689-3.94969C696.73816,248.23224,696.6777,246.98434,696.6777,245.46039Z" fill="#036"/><path d="M1019.28826,224.67082a39.05614,39.05614,0,0,0-1.59074-4.02453,6.03323,6.03323,0,0,0-8.50778-2.51172c-2.487,1.54047-2.94063,4.99052-.65575,7.90235a38.48192,38.48192,0,0,0,5.51864,5.35318c2.46929,2.09468,5.17236,3.915,7.62788,6.02444,6.5019,5.5855,9.0726,14.23308,6.3482,21.84246a14.526,14.526,0,0,1-3.39465,5.40059c-8.00427,7.74035-23.13534,4.783-27.655-5.34523a66.36176,66.36176,0,0,1-2.19931-6.799c3.53494-1.04292,6.692-1.9744,10.02026-2.95638.50741,1.60241.86673,3.11069,1.45715,4.52234,1.16974,2.79674,3.08019,4.71182,6.35368,4.75947,3.84417.056,6.58868-2.9668,5.25025-6.521a20.39423,20.39423,0,0,0-4.84034-7.02454c-2.7712-2.72038-6.097-4.86725-9.10185-7.36046a20.30724,20.30724,0,0,1-7.29976-11.01607c-1.77027-7.48479,1.5549-14.92035,8.10165-18.08549a16.43313,16.43313,0,0,1,19.8371,4.471,16.85926,16.85926,0,0,1,3.92266,9.70743Q1023.95333,223.82774,1019.28826,224.67082Z" fill="#036"/><path d="M233.40518,222.92126c-1.52955.30688-2.73787.57414-3.95557.78793-1.8651.32742-3.73666.618-5.63516.92911-.42185-1.22029-.55562-2.4972-1.22788-3.34925a12.37831,12.37831,0,0,0-3.85465-3.58534,4.80659,4.80659,0,0,0-5.90782,1.30167,4.60884,4.60884,0,0,0-.3684,5.814,33.60161,33.60161,0,0,0,5.5059,6.00969c2.73525,2.41831,5.89,4.37072,8.56543,6.84644,6.33168,5.859,8.74966,13.05413,6.15074,21.45237a13.77534,13.77534,0,0,1-3.52507,5.59573c-7.97245,7.65479-22.95647,4.72967-27.51093-5.29961a70.19212,70.19212,0,0,1-2.3056-6.89367c3.47565-1.02238,6.69027-1.968,10.09821-2.97046a17.721,17.721,0,0,0,.90769,2.96314,20.18838,20.18838,0,0,0,2.90272,4.81978,6.00062,6.00062,0,0,0,7.38094.58579,5.135,5.135,0,0,0,1.59281-6.692,23.71372,23.71372,0,0,0-4.84723-6.20763c-2.72995-2.53889-5.8829-4.616-8.75728-7.00809-5.75547-4.7897-8.94242-10.75658-7.49563-18.41694,1.95128-10.33174,13.54119-15.57843,23.03539-10.479C229.51744,212.00571,232.14859,216.83279,233.40518,222.92126Z" fill="#036"/><path d="M389.959,223.01746l-9.30985,1.63486a35.3126,35.3126,0,0,0-1.748-4.29244,6.01793,6.01793,0,0,0-8.42039-2.17709c-2.36209,1.54069-2.84117,4.961-.66562,7.74122a40.01647,40.01647,0,0,0,5.6916,5.5375c2.52743,2.15626,5.36811,3.96142,7.791,6.22113,6.22387,5.80486,8.70779,12.89449,6.19584,21.22258a14.01134,14.01134,0,0,1-3.41921,5.65985c-7.70577,7.65171-22.72684,5.00894-27.47869-4.70587a22.84352,22.84352,0,0,1-1.296-3.23148c-.39284-1.26225-.64057-2.56967-1.02256-4.15254,3.29647-.96863,6.51494-1.91437,9.88625-2.905.51393,1.60588.68744,3.17949,1.46946,4.34476a14.49189,14.49189,0,0,0,4.09373,4.39071,5.04564,5.04564,0,0,0,6.0522-.70014,4.81071,4.81071,0,0,0,1.33465-5.90618,18.39311,18.39311,0,0,0-3.90749-5.645c-3.09755-2.87709-6.59161-5.32219-9.84536-8.03742-5.75175-4.79982-8.93572-10.77008-7.47205-18.42663,2.05116-10.73031,14.45229-15.83314,23.91529-9.97556A18.36108,18.36108,0,0,1,389.959,223.01746Z" fill="#036"/><path d="M397.11753,252.42293c3.21749-.94373,6.374-1.86955,9.7217-2.85147a26.9775,26.9775,0,0,0,1.17395,3.65253,15.23021,15.23021,0,0,0,2.447,3.97386,6.21735,6.21735,0,0,0,7.595.74683,5.17481,5.17481,0,0,0,1.4875-6.91214,29.22507,29.22507,0,0,0-5.47-6.64974c-2.66845-2.48084-5.82135-4.43373-8.56055-6.84668-5.209-4.58865-8.25273-10.14258-7.017-17.39182,1.01281-5.94192,4.32519-10.10158,9.99668-11.96151,5.80209-1.90275,11.37722-1.09955,16.11262,3.04175a18.781,18.781,0,0,1,6.167,11.74744c-3.22352.58265-6.22973,1.126-9.51535,1.71991a8.54272,8.54272,0,0,0-.81938-2.47859c-1.13257-1.55825-2.22381-3.34567-3.778-4.34894a5.19663,5.19663,0,0,0-6.39732,1.08959,4.69507,4.69507,0,0,0-.28,6.02514,45.31709,45.31709,0,0,0,6.1519,6.4199c2.35246,2.09571,5.06833,3.78332,7.42263,5.87735,6.28262,5.58815,9.006,12.56071,6.81185,20.81569a15.12219,15.12219,0,0,1-4.30331,7.04719c-8.30027,7.37393-22.70313,4.02809-27.15009-6.0873a40.36,40.36,0,0,1-1.55234-4.71986A12.61619,12.61619,0,0,1,397.11753,252.42293Z" fill="#036"/><path d="M65.16488,267.67839H53.68765V218.38176H46.85112v-9.91322h6.8c0-1.29461-.00488-2.33481.001-3.37494.01182-2.07839-.06618-4.16267.06192-6.23408.47865-7.74247,4.78379-11.83391,12.48675-11.93852,1.9815-.02692,3.96368-.00405,6.10418-.00405v9.96567c-1.04432,0-2.08578-.04971-3.121.00951-2.88395.165-3.868,1.10062-3.98708,3.99666-.09806,2.38543-.01993,4.77811-.01993,7.415h6.58752v10.05979c-1.33557,0-2.71325.10456-4.06856-.025-1.941-.18551-2.59258.49784-2.57283,2.50519.09446,9.64373.042,19.28895.04175,28.93362C65.16476,255.66093,65.16488,261.54453,65.16488,267.67839Z" fill="#036"/><path d="M243.39918,208.45729h11.12175v59.13962H243.39918Z" fill="#036"/><path d="M939.5313,267.66894H928.47452V208.55012H939.5313Z" fill="#036"/><path d="M928.33484,198.99954V188.1563h11.25278v10.84324Z" fill="#036"/><path d="M243.31928,199.05847V188.10219h11.21188v10.95629Z" fill="#036"/></svg>