<svg version="1.1" xmlns="http://www.w3.org/2000/svg" xmlns:xlink="http://www.w3.org/1999/xlink" x="0px" y="0px"
     viewBox="0 0 473.704 50.8" enable-background="new 0 0 473.704 50.8" xml:space="preserve">
<g id="Layer_4" display="none">
    <rect x="-8.263" y="-20.46" display="inline" fill="#EE2D2B" width="520.667" height="111.333"/>
</g>
    <g id="Layer_3">
        <g>
            <path fill="#FFFFFF" d="M237.232,21.015c1.372,1.191,3.106,1.643,5.171,1.643c0.965,0,2.11-0.105,2.714-0.347
			c0.256-0.105,0.317-0.18,0.392-0.436c0.15-0.513,0.331-1.825,0.331-2.005c0-0.12-0.03-0.227-0.136-0.227
			c-0.121,0-0.151,0.06-0.196,0.302c-0.061,0.271-0.257,0.708-0.513,0.994c-0.603,0.694-1.417,0.845-2.759,0.845
			c-2.02,0-4.749-1.779-4.749-5.367c0-1.463,0.287-2.895,1.387-3.906c0.664-0.603,1.523-0.934,2.835-0.934
			c1.387,0,2.563,0.407,3.06,0.934c0.377,0.393,0.573,0.92,0.588,1.387c0,0.211,0.03,0.333,0.151,0.333
			c0.136,0,0.166-0.122,0.18-0.347c0.03-0.302,0.015-1.131,0.045-1.629c0.03-0.527,0.076-0.709,0.076-0.829
			c0-0.09-0.061-0.165-0.227-0.18c-0.452-0.045-0.935-0.18-1.507-0.256c-0.694-0.091-1.252-0.151-2.186-0.151
			c-2.246,0-3.678,0.603-4.764,1.598c-1.447,1.326-1.764,3.106-1.764,4.131C235.362,18.03,235.754,19.719,237.232,21.015z"/>
            <path fill="#FFFFFF" d="M250.324,22.402c0.392,0,0.889,0.015,1.538,0.031c0.648,0.029,1.447,0.045,2.442,0.045
			c0.498,0,0.618,0,0.709-0.331c0.076-0.257,0.18-1.131,0.18-1.418c0-0.136-0.015-0.301-0.12-0.301c-0.09,0-0.12,0.06-0.151,0.196
			c-0.09,0.527-0.241,0.799-0.573,0.95c-0.347,0.151-0.905,0.166-1.252,0.166c-1.356,0-1.764-0.197-1.794-1.071
			c-0.015-0.376,0-1.463,0-1.899v-1.025c0-0.076,0.015-0.136,0.076-0.136c0.332,0,1.84,0.029,2.081,0.06
			c0.497,0.045,0.664,0.241,0.738,0.497c0.03,0.166,0.03,0.333,0.045,0.468c0,0.06,0.03,0.105,0.121,0.105
			c0.12,0,0.136-0.18,0.136-0.287c0-0.09,0.03-0.603,0.06-0.859c0.076-0.649,0.106-0.86,0.106-0.935s-0.045-0.136-0.106-0.136
			s-0.106,0.076-0.211,0.166c-0.136,0.12-0.317,0.166-0.633,0.196c-0.301,0.031-2.02,0.031-2.321,0.031
			c-0.076,0-0.091-0.06-0.091-0.136v-3.166c0-0.076,0.03-0.122,0.091-0.122c0.271,0,1.854,0.031,2.08,0.06
			c0.664,0.061,0.769,0.242,0.875,0.468c0.076,0.15,0.09,0.376,0.09,0.467c0,0.105,0.015,0.165,0.106,0.165
			c0.106,0,0.136-0.15,0.151-0.211c0.03-0.15,0.06-0.708,0.076-0.843c0.03-0.589,0.106-0.74,0.106-0.829
			c0-0.06-0.015-0.12-0.091-0.12c-0.06,0-0.136,0.045-0.211,0.06c-0.105,0.014-0.316,0.06-0.557,0.076c-0.257,0.014-3.197,0-3.618,0
			c-0.377,0-1.221-0.031-1.915-0.031c-0.196,0-0.301,0.031-0.301,0.12c0,0.091,0.09,0.136,0.226,0.136
			c0.196,0,0.422,0.015,0.528,0.046c0.422,0.12,0.543,0.256,0.573,0.694c0.015,0.407,0.015,0.768,0.015,2.713v2.261
			c0,1.176,0,2.187-0.06,2.73c-0.045,0.376-0.121,0.618-0.392,0.678c-0.12,0.029-0.271,0.045-0.467,0.045
			c-0.166,0-0.211,0.076-0.211,0.136c0,0.091,0.09,0.136,0.256,0.136c0.271,0,0.603-0.014,0.92-0.029
			C249.887,22.418,250.173,22.402,250.324,22.402z"/>
            <path fill="#FFFFFF" d="M259.465,22.402c0.543,0,1.101,0.015,1.763,0.031c0.664,0.029,1.433,0.045,2.383,0.045
			c0.694,0,0.754-0.06,0.845-0.347c0.105-0.378,0.196-1.327,0.196-1.478c0-0.15-0.031-0.285-0.122-0.285
			c-0.105,0-0.136,0.074-0.15,0.196c-0.031,0.241-0.166,0.603-0.333,0.769c-0.331,0.347-0.843,0.361-1.552,0.361
			c-1.025,0-1.538-0.076-1.764-0.271c-0.287-0.241-0.287-1.054-0.287-2.699v-2.261c0-1.945,0-2.306,0.03-2.713
			c0.031-0.453,0.136-0.633,0.498-0.694c0.151-0.031,0.362-0.046,0.513-0.046c0.165,0,0.241-0.045,0.241-0.136
			c0-0.09-0.091-0.12-0.287-0.12c-0.512,0-1.598,0.031-1.914,0.031c-0.362,0-1.206-0.031-1.824-0.031
			c-0.196,0-0.287,0.031-0.287,0.12c0,0.091,0.076,0.136,0.227,0.136c0.166,0,0.331,0.015,0.437,0.046
			c0.422,0.12,0.543,0.256,0.573,0.694c0.015,0.407,0.015,0.768,0.015,2.713v2.261c0,1.176,0,2.187-0.06,2.73
			c-0.045,0.376-0.121,0.618-0.392,0.678c-0.12,0.029-0.271,0.045-0.467,0.045c-0.166,0-0.211,0.076-0.211,0.136
			c0,0.091,0.09,0.136,0.256,0.136c0.271,0,0.603-0.014,0.92-0.029C259.027,22.418,259.314,22.402,259.465,22.402z"/>
            <path fill="#FFFFFF" d="M268.544,22.402c0.392,0,0.889,0.015,1.538,0.031c0.648,0.029,1.447,0.045,2.442,0.045
			c0.498,0,0.618,0,0.709-0.331c0.076-0.257,0.18-1.131,0.18-1.418c0-0.136-0.015-0.301-0.12-0.301c-0.091,0-0.12,0.06-0.151,0.196
			c-0.09,0.527-0.241,0.799-0.573,0.95c-0.346,0.151-0.903,0.166-1.25,0.166c-1.358,0-1.765-0.197-1.794-1.071
			c-0.015-0.376,0-1.463,0-1.899v-1.025c0-0.076,0.014-0.136,0.076-0.136c0.331,0,1.839,0.029,2.079,0.06
			c0.498,0.045,0.664,0.241,0.74,0.497c0.029,0.166,0.029,0.333,0.045,0.468c0,0.06,0.031,0.105,0.12,0.105
			c0.122,0,0.136-0.18,0.136-0.287c0-0.09,0.031-0.603,0.06-0.859c0.076-0.649,0.106-0.86,0.106-0.935s-0.045-0.136-0.106-0.136
			c-0.06,0-0.105,0.076-0.211,0.166c-0.136,0.12-0.316,0.166-0.632,0.196c-0.302,0.031-2.021,0.031-2.323,0.031
			c-0.076,0-0.09-0.06-0.09-0.136v-3.166c0-0.076,0.029-0.122,0.09-0.122c0.271,0,1.854,0.031,2.081,0.06
			c0.664,0.061,0.769,0.242,0.874,0.468c0.076,0.15,0.091,0.376,0.091,0.467c0,0.105,0.015,0.165,0.106,0.165
			c0.105,0,0.136-0.15,0.15-0.211c0.031-0.15,0.061-0.708,0.076-0.843c0.031-0.589,0.106-0.74,0.106-0.829
			c0-0.06-0.015-0.12-0.091-0.12c-0.06,0-0.136,0.045-0.211,0.06c-0.105,0.014-0.316,0.06-0.558,0.076c-0.256,0.014-3.195,0-3.618,0
			c-0.378,0-1.221-0.031-1.914-0.031c-0.197,0-0.302,0.031-0.302,0.12c0,0.091,0.091,0.136,0.227,0.136
			c0.196,0,0.422,0.015,0.527,0.046c0.422,0.12,0.543,0.256,0.573,0.694c0.014,0.407,0.014,0.768,0.014,2.713v2.261
			c0,1.176,0,2.187-0.06,2.73c-0.045,0.376-0.12,0.618-0.392,0.678c-0.12,0.029-0.271,0.045-0.467,0.045
			c-0.166,0-0.211,0.076-0.211,0.136c0,0.091,0.091,0.136,0.256,0.136c0.271,0,0.603-0.014,0.92-0.029
			C268.107,22.418,268.393,22.402,268.544,22.402z"/>
            <path fill="#FFFFFF" d="M283.399,19.688c0-1.507-1.356-2.426-2.443-2.773c0.755-0.482,1.493-1.252,1.493-2.247
			c0-0.678-0.422-1.914-2.819-1.914c-0.453,0-1.327,0.031-1.99,0.031c-0.257,0-1.101-0.031-1.794-0.031
			c-0.197,0-0.302,0.031-0.302,0.12c0,0.091,0.091,0.136,0.227,0.136c0.196,0,0.422,0.015,0.527,0.046
			c0.422,0.12,0.543,0.256,0.573,0.694c0.015,0.407,0.015,0.768,0.015,2.713v2.261c0,1.176,0,2.187-0.061,2.73
			c-0.045,0.376-0.12,0.618-0.392,0.678c-0.12,0.029-0.271,0.045-0.467,0.045c-0.166,0-0.211,0.076-0.211,0.136
			c0,0.091,0.091,0.136,0.256,0.136c0.271,0,0.603-0.014,0.92-0.029c0.316,0,0.603-0.015,0.754-0.015
			c0.211,0,0.678,0.015,1.131,0.031c0.452,0.029,0.903,0.045,1.054,0.045C282.314,22.478,283.399,21.06,283.399,19.688z
			 M278.605,13.583c0-0.136,0.029-0.196,0.12-0.211c0.136-0.031,0.392-0.031,0.572-0.031c1.147,0,1.658,1.071,1.658,1.93
			c0,0.619-0.256,1.086-0.603,1.358c-0.227,0.18-0.603,0.227-1.04,0.227c-0.301,0-0.497-0.015-0.618-0.046
			c-0.045-0.015-0.09-0.029-0.09-0.136V13.583z M280.022,21.86c-0.302,0-0.603-0.015-0.95-0.151
			c-0.422-0.166-0.467-0.422-0.467-1.267v-2.909c0-0.076,0.029-0.091,0.074-0.091h0.573c0.513,0,0.874,0.136,1.147,0.331
			c0.994,0.678,1.25,1.689,1.25,2.277C281.65,21.468,280.731,21.86,280.022,21.86z"/>
            <path fill="#FFFFFF" d="M285.576,13.009c0.196,0,0.422,0.015,0.527,0.046c0.422,0.12,0.543,0.256,0.573,0.694
			c0.015,0.407,0.015,0.768,0.015,2.713v2.261c0,1.176,0,2.187-0.061,2.73c-0.045,0.376-0.12,0.618-0.392,0.678
			c-0.12,0.029-0.271,0.045-0.467,0.045c-0.166,0-0.211,0.076-0.211,0.136c0,0.091,0.091,0.136,0.256,0.136
			c0.529,0,1.372-0.045,1.629-0.045c0.196,0,1.296,0.045,2.065,0.045c0.165,0,0.271-0.045,0.271-0.136
			c0-0.06-0.06-0.136-0.166-0.136c-0.166,0-0.452-0.015-0.649-0.045c-0.407-0.06-0.467-0.302-0.512-0.678
			c-0.06-0.543-0.076-1.538-0.076-2.73v-0.18c0-0.076,0.045-0.105,0.105-0.105l1.191,0.029c0.091,0,0.166,0.015,0.242,0.091
			c0.165,0.196,0.723,1.054,1.252,1.748c0.738,0.996,1.236,1.598,1.808,1.885c0.347,0.18,0.709,0.256,1.447,0.256h0.609
			c-0.166,0-0.242-0.029-0.242-0.136c0-0.076,0.045-0.136,0.151-0.136c0.12,0,0.271-0.015,0.392-0.015
			c0.031-0.005,0.051-0.019,0.081-0.026c-0.228-0.047-0.673-0.139-1.367-0.833c-0.8-0.799-1.734-1.96-2.91-3.408
			c1.296-1.039,1.839-1.884,1.839-2.833c0-0.86-0.558-1.509-0.934-1.765c-0.709-0.467-1.674-0.543-2.518-0.543
			c-0.407,0-1.612,0.031-2.065,0.031c-0.271,0-1.115-0.031-1.808-0.031c-0.197,0-0.302,0.031-0.302,0.12
			C285.349,12.965,285.44,13.009,285.576,13.009z M288.38,13.643c0-0.105,0.031-0.151,0.12-0.18
			c0.136-0.031,0.453-0.046,0.784-0.046c0.783,0,2.021,0.468,2.021,2.277c0,1.056-0.453,1.614-0.86,1.9
			c-0.227,0.165-0.407,0.211-0.934,0.211c-0.333,0-0.724-0.031-1.011-0.122c-0.09-0.045-0.12-0.09-0.12-0.225V13.643z"/>
            <path fill="#FFFFFF" d="M295.692,22.447c0.045,0,0.07-0.01,0.104-0.015c-0.237,0.008-0.496,0.015-0.761,0.015H295.692z"/>
            <path fill="#FFFFFF" d="M295.783,22.176c0.105,0,0.165,0.076,0.165,0.136c0,0.077-0.063,0.106-0.152,0.12
			c0.381-0.013,0.692-0.03,0.776-0.03c0.422,0,1.04,0.045,1.478,0.045c0.136,0,0.211-0.029,0.211-0.136
			c0-0.076-0.031-0.136-0.196-0.136h-0.197c-0.407,0-0.527-0.136-0.527-0.361c0-0.151,0.06-0.468,0.196-0.784l0.709-1.734
			c0.031-0.076,0.045-0.091,0.12-0.091h3.121c0.06,0,0.105,0.015,0.136,0.091l1.025,2.593c0.06,0.151-0.031,0.271-0.12,0.287
			c-0.136,0.015-0.166,0.06-0.166,0.136c0,0.091,0.151,0.091,0.393,0.106c1.115,0.029,2.079,0.029,2.548,0.029
			c0.497,0,0.572-0.029,0.572-0.136c0-0.09-0.06-0.136-0.18-0.136c-0.151,0-0.302-0.015-0.498-0.045
			c-0.241-0.045-0.618-0.211-1.13-1.372c-0.845-1.945-3.061-7.132-3.378-7.839c-0.136-0.287-0.196-0.408-0.392-0.408
			c-0.136,0-0.24,0.151-0.391,0.513l-3.468,8.006c-0.257,0.615-0.484,0.99-1.02,1.104c0.015,0.003,0.037,0.009,0.05,0.012
			C295.601,22.176,295.676,22.176,295.783,22.176z M298.592,18.407l1.281-3.197c0.015-0.045,0.031-0.12,0.076-0.12
			c0.031,0,0.046,0.076,0.06,0.12l1.251,3.212c0.015,0.045,0,0.076-0.06,0.076h-2.563C298.592,18.498,298.561,18.467,298.592,18.407
			z"/>
            <path fill="#FFFFFF" d="M294.943,22.176c-0.106,0-0.151,0.06-0.151,0.136c0,0.106,0.076,0.136,0.242,0.136
			c0.266,0,0.524-0.007,0.761-0.015c0.09-0.014,0.152-0.043,0.152-0.12c0-0.06-0.06-0.136-0.165-0.136c-0.106,0-0.182,0-0.317-0.029
			c-0.013-0.003-0.035-0.008-0.05-0.012c-0.029,0.006-0.049,0.021-0.081,0.026C295.214,22.16,295.063,22.176,294.943,22.176z"/>
            <path fill="#FFFFFF" d="M305.23,14.578c0.09,0,0.12-0.061,0.15-0.166c0.031-0.091,0.091-0.256,0.227-0.438
			c0.196-0.287,0.513-0.376,1.282-0.392l1.975-0.045v5.185c0,1.176,0,2.187-0.06,2.73c-0.046,0.376-0.12,0.618-0.393,0.678
			c-0.105,0.029-0.271,0.045-0.467,0.045c-0.165,0-0.211,0.076-0.211,0.136c0,0.091,0.091,0.136,0.257,0.136
			c0.527,0,1.432-0.045,1.733-0.045c0.378,0,1.267,0.045,2.141,0.045c0.151,0,0.257-0.045,0.257-0.136
			c0-0.06-0.06-0.136-0.211-0.136c-0.196,0-0.498-0.015-0.678-0.045c-0.393-0.06-0.468-0.302-0.513-0.663
			c-0.06-0.558-0.076-1.569-0.076-2.745v-5.185l1.674,0.029c1.191,0.015,1.538,0.407,1.568,0.738l0.015,0.136
			c0.015,0.197,0.045,0.257,0.151,0.257c0.076,0,0.105-0.076,0.12-0.211c0-0.331,0.029-1.282,0.029-1.554
			c0-0.196-0.014-0.271-0.105-0.271c-0.045,0-0.151,0.031-0.362,0.06c-0.196,0.031-0.482,0.061-0.905,0.061h-5.382
			c-0.436,0-0.934-0.015-1.326-0.061c-0.331-0.045-0.468-0.15-0.573-0.15c-0.076,0-0.12,0.076-0.151,0.241
			c-0.029,0.106-0.287,1.342-0.287,1.554C305.108,14.503,305.139,14.578,305.23,14.578z"/>
            <path fill="#FFFFFF" d="M316.45,13.009c0.166,0,0.331,0.015,0.482,0.06c0.287,0.091,0.422,0.242,0.453,0.68
			c0.015,0.407,0.015,0.768,0.015,2.713v2.261c0,1.236,0,2.262-0.061,2.79c-0.045,0.376-0.12,0.558-0.392,0.618
			c-0.12,0.029-0.271,0.045-0.467,0.045c-0.166,0-0.211,0.076-0.211,0.136c0,0.091,0.091,0.136,0.256,0.136
			c0.529,0,1.432-0.045,1.734-0.045c0.362,0,1.267,0.045,2.141,0.045c0.151,0,0.256-0.045,0.256-0.136
			c0-0.06-0.06-0.136-0.211-0.136c-0.196,0-0.497-0.015-0.678-0.045c-0.392-0.06-0.482-0.256-0.527-0.603
			c-0.06-0.543-0.06-1.569-0.06-2.805v-2.261c0-1.945,0-2.306,0.029-2.713c0.031-0.453,0.136-0.633,0.498-0.694
			c0.151-0.031,0.256-0.046,0.392-0.046s0.211-0.029,0.211-0.151c0-0.074-0.105-0.105-0.271-0.105c-0.512,0-1.372,0.031-1.703,0.031
			c-0.378,0-1.281-0.031-1.779-0.031c-0.211,0-0.317,0.031-0.317,0.105C316.239,12.98,316.315,13.009,316.45,13.009z"/>
            <path fill="#FFFFFF" d="M326.495,22.311c0-0.076-0.076-0.136-0.227-0.136c-0.211,0-0.467-0.015-0.694-0.09
			c-0.256-0.091-0.422-0.393-0.453-1.387l-0.15-5.231h0.045c0.256,0.225,1.659,1.779,3.106,3.166
			c1.387,1.341,3.046,2.924,3.875,3.693c0.136,0.136,0.316,0.271,0.543,0.271c0.105,0,0.211-0.12,0.211-0.407l0.151-8.081
			c0.014-0.723,0.12-0.95,0.482-1.054c0.165-0.046,0.271-0.046,0.407-0.046c0.151,0,0.225-0.06,0.225-0.136
			c0-0.105-0.12-0.12-0.301-0.12c-0.649,0-1.147,0.031-1.296,0.031c-0.287,0-0.996-0.031-1.689-0.031
			c-0.196,0-0.331,0.015-0.331,0.12c0,0.076,0.045,0.136,0.211,0.136c0.18,0,0.498,0,0.694,0.076
			c0.316,0.12,0.436,0.347,0.452,1.131l0.136,5.698h-0.06c-0.196-0.18-1.959-1.99-2.864-2.879c-1.93-1.885-3.92-3.92-4.086-4.086
			c-0.227-0.227-0.407-0.422-0.573-0.422c-0.136,0-0.225,0.182-0.225,0.438l-0.122,7.599c-0.014,1.116-0.06,1.461-0.407,1.552
			c-0.18,0.045-0.422,0.06-0.603,0.06c-0.12,0-0.211,0.06-0.211,0.136c0,0.122,0.12,0.136,0.302,0.136
			c0.678,0,1.312-0.045,1.432-0.045c0.241,0,0.859,0.045,1.719,0.045C326.373,22.447,326.495,22.418,326.495,22.311z"/>
            <path fill="#FFFFFF" d="M342.272,22.613c1.04,0,2.352-0.136,3.241-0.573c0.166-0.09,0.166-0.105,0.166-0.452V20.17
			c0-0.632,0-1.145,0.015-1.537c0.015-0.453,0.151-0.633,0.512-0.694c0.151-0.031,0.257-0.046,0.362-0.046
			c0.091,0,0.166-0.06,0.166-0.136c0-0.105-0.091-0.12-0.271-0.12c-0.438,0-1.131,0.031-1.554,0.031
			c-0.392,0-1.341-0.031-2.035-0.031c-0.182,0-0.287,0.015-0.287,0.12c0,0.076,0.091,0.136,0.211,0.136
			c0.18,0,0.407,0.015,0.512,0.046c0.422,0.12,0.558,0.256,0.573,0.694c0.015,0.392,0.015,0.874,0.015,1.507v1.176
			c0,0.225-0.06,0.362-0.256,0.452c-0.317,0.136-0.589,0.136-0.935,0.136c-2.835,0-4.613-2.005-4.613-4.764
			c0-1.568,0.482-2.517,1.221-3.12c0.92-0.74,1.84-0.754,2.563-0.754c1.493,0,2.488,0.572,2.879,0.979
			c0.347,0.362,0.422,0.769,0.453,1.056c0.015,0.105,0.045,0.166,0.136,0.166c0.105,0,0.18-0.091,0.18-0.287
			c0-1.614,0.091-1.96,0.091-2.111c0-0.09-0.031-0.136-0.18-0.15c-0.317-0.015-0.784-0.091-1.056-0.136
			c-0.271-0.061-1.432-0.211-2.352-0.211c-1.116,0-2.307,0.09-3.573,0.829c-1.221,0.708-2.323,2.141-2.323,4.191
			C336.136,21.135,339.016,22.613,342.272,22.613z"/>
            <path fill="#FFFFFF" d="M357.079,13.734c0.061,0,0.137-0.031,0.211-0.06c0.333-0.136,1.463-0.724,1.749-0.724
			c0.227,0,0.227,0.182,0.227,0.543c0,0.513,0,1.161,0,1.976l0.015,2.397c0.014,1.447-0.015,2.728-0.076,3.392
			c-0.046,0.482-0.122,0.694-0.604,0.799c-0.271,0.06-1.039,0.105-1.205,0.105c-0.06,0-0.12,0.046-0.12,0.151
			c0,0.106,0.09,0.136,0.256,0.136c0.965,0,2.232-0.045,2.579-0.045c0.407,0,1.372,0.045,2.517,0.045
			c0.166,0,0.241-0.029,0.241-0.136c0-0.105-0.074-0.151-0.136-0.151c-0.12,0-0.768-0.045-0.994-0.09
			c-0.482-0.106-0.558-0.331-0.603-0.814c-0.06-0.664-0.06-1.945-0.06-3.392v-2.79c0-2.306,0.09-3.799,0.09-3.92
			c0-0.151-0.045-0.316-0.18-0.316c-0.12,0-0.256,0.105-0.392,0.196c-0.529,0.392-3.423,2.292-3.483,2.321
			c-0.076,0.046-0.151,0.12-0.151,0.211C356.959,13.658,357.034,13.734,357.079,13.734z"/>
            <path fill="#FFFFFF" d="M373.532,19.508c-0.091,0-0.136,0.06-0.18,0.242c-0.182,0.708-0.678,1.221-1.719,1.341
			c-0.558,0.076-2.338,0.091-2.594,0.091h-1.025c-0.076,0-0.105-0.046-0.029-0.106c1.944-1.552,5.185-4.1,5.185-7.026
			c0-1.763-1.13-3.211-3.784-3.211c-1.327,0-2.141,0.271-2.728,0.572c-0.166,0.106-0.182,0.166-0.182,0.302
			c0,0.438,0.076,1.689,0.091,1.825c0.015,0.18,0.06,0.285,0.136,0.285c0.151,0,0.196-0.136,0.196-0.285
			c0-0.393,0.271-1.101,0.633-1.447c0.453-0.422,0.95-0.544,1.598-0.544c0.754,0,2.065,0.484,2.065,2.865
			c0,3.181-3.001,5.533-5.111,7.388c-0.151,0.136-0.302,0.271-0.302,0.392s0.106,0.211,0.211,0.211h5.911
			c0.95,0,1.19-0.045,1.312-0.452c0.15-0.513,0.436-1.916,0.436-2.156C373.652,19.643,373.638,19.508,373.532,19.508z"/>
            <path fill="#FFFFFF" d="M377.863,14.201l0.211-1.839h2.745c1.221,0,1.326,0.392,1.326,0.814c0,0.12,0.031,0.211,0.122,0.211
			c0.105,0,0.15-0.091,0.165-0.182c0.151-0.95,0.196-1.612,0.196-1.93c0-0.225-0.029-0.285-0.151-0.285
			c-0.045,0-0.136,0.045-0.301,0.06c-0.166,0.029-0.422,0.045-0.845,0.045h-3.693c-0.166,0-0.271,0.045-0.287,0.196l-0.347,3.98
			c-0.015,0.197,0.091,0.273,0.271,0.302c1.191,0.166,3.815,1.161,3.815,3.573c0,1.96-1.282,2.759-2.488,2.759
			c-1.056,0-2.051-0.407-2.051-2.019c0-0.166-0.029-0.257-0.136-0.257c-0.09,0-0.136,0.122-0.165,0.271
			c-0.076,0.498-0.06,1.403-0.06,1.9c0,0.316,0.029,0.452,0.287,0.587c0.376,0.182,0.934,0.271,1.417,0.271
			c3.497,0,4.96-2.231,4.96-4.236C382.853,15.799,380.11,14.563,377.863,14.201z"/>
            <path fill="#FFFFFF" d="M402.876,11.05c-0.285,0-1.281,0.045-1.612,0.045c-0.438,0-0.92-0.045-1.418-0.045
			c-0.18,0-0.256,0.029-0.256,0.136c0,0.09,0.136,0.12,0.271,0.151c0.256,0.06,0.316,0.225,0.316,0.376
			c0,0.196-0.06,0.453-0.21,0.784c-0.211,0.467-2.111,3.784-2.262,4.146c-0.241-0.422-2.352-4.057-2.562-4.508
			c-0.106-0.211-0.182-0.392-0.182-0.513c0-0.12,0.076-0.241,0.211-0.271c0.227-0.06,0.331-0.076,0.331-0.165
			c0-0.091-0.076-0.136-0.225-0.136c-0.68,0-1.298,0.045-1.614,0.045c-0.498,0-1.628-0.045-1.899-0.045
			c-0.182,0-0.287,0.045-0.287,0.136c0,0.105,0.105,0.136,0.225,0.136c0.182,0,0.438,0.09,0.633,0.196
			c0.287,0.166,0.664,0.543,1.04,1.101c0.529,0.784,2.548,4.1,2.654,4.342c0.196,0.438,0.347,0.769,0.347,1.583v1.236
			c0,0.242,0,0.874-0.046,1.507c-0.029,0.438-0.165,0.769-0.467,0.829c-0.136,0.031-0.316,0.06-0.527,0.06
			c-0.166,0-0.242,0.046-0.242,0.122c0,0.12,0.12,0.15,0.331,0.15c0.558,0,1.509-0.045,1.885-0.045c0.407,0,1.356,0.045,2.307,0.045
			c0.196,0,0.316-0.045,0.316-0.15c0-0.076-0.076-0.122-0.241-0.122c-0.211,0-0.544-0.029-0.755-0.06
			c-0.452-0.06-0.587-0.392-0.618-0.829c-0.045-0.633-0.045-1.266-0.045-1.507v-1.236c0-0.498,0-0.965,0.227-1.507
			c0.271-0.649,2.382-4.191,2.879-4.795c0.331-0.407,0.498-0.587,0.814-0.738c0.227-0.12,0.513-0.18,0.664-0.18
			c0.165,0,0.285-0.046,0.285-0.151C403.147,11.08,403.042,11.05,402.876,11.05z"/>
            <path fill="#FFFFFF" d="M405.596,22.402c0.392,0,0.889,0.015,1.538,0.031c0.648,0.029,1.447,0.045,2.442,0.045
			c0.498,0,0.618,0,0.709-0.331c0.076-0.257,0.18-1.131,0.18-1.418c0-0.136-0.015-0.301-0.12-0.301c-0.091,0-0.12,0.06-0.151,0.196
			c-0.09,0.527-0.241,0.799-0.573,0.95c-0.346,0.151-0.903,0.166-1.25,0.166c-1.358,0-1.765-0.197-1.794-1.071
			c-0.015-0.376,0-1.463,0-1.899v-1.025c0-0.076,0.014-0.136,0.076-0.136c0.331,0,1.839,0.029,2.079,0.06
			c0.498,0.045,0.664,0.241,0.74,0.497c0.029,0.166,0.029,0.333,0.045,0.468c0,0.06,0.031,0.105,0.12,0.105
			c0.122,0,0.136-0.18,0.136-0.287c0-0.09,0.031-0.603,0.06-0.859c0.076-0.649,0.106-0.86,0.106-0.935s-0.045-0.136-0.106-0.136
			c-0.06,0-0.105,0.076-0.211,0.166c-0.136,0.12-0.316,0.166-0.632,0.196c-0.302,0.031-2.021,0.031-2.323,0.031
			c-0.076,0-0.09-0.06-0.09-0.136v-3.166c0-0.076,0.029-0.122,0.09-0.122c0.271,0,1.854,0.031,2.081,0.06
			c0.664,0.061,0.769,0.242,0.874,0.468c0.076,0.15,0.091,0.376,0.091,0.467c0,0.105,0.015,0.165,0.106,0.165
			c0.105,0,0.136-0.15,0.15-0.211c0.031-0.15,0.061-0.708,0.076-0.843c0.031-0.589,0.106-0.74,0.106-0.829
			c0-0.06-0.015-0.12-0.091-0.12c-0.06,0-0.136,0.045-0.211,0.06c-0.105,0.014-0.316,0.06-0.558,0.076c-0.256,0.014-3.195,0-3.618,0
			c-0.378,0-1.221-0.031-1.914-0.031c-0.197,0-0.302,0.031-0.302,0.12c0,0.091,0.091,0.136,0.227,0.136
			c0.196,0,0.422,0.015,0.527,0.046c0.422,0.12,0.543,0.256,0.573,0.694c0.014,0.407,0.014,0.768,0.014,2.713v2.261
			c0,1.176,0,2.187-0.06,2.73c-0.045,0.376-0.12,0.618-0.392,0.678c-0.12,0.029-0.271,0.045-0.467,0.045
			c-0.166,0-0.211,0.076-0.211,0.136c0,0.091,0.091,0.136,0.256,0.136c0.271,0,0.603-0.014,0.92-0.029
			C405.158,22.418,405.445,22.402,405.596,22.402z"/>
            <path fill="#FFFFFF" d="M422.319,22.311c0-0.09-0.06-0.136-0.18-0.136c-0.151,0-0.302-0.015-0.498-0.045
			c-0.241-0.045-0.618-0.211-1.13-1.372c-0.845-1.945-3.061-7.132-3.378-7.839c-0.136-0.287-0.196-0.408-0.392-0.408
			c-0.136,0-0.241,0.151-0.392,0.513l-3.468,8.006c-0.271,0.649-0.498,1.04-1.101,1.13c-0.12,0-0.271,0.015-0.392,0.015
			c-0.106,0-0.151,0.06-0.151,0.136c0,0.106,0.076,0.136,0.242,0.136c0.692,0,1.401-0.045,1.537-0.045
			c0.422,0,1.04,0.045,1.478,0.045c0.136,0,0.211-0.029,0.211-0.136c0-0.076-0.031-0.136-0.196-0.136h-0.197
			c-0.407,0-0.527-0.136-0.527-0.361c0-0.151,0.06-0.468,0.196-0.784l0.709-1.734c0.031-0.076,0.045-0.091,0.12-0.091h3.121
			c0.06,0,0.105,0.015,0.136,0.091l1.025,2.593c0.06,0.151-0.031,0.271-0.12,0.287c-0.136,0.015-0.166,0.06-0.166,0.136
			c0,0.091,0.151,0.091,0.393,0.106c1.115,0.029,2.079,0.029,2.548,0.029C422.244,22.447,422.319,22.418,422.319,22.311z
			 M417.646,18.498h-2.563c-0.045,0-0.076-0.031-0.045-0.091l1.281-3.197c0.015-0.045,0.031-0.12,0.076-0.12
			c0.031,0,0.046,0.076,0.06,0.12l1.252,3.212C417.721,18.467,417.706,18.498,417.646,18.498z"/>
            <path fill="#FFFFFF" d="M432.258,22.447h1.267c0.166,0,0.256-0.029,0.256-0.136c0-0.06-0.06-0.136-0.165-0.136
			c-0.106,0-0.182,0-0.317-0.029c-0.211-0.046-0.678-0.106-1.417-0.845c-0.8-0.799-1.734-1.96-2.91-3.408
			c1.296-1.039,1.839-1.884,1.839-2.833c0-0.86-0.558-1.509-0.934-1.765c-0.709-0.467-1.674-0.543-2.518-0.543
			c-0.407,0-1.612,0.031-2.065,0.031c-0.271,0-1.115-0.031-1.808-0.031c-0.197,0-0.302,0.031-0.302,0.12
			c0,0.091,0.091,0.136,0.227,0.136c0.196,0,0.422,0.015,0.527,0.046c0.422,0.12,0.543,0.256,0.573,0.694
			c0.014,0.407,0.014,0.768,0.014,2.713v2.261c0,1.176,0,2.187-0.06,2.73c-0.045,0.376-0.12,0.618-0.392,0.678
			c-0.12,0.029-0.271,0.045-0.467,0.045c-0.166,0-0.211,0.076-0.211,0.136c0,0.091,0.091,0.136,0.256,0.136
			c0.529,0,1.372-0.045,1.629-0.045c0.196,0,1.296,0.045,2.065,0.045c0.165,0,0.271-0.045,0.271-0.136
			c0-0.06-0.06-0.136-0.166-0.136c-0.166,0-0.452-0.015-0.649-0.045c-0.407-0.06-0.467-0.302-0.512-0.678
			c-0.06-0.543-0.076-1.538-0.076-2.73v-0.18c0-0.076,0.045-0.105,0.105-0.105l1.191,0.029c0.091,0,0.166,0.015,0.242,0.091
			c0.165,0.196,0.723,1.054,1.252,1.748c0.738,0.996,1.236,1.598,1.808,1.885C431.158,22.372,431.52,22.447,432.258,22.447z
			 M428.279,17.593c-0.227,0.165-0.407,0.211-0.934,0.211c-0.333,0-0.724-0.031-1.011-0.122c-0.09-0.045-0.12-0.09-0.12-0.225
			v-3.815c0-0.105,0.031-0.151,0.12-0.18c0.136-0.031,0.453-0.046,0.784-0.046c0.784,0,2.021,0.468,2.021,2.277
			C429.139,16.749,428.686,17.307,428.279,17.593z"/>
            <path fill="#FFFFFF" d="M440.376,19.688c0-1.161-0.543-2.141-2.291-3.106l-0.544-0.301c-1.19-0.664-1.401-1.116-1.401-1.689
			c0-0.874,0.859-1.372,1.809-1.372c0.859,0,1.281,0.362,1.477,0.603c0.287,0.333,0.347,0.724,0.347,0.845
			c0,0.151,0.045,0.227,0.136,0.227c0.106,0,0.166-0.136,0.166-0.407c0-1.011,0.045-1.372,0.045-1.538
			c0-0.091-0.06-0.136-0.18-0.165c-0.347-0.091-1.025-0.211-1.885-0.211c-1.839,0-3.346,1.01-3.346,2.577
			c0,1.131,0.512,1.99,2.079,2.91l0.769,0.452c1.176,0.694,1.312,1.252,1.312,1.809c0,0.905-0.694,1.629-1.839,1.629
			c-0.829,0-1.825-0.317-2.111-1.267c-0.074-0.227-0.12-0.498-0.12-0.663c0-0.091-0.015-0.211-0.136-0.211
			c-0.105,0-0.165,0.136-0.165,0.331c-0.015,0.211-0.076,1.01-0.076,1.703c0,0.287,0.045,0.347,0.256,0.438
			c0.573,0.256,1.387,0.331,2.156,0.331c0.708,0,1.583-0.076,2.216-0.527C440.015,21.407,440.376,20.639,440.376,19.688z"/>
            <path fill="#FFFFFF" d="M461.258,17.367c0-2.939-2.081-4.794-5.427-4.794c-4.026,0-5.564,2.833-5.564,5.02
			c0,2.277,1.569,5.02,5.428,5.02C459.117,22.613,461.258,20.306,461.258,17.367z M452.227,17.2c0-3.166,1.734-3.949,3.211-3.949
			c2.141,0,3.845,1.748,3.845,4.583c0,3.648-2.112,4.086-3.046,4.086C453.734,21.92,452.227,19.839,452.227,17.2z"/>
            <path fill="#FFFFFF" d="M469.977,12.723c-0.136,0.031-0.301,0.046-0.543,0.061c-0.316,0.014-3.257,0-3.769,0
			c-0.378,0-1.221-0.031-1.9-0.031c-0.211,0-0.316,0.031-0.316,0.12c0,0.091,0.105,0.136,0.227,0.136
			c0.196,0,0.422,0.015,0.527,0.046c0.422,0.105,0.543,0.256,0.573,0.694c0.014,0.407,0.014,0.768,0.014,2.713v2.261
			c0,1.236,0,2.187-0.06,2.73c-0.045,0.376-0.12,0.618-0.392,0.678c-0.12,0.029-0.271,0.045-0.467,0.045
			c-0.151,0-0.196,0.076-0.196,0.136c0,0.106,0.09,0.136,0.271,0.136c0.498,0,1.341-0.045,1.688-0.045
			c0.347,0,1.282,0.045,2.126,0.045c0.197,0,0.287-0.045,0.287-0.136c0-0.06-0.06-0.136-0.225-0.136
			c-0.182,0-0.468-0.015-0.649-0.045c-0.392-0.06-0.482-0.302-0.527-0.678c-0.061-0.543-0.076-1.447-0.076-2.684v-1.056
			c0-0.091,0.029-0.105,0.09-0.105c0.227,0,1.794,0.014,2.127,0.045c0.407,0.029,0.572,0.287,0.632,0.467
			c0.06,0.151,0.091,0.302,0.091,0.392c0,0.091,0.045,0.182,0.12,0.182c0.136,0,0.151-0.182,0.151-0.287
			c0-0.091,0.015-0.678,0.045-0.934c0.046-0.408,0.106-0.755,0.106-0.829c0-0.076-0.031-0.122-0.076-0.122
			c-0.076,0-0.105,0.06-0.18,0.136c-0.122,0.166-0.317,0.211-0.558,0.227c-0.196,0.015-0.378,0.015-0.604,0.015l-1.854,0.015
			c-0.076,0-0.09-0.046-0.09-0.122v-3.106c0-0.15,0.045-0.18,0.12-0.18l2.201,0.045c0.498,0.015,0.754,0.211,0.845,0.393
			c0.09,0.18,0.076,0.376,0.076,0.482c0,0.151,0.076,0.211,0.165,0.211c0.091,0,0.122-0.151,0.136-0.257
			c0.015-0.15,0.046-0.905,0.06-1.04c0.046-0.331,0.106-0.482,0.106-0.572c0-0.06-0.045-0.12-0.091-0.12
			C470.113,12.648,470.053,12.709,469.977,12.723z"/>
            <path fill="#FFFFFF" d="M241.588,29.892c-4.523,0-6.226,3.331-6.226,5.91c0,2.668,1.749,5.91,6.076,5.91
			c3.829,0,6.241-2.728,6.241-6.181S245.342,29.892,241.588,29.892z M242.071,40.958c-2.895,0-4.628-2.488-4.628-5.623
			c0-3.755,1.975-4.719,3.709-4.719c2.472,0,4.417,2.096,4.417,5.473C245.569,40.446,243.127,40.958,242.071,40.958z"/>
            <path fill="#FFFFFF" d="M253.385,31.807c-0.603,0-1.658,0.031-2.201,0.031c-0.377,0-1.221-0.031-1.915-0.031
			c-0.196,0-0.301,0.031-0.301,0.12c0,0.091,0.09,0.136,0.226,0.136c0.196,0,0.422,0.015,0.528,0.046
			c0.422,0.12,0.543,0.256,0.573,0.694c0.015,0.407,0.015,0.768,0.015,2.713v2.261c0,1.176,0,2.187-0.06,2.73
			c-0.045,0.376-0.121,0.618-0.392,0.678c-0.12,0.031-0.271,0.045-0.467,0.045c-0.166,0-0.211,0.076-0.211,0.136
			c0,0.091,0.09,0.136,0.256,0.136c0.528,0,1.372-0.045,1.674-0.045c0.347,0,1.282,0.045,2.171,0.045
			c0.136,0,0.241-0.045,0.241-0.136c0-0.06-0.06-0.136-0.211-0.136c-0.196,0-0.482-0.014-0.678-0.045
			c-0.392-0.06-0.468-0.302-0.513-0.663c-0.06-0.558-0.06-1.569-0.06-2.745v-5.08c0-0.136,0.03-0.211,0.106-0.241
			c0.121-0.046,0.377-0.061,0.573-0.061c0.301,0,0.844,0.061,1.326,0.482c0.739,0.633,0.784,1.478,0.784,1.9
			c0,1.312-1.04,2.081-1.779,2.081c-0.287,0-0.437,0.06-0.437,0.165c0,0.091,0.09,0.136,0.166,0.136
			c0.06,0.015,0.331,0.015,0.392,0.015c1.885,0,3.332-1.296,3.332-3.106c0-0.694-0.377-1.266-0.664-1.537
			C255.646,32.349,255.044,31.807,253.385,31.807z"/>
            <path fill="#FFFFFF" d="M262.6,31.807c-0.603,0-1.658,0.031-2.2,0.031c-0.377,0-1.221-0.031-1.915-0.031
			c-0.196,0-0.301,0.031-0.301,0.12c0,0.091,0.09,0.136,0.226,0.136c0.196,0,0.422,0.015,0.528,0.046
			c0.422,0.12,0.543,0.256,0.573,0.694c0.015,0.407,0.015,0.768,0.015,2.713v2.261c0,1.176,0,2.187-0.06,2.73
			c-0.045,0.376-0.121,0.618-0.392,0.678c-0.12,0.031-0.271,0.045-0.467,0.045c-0.166,0-0.211,0.076-0.211,0.136
			c0,0.091,0.09,0.136,0.256,0.136c0.528,0,1.372-0.045,1.674-0.045c0.347,0,1.282,0.045,2.171,0.045
			c0.136,0,0.241-0.045,0.241-0.136c0-0.06-0.06-0.136-0.211-0.136c-0.196,0-0.482-0.014-0.678-0.045
			c-0.392-0.06-0.467-0.302-0.512-0.663c-0.06-0.558-0.06-1.569-0.06-2.745v-5.08c0-0.136,0.029-0.211,0.105-0.241
			c0.12-0.046,0.378-0.061,0.573-0.061c0.301,0,0.845,0.061,1.327,0.482c0.738,0.633,0.783,1.478,0.783,1.9
			c0,1.312-1.04,2.081-1.779,2.081c-0.287,0-0.438,0.06-0.438,0.165c0,0.091,0.091,0.136,0.166,0.136
			c0.06,0.015,0.331,0.015,0.392,0.015c1.885,0,3.332-1.296,3.332-3.106c0-0.694-0.378-1.266-0.664-1.537
			C264.863,32.349,264.259,31.807,262.6,31.807z"/>
            <path fill="#FFFFFF" d="M273.009,31.626c-4.026,0-5.564,2.835-5.564,5.02c0,2.277,1.569,5.02,5.428,5.02
			c3.422,0,5.563-2.307,5.563-5.247S276.356,31.626,273.009,31.626z M273.416,40.973c-2.503,0-4.011-2.081-4.011-4.719
			c0-3.166,1.734-3.949,3.211-3.949c2.141,0,3.845,1.748,3.845,4.583C276.462,40.535,274.35,40.973,273.416,40.973z"/>
            <path fill="#FFFFFF" d="M290.384,41.229c-0.106,0-0.182,0-0.317-0.029c-0.211-0.046-0.678-0.106-1.417-0.845
			c-0.8-0.799-1.734-1.96-2.91-3.408c1.296-1.04,1.839-1.884,1.839-2.833c0-0.86-0.558-1.509-0.934-1.765
			c-0.709-0.467-1.674-0.543-2.518-0.543c-0.407,0-1.612,0.031-2.065,0.031c-0.271,0-1.115-0.031-1.808-0.031
			c-0.197,0-0.302,0.031-0.302,0.12c0,0.091,0.091,0.136,0.227,0.136c0.196,0,0.422,0.015,0.527,0.046
			c0.422,0.12,0.543,0.256,0.573,0.694c0.014,0.407,0.014,0.768,0.014,2.713v2.261c0,1.176,0,2.187-0.06,2.73
			c-0.045,0.376-0.12,0.618-0.392,0.678c-0.12,0.031-0.271,0.045-0.467,0.045c-0.166,0-0.211,0.076-0.211,0.136
			c0,0.091,0.091,0.136,0.256,0.136c0.529,0,1.372-0.045,1.629-0.045c0.196,0,1.296,0.045,2.065,0.045
			c0.165,0,0.271-0.045,0.271-0.136c0-0.06-0.06-0.136-0.166-0.136c-0.166,0-0.452-0.014-0.649-0.045
			c-0.407-0.06-0.467-0.302-0.512-0.678c-0.06-0.543-0.076-1.538-0.076-2.73v-0.18c0-0.076,0.045-0.105,0.105-0.105l1.191,0.029
			c0.091,0,0.166,0.015,0.242,0.091c0.165,0.196,0.723,1.054,1.252,1.748c0.738,0.996,1.236,1.598,1.808,1.885
			c0.347,0.18,0.709,0.256,1.447,0.256h1.267c0.166,0,0.256-0.029,0.256-0.136C290.549,41.305,290.489,41.229,290.384,41.229z
			 M285.046,36.647c-0.227,0.165-0.407,0.211-0.934,0.211c-0.333,0-0.724-0.031-1.011-0.122c-0.09-0.045-0.12-0.09-0.12-0.225
			v-3.815c0-0.105,0.031-0.151,0.12-0.18c0.136-0.031,0.453-0.046,0.784-0.046c0.784,0,2.021,0.468,2.021,2.277
			C285.906,35.802,285.453,36.36,285.046,36.647z"/>
            <path fill="#FFFFFF" d="M298.439,31.716c-0.045,0-0.151,0.031-0.362,0.06c-0.196,0.031-0.482,0.061-0.905,0.061h-5.382
			c-0.436,0-0.934-0.015-1.326-0.061c-0.331-0.045-0.468-0.15-0.573-0.15c-0.076,0-0.12,0.076-0.151,0.241
			c-0.029,0.106-0.287,1.342-0.287,1.554c0,0.136,0.031,0.211,0.122,0.211c0.09,0,0.12-0.061,0.15-0.166
			c0.031-0.091,0.091-0.256,0.227-0.438c0.196-0.287,0.513-0.376,1.282-0.392l1.975-0.045v5.185c0,1.176,0,2.187-0.06,2.73
			c-0.046,0.376-0.12,0.618-0.393,0.678c-0.105,0.031-0.271,0.045-0.467,0.045c-0.165,0-0.211,0.076-0.211,0.136
			c0,0.091,0.091,0.136,0.257,0.136c0.527,0,1.432-0.045,1.733-0.045c0.378,0,1.267,0.045,2.141,0.045
			c0.151,0,0.257-0.045,0.257-0.136c0-0.06-0.06-0.136-0.211-0.136c-0.196,0-0.498-0.014-0.678-0.045
			c-0.393-0.06-0.468-0.302-0.513-0.663c-0.06-0.558-0.076-1.569-0.076-2.745v-5.185l1.674,0.029
			c1.191,0.015,1.538,0.407,1.568,0.738l0.015,0.137c0.015,0.196,0.045,0.256,0.151,0.256c0.076,0,0.105-0.076,0.12-0.211
			c0-0.331,0.029-1.282,0.029-1.554C298.544,31.791,298.53,31.716,298.439,31.716z"/>
            <path fill="#FFFFFF" d="M309.962,31.807c-0.513,0-1.403,0.031-1.554,0.031c-0.014,0-0.905-0.031-1.583-0.031
			c-0.18,0-0.271,0.031-0.271,0.12c0,0.091,0.076,0.136,0.227,0.136c0.151,0,0.378,0.015,0.482,0.046
			c0.422,0.12,0.527,0.256,0.558,0.694c0.015,0.407,0.029,0.768,0.029,2.713v1.614c0,1.312-0.029,2.428-0.768,3.121
			c-0.529,0.512-1.207,0.678-1.78,0.678c-0.452,0-1.085-0.046-1.673-0.513c-0.649-0.512-1.011-1.236-1.011-3.106v-1.794
			c0-1.945,0-2.306,0.031-2.713c0.029-0.453,0.136-0.633,0.482-0.694c0.166-0.031,0.241-0.046,0.392-0.046
			c0.136,0,0.211-0.045,0.211-0.136c0-0.09-0.091-0.12-0.287-0.12c-0.482,0-1.372,0.031-1.703,0.031
			c-0.392,0-1.281-0.031-1.989-0.031c-0.196,0-0.287,0.031-0.287,0.12c0,0.091,0.076,0.136,0.227,0.136
			c0.18,0,0.407,0.015,0.511,0.046c0.422,0.12,0.543,0.241,0.573,0.694c0.031,0.407,0.015,0.768,0.015,2.713V37.4
			c0,1.854,0.527,2.804,1.205,3.392c0.965,0.843,2.337,0.874,3.03,0.874c0.86,0,1.87-0.136,2.805-0.92
			c1.115-0.919,1.266-2.426,1.266-3.86v-1.372c0-1.945,0.015-2.306,0.031-2.713c0.029-0.453,0.12-0.633,0.482-0.694
			c0.165-0.031,0.241-0.046,0.392-0.046s0.227-0.045,0.227-0.136C310.234,31.837,310.143,31.807,309.962,31.807z"/>
            <path fill="#FFFFFF" d="M322.33,31.807c-0.649,0-1.147,0.031-1.296,0.031c-0.287,0-0.996-0.031-1.689-0.031
			c-0.196,0-0.331,0.015-0.331,0.12c0,0.076,0.045,0.136,0.211,0.136c0.18,0,0.498,0,0.694,0.076
			c0.316,0.12,0.436,0.347,0.452,1.131l0.136,5.698h-0.06c-0.196-0.18-1.959-1.99-2.864-2.879c-1.93-1.885-3.92-3.92-4.086-4.086
			c-0.227-0.227-0.407-0.422-0.573-0.422c-0.136,0-0.225,0.182-0.225,0.438l-0.122,7.599c-0.014,1.115-0.06,1.461-0.407,1.552
			c-0.18,0.046-0.422,0.06-0.603,0.06c-0.12,0-0.211,0.06-0.211,0.136c0,0.122,0.12,0.136,0.302,0.136
			c0.678,0,1.312-0.045,1.432-0.045c0.241,0,0.859,0.045,1.719,0.045c0.18,0,0.302-0.029,0.302-0.136
			c0-0.076-0.076-0.136-0.227-0.136c-0.211,0-0.467-0.014-0.694-0.09c-0.256-0.091-0.422-0.393-0.453-1.387l-0.15-5.231h0.045
			c0.256,0.225,1.658,1.779,3.106,3.166c1.387,1.341,3.046,2.924,3.875,3.693c0.136,0.136,0.316,0.271,0.543,0.271
			c0.105,0,0.211-0.12,0.211-0.407l0.151-8.081c0.014-0.723,0.12-0.95,0.482-1.054c0.165-0.046,0.271-0.046,0.407-0.046
			c0.15,0,0.225-0.06,0.225-0.136C322.631,31.822,322.511,31.807,322.33,31.807z"/>
            <path fill="#FFFFFF" d="M329.014,41.229c-0.196,0-0.497-0.014-0.678-0.045c-0.392-0.06-0.482-0.256-0.527-0.603
			c-0.06-0.543-0.06-1.569-0.06-2.805v-2.261c0-1.945,0-2.306,0.029-2.713c0.031-0.453,0.136-0.633,0.498-0.694
			c0.151-0.031,0.256-0.046,0.392-0.046s0.211-0.029,0.211-0.151c0-0.074-0.105-0.105-0.271-0.105c-0.512,0-1.372,0.031-1.703,0.031
			c-0.378,0-1.281-0.031-1.779-0.031c-0.211,0-0.317,0.031-0.317,0.105c0,0.122,0.076,0.151,0.211,0.151
			c0.166,0,0.331,0.015,0.482,0.06c0.287,0.091,0.422,0.242,0.453,0.68c0.015,0.407,0.015,0.768,0.015,2.713v2.261
			c0,1.236,0,2.262-0.061,2.79c-0.045,0.376-0.12,0.558-0.392,0.618c-0.12,0.031-0.271,0.045-0.467,0.045
			c-0.166,0-0.211,0.076-0.211,0.136c0,0.091,0.091,0.136,0.256,0.136c0.529,0,1.432-0.045,1.734-0.045
			c0.362,0,1.267,0.045,2.141,0.045c0.151,0,0.256-0.045,0.256-0.136C329.225,41.305,329.165,41.229,329.014,41.229z"/>
            <path fill="#FFFFFF" d="M339.481,31.716c-0.045,0-0.151,0.031-0.362,0.06c-0.196,0.031-0.482,0.061-0.905,0.061h-5.382
			c-0.436,0-0.934-0.015-1.326-0.061c-0.331-0.045-0.468-0.15-0.573-0.15c-0.076,0-0.12,0.076-0.151,0.241
			c-0.029,0.106-0.287,1.342-0.287,1.554c0,0.136,0.031,0.211,0.122,0.211c0.09,0,0.12-0.061,0.15-0.166
			c0.031-0.091,0.091-0.256,0.227-0.438c0.196-0.287,0.513-0.376,1.282-0.392l1.975-0.045v5.185c0,1.176,0,2.187-0.06,2.73
			c-0.046,0.376-0.12,0.618-0.393,0.678c-0.105,0.031-0.271,0.045-0.467,0.045c-0.165,0-0.211,0.076-0.211,0.136
			c0,0.091,0.091,0.136,0.257,0.136c0.527,0,1.432-0.045,1.733-0.045c0.378,0,1.267,0.045,2.141,0.045
			c0.151,0,0.257-0.045,0.257-0.136c0-0.06-0.06-0.136-0.211-0.136c-0.196,0-0.498-0.014-0.678-0.045
			c-0.393-0.06-0.468-0.302-0.513-0.663c-0.06-0.558-0.076-1.569-0.076-2.745v-5.185l1.674,0.029
			c1.191,0.015,1.538,0.407,1.568,0.738l0.015,0.137c0.015,0.196,0.045,0.256,0.151,0.256c0.076,0,0.105-0.076,0.12-0.211
			c0-0.331,0.029-1.282,0.029-1.554C339.586,31.791,339.572,31.716,339.481,31.716z"/>
            <path fill="#FFFFFF" d="M349.724,31.807c-0.257,0-1.131,0.031-1.418,0.031c-0.392,0-0.859-0.031-1.296-0.031
			c-0.151,0-0.227,0.031-0.227,0.12c0,0.106,0.12,0.12,0.242,0.151c0.225,0.045,0.285,0.166,0.285,0.287
			c0,0.166-0.06,0.392-0.196,0.678c-0.196,0.392-1.808,3.137-1.975,3.437c-0.227-0.362-1.961-3.362-2.201-3.753
			c-0.106-0.182-0.166-0.333-0.166-0.438s0.076-0.166,0.182-0.196c0.211-0.06,0.301-0.06,0.301-0.166c0-0.09-0.076-0.12-0.196-0.12
			c-0.603,0-1.221,0.031-1.507,0.031c-0.438,0-1.432-0.031-1.658-0.031c-0.165,0-0.256,0.031-0.256,0.12
			c0,0.091,0.091,0.136,0.196,0.136c0.166,0,0.392,0.076,0.558,0.166c0.256,0.136,0.527,0.438,0.859,0.905
			c0.468,0.678,2.277,3.497,2.367,3.693c0.18,0.378,0.302,0.649,0.302,1.342v1.054c0,0.211,0,0.74-0.046,1.282
			c-0.029,0.376-0.136,0.618-0.407,0.678c-0.12,0.031-0.287,0.045-0.467,0.045c-0.151,0-0.211,0.076-0.211,0.136
			c0,0.106,0.106,0.136,0.287,0.136c0.498,0,1.387-0.045,1.719-0.045c0.362,0,1.252,0.045,2.081,0.045
			c0.18,0,0.287-0.045,0.287-0.136c0-0.06-0.076-0.136-0.227-0.136c-0.18,0-0.467-0.014-0.663-0.045
			c-0.393-0.06-0.513-0.302-0.544-0.678c-0.029-0.543-0.029-1.071-0.029-1.282v-1.025c0-0.422-0.031-0.814,0.166-1.281
			c0.241-0.543,2.14-3.588,2.577-4.101c0.287-0.347,0.407-0.467,0.694-0.603c0.196-0.091,0.438-0.151,0.573-0.151
			c0.151,0,0.256-0.06,0.256-0.151C349.964,31.837,349.873,31.807,349.724,31.807z"/>
            <path fill="#FFFFFF" d="M368.247,41.229c-0.302,0-1.131-0.241-1.614-0.527c-0.407-0.242-1.085-0.649-2.096-1.478
			c0.86-1.01,1.478-2.412,1.478-3.573c0-0.18-0.227-0.271-0.513-0.301c-0.843-0.091-1.446-0.106-1.808-0.106
			c-0.122,0-0.242,0.031-0.242,0.151c0,0.091,0.091,0.12,0.182,0.12c0.225,0,0.543,0.046,0.738,0.227
			c0.227,0.196,0.287,0.467,0.287,0.694c0,0.92-0.422,1.899-0.724,2.321c-0.287-0.256-2.141-1.93-2.653-2.517
			c-1.207-1.342-2.503-2.548-2.503-3.966c0-1.281,0.98-1.719,1.614-1.719c0.843,0,1.372,0.317,1.673,0.678
			c0.333,0.393,0.438,0.875,0.438,1.267c0,0.227,0.015,0.287,0.105,0.287c0.091,0,0.151-0.031,0.182-0.256
			c0.045-0.227,0.165-1.433,0.165-1.93c0-0.182,0-0.302-0.256-0.393c-0.407-0.165-1.085-0.316-1.824-0.316
			c-2.623,0-3.679,1.583-3.664,2.774c0.015,0.678,0.136,1.296,0.769,2.14c-0.905,0.438-2.458,1.809-2.458,3.574
			c0,1.312,0.965,3.331,4.191,3.331c2.067,0,3.076-0.919,3.574-1.372c1.296,0.996,1.839,1.161,3.558,1.161h1.161
			c0.331,0,0.453-0.045,0.453-0.136C368.458,41.244,368.383,41.229,368.247,41.229z M360.226,40.762
			c-1.568,0-2.895-1.205-2.895-3.09c0-1.207,0.527-1.914,1.04-2.292c0.256,0.378,1.221,1.463,1.614,1.885
			c0.392,0.422,1.839,1.839,2.713,2.593C362.382,40.159,361.387,40.762,360.226,40.762z"/>
            <path fill="#FFFFFF" d="M381.045,39.21c-0.106,0-0.137,0.06-0.166,0.225c-0.106,0.618-0.287,0.935-0.678,1.116
			c-0.393,0.18-1.025,0.18-1.418,0.18c-1.537,0-1.779-0.225-1.808-1.266c-0.015-0.438,0-1.825,0-2.337v-1.191
			c0-0.091,0.014-0.151,0.09-0.151c0.362,0,1.854,0.015,2.141,0.046c0.558,0.06,0.769,0.285,0.845,0.587
			c0.045,0.196,0.045,0.392,0.06,0.543c0,0.076,0.031,0.136,0.136,0.136c0.136,0,0.136-0.165,0.136-0.287
			c0-0.105,0.045-0.708,0.06-1.01c0.06-0.769,0.12-1.01,0.12-1.101s-0.045-0.12-0.105-0.12c-0.076,0-0.136,0.076-0.241,0.196
			c-0.136,0.151-0.362,0.196-0.724,0.227c-0.347,0.029-2.081,0.029-2.412,0.029c-0.091,0-0.105-0.06-0.105-0.165v-3.815
			c0-0.106,0.029-0.151,0.105-0.151c0.302,0,1.885,0.031,2.141,0.06c0.754,0.091,0.905,0.271,1.01,0.543
			c0.076,0.182,0.091,0.438,0.091,0.543c0,0.137,0.031,0.211,0.136,0.211c0.105,0,0.136-0.09,0.151-0.165
			c0.029-0.182,0.06-0.845,0.076-0.996c0.045-0.694,0.12-0.874,0.12-0.98c0-0.074-0.015-0.136-0.091-0.136s-0.165,0.046-0.241,0.061
			c-0.12,0.029-0.362,0.06-0.649,0.09c-0.287,0.015-3.286,0.015-3.769,0.015c-0.211,0-0.558-0.015-0.95-0.031
			c-0.378,0-0.814-0.014-1.222-0.014c-0.225,0-0.331,0.029-0.331,0.136c0,0.105,0.091,0.136,0.256,0.136
			c0.211,0,0.468,0.015,0.589,0.045c0.498,0.106,0.618,0.347,0.649,0.86c0.029,0.482,0.029,0.905,0.029,3.195v2.654
			c0,1.387,0,2.577-0.076,3.211c-0.06,0.438-0.136,0.769-0.436,0.829c-0.136,0.031-0.317,0.06-0.544,0.06
			c-0.18,0-0.241,0.046-0.241,0.122c0,0.105,0.105,0.15,0.302,0.15c0.301,0,0.692-0.029,1.039-0.029
			c0.362-0.015,0.694-0.015,0.86-0.015c0.452,0,0.92,0.015,1.568,0.045c0.649,0.015,1.478,0.046,2.608,0.046
			c0.573,0,0.709,0,0.815-0.393c0.076-0.301,0.196-1.326,0.196-1.673C381.166,39.33,381.166,39.21,381.045,39.21z"/>
            <path fill="#FFFFFF" d="M392.507,41.229c-0.12,0-0.331-0.014-0.512-0.076c-0.287-0.09-0.498-0.225-0.724-0.512
			c-0.331-0.407-2.533-3.89-2.955-4.524l2.201-3c0.407-0.558,0.649-0.905,0.95-0.98c0.182-0.045,0.347-0.076,0.482-0.076
			c0.136,0,0.211-0.06,0.211-0.136c0-0.09-0.09-0.12-0.241-0.12c-0.498,0-1.04,0.031-1.296,0.031c-0.257,0-0.875-0.031-1.387-0.031
			c-0.196,0-0.287,0.031-0.287,0.12c0,0.091,0.091,0.136,0.165,0.136c0.106,0,0.287,0,0.422,0.046
			c0.136,0.029,0.227,0.12,0.227,0.211c0,0.105-0.045,0.285-0.151,0.467c-0.225,0.362-1.401,2.095-1.794,2.668
			c-0.527-0.874-1.07-1.763-1.658-2.788c-0.076-0.136-0.136-0.302-0.136-0.378c0-0.076,0.06-0.151,0.182-0.18
			c0.105-0.031,0.241-0.046,0.316-0.046c0.12,0,0.211-0.045,0.211-0.136c0-0.09-0.091-0.12-0.271-0.12
			c-0.498,0-1.312,0.031-1.492,0.031c-0.633,0-1.705-0.031-2.021-0.031c-0.166,0-0.271,0.031-0.271,0.105
			c0,0.091,0.06,0.151,0.136,0.151c0.136,0,0.347,0.031,0.558,0.091c0.467,0.151,0.738,0.422,1.07,0.934l2.337,3.648l-2.593,3.499
			c-0.452,0.618-0.663,0.829-1.056,0.934c-0.196,0.046-0.392,0.06-0.482,0.06c-0.105,0-0.18,0.076-0.18,0.151
			c0,0.076,0.06,0.12,0.196,0.12h0.227c0.211,0,0.859-0.045,1.116-0.045c0.331,0,1.205,0.045,1.281,0.045h0.242
			c0.18,0,0.271-0.029,0.271-0.12c0-0.076-0.091-0.151-0.166-0.151c-0.105,0-0.211-0.014-0.287-0.014
			c-0.12,0-0.241-0.076-0.256-0.197c-0.015-0.136,0.06-0.331,0.196-0.543l1.945-3.015c0.603,0.98,1.327,2.186,2.095,3.437
			c0.106,0.166,0.015,0.256-0.045,0.271c-0.12,0.031-0.18,0.091-0.18,0.166c0,0.09,0.12,0.12,0.467,0.136
			c1.085,0.029,2.141,0.029,2.457,0.029h0.393c0.15,0,0.256-0.045,0.256-0.136C392.674,41.289,392.598,41.229,392.507,41.229z"/>
            <path fill="#FFFFFF" d="M402.434,39.074c-0.106,0-0.136,0.06-0.166,0.256c-0.045,0.241-0.227,0.603-0.452,0.859
			c-0.529,0.589-1.176,0.68-2.352,0.68c-1.78,0-4.131-1.447-4.131-4.493c0-1.252,0.241-2.488,1.221-3.332
			c0.603-0.512,1.341-0.723,2.503-0.723c1.221,0,2.11,0.316,2.562,0.754c0.333,0.331,0.498,0.783,0.513,1.19
			c0,0.166,0.031,0.271,0.136,0.271c0.12,0,0.166-0.136,0.18-0.316c0.015-0.256,0.015-0.965,0.046-1.387
			c0.029-0.452,0.06-0.603,0.06-0.709c0-0.076-0.046-0.136-0.196-0.15c-0.393-0.046-0.829-0.136-1.327-0.211
			c-0.603-0.076-1.101-0.136-1.93-0.136c-1.975,0-3.241,0.512-4.206,1.356c-1.267,1.131-1.552,2.639-1.552,3.513
			c0,1.236,0.345,2.684,1.657,3.784c1.207,1.01,2.745,1.387,4.553,1.387c0.86,0,1.87-0.076,2.398-0.287
			c0.225-0.091,0.285-0.151,0.347-0.376c0.136-0.438,0.285-1.554,0.285-1.705C402.584,39.194,402.524,39.074,402.434,39.074z"/>
            <path fill="#FFFFFF" d="M411.197,39.677c-0.09,0.527-0.241,0.799-0.573,0.95c-0.346,0.151-0.903,0.166-1.25,0.166
			c-1.358,0-1.765-0.197-1.794-1.071c-0.015-0.376,0-1.463,0-1.899v-1.025c0-0.076,0.014-0.136,0.076-0.136
			c0.331,0,1.839,0.029,2.079,0.06c0.498,0.045,0.664,0.241,0.74,0.497c0.029,0.166,0.029,0.333,0.045,0.468
			c0,0.06,0.031,0.105,0.12,0.105c0.122,0,0.136-0.18,0.136-0.287c0-0.09,0.031-0.603,0.06-0.859
			c0.076-0.649,0.106-0.86,0.106-0.935c0-0.076-0.045-0.136-0.106-0.136c-0.06,0-0.105,0.076-0.211,0.166
			c-0.136,0.12-0.316,0.165-0.632,0.196c-0.302,0.031-2.021,0.031-2.323,0.031c-0.076,0-0.09-0.061-0.09-0.136v-3.166
			c0-0.076,0.029-0.122,0.09-0.122c0.271,0,1.854,0.031,2.081,0.06c0.664,0.061,0.769,0.242,0.874,0.468
			c0.076,0.15,0.091,0.376,0.091,0.467c0,0.105,0.015,0.165,0.106,0.165c0.105,0,0.136-0.15,0.15-0.21
			c0.031-0.151,0.061-0.709,0.076-0.845c0.031-0.589,0.106-0.74,0.106-0.829c0-0.06-0.015-0.12-0.091-0.12
			c-0.06,0-0.136,0.045-0.211,0.06c-0.105,0.014-0.316,0.06-0.558,0.076c-0.256,0.014-3.195,0-3.618,0
			c-0.378,0-1.221-0.031-1.914-0.031c-0.197,0-0.302,0.031-0.302,0.12c0,0.091,0.091,0.136,0.227,0.136
			c0.196,0,0.422,0.015,0.527,0.046c0.422,0.12,0.543,0.256,0.573,0.694c0.014,0.407,0.014,0.768,0.014,2.713v2.261
			c0,1.176,0,2.187-0.06,2.73c-0.045,0.376-0.12,0.618-0.392,0.678c-0.12,0.031-0.271,0.045-0.467,0.045
			c-0.166,0-0.211,0.076-0.211,0.136c0,0.091,0.091,0.136,0.256,0.136c0.271,0,0.603-0.014,0.92-0.029
			c0.316,0,0.603-0.015,0.754-0.015c0.392,0,0.889,0.015,1.538,0.031c0.648,0.029,1.447,0.045,2.442,0.045
			c0.498,0,0.618,0,0.709-0.331c0.076-0.257,0.18-1.131,0.18-1.418c0-0.136-0.015-0.301-0.12-0.301
			C411.257,39.481,411.228,39.541,411.197,39.677z"/>
            <path fill="#FFFFFF" d="M420.428,39.421c-0.105,0-0.136,0.074-0.15,0.196c-0.031,0.241-0.166,0.603-0.333,0.769
			c-0.331,0.346-0.843,0.361-1.552,0.361c-1.025,0-1.538-0.076-1.763-0.271c-0.287-0.241-0.287-1.054-0.287-2.699v-2.261
			c0-1.945,0-2.306,0.029-2.713c0.031-0.453,0.136-0.633,0.498-0.694c0.151-0.031,0.362-0.046,0.513-0.046
			c0.165,0,0.241-0.045,0.241-0.136c0-0.09-0.091-0.12-0.287-0.12c-0.512,0-1.598,0.031-1.914,0.031
			c-0.362,0-1.205-0.031-1.825-0.031c-0.196,0-0.285,0.031-0.285,0.12c0,0.091,0.076,0.136,0.225,0.136
			c0.166,0,0.333,0.015,0.438,0.046c0.422,0.12,0.543,0.256,0.573,0.694c0.014,0.407,0.014,0.768,0.014,2.713v2.261
			c0,1.176,0,2.187-0.06,2.73c-0.045,0.376-0.12,0.618-0.392,0.678c-0.12,0.031-0.271,0.045-0.467,0.045
			c-0.166,0-0.211,0.076-0.211,0.136c0,0.091,0.091,0.136,0.256,0.136c0.271,0,0.603-0.014,0.92-0.029
			c0.316,0,0.603-0.015,0.754-0.015c0.543,0,1.101,0.015,1.763,0.031c0.664,0.029,1.433,0.045,2.383,0.045
			c0.694,0,0.754-0.06,0.843-0.347c0.106-0.378,0.197-1.327,0.197-1.478C420.549,39.557,420.519,39.421,420.428,39.421z"/>
            <path fill="#FFFFFF" d="M429.131,39.421c-0.105,0-0.136,0.074-0.15,0.196c-0.031,0.241-0.166,0.603-0.333,0.769
			c-0.331,0.346-0.843,0.361-1.552,0.361c-1.025,0-1.538-0.076-1.763-0.271c-0.287-0.241-0.287-1.054-0.287-2.699v-2.261
			c0-1.945,0-2.306,0.029-2.713c0.031-0.453,0.136-0.633,0.498-0.694c0.151-0.031,0.362-0.046,0.513-0.046
			c0.165,0,0.241-0.045,0.241-0.136c0-0.09-0.091-0.12-0.287-0.12c-0.512,0-1.598,0.031-1.914,0.031
			c-0.362,0-1.205-0.031-1.824-0.031c-0.197,0-0.287,0.031-0.287,0.12c0,0.091,0.076,0.136,0.225,0.136
			c0.166,0,0.333,0.015,0.438,0.046c0.422,0.12,0.543,0.256,0.573,0.694c0.015,0.407,0.015,0.768,0.015,2.713v2.261
			c0,1.176,0,2.187-0.061,2.73c-0.045,0.376-0.12,0.618-0.392,0.678c-0.12,0.031-0.271,0.045-0.467,0.045
			c-0.166,0-0.211,0.076-0.211,0.136c0,0.091,0.091,0.136,0.256,0.136c0.271,0,0.603-0.014,0.92-0.029
			c0.316,0,0.603-0.015,0.754-0.015c0.543,0,1.101,0.015,1.763,0.031c0.664,0.029,1.433,0.045,2.383,0.045
			c0.694,0,0.754-0.06,0.845-0.347c0.105-0.378,0.196-1.327,0.196-1.478C429.253,39.557,429.222,39.421,429.131,39.421z"/>
            <path fill="#FFFFFF" d="M437.366,39.677c-0.091,0.527-0.241,0.799-0.572,0.95c-0.347,0.151-0.905,0.166-1.252,0.166
			c-1.358,0-1.765-0.197-1.794-1.071c-0.015-0.376,0-1.463,0-1.899v-1.025c0-0.076,0.014-0.136,0.076-0.136
			c0.331,0,1.839,0.029,2.079,0.06c0.498,0.045,0.664,0.241,0.74,0.497c0.029,0.166,0.029,0.333,0.045,0.468
			c0,0.06,0.031,0.105,0.12,0.105c0.122,0,0.136-0.18,0.136-0.287c0-0.09,0.031-0.603,0.06-0.859
			c0.076-0.649,0.106-0.86,0.106-0.935c0-0.076-0.045-0.136-0.106-0.136c-0.06,0-0.105,0.076-0.21,0.166
			c-0.137,0.12-0.317,0.165-0.633,0.196c-0.302,0.031-2.021,0.031-2.323,0.031c-0.076,0-0.09-0.061-0.09-0.136v-3.166
			c0-0.076,0.029-0.122,0.09-0.122c0.271,0,1.854,0.031,2.081,0.06c0.664,0.061,0.769,0.242,0.875,0.468
			c0.074,0.15,0.09,0.376,0.09,0.467c0,0.105,0.015,0.165,0.106,0.165c0.105,0,0.136-0.15,0.15-0.21
			c0.031-0.151,0.061-0.709,0.076-0.845c0.031-0.589,0.106-0.74,0.106-0.829c0-0.06-0.015-0.12-0.091-0.12
			c-0.06,0-0.136,0.045-0.211,0.06c-0.105,0.014-0.316,0.06-0.558,0.076c-0.256,0.014-3.195,0-3.618,0
			c-0.378,0-1.221-0.031-1.914-0.031c-0.197,0-0.302,0.031-0.302,0.12c0,0.091,0.091,0.136,0.227,0.136
			c0.196,0,0.422,0.015,0.527,0.046c0.422,0.12,0.543,0.256,0.573,0.694c0.015,0.407,0.015,0.768,0.015,2.713v2.261
			c0,1.176,0,2.187-0.061,2.73c-0.045,0.376-0.12,0.618-0.392,0.678c-0.12,0.031-0.271,0.045-0.467,0.045
			c-0.166,0-0.211,0.076-0.211,0.136c0,0.091,0.091,0.136,0.256,0.136c0.271,0,0.603-0.014,0.92-0.029
			c0.316,0,0.603-0.015,0.754-0.015c0.392,0,0.889,0.015,1.538,0.031c0.648,0.029,1.447,0.045,2.442,0.045
			c0.498,0,0.618,0,0.709-0.331c0.076-0.257,0.18-1.131,0.18-1.418c0-0.136-0.015-0.301-0.12-0.301
			C437.426,39.481,437.396,39.541,437.366,39.677z"/>
            <path fill="#FFFFFF" d="M450.156,31.807c-0.649,0-1.147,0.031-1.296,0.031c-0.287,0-0.996-0.031-1.689-0.031
			c-0.196,0-0.331,0.015-0.331,0.12c0,0.076,0.045,0.136,0.211,0.136c0.18,0,0.498,0,0.694,0.076
			c0.316,0.12,0.436,0.347,0.452,1.131l0.136,5.698h-0.06c-0.196-0.18-1.959-1.99-2.864-2.879c-1.93-1.885-3.92-3.92-4.086-4.086
			c-0.227-0.227-0.407-0.422-0.573-0.422c-0.136,0-0.225,0.182-0.225,0.438l-0.122,7.599c-0.014,1.115-0.06,1.461-0.407,1.552
			c-0.18,0.046-0.422,0.06-0.603,0.06c-0.12,0-0.211,0.06-0.211,0.136c0,0.122,0.12,0.136,0.302,0.136
			c0.678,0,1.312-0.045,1.432-0.045c0.241,0,0.859,0.045,1.719,0.045c0.18,0,0.302-0.029,0.302-0.136
			c0-0.076-0.076-0.136-0.227-0.136c-0.211,0-0.467-0.014-0.694-0.09c-0.256-0.091-0.422-0.393-0.453-1.387l-0.15-5.231h0.045
			c0.256,0.225,1.658,1.779,3.106,3.166c1.387,1.341,3.046,2.924,3.875,3.693c0.136,0.136,0.316,0.271,0.543,0.271
			c0.105,0,0.211-0.12,0.211-0.407l0.151-8.081c0.014-0.723,0.12-0.95,0.482-1.054c0.165-0.046,0.271-0.046,0.407-0.046
			c0.15,0,0.225-0.06,0.225-0.136C450.457,31.822,450.337,31.807,450.156,31.807z"/>
            <path fill="#FFFFFF" d="M461.29,39.074c-0.106,0-0.136,0.06-0.166,0.256c-0.045,0.241-0.227,0.603-0.452,0.859
			c-0.529,0.589-1.176,0.68-2.352,0.68c-1.78,0-4.131-1.447-4.131-4.493c0-1.252,0.241-2.488,1.221-3.332
			c0.603-0.512,1.341-0.723,2.503-0.723c1.221,0,2.11,0.316,2.562,0.754c0.333,0.331,0.498,0.783,0.513,1.19
			c0,0.166,0.031,0.271,0.136,0.271c0.12,0,0.166-0.136,0.18-0.316c0.015-0.256,0.015-0.965,0.046-1.387
			c0.029-0.452,0.06-0.603,0.06-0.709c0-0.076-0.046-0.136-0.196-0.15c-0.393-0.046-0.829-0.136-1.327-0.211
			c-0.603-0.076-1.101-0.136-1.93-0.136c-1.975,0-3.241,0.512-4.206,1.356c-1.267,1.131-1.552,2.639-1.552,3.513
			c0,1.236,0.346,2.684,1.657,3.784c1.207,1.01,2.745,1.387,4.553,1.387c0.86,0,1.87-0.076,2.398-0.287
			c0.225-0.091,0.285-0.151,0.347-0.376c0.136-0.438,0.285-1.554,0.285-1.705C461.439,39.194,461.379,39.074,461.29,39.074z"/>
            <path fill="#FFFFFF" d="M470.053,39.677c-0.09,0.527-0.241,0.799-0.573,0.95c-0.346,0.151-0.903,0.166-1.25,0.166
			c-1.358,0-1.765-0.197-1.794-1.071c-0.015-0.376,0-1.463,0-1.899v-1.025c0-0.076,0.014-0.136,0.076-0.136
			c0.331,0,1.839,0.029,2.079,0.06c0.498,0.045,0.664,0.241,0.74,0.497c0.029,0.166,0.029,0.333,0.045,0.468
			c0,0.06,0.031,0.105,0.12,0.105c0.122,0,0.136-0.18,0.136-0.287c0-0.09,0.031-0.603,0.06-0.859
			c0.076-0.649,0.106-0.86,0.106-0.935c0-0.076-0.045-0.136-0.106-0.136c-0.06,0-0.105,0.076-0.211,0.166
			c-0.136,0.12-0.316,0.165-0.632,0.196c-0.302,0.031-2.021,0.031-2.323,0.031c-0.076,0-0.09-0.061-0.09-0.136v-3.166
			c0-0.076,0.029-0.122,0.09-0.122c0.271,0,1.854,0.031,2.081,0.06c0.664,0.061,0.769,0.242,0.874,0.468
			c0.076,0.15,0.091,0.376,0.091,0.467c0,0.105,0.015,0.165,0.106,0.165c0.105,0,0.136-0.15,0.15-0.21
			c0.031-0.151,0.061-0.709,0.076-0.845c0.031-0.589,0.106-0.74,0.106-0.829c0-0.06-0.015-0.12-0.091-0.12
			c-0.06,0-0.136,0.045-0.211,0.06c-0.105,0.014-0.316,0.06-0.558,0.076c-0.256,0.014-3.195,0-3.618,0
			c-0.378,0-1.221-0.031-1.914-0.031c-0.197,0-0.302,0.031-0.302,0.12c0,0.091,0.091,0.136,0.227,0.136
			c0.196,0,0.422,0.015,0.527,0.046c0.422,0.12,0.543,0.256,0.573,0.694c0.014,0.407,0.014,0.768,0.014,2.713v2.261
			c0,1.176,0,2.187-0.06,2.73c-0.045,0.376-0.12,0.618-0.392,0.678c-0.12,0.031-0.271,0.045-0.467,0.045
			c-0.166,0-0.211,0.076-0.211,0.136c0,0.091,0.091,0.136,0.256,0.136c0.271,0,0.603-0.014,0.92-0.029
			c0.316,0,0.603-0.015,0.754-0.015c0.392,0,0.889,0.015,1.538,0.031c0.648,0.029,1.447,0.045,2.442,0.045
			c0.498,0,0.618,0,0.709-0.331c0.076-0.257,0.18-1.131,0.18-1.418c0-0.136-0.015-0.301-0.12-0.301
			C470.113,39.481,470.084,39.541,470.053,39.677z"/>
        </g>
    </g>
    <g id="Layer_1">
        <g>
            <path fill="#FED600" d="M1.2,7.3c3-1,4.1-1.8,4.9-1.8c0.7,0,0.8,0.5,0.8,1.3v13.9c0,4.3,0,7-0.2,9.9c-0.1,1.3-0.4,2-1.8,2.3
			c-0.8,0.2-2.8,0.3-3.3,0.3c-0.3,0-0.5,0.2-0.5,0.4c0,0.3,0.3,0.4,0.7,0.4c2.8,0,5.1-0.1,6.6-0.1c1.3,0,3.5,0.1,6.7,0.1
			c0.5,0,0.7-0.2,0.7-0.5s-0.2-0.4-0.5-0.4c-0.4,0-3-0.2-3.6-0.3c-1.4-0.3-1.6-0.9-1.8-2.3c-0.2-1.8-0.2-5.6-0.1-10v-8V1.3
			c0-0.4,0-0.7-0.3-0.8H9C8.9,0.6,8.7,0.7,8.4,0.9C6.4,3,4.1,4.8,0.6,6.5c-0.1,0-0.1,0.1-0.2,0.1v0.6c0.2,0.1,0.2,0.2,0.3,0.2
			C0.9,7.4,1,7.3,1.2,7.3z"/>
            <path fill="#FED600" d="M30.1,32.4c-0.3,0-0.4,0.2-0.4,0.7c-0.3,2.3-1.3,3.9-4.4,4.2c-1.6,0.2-6.1,0.2-6.8,0.2h-3.2
			c-0.2,0-0.3-0.1-0.1-0.3c5.2-6.3,11.4-11.9,13.4-18.4c0.3-1,0.5-2.1,0.6-3.2c0-0.4,0.1-0.8,0.1-1.3C29.3,10,26,6,19.9,6
			c-3.3,0-5.5,1.2-7.1,1.9c-0.4,0.3-0.4,0.4-0.4,0.6c0.1,1.2,0.1,3.6,0,5.3c0,0.4,0.2,0.6,0.3,0.6c0.2,0,0.4-0.3,0.4-0.6
			c0-1.6,0.6-3.2,1.5-4.3c1-1.2,2.5-1.9,4.4-1.9c2.7,0,6.7,1.2,6.7,7c0,8.7-13.8,23.3-14.4,23.9c-0.3,0.3-0.8,0.7-0.8,1.1
			c0,0.4,0.3,0.6,0.6,0.6h16.4c1.8,0,2.8-0.1,2.8-1.1c-0.1-1.5-0.1-3.9,0.1-6C30.4,32.9,30.4,32.4,30.1,32.4z"/>
            <path fill="#FED600" d="M30.3,24.8v-6.5h8.3c3.5,0,4.3,1.1,4.3,2.7c0,0.3,0.1,0.6,0.3,0.6s0.3-0.2,0.3-0.5c0-2.1-0.1-4.1,0-5.3
			c0-0.3-0.1-0.4-0.3-0.4c-0.1,0-0.4,0.1-0.9,0.2s-1.2,0.1-2.4,0.1H29.2c-0.3,0-0.5,0.2-0.5,0.5l-0.1,2.6l-0.3,7.8
			c0,0.5,0.3,0.7,1.1,0.8c3.4,0.2,13,1,13,10c0,7.3-5.4,11-10.3,11c-4.3,0-7.7-0.7-7.7-6.1c0-0.7-0.1-1-0.5-1s-0.5,0.4-0.5,1.1
			c0.1,2,0.1,3.4,0,5.3c0,0.6,0.1,1.1,1.1,1.7c0.8,0.5,1.7,0.8,2.6,0.9h5.1c8.2-1,12.2-6.2,12.9-12.1v-3.8
			C44.2,26.1,35.7,25.6,30.3,24.8z"/>
            <path fill="none" stroke="#FFFFFF" stroke-miterlimit="10" d="M0.5,0.5h44.8v49.8H0.5V0.5z"/>
        </g>
        <g>
            <path fill="#FFFFFF" d="M178.728,35.068c-5.101,5.356-8.926,8.289-14.155,7.524c-5.483-0.765-8.671-4.591-10.584-9.819
			c-1.785-5.101-1.913-15.302,3.06-20.658c3.316-3.443,9.819-3.698,12.625-2.805c5.101,1.53,7.014,4.081,8.544,9.437h1.02
			c0,0-0.128-2.805,0-4.718c0-1.403,0.255-3.698,0.255-3.698c-0.128-0.128-0.383-0.383-0.765-0.51
			c-5.228-2.933-17.088-4.081-24.101-0.128s-9.054,10.457-8.926,16.323c0.128,6.504,2.423,12.88,9.309,16.578
			c6.376,3.316,16.195,2.678,23.464-1.913c0.765-0.638,1.148-0.893,1.275-1.148c0,0,0-1.785,0.128-2.423
			c0-0.893-0.255-2.933-0.255-2.933L178.728,35.068L178.728,35.068z M223.743,28.947h-12.752v1.148
			c1.53,0.383,3.443,0.51,3.443,3.953v6.759c-0.255,0.255-0.383,0.383-0.893,0.638c-2.805,1.53-7.779,1.53-10.839,0.128
			c-6.504-3.061-8.671-8.926-9.309-14.282c-0.383-3.953,0-11.987,4.846-15.94c4.081-3.188,10.202-3.06,14.41-1.53
			c4.973,1.913,5.993,3.826,7.014,8.416h1.275l-0.51-8.416c-0.255-0.255-2.678-1.148-2.678-1.148
			c-7.269-1.913-18.235-3.316-25.504,2.678c-5.866,4.973-7.014,12.497-6.249,17.853c0.638,5.611,4.081,10.712,10.074,13.517
			c6.249,3.06,18.746,1.658,23.081-0.638l1.148-0.765v-7.014c0-3.188,0.51-3.698,3.316-4.336v-1.02H223.743z M62.302,13.389v14.41
			c0,4.591,0.51,10.967,6.376,14.41c4.973,3.06,11.222,3.188,16.323,0.383c6.249-3.316,6.759-9.819,6.886-14.155l0.383-13.517
			c0.128-2.04,0-4.081,1.785-5.228c0.128-0.128,1.785-0.638,2.168-0.638v-1.02c0,0-3.571,0.128-5.738,0.128
			c-1.785,0-4.718-0.128-4.718-0.128v1.148c3.061,0.383,3.826,2.04,3.826,5.483v14.792c0,4.208-0.383,8.671-5.228,11.477
			c-3.061,1.785-7.651,2.04-10.712,0.255c-4.973-2.805-5.483-7.141-5.483-11.094V13.389c0-1.658,0.128-3.06,1.785-3.953
			c0.765-0.383,1.148-0.255,1.913-0.383v-1.02c-1.275,0-3.953,0.128-6.504,0.128c-3.443,0-6.759-0.128-6.759-0.128v1.148
			c0.765,0.128,1.148,0,1.913,0.383C62.174,10.329,62.302,11.859,62.302,13.389L62.302,13.389z M112.29,43.612v-1.148
			c-0.51,0-2.04-0.383-2.295-0.638c-1.913-1.148-1.913-3.188-1.913-5.228V14.282l23.464,26.652c1.275,1.53,2.933,3.826,3.698,3.571
			c0.765-0.255,0.638-2.423,0.638-4.081V14.919c0-2.04,0-4.081,1.913-5.228c0.255-0.128,1.785-0.638,2.295-0.638v-1.02
			c0,0-3.443,0.128-5.611,0.128c-1.785,0-4.718-0.128-4.718-0.128v1.148c3.188,0.383,3.826,2.04,3.826,5.356V33.41L111.142,8.033
			c0,0-2.55,0.128-4.463,0.128c-1.785,0-4.463-0.128-4.463-0.128v1.148c0.51,0.128,1.913,0.128,2.55,0.51
			c1.275,0.893,1.148,2.295,1.148,4.846v22.571c0,3.316-0.765,4.973-3.826,5.356v1.148c0,0,2.805-0.128,4.591-0.128
			C108.847,43.484,112.29,43.612,112.29,43.612z"/>
        </g>
    </g>
</svg>
