<svg xmlns="http://www.w3.org/2000/svg" viewBox="0 0 150 150"><title>uncg_school_icons</title><path d="M143.14,46.26a72.72,72.72,0,0,0-39.4-39.4,73.37,73.37,0,0,0-57.48,0,72.72,72.72,0,0,0-39.4,39.4,73.37,73.37,0,0,0,0,57.48,72.72,72.72,0,0,0,39.4,39.4,73.37,73.37,0,0,0,57.48,0,72.72,72.72,0,0,0,39.4-39.4,73.37,73.37,0,0,0,0-57.48ZM138.43,75a61.7,61.7,0,0,1-5,24.61,62.68,62.68,0,0,1-33.78,33.78,62.64,62.64,0,0,1-49.22,0A62.68,62.68,0,0,1,16.61,99.61a61.72,61.72,0,0,1-5-24.61h0a61.7,61.7,0,0,1,5-24.61A62.68,62.68,0,0,1,50.39,16.61a62.64,62.64,0,0,1,49.22,0,62.68,62.68,0,0,1,33.78,33.78,61.72,61.72,0,0,1,5,24.61Z" fill="#fff"/><path d="M89.22,123.27a14.42,14.42,0,0,0-16.27-12.57c-7.48,1-12.09,7.55-12.22,12.57A58.85,58.85,0,0,0,89.22,123.27ZM60.66,26.73a14.39,14.39,0,0,0,28.57,0A57.49,57.49,0,0,0,60.66,26.73ZM30.79,50.9a14.32,14.32,0,0,0,19.3-1.44c5.42-5.63,4.81-14.21.82-18.75a55.54,55.54,0,0,0-11.26,8.72A57.48,57.48,0,0,0,30.79,50.9ZM51,119.08A14.41,14.41,0,0,0,30.79,98.83,56.38,56.38,0,0,0,51,119.08ZM119.16,98.9a14.47,14.47,0,0,0-20,2.13c-5.08,6.11-3.64,14.28-.21,18A56,56,0,0,0,119.16,98.9Zm0-48A57.81,57.81,0,0,0,98.9,30.64,14.43,14.43,0,0,0,119.16,50.9Zm4.05,38.25a57.06,57.06,0,0,0,1.65-18.06,48,48,0,0,0-1.72-10.44,14.41,14.41,0,0,0-12.5,16.07C111.61,84.27,118.13,88.87,123.21,89.15ZM26.8,60.58a57.49,57.49,0,0,0,0,28.57,14.24,14.24,0,0,0,12.63-13A14.44,14.44,0,0,0,26.8,60.58Zm48.07,46.08a4.43,4.43,0,0,0,4.53-4.46,4.48,4.48,0,0,0-4.53-4.53,4.56,4.56,0,0,0-4.53,4.46A4.62,4.62,0,0,0,74.87,106.66ZM55.78,89.56A4.39,4.39,0,0,0,51.25,94a4.5,4.5,0,1,0,9,.07A4.43,4.43,0,0,0,55.78,89.56ZM102.13,70.4a4.43,4.43,0,0,0-4.53,4.46,4.51,4.51,0,0,0,4.46,4.53,4.5,4.5,0,1,0,.07-9ZM55.78,60.24a4.44,4.44,0,0,0,4.53-4.53,4.53,4.53,0,0,0-4.53-4.53,4.53,4.53,0,0,0,0,9.06ZM47.88,70.4a4.48,4.48,0,0,0-4.53,4.53,4.5,4.5,0,0,0,9,0A4.3,4.3,0,0,0,47.88,70.4Zm27-18.06a4.38,4.38,0,0,0,4.53-4.46,4.48,4.48,0,0,0-4.53-4.53,4.41,4.41,0,0,0-4.46,4.46A4.47,4.47,0,0,0,74.87,52.34ZM94.1,98.55a4.34,4.34,0,0,0,4.53-4.46,4.5,4.5,0,1,0-9,0A4.36,4.36,0,0,0,94.1,98.55ZM98.63,55.7A4.53,4.53,0,1,0,94,60.24,4.5,4.5,0,0,0,98.63,55.7Z" fill="#fff"/><path d="M89.22,123.27a57.22,57.22,0,0,1-28.5,0c.14-5,4.81-11.6,12.22-12.57A14.37,14.37,0,0,1,89.22,123.27Z" fill="#fff"/><path d="M60.66,26.73a57.49,57.49,0,0,1,28.57,0,14.39,14.39,0,0,1-28.57,0Z" fill="#fff"/><path d="M30.79,50.9a57.48,57.48,0,0,1,8.86-11.47A55.54,55.54,0,0,1,50.9,30.71a14.43,14.43,0,0,1-.82,18.75A14.25,14.25,0,0,1,30.79,50.9Z" fill="#fff"/><path d="M51,119.08A57.89,57.89,0,0,1,30.79,98.9c4.67-4,13-4.39,18.54.76A14.36,14.36,0,0,1,51,119.08Z" fill="#fff"/><path d="M119.16,98.9A56.81,56.81,0,0,1,99,119.08c-3.43-3.71-4.88-11.88.21-18A14.42,14.42,0,0,1,119.16,98.9Z" fill="#fff"/><path d="M119.16,50.9A14.43,14.43,0,0,1,98.9,30.64,58.38,58.38,0,0,1,119.16,50.9Z" fill="#fff"/><path d="M123.21,89.15c-5.08-.27-11.67-4.88-12.57-12.5a14.41,14.41,0,0,1,12.5-16.07A60.18,60.18,0,0,1,124.86,71,55.72,55.72,0,0,1,123.21,89.15Z" fill="#fff"/><path d="M26.8,60.58A14.44,14.44,0,0,1,39.44,76.1a14.24,14.24,0,0,1-12.63,13A57.49,57.49,0,0,1,26.8,60.58Z" fill="#fff"/><path d="M74.87,106.66a4.43,4.43,0,0,1-4.46-4.53,4.53,4.53,0,1,1,4.46,4.53Z" fill="#fff"/><path d="M55.78,89.56a4.47,4.47,0,0,1,4.46,4.53,4.53,4.53,0,0,1-4.6,4.46,4.5,4.5,0,0,1,.14-9Z" fill="#fff"/><path d="M102.13,70.4a4.4,4.4,0,0,1,4.46,4.46,4.5,4.5,0,1,1-9,0A4.43,4.43,0,0,1,102.13,70.4Z" fill="#fff"/><path d="M55.78,60.24a4.41,4.41,0,0,1-4.46-4.46,4.48,4.48,0,0,1,4.53-4.53,4.53,4.53,0,0,1,4.53,4.53A4.62,4.62,0,0,1,55.78,60.24Z" fill="#fff"/><path d="M47.88,70.4A4.46,4.46,0,1,1,48,79.33a4.43,4.43,0,0,1-4.53-4.46A4.37,4.37,0,0,1,47.88,70.4Z" fill="#fff"/><path d="M74.87,52.34a4.5,4.5,0,1,1,4.53-4.46A4.38,4.38,0,0,1,74.87,52.34Z" fill="#fff"/><path d="M94.1,98.55a4.4,4.4,0,0,1-4.46-4.46,4.48,4.48,0,0,1,4.53-4.53,4.39,4.39,0,0,1,4.46,4.53A4.34,4.34,0,0,1,94.1,98.55Z" fill="#fff"/><path d="M98.63,55.7a4.5,4.5,0,1,1-4.46-4.6A4.48,4.48,0,0,1,98.63,55.7Z" fill="#fff"/></svg>