<svg xmlns="http://www.w3.org/2000/svg" viewBox="0 0 1034 272"><title>bryan-school-2lines</title><path d="M3.46 158.159V2.869c.763-.069 1.47-.187 2.179-.188 12.06-.005 24.125-.132 36.182.086a52.124 52.124 0 0 1 12.054 1.659c10.591 2.75 17.78 9.456 21.232 19.875A55.982 55.982 0 0 1 76.37 56.49c-2.225 8.58-6.468 15.835-15.057 19.724.284.337.403.594.601.697 11.455 5.927 16.908 15.834 18.376 28.196 1.229 10.351.611 20.611-3.034 30.487-5.38 14.577-15.921 22.25-31.896 22.653-13.633.343-27.281.086-40.923.088a6.944 6.944 0 0 1-.976-.175zm24.615-21.748c4.477 0 8.643.257 12.767-.057 7.43-.565 11.84-4.305 13.88-11.55a45.608 45.608 0 0 0 .265-23.416c-1.136-4.684-3.622-8.575-8.14-10.79-6.024-2.951-12.42-2.088-18.772-2.053zm.07-111.76v41.918c3.095 0 5.986.043 8.876-.008 7.661-.134 13.534-4.598 15.48-12.02a34.59 34.59 0 0 0-.875-20.344c-1.894-5.51-5.831-8.91-11.663-9.476-3.85-.374-7.766-.07-11.818-.07zm325.117 133.52V2.673h8.723c3.91 0 7.824.11 11.727-.05 1.782-.073 2.39.638 2.911 2.193Q390.76 46.968 405 89.085a4.158 4.158 0 0 0 1.36 2.113V2.88h21.994v155.293H407.14l-31.226-96.675-.632.117v96.556zm-201.41-70.343l20.84 70.52c-8.193 0-15.999.05-23.8-.098-.593-.011-1.458-1.34-1.694-2.196-3.446-12.487-6.803-24.998-10.19-37.501-2.21-8.158-4.437-16.312-6.689-24.585l-12.753.636v63.544H93.153V2.867c.663-.066 1.3-.185 1.937-.185 11.648-.003 23.298-.133 34.942.092a59.969 59.969 0 0 1 12.57 1.64c12.93 3.064 21.033 11.263 24.23 24.123a81.998 81.998 0 0 1 .42 37.823c-2.024 9.186-6.427 16.917-15.4 21.468zm-34.326-15.42c4.293 0 8.384.371 12.384-.076 8.574-.96 12.115-4.352 13.755-12.874a57.815 57.815 0 0 0-.263-23.254c-1.008-4.683-3.36-8.445-8.15-10.231-5.785-2.158-11.731-1.258-17.726-1.372zm587.563 85.815H680.8V2.854h24.175v63.082h26.493V2.822h24.356v155.352h-24.227V89.45h-26.508zm234.643-77.847c0 15.218.556 30.462-.168 45.646-.627 13.135-6.141 24.39-18.543 30.417-12.222 5.94-25.07 5.836-37.367.085-10.79-5.046-15.967-14.635-18.16-25.932a55.723 55.723 0 0 1-.93-10.41q-.111-39.672-.032-79.345c.007-7.304 1.114-14.4 4.361-21.046 5.872-12.02 15.67-18.32 28.843-18.987a58.94 58.94 0 0 1 16.554 1.243c13.735 3.302 21.14 13.097 24.318 26.304a58.438 58.438 0 0 1 1.328 12.851c.164 13.056.06 26.116.06 39.174zm-50.487-.1h-.173c0 8.82-.027 17.638.01 26.457.024 5.905-.02 11.817.255 17.713.328 7.059 3.4 11.416 8.71 12.404a27.12 27.12 0 0 0 7.168.204 9.488 9.488 0 0 0 9.087-7.902 46.461 46.461 0 0 0 1.097-9.862q.128-38.81.02-77.621a46.918 46.918 0 0 0-.656-8.183c-.685-3.809-2.327-7.113-6.218-8.742-9.43-3.95-17.654.602-19.133 10.618a15.418 15.418 0 0 0-.16 2.239q-.014 21.337-.007 42.675zm-38.825.247c0 13.473-.02 26.947.01 40.42a46.039 46.039 0 0 1-3.47 18.482c-5.547 12.95-15.516 19.922-29.427 20.786a56.868 56.868 0 0 1-16.56-1.198c-14.382-3.448-21.78-13.755-24.837-27.594a47.987 47.987 0 0 1-1.03-10.14q-.12-40.795-.04-81.59a45.033 45.033 0 0 1 4.043-19.36c5.617-11.984 15.18-18.581 28.256-19.467a58.522 58.522 0 0 1 17.298 1.171c14.166 3.38 21.553 13.554 24.625 27.19a53.17 53.17 0 0 1 1.083 11.13c.124 13.389.05 26.78.05 40.17zm-24.44.079c0-13.312.101-26.626-.07-39.936a40.391 40.391 0 0 0-1.543-10.034 8.766 8.766 0 0 0-7.74-6.532 30.072 30.072 0 0 0-7.166-.09c-4.52.48-7.613 3.077-8.586 7.496a53.072 53.072 0 0 0-1.32 11.085c-.11 25.292-.07 50.585-.038 75.878a62.976 62.976 0 0 0 .459 7.464c1.002 8.283 6.206 12.325 14.495 11.364.578-.067 1.152-.173 1.727-.263 4.157-.65 7.18-2.856 8.264-6.946a39.564 39.564 0 0 0 1.45-9.551c.157-13.31.066-26.623.069-39.935zM314.9 158.16c-1.388-10.907-2.77-21.622-4.091-32.344-.151-1.225-.331-1.998-1.852-1.986-8.236.06-16.472.038-24.71.054a4.503 4.503 0 0 0-.922.254l-4.352 34.077h-23.684L281.671 2.77h30.547L338.6 158.16zM297.281 34.114l-.636-.243-9.696 66.532h19.987l-9.655-66.289zM657.2 54.437h-24.41c0-3.44.142-6.823-.039-10.189a58.073 58.073 0 0 0-1.141-10.86c-1.89-7.603-7.31-10.83-14.781-9.325-3.708.747-6.46 2.772-7.595 6.426a26.352 26.352 0 0 0-1.463 7.532c-.102 28.288-.07 56.577-.05 84.865a28.991 28.991 0 0 0 .369 3.465c1.344 10.972 10.209 12.104 17.27 10.348a7.708 7.708 0 0 0 5.79-5.366 35.502 35.502 0 0 0 1.564-8.518c.24-5.647.074-11.312.076-16.97V103h24.028c.157.233.328.368.327.501-.093 10.2 1.129 20.468-1.466 30.544-4.276 16.603-16.237 26.145-33.397 26.312a52.506 52.506 0 0 1-13.333-1.328c-14.906-3.794-22.217-14.525-25.028-28.897a51.285 51.285 0 0 1-.801-9.677q-.092-39.938-.031-79.876c.002-7.23 1.106-14.243 4.31-20.812 5.724-11.734 15.27-18.065 28.13-18.92a56.485 56.485 0 0 1 16.303 1.175c10.924 2.536 17.474 10.332 21.73 20.296 4.39 10.277 3.78 21.101 3.638 32.12zM541.956 40.882c-.567-2.722-.895-5.279-1.642-7.705-2.203-7.15-8.122-10.641-15.196-9.148-4.883 1.031-7.916 4.766-8.742 10.558-.923 6.48.248 12.56 4.23 17.708a166.017 166.017 0 0 0 12.474 14.21c6.033 6.188 12.776 11.717 18.503 18.161 9.572 10.772 15.236 23.332 14.627 38.127-.348 8.441-2.112 16.489-7.3 23.425-6.306 8.429-14.962 12.718-25.232 13.92-12.927 1.511-24.308-1.353-32.745-12.089a48.963 48.963 0 0 1-9.936-24.131c-.279-2.039-.419-4.096-.65-6.42l23.165-3.628c.464 2.833.71 5.475 1.364 8.011a40.483 40.483 0 0 0 2.759 7.965c3.16 6.333 8.182 8.567 15.076 7.073 6.089-1.319 9.91-6.097 10.17-12.79a24.698 24.698 0 0 0-4.548-16.023 143.91 143.91 0 0 0-12.429-14.552c-4.75-4.879-10.106-9.159-15.002-13.902-9.455-9.16-15.91-20.016-17.625-33.264-1.023-7.903-.715-15.796 1.943-23.403 4.398-12.588 13.525-19.718 26.496-21.657a61.065 61.065 0 0 1 15.368-.178c7.922.848 14.062 5.19 18.793 11.53 5.533 7.412 8.064 15.899 9.09 25.42zM231.798 158.255h-24.436v-2.987q0-29.57-.03-59.139a14.47 14.47 0 0 0-.698-4.378q-14.08-43.215-28.24-86.402c-.256-.78-.475-1.571-.806-2.676h13.069c2.994 0 5.996.13 8.98-.044 2.085-.122 3.002.521 3.6 2.622 5.124 17.962 10.383 35.885 15.609 53.817a5.855 5.855 0 0 0 1.427 2.665l5.124-18.376c3.557-12.798 7.143-25.587 10.62-38.406.477-1.76 1.208-2.35 3.047-2.323 7.39.11 14.783.045 22.51.045-1.195 3.722-2.286 7.183-3.416 10.63q-12.79 39.05-25.56 78.107a16.08 16.08 0 0 0-.766 4.863q-.077 29.445-.034 58.89v3.092zM963.009 2.758h24.258v132.386h38.67v23.02h-62.928zM104.413 187.699c8.391.277 16.72.073 24.93.97 6.987.764 11.404 5.368 13.125 12.294a28.729 28.729 0 0 1 .298 13.827c-1.11 4.597-3.268 8.536-7.698 10.725.05.274.025.521.113.571 8.72 4.99 10.299 13.113 9.517 22.128a32.84 32.84 0 0 1-1.844 8.225c-2.439 6.752-7.48 10.703-14.565 11.095-7.867.436-15.778.1-23.876.1zm12.615 56.521v6.727c0 6.21 0 6.21 6.188 5.746 4.853-.364 7.486-2.55 8.307-7.372a31.256 31.256 0 0 0 .394-7.67c-.525-6.542-3.72-9.45-10.284-9.756-.912-.043-1.83.033-2.74-.028-1.392-.095-1.91.489-1.884 1.889.066 3.487.022 6.976.02 10.464zm.009-44.887c0 6.881-.02 13.422.04 19.963a1.87 1.87 0 0 0 .912 1.443c3.23 1.098 8.4-.45 10.483-3.023 3.033-3.746 2.905-12.656-.44-16.097a7.857 7.857 0 0 0-4.027-2.191 43.552 43.552 0 0 0-6.968-.095zm776.216 68.271h-11.558v-3.323c0-13.473.022-26.946-.023-40.42-.008-2.175.496-4.693-1.967-6.021-2.49-1.343-4.606.087-6.78 1.168-2.348 1.169-3.156 2.834-3.125 5.527.151 13.305.069 26.613.069 39.92v3.126h-11.276v-59.053h10.651v5.744c1.897-1.536 3.388-2.651 4.775-3.884 3.096-2.753 6.743-3.398 10.704-2.971a7.981 7.981 0 0 1 6.023 3.965c.582.9 1.168 1.798 1.81 2.787a37.748 37.748 0 0 1 4.637-3.891 18.599 18.599 0 0 1 6.288-2.767c7.55-1.222 12.187 2.516 12.88 10.158.271 2.972.22 5.979.226 8.97q.033 18.962.01 37.925v3.045h-11.662v-2.827c0-13.972-.162-27.947.077-41.915.099-5.764-3.881-6.525-7.718-4.536-2.788 1.446-4.223 3.162-4.15 6.703.272 13.218.109 26.445.109 39.669v2.901zm-301.905-.003h-10.797v-5.102c-1.523 1.28-3.031 2.568-4.563 3.828a11.74 11.74 0 0 1-18.449-4.605 22.102 22.102 0 0 1-1.531-7.513c-.165-10.724-.11-21.451-.032-32.176a22.01 22.01 0 0 1 .835-5.398c2.422-9.15 11.204-12.22 18.87-6.633 1.272.927 2.457 1.973 4.083 3.29v-25.164h11.584zm-11.422-29.307l-.001-15.446c-.003-2.764-1.676-4.42-5.377-5.344a4.728 4.728 0 0 0-5.79 2.656 8.236 8.236 0 0 0-.966 3.307q-.107 14.68.014 29.36a8.197 8.197 0 0 0 1.1 3.522c1.157 2.207 3.43 2.985 5.989 2.263 3.49-.984 5.026-2.539 5.029-5.122q.01-7.598.002-15.196zm81.298-50.214v11.62H639.86v20.824h16.282v11.711h-16.296v23.662h22.737v11.717h-35.594V188.08zm-163.122 79.67c-2.681 0-5.91.057-9.133-.062-.481-.018-1.127-.786-1.35-1.345a15.365 15.365 0 0 1-.514-3.007 16.242 16.242 0 0 1-2.518 1.755c-3.027 1.276-6.009 3.103-9.169 3.529-8.273 1.116-13.382-3.438-13.798-11.796-.383-7.705 2.04-14.416 8.44-18.972a102.809 102.809 0 0 1 13.765-7.944c2.11-1.054 3.086-2.135 2.736-4.435-.15-.98-.007-2.006-.17-2.982-.565-3.39-2.517-5.14-5.665-5.19-3.467-.053-5.45 1.468-6.243 4.849-.263 1.122-.422 2.269-.644 3.488h-10.975c-1.24-6.868 3.899-14.879 11.078-17.235a23.838 23.838 0 0 1 14.005-.235c5.995 1.654 9.607 5.977 9.93 12.265.295 5.725.201 11.472.217 17.209.028 9.951.008 19.903.008 30.108zm-11.562-29.586l-.816-.644c-3.347 2.884-7.008 5.49-9.915 8.764-1.554 1.75-2.243 4.611-2.487 7.054a6.031 6.031 0 0 0 2.085 4.633c3.597 2.662 10.928-1.128 11.094-5.625.174-4.721.039-9.454.039-14.182zm-138.392 9.788a25.87 25.87 0 0 1-2.72 12.977 13.57 13.57 0 0 1-8.16 6.902 23.157 23.157 0 0 1-13.986.065c-5.318-1.635-8.38-5.536-9.871-10.694a24.902 24.902 0 0 1-1.128-6.854c.024-9.465-.516-19.024.612-28.372 1.58-13.111 16.177-19.214 27.462-12.168a15.163 15.163 0 0 1 7.096 11.508c.726 6.152.745 12.388 1.085 18.92h-25.152c.287 4.846.272 9.399.915 13.856.473 3.281 2.925 4.815 6.07 4.747 2.949-.063 5.007-1.704 5.76-4.898.45-1.913.568-3.903.853-5.99zm-10.989-17.722a85.88 85.88 0 0 0-1.558-9.283c-.682-2.448-2.79-3.611-5.364-3.634a5.55 5.55 0 0 0-5.52 3.479c-1.335 3.033-1.264 6.205-.9 9.438zm207.837 37.412h-11.5v-3.022c0-13.89-.17-27.784.079-41.67.106-5.98-3.985-6.51-7.65-4.653-2.902 1.47-4.399 3.162-4.314 6.85.303 13.135.118 26.282.118 39.424v3.039h-11.531v-59.071h10.632l.312 5.742c1.476-1.271 2.569-2.209 3.657-3.15a15.455 15.455 0 0 1 12.028-3.73c4.104.383 7.26 3.841 7.957 8.684a33.692 33.692 0 0 1 .356 4.722q.04 22.333.01 44.666c0 .65-.09 1.301-.154 2.169zM4.01 237.22c.274-4.748.124-10.126.984-15.337 1.624-9.846 7.427-14.492 17.15-14.55 10.045-.06 16.034 4.319 17.556 14.3a105.405 105.405 0 0 1-.083 33.267c-1.697 10.147-8.058 14.429-18.828 13.908-9.18-.444-14.975-5.927-15.996-15.587-.54-5.11-.522-10.28-.782-16.001zm24.71.823h.263c0-3.244.03-6.489-.014-9.732a38.85 38.85 0 0 0-.303-4.726c-.544-3.978-2.827-6.242-6.193-6.28-3.465-.038-5.796 2.28-6.349 6.386a28.804 28.804 0 0 0-.279 3.73c-.025 7.153-.08 14.308.032 21.46a21.926 21.926 0 0 0 .952 6.113c.839 2.688 2.927 3.895 5.751 3.842 3.45-.064 5.845-2.376 6.08-6.584.262-4.723.06-9.471.06-14.209zm783.374-16.513c2.162-13.067 17.44-19 28.265-11.207 4.633 3.335 6.603 8.309 6.757 13.61.292 10.031.662 20.164-.404 30.105-1.421 13.25-16.178 19.497-27.542 12.305-5.455-3.453-7.173-8.994-7.596-14.96-.317-4.465-.37-24.48.52-29.854zm10.802 16.504h-.01c0 4.067-.098 8.137.046 12.199a16.472 16.472 0 0 0 1.021 5.072 5.323 5.323 0 0 0 5.449 3.547 5.417 5.417 0 0 0 5.468-3.54 12.246 12.246 0 0 0 1.008-4.328c.095-8.547.183-17.099.005-25.644-.11-5.253-2.691-8.109-6.603-8.037-3.87.071-6.24 3.065-6.364 8.282-.099 4.147-.02 8.299-.02 12.449zm-103.664-16.487c2.15-13.074 17.407-19.014 28.254-11.23 4.638 3.329 6.613 8.3 6.77 13.6.295 10.03.665 20.163-.402 30.102-1.424 13.259-16.168 19.517-27.525 12.332-5.456-3.452-7.186-8.986-7.613-14.952-.32-4.464-.367-24.478.516-29.852zm10.79 16.245c0 3.994-.073 7.99.034 11.98a18.485 18.485 0 0 0 .77 4.892 5.989 5.989 0 0 0 11.384.1 13.42 13.42 0 0 0 .83-4.13c.077-8.319.096-16.64-.005-24.96a14.022 14.022 0 0 0-1.059-4.83 5.407 5.407 0 0 0-5.504-3.531 5.324 5.324 0 0 0-5.402 3.658 18.856 18.856 0 0 0-1.003 5.34c-.148 3.822-.045 7.653-.046 11.48zm-539.361 29.864h-10.633v-5.793a34.644 34.644 0 0 1-3.615 2.98c-2.107 1.276-4.209 2.765-6.525 3.454-7.835 2.33-13.687-1.946-13.854-10.138-.184-9.063-.064-18.132-.07-27.199-.006-7.396-.002-14.793-.002-22.385h11.468v2.976q0 20.712.003 41.424c.003 5.694 2.925 7.329 8.077 4.703 2.766-1.41 4.058-3.148 3.994-6.55-.245-13.138-.1-26.283-.1-39.426v-3.142h11.257zm609.665.011h-11.369v-2.964q0-20.714-.003-41.428c-.003-5.753-2.884-7.406-8.019-4.781-2.75 1.406-4.094 3.101-4.028 6.53.253 13.139.102 26.286.102 39.43v3.127h-11.276v-59.059h10.669v5.796c1.444-1.218 2.446-2.016 3.395-2.873a15.496 15.496 0 0 1 10.92-4.117c4.194.043 7.217 1.978 8.613 5.908a17.32 17.32 0 0 1 1.055 5.589c.084 15.722.051 31.445.048 47.168 0 .483-.06.966-.107 1.674zm-523.134-59.289v5.996a25.092 25.092 0 0 1 2.878-2.46c2.389-1.438 4.708-3.241 7.317-4.016 7.677-2.28 13.158 1.757 13.756 9.748.087 1.159.064 2.327.064 3.49q.006 21.827.002 43.654v2.822h-11.498v-2.935q0-20.704-.003-41.408c-.004-5.752-2.873-7.393-8.014-4.767-2.748 1.404-4.1 3.09-4.034 6.522.254 13.132.103 26.273.103 39.41v3.14h-11.254v-59.196h10.683zm698.135 37.106h11.111c3.333 11.035-4.68 22.746-15.912 23.324-11.845.609-18.547-4.704-19.443-16.991a168.417 168.417 0 0 1 .35-29.379c1.369-13.271 15.564-19.667 27.167-12.858 5.494 3.224 7.239 8.632 7.998 14.499a35.54 35.54 0 0 1 .027 4.374h-11.058c-.238-1.94-.325-3.916-.749-5.819-.814-3.65-2.97-5.412-6.182-5.33-3.14.08-5.242 2.02-5.956 5.646a22.577 22.577 0 0 0-.447 4.202c-.044 7.321-.063 14.643.012 21.963a20.353 20.353 0 0 0 .704 5.16 5.628 5.628 0 0 0 6.011 4.564 5.565 5.565 0 0 0 5.707-4.624 38.546 38.546 0 0 0 .648-5.92c.073-.89.012-1.791.012-2.81zm-278.649-.024h11.393c.28 6.257-.275 12.189-3.978 17.4a13.395 13.395 0 0 1-2.793 2.823c-10.467 7.968-26.067 2.102-28.524-10.748a36.202 36.202 0 0 1-.688-7.182c.104-8.639-.376-17.374.748-25.89 1.728-13.087 16.44-19.219 27.553-11.94 6.62 4.337 7.532 11.238 7.774 18.561h-11.236c-.256-2.025-.367-4.007-.78-5.923-.739-3.427-2.934-5.25-6.02-5.258-3.111-.009-5.814 1.74-5.93 5.229q-.515 15.536-.005 31.098c.117 3.543 2.713 5.202 5.903 5.208 3.26.006 5.31-1.767 6.097-5.417a26.566 26.566 0 0 0 .47-3.95c.076-1.239.016-2.487.016-4.01zm322.61-20.79a39.056 39.056 0 0 0-1.59-4.024 6.033 6.033 0 0 0-8.508-2.511c-2.487 1.54-2.94 4.99-.656 7.902a38.482 38.482 0 0 0 5.519 5.353c2.469 2.095 5.172 3.915 7.628 6.025 6.501 5.585 9.072 14.233 6.348 21.842a14.526 14.526 0 0 1-3.395 5.4c-8.004 7.74-23.135 4.784-27.655-5.345a66.362 66.362 0 0 1-2.2-6.799l10.021-2.956c.507 1.602.867 3.11 1.457 4.522 1.17 2.797 3.08 4.712 6.354 4.76 3.844.056 6.589-2.967 5.25-6.521a20.394 20.394 0 0 0-4.84-7.025c-2.771-2.72-6.097-4.867-9.102-7.36a20.307 20.307 0 0 1-7.3-11.016c-1.77-7.485 1.555-14.92 8.102-18.086a16.433 16.433 0 0 1 19.837 4.471 16.86 16.86 0 0 1 3.923 9.708l-9.193 1.66zm-785.883-1.749c-1.53.307-2.738.574-3.955.788-1.865.328-3.737.618-5.636.93-.421-1.221-.555-2.498-1.227-3.35a12.378 12.378 0 0 0-3.855-3.585 4.807 4.807 0 0 0-5.908 1.301 4.609 4.609 0 0 0-.368 5.814 33.602 33.602 0 0 0 5.506 6.01c2.735 2.418 5.89 4.37 8.565 6.847 6.332 5.859 8.75 13.054 6.15 21.452a13.775 13.775 0 0 1-3.524 5.596c-7.973 7.654-22.957 4.73-27.511-5.3a70.192 70.192 0 0 1-2.306-6.894l10.098-2.97a17.721 17.721 0 0 0 .908 2.963 20.188 20.188 0 0 0 2.903 4.82 6 6 0 0 0 7.38.586 5.135 5.135 0 0 0 1.594-6.692 23.714 23.714 0 0 0-4.848-6.208c-2.73-2.539-5.883-4.616-8.757-7.008-5.755-4.79-8.942-10.757-7.496-18.417 1.952-10.332 13.542-15.579 23.036-10.48 5.363 2.882 7.995 7.709 9.251 13.797zm156.554.096l-9.31 1.635a35.313 35.313 0 0 0-1.748-4.292 6.018 6.018 0 0 0-8.42-2.177c-2.362 1.54-2.841 4.96-.666 7.741a40.016 40.016 0 0 0 5.692 5.538c2.527 2.156 5.368 3.96 7.79 6.22 6.225 5.806 8.709 12.895 6.197 21.223a14.011 14.011 0 0 1-3.42 5.66c-7.705 7.652-22.726 5.009-27.478-4.706a22.844 22.844 0 0 1-1.296-3.231c-.393-1.263-.64-2.57-1.023-4.153l9.886-2.905c.514 1.606.688 3.18 1.47 4.345a14.492 14.492 0 0 0 4.094 4.39 5.046 5.046 0 0 0 6.052-.7 4.81 4.81 0 0 0 1.334-5.906 18.393 18.393 0 0 0-3.907-5.645c-3.098-2.877-6.592-5.322-9.845-8.037-5.752-4.8-8.936-10.77-7.472-18.427 2.05-10.73 14.452-15.833 23.915-9.975a18.361 18.361 0 0 1 8.155 13.402zm7.159 29.406l9.721-2.852a26.977 26.977 0 0 0 1.174 3.653 15.23 15.23 0 0 0 2.447 3.974 6.217 6.217 0 0 0 7.595.747 5.175 5.175 0 0 0 1.488-6.912 29.225 29.225 0 0 0-5.47-6.65c-2.669-2.481-5.822-4.434-8.56-6.847-5.21-4.589-8.254-10.142-7.018-17.392 1.013-5.942 4.325-10.101 9.997-11.961 5.802-1.903 11.377-1.1 16.112 3.042a18.781 18.781 0 0 1 6.167 11.747l-9.515 1.72a8.543 8.543 0 0 0-.82-2.479c-1.132-1.558-2.223-3.345-3.777-4.349a5.197 5.197 0 0 0-6.398 1.09 4.695 4.695 0 0 0-.28 6.025 45.317 45.317 0 0 0 6.152 6.42c2.353 2.096 5.069 3.783 7.423 5.877 6.283 5.588 9.006 12.561 6.812 20.816a15.122 15.122 0 0 1-4.304 7.047c-8.3 7.374-22.703 4.028-27.15-6.087a40.36 40.36 0 0 1-1.552-4.72 12.616 12.616 0 0 1-.244-1.91zM65.165 267.678H53.688v-49.296H46.85v-9.913h6.8c0-1.295-.005-2.335.001-3.375.012-2.079-.066-4.163.062-6.234.479-7.743 4.784-11.834 12.487-11.939 1.981-.027 3.963-.004 6.104-.004v9.966c-1.044 0-2.086-.05-3.121.01-2.884.164-3.868 1.1-3.987 3.996-.098 2.385-.02 4.778-.02 7.415h6.587v10.06c-1.335 0-2.713.104-4.068-.025-1.941-.186-2.593.497-2.573 2.505.095 9.643.042 19.289.042 28.933v17.901zM243.4 208.457h11.12v59.14H243.4zm696.131 59.212h-11.056V208.55h11.056zM928.335 199v-10.844h11.253V199zm-685.015.058v-10.956h11.211v10.956z" fill="#036"/></svg>