<svg xmlns="http://www.w3.org/2000/svg" width="1646" height="99" viewBox="0 0 1646 99"><path data-name="Bryan School of Business and Economics" class="cls-1" d="M37.088 36.949C44.16 35.6 51.96 31.229 51.96 21.764a13.654 13.654 0 0 0-5.72-11.44c-3.848-2.6-8.632-3.64-16.329-3.64H2.039v3.432c7.072.624 7.7 1.56 7.7 9.984v39.834c0 8.528-.728 9.464-8.216 10.088v3.432h24.125c8.008 0 15.6-1.352 20.8-4.472a17.3 17.3 0 0 0 9.048-15.5c0-9.568-7.592-14.665-18.409-16.121v-.412zm-14.352-.832V16.564c0-2.6.312-4.16 1.04-4.784.624-.624 1.768-1.144 3.952-1.144 5.1 0 10.3 3.536 10.3 12.9 0 8.736-3.848 12.585-12.9 12.585h-2.393zm0 3.952h2.08c10.4 0 16.017 4.784 16.017 14.353 0 10.608-6.032 14.768-11.44 14.872-4.992 0-6.656-2.184-6.656-9.36V40.069zm56.576-3.12V26.132a85.483 85.483 0 0 1-17.785 3.952v2.808c4.472 1.144 5.1 1.664 5.1 7.176V62.95c0 6.136-.624 6.76-5.928 7.28v3.224H86.8V70.23c-6.968-.52-7.488-.936-7.488-7.28V42.357c1.664-3.952 3.328-4.576 5.1-4.576 1.56 0 2.7.728 4.264 2.08a2.742 2.742 0 0 0 3.016.312 8.351 8.351 0 0 0 4.992-7.488 6.24 6.24 0 0 0-6.24-6.448c-4.056 0-7.592 4.368-10.92 10.712h-.212zm67.913-9.464h-17.473V30.6c5.1.728 5.824 1.976 4.68 5.72-1.872 6.869-4.472 15.189-6.968 22.68l-7.072-22.777c-1.144-3.848-1.144-4.992 3.848-5.616v-3.12h-24.233V30.6c4.264.52 5.3 1.768 7.176 6.344 2.08 4.992 7.176 19.137 12.377 34.841a9.989 9.989 0 0 1 .728 4.784 27.259 27.259 0 0 1-2.08 4.68c-1.561 2.7-3.745 4.264-7.073 6.344-2.184 1.248-2.912 2.288-2.912 3.848 0 3.224 4.16 6.24 7.072 6.24 1.872 0 3.225-.728 3.849-3.12 1.352-4.992 3.224-11.336 9.36-28.081 5.512-14.664 8.32-22.361 10.816-28.289 2.288-5.72 3.12-6.76 7.905-7.592v-3.12zm44.1 41.6l-.936-3.224a8.856 8.856 0 0 1-3.224.624c-1.768 0-3.224-1.456-3.224-6.032V41.837c0-4.888-.936-9.048-4.472-12.064a15.432 15.432 0 0 0-10.089-3.536c-6.136.936-12.584 4.576-16.64 7.384-2.288 1.664-3.433 3.12-3.433 4.784 0 2.912 3.849 4.992 6.553 4.992 1.872 0 3.12-.832 3.744-3.328.728-3.328 1.56-5.616 2.6-6.968a4.3 4.3 0 0 1 3.744-1.976c2.912 0 5.616 3.12 5.616 9.152v4.264c-2.392 2.184-10.816 4.992-15.6 6.864-5.1 1.976-7.385 4.992-7.385 10.3a13.189 13.189 0 0 0 13.313 13c2.5 0 7.072-3.432 10.3-5.72a9.212 9.212 0 0 0 2.392 3.536A8.273 8.273 0 0 0 180.4 74.7zm-19.765-3.743a4.939 4.939 0 0 1-3.64 1.456c-2.7 0-6.24-2.7-6.24-7.8 0-3.536 1.456-5.2 4.368-6.968 1.872-1.144 3.64-2.288 5.512-3.328v16.64zm72.282 8.112V70.23c-4.784-.624-5.408-.832-5.408-7.384v-20.7c0-9.568-4.369-15.913-12.481-15.913-3.224 0-5.2 1.144-7.9 2.912-1.976 1.352-3.744 2.808-5.824 4.264v-7.28a96.217 96.217 0 0 1-17.681 3.848v2.7c4.68.936 4.992 1.352 4.992 7.592v22.473c0 6.656-.52 6.864-6.344 7.488v3.224h23.5V70.23c-3.848-.52-4.472-.936-4.472-7.176v-25.9c2.5-2.08 4.472-3.016 7.072-3.016 3.64 0 6.448 2.392 6.448 9.568v19.036c0 6.656-.52 6.968-4.68 7.488v3.224h22.777zm64.894-51.066c-.936-6.136-1.664-10.608-1.976-14.561a40.6 40.6 0 0 0-13.209-2.5c-14.352 0-22.257 8.736-22.257 19.553 0 9.984 7.593 15.809 16.849 21.113 7.384 4.264 11.336 8.32 11.336 14.249 0 6.24-3.744 10.5-9.568 10.5-9.464 0-14.664-10.816-16.64-17.161l-3.537 1.144c.728 6.032 1.872 13.832 2.808 16.641a74.253 74.253 0 0 0 6.137 2.184 37.052 37.052 0 0 0 9.36 1.248c14.561 0 23.713-8.944 23.713-20.281 0-10.3-7.072-16.017-17.057-21.425-8.008-4.576-11.648-7.8-11.648-13.728 0-6.032 4.056-10.088 8.944-10.088 7.905 0 11.025 7.28 13.209 13.729zM354.6 61.494c-3.537 2.912-6.241 4.056-10.3 4.056-4.368 0-12.688-4.16-12.688-18.3 0-10.192 3.432-15.809 7.9-15.809 2.808 0 5.616 1.872 9.36 5.616a3.187 3.187 0 0 0 2.184 1.248c1.456 0 4.369-2.5 4.369-5.824.1-1.248-.312-2.5-1.977-3.744a13.77 13.77 0 0 0-8.216-2.5c-4.264 0-10.192 1.976-15.808 6.24-6.657 5.2-10.3 12.584-10.3 20.073 0 11.44 7.488 22.153 20.8 22.153 6.344 0 12.272-4.472 16.641-10.712zm54.08 11.96V70.23c-4.888-.728-5.408-.936-5.408-7.488V42.981c0-10.712-4.473-16.745-13.209-16.745-5.2 0-9.776 3.328-13 6.552V1.379a144.738 144.738 0 0 1-18.305 3.536v3.017c5.3.624 5.616.624 5.616 6.76v48.05c0 6.552-.624 6.968-6.24 7.488v3.224h23.3V70.23c-3.848-.624-4.368-1.04-4.368-7.176V36.741a8.854 8.854 0 0 1 6.76-2.912c3.848 0 6.76 2.6 6.76 10.192v19.033c0 5.928-.416 6.448-4.784 7.176v3.224h22.881zm27.66-47.218c-10.5 0-22.673 8.112-22.673 25.273 0 11.232 7.28 23.193 22.361 23.193 11.44 0 22.153-8.32 22.153-25.169 0-12.376-8.321-23.297-21.841-23.297zm-1.248 3.952c5.72 0 9.048 8.424 9.048 22.361 0 15.289-3.64 18.2-7.176 18.2-5.928 0-9.256-9.88-9.256-22.881 0-12.068 3.432-17.679 7.384-17.679zm52.726-3.952c-10.5 0-22.673 8.112-22.673 25.273 0 11.232 7.28 23.193 22.361 23.193 11.44 0 22.153-8.32 22.153-25.169 0-12.376-8.321-23.297-21.841-23.297zm-1.248 3.952c5.72 0 9.048 8.424 9.048 22.361 0 15.289-3.64 18.2-7.176 18.2-5.928 0-9.256-9.88-9.256-22.881 0-12.068 3.432-17.679 7.384-17.679zm52 43.266V70.23c-5.72-.624-6.24-1.04-6.24-8.008V1.379a133.269 133.269 0 0 1-18.409 3.536v2.809c5.512.832 5.72 1.144 5.72 7.384v47.114c0 6.656-.416 7.28-6.136 8.008v3.224h25.065zm39.517 1.246c6.241 0 12.377-2.912 16.641-6.552 7.28-6.136 11.024-16.329 11.024-25.585 0-9.88-4.68-16.329-14.04-16.329a26.81 26.81 0 0 0-13.521 4.266c-7.7 4.472-14.456 14.249-14.456 27.665 0 7.697 2.912 16.535 14.352 16.535zm3.953-4.576c-2.809 0-5.409-3.536-5.409-10.816 0-17.369 5.617-26.625 8.737-28.081a7.2 7.2 0 0 1 2.184-.52c3.224 0 5.3 3.328 5.3 10.92.1 15.6-4.68 26.521-8.424 27.977a6.606 6.606 0 0 1-2.388.522zM615.526 27.9l-3.64 3.744.416 1.248h7.8c-1.768 10.608-2.912 18.513-5.3 32.033-2.5 15.5-3.848 20.8-4.68 22.881-.624 1.976-1.768 2.7-3.224 2.7-1.664 0-5.1-1.768-7.177-3.536-.728-.624-1.664-.208-2.392.52-1.664 1.352-3.328 3.64-3.328 5.824-.1 2.288 2.912 4.368 6.136 4.368 3.121 0 7.177-1.664 11.857-6.136 6.552-5.928 11.336-13.416 14.976-29.953 2.5-11.545 3.849-20.073 5.409-28.705l9.672-.936 2.288-4.056h-11.028c3.12-19.761 4.888-21.113 6.968-21.009 1.664 0 4.056 1.456 6.968 5.1a2.123 2.123 0 0 0 2.912.312c1.56-1.04 3.536-3.224 3.64-5.616.1-2.5-2.392-5.3-7.176-5.3-5.3 0-12.376 4.056-17.056 8.84C624.99 15 622.7 20.2 621.038 27.9h-5.512zm80.5 9.048c7.072-1.352 14.873-5.72 14.873-15.185a13.654 13.654 0 0 0-5.72-11.44c-3.849-2.6-8.633-3.64-16.329-3.64h-27.877v3.432c7.072.624 7.7 1.56 7.7 9.984v39.835c0 8.528-.728 9.464-8.216 10.088v3.432h24.129c8.008 0 15.6-1.352 20.8-4.472a17.3 17.3 0 0 0 9.048-15.5c0-9.568-7.592-14.665-18.409-16.121v-.412zm-14.352-.832V16.564c0-2.6.312-4.16 1.04-4.784.624-.624 1.768-1.144 3.952-1.144 5.1 0 10.3 3.536 10.3 12.9 0 8.736-3.848 12.585-12.9 12.585h-2.396zm0 3.952h2.08c10.4 0 16.016 4.784 16.016 14.353 0 10.608-6.032 14.768-11.44 14.872-4.992 0-6.656-2.184-6.656-9.36V40.069zm87.881 27.665l-2.5-.208c-3.12-.312-3.64-1.456-3.64-6.656V26.756c-6.344.936-12.377 1.56-18.409 1.872v3.016c5.512 1.04 5.72 1.456 5.72 6.552V63.99c-2.288 2.184-3.952 2.808-6.552 2.808-3.328 0-6.552-2.288-6.552-9.048V42.565c0-6.032.1-11.44.312-15.809-6.24.832-12.169 1.664-18.2 1.872v3.016c4.888 1.04 5.2 1.456 5.2 6.032v22.778c0 8.528 4.265 14.249 12.585 14.249a14.622 14.622 0 0 0 8.632-2.912 24.787 24.787 0 0 0 4.576-3.848v6.032l.832.728a132.158 132.158 0 0 1 17.993-3.744v-3.225zm34.007-28.289a97.3 97.3 0 0 0-2.184-11.336 22.339 22.339 0 0 0-9.465-1.872c-10.816 0-16.744 6.76-16.744 14.665 0 8.32 7.488 12.272 12.584 15.081 5.512 2.912 7.28 5.616 7.28 8.944 0 3.224-2.184 5.928-5.408 5.928-5.824 0-10.192-6.76-12.584-13.312l-3.016.624a76.62 76.62 0 0 0 1.56 13c1.976 1.56 7.072 3.536 12.584 3.536 8.32 0 17.577-4.888 17.577-15.184 0-8.008-5.721-11.753-13.521-15.6-4.68-2.288-6.968-4.68-6.968-8.008 0-3.016 2.288-5.928 5.3-5.928 4.16 0 7.176 3.64 9.985 10.608zm18.407-19.033a7.037 7.037 0 0 0 7.072-7.176 6.952 6.952 0 0 0-6.968-7.176 7.082 7.082 0 0 0-6.968 7.176 7.133 7.133 0 0 0 6.86 7.177zm13.209 53.042V70.23c-5.513-.624-6.137-1.144-6.137-8.112V26.236a128.32 128.32 0 0 1-18.1 3.952V33c4.888 1.04 5.408 1.248 5.408 7.7v21.418c0 7.072-.52 7.488-5.928 8.112v3.224h24.753zm54.08 0V70.23c-4.784-.624-5.408-.832-5.408-7.384v-20.7c0-9.568-4.368-15.913-12.481-15.913-3.224 0-5.2 1.144-7.9 2.912-1.976 1.352-3.744 2.808-5.824 4.264v-7.28a96.2 96.2 0 0 1-17.681 3.848v2.7c4.68.936 4.992 1.352 4.992 7.592v22.473c0 6.656-.52 6.864-6.344 7.488v3.224h23.5V70.23c-3.848-.52-4.472-.936-4.472-7.176v-25.9c2.5-2.08 4.472-3.016 7.072-3.016 3.64 0 6.448 2.392 6.448 9.568v19.036c0 6.656-.52 6.968-4.68 7.488v3.224h22.777zm40.975-12.168c-3.328 2.912-6.448 4.264-10.713 4.264-6.864 0-12.792-5.928-13.1-17.057 9.568-.416 21.841-1.352 23.3-1.664 2.392-.416 2.808-1.56 2.808-3.848.1-8.424-6.552-16.745-15.913-16.745-5.72 0-11.128 3.12-15.08 7.28a27.561 27.561 0 0 0-7.281 19.033c0 11.752 7.385 22.153 20.489 22.153 4.264 0 11.753-2.288 17.369-10.816zm-15.393-31.1c3.64 0 5.72 5.616 5.72 10.816 0 1.872-.52 2.392-2.184 2.392-3.848.208-7.384.312-11.44.312.516-7.905 4.156-13.516 7.9-13.516zm52.831 9.256a97.3 97.3 0 0 0-2.184-11.336 22.335 22.335 0 0 0-9.465-1.872c-10.816 0-16.744 6.76-16.744 14.665 0 8.32 7.488 12.272 12.584 15.081 5.512 2.912 7.28 5.616 7.28 8.944 0 3.224-2.184 5.928-5.408 5.928-5.824 0-10.192-6.76-12.584-13.312l-3.016.624a76.62 76.62 0 0 0 1.56 13c1.976 1.56 7.072 3.536 12.584 3.536 8.32 0 17.577-4.888 17.577-15.184 0-8.008-5.72-11.753-13.521-15.6-4.68-2.288-6.968-4.68-6.968-8.008 0-3.016 2.288-5.928 5.3-5.928 4.16 0 7.177 3.64 9.985 10.608zm37.333 0a95.981 95.981 0 0 0-2.18-11.336 22.328 22.328 0 0 0-9.465-1.872c-10.816 0-16.744 6.76-16.744 14.665 0 8.32 7.488 12.272 12.584 15.081 5.512 2.912 7.28 5.616 7.28 8.944 0 3.224-2.184 5.928-5.408 5.928-5.824 0-10.192-6.76-12.584-13.312l-3.016.624a76.62 76.62 0 0 0 1.56 13C979 72.726 984.1 74.7 989.611 74.7c8.32 0 17.579-4.888 17.579-15.184 0-8.008-5.72-11.753-13.523-15.6-4.68-2.288-6.968-4.68-6.968-8.008 0-3.016 2.288-5.928 5.3-5.928 4.16 0 7.176 3.64 9.987 10.608zm72.8 20.9c-2.28 2.288-5.51 4.68-6.45 4.68-.62 0-.83-.936-.31-3.744 2.29-13 4.89-24.025 6.97-33.073l-.41-.416a31.409 31.409 0 0 1-5.72-.832 35.17 35.17 0 0 0-6.04-.728c-7.59 0-16.85 4.784-21.42 9.256-6.66 6.552-10.92 17.265-10.92 27.145 0 8.008 3.01 12.064 6.76 12.064 3.22 0 7.07-2.5 10.19-5.1a57.042 57.042 0 0 0 9.78-10.712h.2l-1.04 5.3c-1.76 8.944.32 10.5 2.6 10.5 3.12 0 10.51-3.328 17.48-11.752zm-29.43 5.1c-1.14 0-1.98-1.456-1.98-5.1 0-9.568 3.23-22.257 9.36-27.457a7.158 7.158 0 0 1 4.68-1.664 11.408 11.408 0 0 1 5.31 1.352c-1.04 5.1-2.71 12.168-4.16 18.1-1.464 3.437-9.884 14.774-13.214 14.774zm81.23-4.264c-2.4 2.08-5.31 3.848-6.04 3.848s-.83-1.04-.2-3.952c1.45-6.448 3.01-13.416 4.36-19.241 3.02-13.1.32-15.6-3.32-15.6a15.167 15.167 0 0 0-7.7 2.912c-4.78 3.12-9.67 7.8-14.77 14.873h-.21l1.46-6.552c1.66-8.112.62-11.233-2.19-11.233-3.74 0-10.19 4.056-16.74 10.92l1.46 2.912c2.18-2.08 5.3-4.16 6.13-4.16.73 0 .63 1.04 0 4.264-2.81 13.417-5.82 25.273-7.69 33.385l.62.832a63.958 63.958 0 0 1 11.44-1.976c1.14-6.136 3.22-15.289 4.58-20.489 3.43-6.76 12.48-16.849 15.29-16.849 1.24 0 1.45 1.352.2 6.656-1.76 7.592-3.53 15.393-5.4 23.089-1.77 7.7.31 9.88 3.01 9.88 3.43 0 10.09-3.224 17.16-10.712zm52.72-.624c-2.18 2.288-5.3 4.264-6.13 4.264-.73 0-.94-.832-.42-3.848 3.64-19.969 7.18-37.649 11.44-56.474.63-2.5.21-3.12-.73-3.12-1.66 0-7.8 2.7-18.3 3.64l-.52 3.328 2.6.208c3.43.208 4.26.728 3.54 4.472l-2.71 13.729a13.744 13.744 0 0 0-4.57-.52c-4.17 0-13.11 3.744-18.41 8.424-6.87 6.24-11.34 17.265-11.34 27.249 0 8.528 3.43 12.792 7.59 12.792 3.64 0 7.18-2.184 10.4-5.1a62.5 62.5 0 0 0 10.09-10.92h.21l-.94 4.784c-1.87 9.672 0 11.232 2.71 11.232 3.53 0 11.02-4.056 17.05-11.44zm-30.05 4.992c-1.56 0-2.6-2.392-2.6-6.032 0-7.8 3.01-21.217 8.73-26.625a6.5 6.5 0 0 1 4.89-1.976 10.318 10.318 0 0 1 6.45 2.288l-3.54 17.057c-2.914 5.828-10.094 15.293-13.934 15.293zM1256.79 56.4a34.864 34.864 0 0 1-5.2 9.568c-2.19 2.5-5.2 3.328-10.72 3.328-3.74 0-6.55-.208-8.11-1.144-1.66-.832-2.18-3.12-2.18-8.008V41.317h5.93c8.32 0 9.15.312 10.71 7.8h3.53V28.732h-3.53c-1.56 7.28-2.5 7.7-10.71 7.7h-5.93V14.588c0-3.432.41-3.744 3.74-3.744h3.75c6.24 0 8.94.936 10.4 2.808 1.56 1.768 2.6 4.576 3.64 8.32l3.53-.52c-.41-5.824-.93-13.1-1.04-14.769h-44.82v3.432c6.55.624 7.49 1.144 7.49 9.568v40.563c0 8.528-.94 9.048-8.64 9.776v3.432h48.36c.84-3.016 2.71-12.272 3.33-16.225zm44.09 5.1c-3.54 2.912-6.24 4.056-10.3 4.056-4.36 0-12.68-4.16-12.68-18.3 0-10.192 3.43-15.809 7.9-15.809 2.81 0 5.62 1.872 9.36 5.616a3.2 3.2 0 0 0 2.18 1.248c1.46 0 4.37-2.5 4.37-5.824.11-1.248-.31-2.5-1.97-3.744a13.8 13.8 0 0 0-8.22-2.5c-4.26 0-10.19 1.976-15.81 6.24-6.65 5.2-10.29 12.584-10.29 20.073 0 11.44 7.48 22.153 20.8 22.153 6.34 0 12.27-4.472 16.64-10.712zm28.6-35.257c-10.51 0-22.67 8.112-22.67 25.273 0 11.232 7.28 23.193 22.36 23.193 11.44 0 22.15-8.32 22.15-25.169 0-12.383-8.32-23.304-21.84-23.304zm-1.25 3.952c5.72 0 9.05 8.424 9.05 22.361 0 15.289-3.64 18.2-7.18 18.2-5.93 0-9.25-9.88-9.25-22.881 0-12.075 3.43-17.686 7.38-17.686zm78.11 43.266V70.23c-4.79-.624-5.41-.832-5.41-7.384v-20.7c0-9.568-4.37-15.913-12.48-15.913-3.23 0-5.2 1.144-7.91 2.912-1.97 1.352-3.74 2.808-5.82 4.264v-7.28a96.37 96.37 0 0 1-17.68 3.848v2.7c4.68.936 4.99 1.352 4.99 7.592v22.473c0 6.656-.52 6.864-6.34 7.488v3.224h23.5V70.23c-3.85-.52-4.47-.936-4.47-7.176v-25.9c2.49-2.08 4.47-3.016 7.07-3.016 3.64 0 6.45 2.392 6.45 9.568v19.036c0 6.656-.52 6.968-4.68 7.488v3.224h22.78zM1434 26.236c-10.51 0-22.67 8.112-22.67 25.273 0 11.232 7.28 23.193 22.36 23.193 11.44 0 22.15-8.32 22.15-25.169 0-12.376-8.32-23.297-21.84-23.297zm-1.25 3.952c5.72 0 9.05 8.424 9.05 22.361 0 15.289-3.64 18.2-7.18 18.2-5.93 0-9.25-9.88-9.25-22.881 0-12.068 3.43-17.679 7.38-17.679zm104.63 43.266V70.23c-5-.728-5.41-1.04-5.41-7.384v-20.7c0-9.568-4.06-15.913-12.69-15.913-2.91 0-5.72 1.456-8.22 3.224-2.49 1.664-4.47 3.12-6.55 4.68a11.659 11.659 0 0 0-11.02-7.9c-3.33 0-5.83 1.456-9.05 3.536-1.98 1.352-3.43 2.5-5.2 3.848v-7.489a115.28 115.28 0 0 1-17.58 3.848v2.7c4.78 1.04 4.89 1.456 4.89 7.592v22.47c0 6.448-.42 6.864-6.24 7.488v3.224h23.4V70.23c-3.85-.624-4.47-1.04-4.47-7.176V37.365c2.39-2.08 4.57-3.12 7.07-3.12 3.85 0 6.66 2.6 6.66 9.36v19.449c0 6.24-.52 6.552-4.89 7.176v3.224h22.36V70.23c-4.27-.624-4.79-1.04-4.79-7.176V41.421c0-1.144-.1-2.392-.2-3.952 3.01-2.7 4.99-3.12 7.28-3.12 3.43 0 6.55 2.08 6.55 9.464v19.033c0 6.344-.63 6.864-4.79 7.384v3.224h22.89zm16.11-53.042a7.041 7.041 0 0 0 7.08-7.176 6.955 6.955 0 0 0-6.97-7.176 7.08 7.08 0 0 0-6.97 7.176 7.129 7.129 0 0 0 6.86 7.176zm13.21 53.042V70.23c-5.51-.624-6.13-1.144-6.13-8.112V26.236a128.555 128.555 0 0 1-18.1 3.952V33c4.89 1.04 5.41 1.248 5.41 7.7v21.418c0 7.072-.52 7.488-5.93 8.112v3.224h24.75zm39.63-11.96c-3.54 2.912-6.25 4.056-10.3 4.056-4.37 0-12.69-4.16-12.69-18.3 0-10.192 3.43-15.809 7.9-15.809 2.81 0 5.62 1.872 9.36 5.616a3.212 3.212 0 0 0 2.19 1.248c1.46 0 4.37-2.5 4.37-5.824a4.045 4.045 0 0 0-1.98-3.744 13.755 13.755 0 0 0-8.22-2.5c-4.26 0-10.19 1.976-15.8 6.24-6.66 5.2-10.3 12.584-10.3 20.073 0 11.44 7.49 22.153 20.8 22.153 6.34 0 12.27-4.472 16.64-10.712zm35.77-22.049c-.21-1.56-1.35-8.944-2.18-11.336a22.367 22.367 0 0 0-9.47-1.872c-10.81 0-16.74 6.76-16.74 14.665 0 8.32 7.49 12.272 12.58 15.081 5.51 2.912 7.28 5.616 7.28 8.944 0 3.224-2.18 5.928-5.41 5.928-5.82 0-10.19-6.76-12.58-13.312l-3.02.624a77.658 77.658 0 0 0 1.56 13c1.98 1.56 7.08 3.536 12.59 3.536 8.32 0 17.57-4.888 17.57-15.184 0-8.008-5.72-11.753-13.52-15.6-4.68-2.288-6.96-4.68-6.96-8.008 0-3.016 2.28-5.928 5.3-5.928 4.16 0 7.18 3.64 9.98 10.608z"/></svg>