<svg id="Layer_1" xmlns="http://www.w3.org/2000/svg" viewBox="0 0 155.4 40.6"><style>.st0{fill:#FFFFFF;}</style><path class="st0" d="M0 23.9V.3h5.5c3.9 0 5.8 2.1 5.8 6.2 0 1.1-.2 2.1-.6 3-.4.9-1.1 1.6-1.9 1.9 2 1 3 2.8 3 5.6 0 2.1-.5 3.7-1.4 5-.9 1.2-2.4 1.8-4.4 1.8H0zM3.7 3.7V10h1.4c.7 0 1.3-.3 1.8-.8s.7-1.3.7-2.2c0-2.2-.8-3.3-2.4-3.3H3.7zm0 9.6v7.2h1.6c1 0 1.7-.3 2.1-.9.4-.5.6-1.5.6-2.7 0-1.2-.2-2.2-.7-2.7-.5-.6-1.3-.9-2.4-.9H3.7zM17.3 14.2v9.7h-3.7V.3h5.2c2.1 0 3.7.5 4.8 1.6 1 1.1 1.6 2.9 1.6 5.3 0 3.1-.9 5.1-2.6 5.9l3.2 10.7H22L19.3 14c-.6.2-1.2.2-2 .2m0-10.5v7.2h1.3c1 0 1.7-.3 2.2-.8.4-.5.6-1.5.6-2.8 0-1.4-.2-2.3-.6-2.8s-1.1-.8-2.2-.8h-1.3zM34.6 14.1v9.8h-3.7v-9.8L26.4.3h3.8l2.6 9h.1l2.5-9h3.8zM42.4 18.7l-.7 5.2h-3.6l4-23.5h4.6l4 23.5h-3.6l-.7-5.2h-4zM44.5 5L43 15.1h3L44.5 5zM56.4 23.9H53V.3h3.5L61 13.8h.1V.3h3.3v23.6h-3.2L56.4 9.2zM85.1 5.7l-3.6.4c-.1-.9-.3-1.6-.7-2-.4-.4-.8-.6-1.3-.6-1.2 0-1.9.8-1.9 2.3 0 .7.3 1.4.8 2.2.5.7 1.2 1.4 1.9 2.1.7.7 1.5 1.4 2.2 2.1.7.7 1.4 1.6 1.9 2.7.5 1 .8 2.1.8 3.3 0 1.9-.5 3.4-1.6 4.5s-2.5 1.6-4.3 1.6c-1.7 0-3-.6-4-1.9-1-1.3-1.5-2.8-1.6-4.6l3.6-.6c.1 1.2.3 2 .7 2.6.4.6.9.9 1.5.9.7 0 1.2-.2 1.6-.6.4-.4.6-.9.6-1.6 0-.8-.3-1.7-.8-2.4-.5-.8-1.2-1.5-1.9-2.1-.7-.7-1.5-1.3-2.2-2-.7-.7-1.4-1.6-1.9-2.6s-.8-2.2-.8-3.4c0-1.9.5-3.3 1.5-4.3S78 .2 79.9.2c1.5 0 2.7.5 3.6 1.6.9.8 1.4 2.2 1.6 3.9M99.1 8.2h-3.7V6.4c0-.9-.2-1.6-.5-2.1s-.8-.7-1.3-.7c-.7 0-1.2.2-1.5.6-.3.4-.5 1.1-.5 2v11.9c0 .9.2 1.6.5 2 .3.4.8.6 1.5.6s1.1-.2 1.4-.6c.3-.4.4-1 .4-1.8v-2.8h3.7v2.7c0 1.8-.5 3.2-1.4 4.3-1 1.1-2.3 1.7-4.1 1.7-1.9 0-3.3-.6-4.3-1.7s-1.5-2.6-1.5-4.3V6c0-1.8.5-3.2 1.5-4.3C90.3.6 91.7 0 93.6 0c1.8 0 3.2.6 4.1 1.8 1 1.2 1.4 2.8 1.4 4.6v1.8zM106.3 23.9h-3.7V.3h3.7v9.6h4V.3h3.8v23.6h-3.8V13.4h-4zM116.9 18.2V6c0-1.8.5-3.2 1.5-4.3 1-1.1 2.4-1.7 4.3-1.7s3.3.6 4.3 1.7 1.5 2.6 1.5 4.3v12.1c0 1.8-.5 3.2-1.5 4.3-1 1.1-2.4 1.7-4.3 1.7s-3.3-.6-4.3-1.7c-1-1-1.5-2.5-1.5-4.2m3.8-12.1V18c0 .9.2 1.6.5 2 .3.4.8.6 1.5.6s1.2-.2 1.5-.6.5-1.1.5-2V6.1c0-.9-.2-1.6-.5-2-.3-.4-.8-.6-1.5-.6s-1.2.2-1.5.6c-.4.5-.5 1.1-.5 2M130.5 18.2V6c0-1.8.5-3.2 1.5-4.3 1-1.1 2.4-1.7 4.3-1.7s3.3.6 4.3 1.7 1.5 2.6 1.5 4.3v12.1c0 1.8-.5 3.2-1.5 4.3-1 1.1-2.4 1.7-4.3 1.7s-3.3-.6-4.3-1.7c-1-1-1.5-2.5-1.5-4.2m3.7-12.1V18c0 .9.1 1.6.5 2 .3.4.8.6 1.5.6s1.2-.2 1.5-.6c.3-.4.5-1.1.5-2V6.1c0-.9-.1-1.6-.5-2-.3-.4-.8-.6-1.5-.6s-1.2.2-1.5.6c-.3.5-.5 1.1-.5 2M155 23.9h-9.6V.3h3.7v20h5.9zM.1 37.2v-2.6c0-2.2.9-3.3 2.8-3.3 1.8 0 2.8 1.1 2.8 3.3v2.6c0 2.2-.9 3.3-2.8 3.3-1.8.1-2.8-1-2.8-3.3m3.8.4v-3.3c0-1-.3-1.5-1-1.5s-1 .5-1 1.5v3.3c0 1 .3 1.5 1 1.5.6-.1 1-.6 1-1.5M7.6 40.4v-7.5h-1v-1.5h1v-1.1c0-1.4.7-2.1 2-2.1h.9v1.5H10c-.2 0-.4 0-.5.1-.1.1-.1.2-.1.5v1.1h1v1.5h-1v7.5H7.6zM15.3 40.4V28.3h2.9c2 0 3 1.1 3 3.2 0 .6-.1 1.1-.3 1.5-.2.5-.6.8-1 1 1.1.5 1.6 1.4 1.6 2.9 0 1.1-.2 1.9-.7 2.6-.5.6-1.3.9-2.3.9h-3.2zM17.2 30v3.2h.8c.4 0 .7-.1 1-.4.2-.3.4-.6.4-1.1 0-1.1-.4-1.7-1.3-1.7h-.9zm0 5v3.7h.8c.5 0 .9-.2 1.1-.5.2-.3.3-.8.3-1.4 0-.6-.1-1.1-.4-1.4-.3-.3-.7-.5-1.2-.5h-.6zM26.7 31.4h1.8v9h-1.7v-.9c-.3.3-.6.5-.7.6-.1.1-.3.2-.6.3-.3.1-.6.2-.9.2-.5 0-.8-.2-1.1-.5-.3-.3-.4-.8-.4-1.4v-7.3h1.8v7c0 .4.2.7.6.7.3 0 .6-.2 1.1-.6v-7.1zM34.9 33.6l-1.5.3c-.1-.7-.5-1.1-1-1.1-.2 0-.4.1-.6.2-.1.1-.2.3-.2.5 0 .3.1.5.3.8.2.3.5.5.8.7.3.2.7.5 1 .8.3.3.6.6.8 1 .2.4.3.9.3 1.4 0 .8-.2 1.4-.7 1.8-.5.4-1.1.6-1.8.6-1.5 0-2.4-.8-2.7-2.5l1.6-.5c.1.9.5 1.4 1.2 1.4.2 0 .4-.1.6-.2.1-.1.2-.3.2-.6s-.1-.6-.3-.8c-.2-.3-.5-.5-.8-.8-.3-.2-.7-.5-1-.8-.3-.3-.6-.6-.8-1-.2-.4-.3-.8-.3-1.3 0-.7.2-1.3.7-1.7.5-.5 1-.7 1.7-.7s1.2.2 1.7.7c.3.5.6 1.1.8 1.8M38.1 30h-1.8v-1.7h1.8V30zm0 10.4h-1.8v-9h1.8v9zM41.6 40.4h-1.8v-9h1.7v.9c.3-.3.6-.5.7-.6.1-.1.3-.2.6-.3.3-.1.6-.2.9-.2.5 0 .8.2 1.1.5.3.3.4.8.4 1.4v7.3h-1.8v-7c0-.4-.2-.7-.6-.7-.3 0-.6.2-1.1.6v7.1zM52.3 34.6v1.7h-3.7v1.3c0 1 .3 1.5 1 1.5s1-.5 1-1.5v-.2h1.8c0 2.1-1 3.2-2.8 3.2-1.8 0-2.8-1.1-2.8-3.3v-2.6c0-2.2.9-3.3 2.8-3.3 1.8-.2 2.7 1 2.7 3.2m-3.8.1h2v-.5c0-1-.3-1.5-1-1.5s-1 .5-1 1.5v.5zM58.6 33.6l-1.5.3c-.1-.7-.5-1.1-1-1.1-.2 0-.4.1-.6.2-.1.1-.2.3-.2.5 0 .3.1.5.3.8.2.3.5.5.8.7.3.2.7.5 1 .8.3.3.6.6.8 1 .2.4.3.9.3 1.4 0 .8-.2 1.4-.7 1.8-.5.4-1.1.6-1.8.6-1.5 0-2.4-.8-2.7-2.5l1.6-.5c.1.9.5 1.4 1.2 1.4.2 0 .4-.1.6-.2.1-.1.2-.3.2-.6s-.1-.6-.3-.8c-.2-.3-.5-.5-.8-.8-.3-.2-.7-.5-1-.8-.3-.3-.6-.6-.8-1-.2-.4-.3-.8-.3-1.3 0-.7.2-1.3.7-1.7.5-.5 1-.7 1.7-.7s1.2.2 1.7.7c.4.5.7 1.1.8 1.8M64.8 33.6l-1.5.3c-.1-.7-.5-1.1-1-1.1-.2 0-.4.1-.6.2-.1.1-.2.3-.2.5 0 .3.1.5.3.8.2.3.5.5.8.7.3.2.7.5 1 .8.3.3.6.6.8 1s.3.9.3 1.4c0 .8-.2 1.4-.7 1.8-.5.4-1.1.6-1.8.6-1.5 0-2.4-.8-2.7-2.5l1.6-.5c.1.9.5 1.4 1.2 1.4.2 0 .4-.1.6-.2.1-.1.2-.3.2-.6s-.1-.6-.3-.8c-.2-.3-.5-.5-.8-.8-.3-.2-.7-.5-1-.8-.3-.3-.6-.6-.8-1-.2-.4-.3-.8-.3-1.3 0-.7.2-1.3.7-1.7.5-.5 1-.7 1.7-.7s1.2.2 1.7.7c.4.5.7 1.1.8 1.8M71.3 34.1h-1.8c0-.9.3-1.6.8-2.1s1.2-.7 2-.7 1.5.2 1.9.6c.4.4.7 1 .7 1.8v5.8c0 .2 0 .5.1 1h-1.7c0-.1 0-.2-.1-.4v-.3c-.7.6-1.4.9-2.1.9-.6 0-1-.2-1.3-.6-.3-.4-.5-.9-.5-1.5 0-1 .3-1.7.9-2.4.6-.6 1.6-1.2 2.9-1.7V34c0-.8-.3-1.2-.9-1.2-.4 0-.6.1-.8.3 0 .2 0 .5-.1 1m1.9 4.1v-2.4c-.8.5-1.3.9-1.6 1.2-.3.4-.4.7-.4 1.1 0 .5.3.8.8.8.4.1.8-.1 1.2-.7M78.6 40.4h-1.8v-9h1.7v.9c.3-.3.6-.5.7-.6.1-.1.3-.2.6-.3.3-.1.6-.2.9-.2.5 0 .8.2 1.1.5.3.3.4.8.4 1.4v7.3h-1.8v-7c0-.4-.2-.7-.6-.7-.3 0-.6.2-1.1.6v7.1zM89.1 40.4h-1.7v-.9c-.3.4-.6.7-.9.9-.3.2-.6.2-1 .2-.6 0-1-.2-1.3-.7-.3-.4-.5-1.1-.5-1.9v-4.3c0-.8.2-1.4.5-1.9.3-.4.8-.7 1.3-.7.2 0 .5 0 .7.1.2.1.4.2.5.3.1.1.3.3.6.5v-3.8h1.8v12.2zm-1.7-1.8v-5.3c-.4-.3-.7-.5-1-.5-.6 0-.9.5-.9 1.5v3.3c0 1 .3 1.5.9 1.5.2-.1.6-.2 1-.5M99.9 40.4h-5.4V28.3h5.2v1.8h-3.3v3.1H99v1.9h-2.6v3.5h3.5zM106.8 34.5H105v-.2c0-1-.3-1.5-1-1.5s-1 .5-1 1.5v3.3c0 1 .3 1.5 1 1.5s1-.5 1-1.5V37h1.8v.2c0 2.2-.9 3.3-2.8 3.3-1.8 0-2.8-1.1-2.8-3.3v-2.6c0-2.2.9-3.3 2.8-3.3 1.9-.1 2.8 1 2.8 3.2M108.3 37.2v-2.6c0-2.2.9-3.3 2.8-3.3 1.8 0 2.8 1.1 2.8 3.3v2.6c0 2.2-.9 3.3-2.8 3.3-1.8.1-2.8-1-2.8-3.3m3.8.4v-3.3c0-1-.3-1.5-1-1.5s-1 .5-1 1.5v3.3c0 1 .3 1.5 1 1.5.7-.1 1-.6 1-1.5M117.3 40.4h-1.8v-9h1.7v.9c.3-.3.6-.5.7-.6.1-.1.3-.2.6-.3.3-.1.6-.2.9-.2.5 0 .8.2 1.1.5.3.3.4.8.4 1.4v7.3H119v-7c0-.4-.2-.7-.6-.7-.3 0-.6.2-1.1.6v7.1zM122.4 37.2v-2.6c0-2.2.9-3.3 2.8-3.3 1.8 0 2.8 1.1 2.8 3.3v2.6c0 2.2-.9 3.3-2.8 3.3-1.9.1-2.8-1-2.8-3.3m3.8.4v-3.3c0-1-.3-1.5-1-1.5s-1 .5-1 1.5v3.3c0 1 .3 1.5 1 1.5.6-.1 1-.6 1-1.5M134.9 40.4h-1.8v-7c0-.4-.2-.7-.6-.7-.3 0-.6.2-1.1.6v7.1h-1.8v-9h1.7v.9c.6-.5.9-.8 1.2-.9.2-.1.5-.2.8-.2.4 0 .7.1.9.2.2.2.4.4.6.8.4-.4.8-.7 1-.9.3-.1.6-.2.9-.2.6 0 1 .2 1.2.5.3.3.4.8.4 1.4v7.3h-1.8v-7c0-.4-.2-.7-.6-.7-.3 0-.6.2-1.1.6v7.2zM141.9 30h-1.8v-1.7h1.8V30zm0 10.4h-1.8v-9h1.8v9zM149.1 34.5h-1.8v-.2c0-1-.3-1.5-1-1.5s-1 .5-1 1.5v3.3c0 1 .3 1.5 1 1.5s1-.5 1-1.5V37h1.8v.2c0 2.2-.9 3.3-2.8 3.3-1.8 0-2.8-1.1-2.8-3.3v-2.6c0-2.2.9-3.3 2.8-3.3 1.8-.1 2.7 1 2.8 3.2M155.4 33.6l-1.5.3c-.1-.7-.5-1.1-1-1.1-.2 0-.4.1-.6.2-.1.1-.2.3-.2.5 0 .3.1.5.3.8.2.3.5.5.8.7.3.2.7.5 1 .8.3.3.6.6.8 1 .2.4.3.9.3 1.4 0 .8-.2 1.4-.7 1.8-.5.4-1.1.6-1.8.6-1.5 0-2.4-.8-2.7-2.5l1.6-.5c.1.9.5 1.4 1.2 1.4.2 0 .4-.1.6-.2.1-.1.2-.3.2-.6s-.1-.6-.3-.8c-.2-.3-.5-.5-.8-.8-.3-.2-.7-.5-1-.8-.3-.3-.6-.6-.8-1-.2-.4-.3-.8-.3-1.3 0-.7.2-1.3.7-1.7.5-.5 1-.7 1.7-.7s1.2.2 1.7.7c.4.5.7 1.1.8 1.8"/></svg>