<svg id="Layer_1" xmlns="http://www.w3.org/2000/svg" viewBox="0 0 67 68.6"><style>.st0{fill:none;stroke:#FFFFFF;stroke-width:4;stroke-miterlimit:10;} .st1{fill:#FFFFFF;stroke:#FFFFFF;stroke-width:2;stroke-miterlimit:10;}</style><path class="st0" d="M61.2 66.6H5.8c-2.1 0-3.8-1.7-3.8-3.8v-52C2 8.7 3.7 7 5.8 7h55.4c2.1 0 3.8 1.7 3.8 3.8v51.9c0 2.1-1.7 3.9-3.8 3.9zM65 23.3H2h63z"/><path class="st1" d="M18.7 13.3c-.9 0-1.7-.7-1.7-1.7v-9c0-.9.7-1.6 1.7-1.6.9 0 1.7.7 1.7 1.7v9c-.1.9-.8 1.6-1.7 1.6zM49.7 13.3c-.9 0-1.7-.7-1.7-1.7v-9c0-.9.8-1.6 1.7-1.6.9 0 1.7.7 1.7 1.7v9c-.1.9-.8 1.6-1.7 1.6z"/></svg>