<svg xmlns="http://www.w3.org/2000/svg" viewBox="0 0 162 125"><title>Fill 93</title><path d="M63.355 3.325L3.967 53.307a10.507 10.507 0 0 0-3.76 7.906c-.022 3.05 1.234 6.005 3.547 8.056l59.393 52.7c4.35 3.857 11.028 3.46 14.893-.89 3.857-4.35 3.456-11.03-.892-14.888L38.814 72.178h110.503c6.863 0 12.445-4.733 12.445-10.55 0-5.815-5.582-10.545-12.445-10.545H39.37l37.57-31.62a10.531 10.531 0 0 0 3.754-8.07c0-2.487-.88-4.9-2.477-6.792A10.487 10.487 0 0 0 71.05.891a10.496 10.496 0 0 0-7.694 2.44" fill-rule="evenodd"/></svg>