<svg id="Layer_1" xmlns="http://www.w3.org/2000/svg" xmlns:xlink="http://www.w3.org/1999/xlink" viewBox="0 0 17.3 17.3"><style>.st0{clip-path:url(#SVGID_2_);fill:#fff}</style><defs><path id="SVGID_1_" d="M.5 8.4c0 4.5 3.7 8.2 8.2 8.2S17 13 17 8.4 13.3.2 8.8.2.5 3.9.5 8.4"/></defs><clipPath id="SVGID_2_"><use xlink:href="#SVGID_1_" overflow="visible"/></clipPath><path class="st0" d="M10.7 0H6.6l2 6zM6.6 17.3h4.1l-2.1-6.1zM16.2 4l-2.9-2.9-2.8 5.7zM1.1 13.3L4 16.2l2.8-5.7zm10.1-4.7l6.1 2.1V6.6zM0 6.6v4.1l6-2.1zm13.3 9.6l2.9-2.9-5.7-2.8zM4 1.1L1.1 4l5.7 2.8z"/></svg>