<svg version="1.1" id="Layer_1" xmlns="http://www.w3.org/2000/svg" xmlns:xlink="http://www.w3.org/1999/xlink" x="0px" y="0px"
	 viewBox="0 0 17.3 17.3" style="enable-background:new 0 0 17.3 17.3;" xml:space="preserve">
<style type="text/css">
	.st0{clip-path:url(#SVGID_2_);fill:#FFFFFF;}
</style>
<g>
	<defs>
		<path id="SVGID_1_" d="M0.5,8.4c0,4.5,3.7,8.2,8.2,8.2S17,13,17,8.4s-3.7-8.2-8.2-8.2S0.5,3.9,0.5,8.4"/>
	</defs>
	<clipPath id="SVGID_2_">
		<use xlink:href="#SVGID_1_"  style="overflow:visible;"/>
	</clipPath>
	<polygon class="st0" points="10.7,0 6.6,0 8.6,6 	"/>
	<polygon class="st0" points="6.6,17.3 10.7,17.3 8.6,11.2 	"/>
	<polygon class="st0" points="16.2,4 13.3,1.1 10.5,6.8 	"/>
	<polygon class="st0" points="1.1,13.3 4,16.2 6.8,10.5 	"/>
	<polygon class="st0" points="11.2,8.6 17.3,10.7 17.3,6.6 	"/>
	<polygon class="st0" points="0,6.6 0,10.7 6,8.6 	"/>
	<polygon class="st0" points="13.3,16.2 16.2,13.3 10.5,10.5 	"/>
	<polygon class="st0" points="4,1.1 1.1,4 6.8,6.8 	"/>
</g>
</svg>