<svg width="200" height="200" xmlns="http://www.w3.org/2000/svg" viewBox="0 0 100 100"><path style="text-indent:0;text-transform:none;block-progression:tb" d="M42.997 10C24.844 10 10 24.844 10 42.997s14.844 32.997 32.997 32.997c6.918 0 13.336-2.17 18.654-5.843l18.093 18.092a6.018 6.018 0 0 0 8.499 0 5.98 5.98 0 0 0 0-8.468L70.15 61.683c3.675-5.32 5.843-11.766 5.843-18.686C75.994 24.844 61.15 10 42.997 10zm0 11.999a20.908 20.908 0 0 1 20.998 20.998 20.908 20.908 0 0 1-20.998 20.998 20.908 20.908 0 0 1-20.998-20.998A20.908 20.908 0 0 1 42.997 22z" overflow="visible" color="#000"/></svg>