<svg width='200' height='200' fill="#000000" xmlns:dc="http://purl.org/dc/elements/1.1/" xmlns:cc="http://creativecommons.org/ns#" xmlns:rdf="http://www.w3.org/1999/02/22-rdf-syntax-ns#" xmlns:svg="http://www.w3.org/2000/svg" xmlns="http://www.w3.org/2000/svg" xmlns:sodipodi="http://sodipodi.sourceforge.net/DTD/sodipodi-0.dtd" xmlns:inkscape="http://www.inkscape.org/namespaces/inkscape" version="1.1" x="0px" y="0px" viewBox="0 0 100 100"><g transform="translate(0,-952.36218)"><path style="text-indent:0;text-transform:none;direction:ltr;block-progression:tb;baseline-shift:baseline;color:#000000;enable-background:accumulate;" d="m 42.996963,962.3622 c -18.1525,0 -32.9969995,14.84426 -32.9969995,32.99703 0,18.15267 14.8444995,32.99697 32.9969995,32.99697 6.918301,0 13.3359,-2.1695 18.6545,-5.8432 l 18.092199,18.0921 c 2.342799,2.3427 6.156499,2.3428 8.4992,0 2.342899,-2.3429 2.342899,-6.1251 0,-8.468 L 70.150761,1014.045 c 3.6755,-5.3194 5.8433,-11.7656 5.8433,-18.68577 0,-18.15277 -14.844498,-32.99703 -32.997098,-32.99703 z m 0,11.99892 c 11.6678,0 20.9981,9.33026 20.9981,20.99811 0,11.66777 -9.3303,20.99807 -20.9981,20.99807 -11.667699,0 -20.9981,-9.3303 -20.9981,-20.99807 0,-11.66785 9.330401,-20.99811 20.9981,-20.99811 z" fill="#000000" fill-opacity="1" stroke="none" marker="none" visibility="visible" display="inline" overflow="visible"/></g></svg>