<?xml version="1.0" encoding="utf-8"?>
<!-- Generator: Adobe Illustrator 21.1.0, SVG Export Plug-In . SVG Version: 6.00 Build 0)  -->
<svg version="1.1" id="Layer_1" xmlns="http://www.w3.org/2000/svg" xmlns:xlink="http://www.w3.org/1999/xlink" x="0px" y="0px"
	 viewBox="0 0 1144 139" style="enable-background:new 0 0 1144 139;" xml:space="preserve">
<style type="text/css">
	.st0{fill:#2F1B61;}
	.st1{fill:#EEB313;}
</style>
<g>
	<path class="st0" d="M1069.17,57.984c0-8.092,0.023-16.016-0.01-23.94c-0.016-3.785-0.115-7.569-0.222-11.353
		c-0.033-1.159-0.164-2.322-0.345-3.468c-0.341-2.158-1.664-3.319-3.827-3.515c-0.651-0.059-1.31-0.035-1.963-0.082
		c-0.677-0.049-1.754,0.241-1.729-0.749c0.023-0.927,1.106-0.731,1.776-0.711c5.745,0.173,11.49,0.251,17.236,0.003
		c0.593-0.026,1.544-0.209,1.593,0.663c0.049,0.889-0.874,0.742-1.495,0.796c-3.644,0.316-4.478,0.934-4.799,4.556
		c-0.302,3.4-0.238,6.833-0.301,10.252c-0.252,13.751-0.486,27.503-0.746,41.254c-0.016,0.841,0.247,1.937-0.678,2.38
		c-1.018,0.488-1.776-0.388-2.431-1.029c-3.904-3.818-7.804-7.64-11.652-11.515c-10.258-10.328-20.749-20.431-30.758-31.917
		c0,2.309-0.04,4.05,0.007,5.789c0.255,9.453,0.527,18.906,0.805,28.359c0.028,0.945,0.066,1.898,0.214,2.829
		c0.66,4.164,1.619,5.005,5.801,5.27c0.672,0.043,1.843-0.293,1.836,0.585c-0.009,1.166-1.274,0.933-2.062,0.867
		c-6.512-0.55-13.057-0.258-19.556-0.211c-5.507,0.04-11.032-0.018-16.547,0.091c-1.36,0.027-2.719-0.036-4.687-0.59
		c3.816-1.25,2.039-3.292,1.38-5.098c-1.568-4.297-3.242-8.555-4.801-12.855c-0.447-1.232-0.994-1.86-2.466-1.83
		c-5.023,0.103-10.051,0.04-15.076,0.039c-0.79,0-1.624-0.154-1.974,0.88c-1.603,4.745-3.853,9.263-5.046,14.147
		c-0.72,2.946,0.057,3.845,3.12,3.965c0.145,0.006,0.293-0.013,0.437,0.004c0.608,0.069,1.588-0.201,1.581,0.664
		c-0.007,0.963-1.014,0.814-1.713,0.806c-1.09-0.013-2.184-0.032-3.268-0.134c-4.222-0.4-8.432,0.097-12.647,0.142
		c-0.51,0.005-1.022,0.022-1.528-0.025c-0.516-0.048-1.091-0.194-1.043-0.844c0.039-0.515,0.552-0.591,1.005-0.604
		c0.218-0.006,0.437-0.019,0.655-0.015c3.688,0.068,6.013-1.884,7.359-5.12c2.092-5.026,4.114-10.081,6.14-15.135
		c4.808-11.995,9.587-24.002,14.423-35.985c0.467-1.156,0.639-2.966,2.112-3.02c1.67-0.061,1.839,1.837,2.328,3.043
		c6.276,15.472,12.497,30.966,18.759,46.443c0.652,1.612,1.397,3.2,2.242,4.719c2.562,4.606,9.516,6.793,14.356,4.591
		c1.208-0.55,1.601-1.577,1.821-2.779c0.751-4.115,0.394-8.279,0.502-12.415c0.282-10.768,0.333-21.542,0.486-32.314
		c0.042-2.983,0.106-5.965,0.193-8.946c0.021-0.703-0.135-1.602,0.68-1.938c0.899-0.37,1.491,0.363,2.027,0.946
		c9.751,10.619,19.939,20.816,30.02,31.116C1060.898,49.343,1065.042,53.7,1069.17,57.984z M981.374,28.106
		c-2.678,7.15-5.186,13.844-7.795,20.808c4.048,0,7.806,0,11.564,0c3.852,0,3.86-0.003,2.52-3.668
		C985.63,39.683,983.583,34.124,981.374,28.106z"/>
	<path class="st0" d="M817.41,51.545c-3.641,0-7.283,0.051-10.923-0.028c-1.246-0.027-1.836,0.452-2.212,1.576
		c-2.3,6.886-4.663,13.752-6.945,20.643c-0.408,1.232-0.59,2.549-0.788,3.84c-0.459,2.995,0.821,4.485,3.911,4.626
		c0.291,0.013,0.583-0.009,0.874,0.007c0.579,0.032,1.32,0.02,1.339,0.764c0.019,0.724-0.683,0.847-1.286,0.838
		c-1.382-0.02-2.77,0.006-4.143-0.126c-4.73-0.457-9.445,0.083-14.167,0.134c-0.947,0.01-1.894,0.027-2.84-0.007
		c-0.758-0.027-1.935,0.241-1.956-0.795c-0.022-1.07,1.161-0.82,1.898-0.802c4.661,0.109,7.709-2.251,9.525-6.33
		c3.192-7.169,5.568-14.652,8.286-22.003c6.294-17.025,12.501-34.081,18.769-51.116c0.434-1.179,0.546-3.025,1.951-3.11
		c1.694-0.103,1.741,1.896,2.202,3.08c8.56,21.987,17.063,43.996,25.584,65.999c1.13,2.919,2.445,5.744,4.17,8.373
		c2.156,3.287,5.121,5.062,9.089,5.104c0.679,0.007,1.734-0.25,1.747,0.737c0.012,0.891-1.016,0.856-1.721,0.861
		c-6.404,0.04-12.809,0.041-19.206-0.328c-0.48-0.028-1.086,0.114-1.373-0.438c-0.357-0.687,0.298-0.824,0.683-1.108
		c1.036-0.764,0.848-1.832,0.493-2.78c-3.311-8.839-6.684-17.655-9.99-26.496c-0.406-1.085-1.129-1.13-2.048-1.124
		C824.693,51.558,821.051,51.545,817.41,51.545z M817.328,47.603c3.129,0,6.258-0.03,9.386,0.015
		c1.243,0.018,1.713-0.194,1.208-1.604c-3.4-9.493-6.721-19.014-10.08-28.521c-0.178-0.505-0.169-1.335-0.914-1.265
		c-0.639,0.06-0.733,0.844-0.906,1.373c-3.068,9.376-6.102,18.763-9.188,28.133c-0.451,1.369-0.363,1.968,1.326,1.903
		C811.212,47.517,814.272,47.603,817.328,47.603z"/>
	<path class="st0" d="M270.356,58.082c0-6.339,0.057-12.502-0.017-18.663c-0.067-5.675-0.27-11.349-0.426-17.022
		c-0.02-0.724-0.079-1.452-0.186-2.169c-0.519-3.481-1.668-4.456-5.149-4.622c-0.895-0.043-2.487,0.581-2.471-0.823
		c0.012-1.043,1.582-0.636,2.451-0.608c5.457,0.181,10.911,0.207,16.367-0.004c0.649-0.025,1.76-0.282,1.742,0.72
		c-0.016,0.908-1.094,0.687-1.776,0.734c-3.18,0.223-4.193,0.965-4.466,4.17c-0.315,3.691-0.299,7.412-0.37,11.12
		c-0.259,13.606-0.49,27.213-0.744,40.819c-0.016,0.85,0.235,1.957-0.694,2.37c-1.001,0.445-1.762-0.428-2.426-1.077
		c-3.593-3.511-7.201-7.008-10.731-10.582c-10.536-10.669-21.401-21.02-31.595-32.762c0,3.696-0.069,6.899,0.014,10.099
		c0.199,7.707,0.461,15.412,0.719,23.117c0.046,1.379,0.08,2.775,0.32,4.128c0.676,3.813,1.609,4.586,5.488,4.815
		c0.363,0.021,0.731-0.009,1.091,0.037c0.414,0.053,0.969,0.023,1.026,0.581c0.072,0.706-0.546,0.829-1.037,0.829
		c-2.255-0.001-4.523,0.078-6.763-0.126c-3.794-0.346-7.556,0.252-11.335,0.164c-0.509-0.012-1.02-0.01-1.524-0.064
		c-0.375-0.04-0.722-0.234-0.762-0.645c-0.059-0.614,0.455-0.637,0.873-0.726c0.141-0.03,0.29-0.044,0.434-0.038
		c4.405,0.156,5.543-0.756,5.658-6.207c0.297-14.117,0.455-28.238,0.673-42.357c0.042-2.692,0.075-5.385,0.178-8.075
		c0.031-0.817-0.257-1.915,0.827-2.267c0.893-0.29,1.451,0.51,1.996,1.079c6.995,7.312,13.944,14.668,20.979,21.942
		C255.849,43.342,263.06,50.633,270.356,58.082z"/>
	<path class="st0" d="M456.144,14.151c5.589,0.221,11.175-0.38,16.764,0.567c12.042,2.04,14.909,13.199,10.265,21.891
		c-1.74,3.258-4.274,5.878-7.098,8.203c-0.857,0.706-0.975,1.16-0.253,2.056c5.294,6.57,10.366,13.329,16.155,19.483
		c2.847,3.026,6.175,5.315,10.553,5.509c0.485,0.021,1.178-0.037,1.228,0.613c0.061,0.799-0.678,0.852-1.244,0.843
		c-4.29-0.073-8.6,0.344-12.862-0.381c-3.166-0.538-5.557-2.448-7.638-4.744c-4.607-5.084-8.386-10.8-12.253-16.434
		c-1.425-2.076-2.944-3.002-5.529-2.895c-5.029,0.208-5.079,0.055-5.022,5.122c0.05,4.434-0.135,8.876,0.411,13.298
		c0.429,3.477,1.092,4.053,4.648,4.485c1.016,0.123,2.955-0.573,2.911,0.837c-0.04,1.28-1.957,0.725-3.024,0.695
		c-6.106-0.173-12.209-0.319-18.313,0.028c-0.507,0.029-1.021,0.022-1.527-0.023c-0.441-0.039-0.961-0.219-1.01-0.664
		c-0.078-0.712,0.592-0.694,1.071-0.765c0.429-0.064,0.87-0.07,1.306-0.073c2.16-0.017,3.266-1.076,3.649-3.232
		c0.59-3.32,0.588-6.675,0.603-10.002c0.055-12.664,0.36-25.334-0.189-37.993c-0.167-3.849-1.313-4.794-5.124-4.956
		c-0.864-0.037-2.365,0.44-2.375-0.721c-0.011-1.207,1.49-0.71,2.334-0.721C448.434,14.121,452.289,14.151,456.144,14.151z
		 M459.198,31.234c0,2.329,0,4.657,0,6.986c0,6.996,0.043,6.938,7.057,7.002c4.231,0.039,6.778-2.049,8.408-5.686
		c1.225-2.733,1.341-5.621,1.282-8.548c-0.175-8.736-6.168-14.025-14.808-13.09c-1.41,0.152-2.003,0.713-1.968,2.204
		C459.256,23.811,459.198,27.523,459.198,31.234z"/>
	<path class="st0" d="M935.476,39.532c2.986,1.318,5.758,2.681,8.128,4.754c9.31,8.143,7.245,21.979-4.052,27.093
		c-3.733,1.69-7.659,2.242-11.706,2.088c-6.539-0.249-13.075-0.607-19.619-0.142c-0.434,0.031-0.878,0.03-1.309-0.024
		c-0.507-0.063-1.11-0.185-1.034-0.847c0.057-0.493,0.609-0.546,1.039-0.59c0.578-0.059,1.16-0.113,1.74-0.124
		c1.817-0.035,2.776-0.992,3.121-2.735c0.797-4.026,0.72-8.109,0.733-12.173c0.037-11.507-0.026-23.014-0.058-34.52
		c-0.002-0.652-0.065-1.307-0.136-1.957c-0.401-3.693-1.389-4.575-5.154-4.736c-0.868-0.037-2.365,0.386-2.367-0.732
		c-0.002-1.184,1.508-0.754,2.34-0.707c7.635,0.43,15.276-0.17,22.907,0.185c1.295,0.06,2.605,0.31,3.86,0.648
		c8.761,2.353,12.008,10.844,7.143,18.536C939.599,35.849,937.547,37.591,935.476,39.532z M921.96,54.256c0.05,0,0.1,0,0.15,0
		c0,3.777-0.019,7.555,0.01,11.332c0.01,1.319,0.543,2.476,1.762,3.049c3.816,1.794,7.733,2.082,11.504,0.008
		c3.62-1.991,4.499-5.473,4.441-9.307c-0.011-0.724-0.107-1.448-0.186-2.169c-0.979-8.945-7.271-14.768-15.826-14.76
		c-1.398,0.001-1.927,0.344-1.885,1.816C922.025,47.566,921.96,50.912,921.96,54.256z M921.961,28.254
		c0,3.052,0.004,6.103-0.003,9.155c-0.002,0.751,0.018,1.372,0.946,1.697c5.675,1.986,11.257-1.416,11.898-7.366
		c0.155-1.434,0.157-2.915-0.009-4.348c-0.74-6.403-4.931-10.239-10.706-10.031c-1.545,0.056-2.216,0.53-2.156,2.176
		C922.036,22.439,921.96,25.348,921.961,28.254z"/>
	<path class="st0" d="M196.996,36.983c0-5.17,0.031-10.339-0.009-15.509c-0.035-4.576-1.065-5.599-5.632-5.851
		c-0.673-0.037-1.746,0.23-1.75-0.748c-0.005-1.041,1.094-0.724,1.738-0.706c5.818,0.167,11.635,0.233,17.454,0.002
		c0.639-0.025,1.715-0.306,1.706,0.752c-0.007,0.795-0.974,0.651-1.599,0.705c-3.948,0.339-4.843,1.216-4.884,5.35
		c-0.085,8.665-0.039,17.331-0.105,25.996c-0.027,3.565-0.321,7.111-1.134,10.605c-2.173,9.337-9.139,15.625-18.699,16.602
		c-3.985,0.407-8.007,0.394-11.952-0.514c-9.032-2.079-14.473-8.292-15.801-17.807c-0.496-3.554-0.474-7.111-0.495-10.676
		c-0.048-8.08-0.041-16.161-0.184-24.239c-0.074-4.149-1.266-5.184-5.453-5.313c-0.146-0.004-0.294,0.018-0.436-0.004
		c-0.66-0.102-1.714,0.234-1.684-0.82c0.024-0.86,1.006-0.642,1.602-0.639c2.182,0.01,4.363,0.138,6.545,0.13
		c4.583-0.018,9.167-0.099,13.75-0.143c0.579-0.005,1.167,0.015,1.734,0.114c0.238,0.042,0.557,0.283,0.624,0.5
		c0.136,0.444-0.295,0.588-0.609,0.746c-0.125,0.063-0.279,0.068-0.421,0.098c-5.159,1.086-5.289,1.085-5.334,6.429
		c-0.086,10.048-0.031,20.097,0.025,30.146c0.013,2.329,0.433,4.634,1.064,6.883c2.093,7.461,8.122,11.77,15.605,11.177
		c7.906-0.626,12.905-5.482,13.913-13.412C197.411,50.232,196.89,43.6,196.996,36.983z"/>
	<path class="st0" d="M357.338,59.142c3.699-9.273,7.337-18.366,10.95-27.468c1.579-3.979,3.173-7.954,4.638-11.976
		c1.124-3.085,0.483-3.911-2.828-4.065c-0.363-0.017-0.734,0.019-1.089-0.043c-0.42-0.073-0.933-0.183-0.951-0.706
		c-0.02-0.58,0.563-0.608,0.952-0.678c0.495-0.09,1.015-0.064,1.524-0.052c4.796,0.114,9.591,0.37,14.388,0.003
		c0.506-0.039,1.025-0.033,1.525,0.038c0.338,0.048,0.773,0.152,0.828,0.578c0.075,0.573-0.43,0.817-0.824,0.791
		c-5.144-0.344-6.501,3.596-8.086,7.186c-7.037,15.932-14.012,31.891-21.073,47.811c-0.613,1.381-0.818,3.609-2.64,3.651
		c-2.071,0.048-2.116-2.326-2.713-3.755c-6.651-15.941-13.28-31.892-19.767-47.9c-1.715-4.233-4.065-7.185-9.056-6.937
		c-0.514,0.026-1.112-0.048-1.09-0.744c0.023-0.713,0.699-0.687,1.16-0.686c2.253,0.007,4.507,0.119,6.76,0.109
		c4.653-0.021,9.307-0.098,13.96-0.146c0.581-0.006,1.168-0.013,1.743,0.053c0.418,0.048,0.955,0.128,0.953,0.69
		c-0.002,0.527-0.487,0.664-0.922,0.71c-0.432,0.046-0.874,0.002-1.309,0.032c-2.204,0.154-3.016,1.175-2.418,3.299
		c1.497,5.319,3.746,10.369,5.674,15.534c2.817,7.547,5.683,15.076,8.556,22.602C356.435,57.731,356.491,58.514,357.338,59.142z"/>
	<path class="st0" d="M411.613,73.471c-6.372-0.712-11.458-0.3-16.545-0.145c-0.582,0.018-1.169,0.029-1.747-0.027
		c-0.507-0.049-1.107-0.18-1.041-0.843c0.051-0.509,0.598-0.552,1.03-0.594c0.651-0.064,1.304-0.137,1.957-0.153
		c1.654-0.042,2.484-0.97,2.838-2.498c0.629-2.714,0.721-5.487,0.734-8.24c0.058-12.675,0.026-25.351,0.022-38.026
		c0-0.581-0.03-1.164-0.082-1.743c-0.423-4.721-1.091-5.342-5.909-5.577c-0.68-0.033-1.749,0.193-1.738-0.762
		c0.011-1,1.109-0.699,1.76-0.695c8.956,0.052,17.912,0.135,26.868,0.216c2.552,0.023,5.099-0.033,7.578-0.71
		c0.951-0.26,1.478-0.074,1.278,0.977c-0.574,3.014-0.691,6.067-0.889,9.116c-0.04,0.622-0.024,1.515-0.896,1.476
		c-0.912-0.04-0.67-0.95-0.737-1.561c-0.364-3.293-1.351-4.441-4.511-4.888c-3.829-0.542-7.696-0.428-11.552-0.484
		c-0.992-0.014-1.244,0.43-1.242,1.309c0.015,6.265,0.014,12.53,0.001,18.794c-0.002,0.869,0.234,1.351,1.232,1.332
		c4.147-0.081,8.301,0.142,12.442-0.259c1.321-0.128,2.611-0.346,3.479-1.525c0.284-0.385,0.683-0.591,1.133-0.381
		c0.399,0.186,0.306,0.627,0.257,0.962c-0.528,3.605-0.801,7.23-0.873,10.871c-0.01,0.481-0.196,0.9-0.689,0.953
		c-0.588,0.063-0.65-0.444-0.711-0.884c-0.08-0.575-0.182-1.149-0.234-1.727c-0.191-2.122-1.428-3.3-3.435-3.659
		c-3.825-0.684-7.697-0.321-11.548-0.426c-0.944-0.026-1.066,0.534-1.044,1.258c0.195,6.401-0.469,12.807,0.066,19.204
		c0.281,3.362,1.522,4.543,4.947,4.925c2.899,0.323,5.796,0.337,8.7,0.017c3.82-0.42,5.356-1.749,6.283-5.525
		c0.121-0.495,0.223-0.995,0.356-1.487c0.108-0.401,0.414-0.605,0.809-0.568c0.476,0.044,0.517,0.45,0.517,0.813
		c-0.001,3.286-0.338,6.538-1.141,9.726c-0.302,1.198-1.303,1.438-2.403,1.437C421.398,73.468,415.863,73.471,411.613,73.471z"/>
	<path class="st0" d="M669.368,43.094c3.988-7.685,8.542-14.781,12.103-22.411c1.399-2.999,1.046-3.674-1.655-5.261
		c-0.324-0.19-0.709-0.367-0.556-0.784c0.075-0.203,0.436-0.347,0.695-0.423c0.272-0.08,0.578-0.076,0.866-0.06
		c5.015,0.29,10.03,0.252,15.046,0.008c0.602-0.029,1.539-0.206,1.594,0.624c0.055,0.833-0.871,0.796-1.5,0.836
		c-2.905,0.182-5.113,1.657-6.763,3.904c-5.991,8.161-11.042,16.905-15.697,25.878c-0.987,1.902-1.119,4.062-1.114,6.174
		c0.012,4.873,0.053,9.748,0.183,14.619c0.116,4.353,0.961,5.113,5.21,5.576c1.026,0.112,2.955-0.478,2.917,0.822
		c-0.037,1.261-1.937,0.728-3.002,0.703c-6.323-0.153-12.643-0.389-18.965,0.025c-0.579,0.038-1.168,0.03-1.745-0.03
		c-0.499-0.052-1.11-0.145-1.02-0.845c0.07-0.541,0.633-0.497,1.046-0.575c4.854-0.918,4.927-0.912,5.302-5.884
		c0.373-4.938,0.281-9.893,0.11-14.839c-0.087-2.503-0.87-4.866-2.139-7.024c-4.311-7.327-8.654-14.638-13.372-21.712
		c-2.188-3.28-4.509-6.532-9.006-6.859c-0.36-0.026-0.735-0.208-0.749-0.649c-0.019-0.602,0.489-0.703,0.904-0.702
		c1.598,0.003,3.196,0.107,4.793,0.096c4.437-0.03,8.873-0.108,13.309-0.137c0.599-0.004,1.501-0.284,1.632,0.599
		c0.111,0.746-0.755,0.731-1.272,0.896c-1.338,0.429-1.68,1.26-1.108,2.518c0.15,0.329,0.234,0.691,0.401,1.01
		C660.025,27.224,664.741,34.969,669.368,43.094z"/>
	<path class="st0" d="M1115.916,43.145c3.906-7.073,7.604-13.737,11.258-20.425c0.551-1.009,0.955-2.112,1.319-3.208
		c0.613-1.845,0.694-3.5-1.808-3.983c-0.391-0.075-0.947-0.282-0.78-0.844c0.18-0.604,0.802-0.539,1.292-0.525
		c3.852,0.112,7.702,0.349,11.558,0.154c1.451-0.073,2.905-0.116,4.357-0.132c0.414-0.004,0.949,0.022,1.033,0.57
		c0.089,0.58-0.476,0.783-0.845,0.792c-5.313,0.135-7.775,4.017-10.257,7.815c-4.333,6.631-8.38,13.433-12.152,20.402
		c-1.321,2.44-1.909,5.035-1.932,7.743c-0.043,5.162-0.146,10.327,0.264,15.485c0.275,3.458,1.208,4.367,4.671,4.751
		c1.213,0.135,3.528-0.344,3.425,0.738c-0.156,1.641-2.298,0.844-3.53,0.804c-6.178-0.203-12.35-0.343-18.525,0.042
		c-0.578,0.036-1.167,0.017-1.743-0.051c-0.422-0.05-0.929-0.175-0.95-0.709c-0.024-0.582,0.518-0.601,0.928-0.694
		c5.109-1.159,5.157-1.155,5.457-6.408c0.282-4.938,0.392-9.883,0.028-14.824c-0.179-2.434-0.978-4.69-2.239-6.762
		c-4.153-6.828-8.253-13.691-12.541-20.434c-2.331-3.666-4.68-7.512-9.762-7.878c-0.328-0.024-0.698-0.272-0.656-0.731
		c0.043-0.463,0.446-0.6,0.787-0.601c1.524-0.004,3.049,0.028,4.573,0.082c4.511,0.16,9.018,0.002,13.525-0.149
		c0.614-0.021,1.54-0.253,1.708,0.515c0.192,0.877-0.789,0.837-1.363,1.019c-1.155,0.366-1.396,1.168-1.108,2.223
		c0.114,0.419,0.26,0.842,0.472,1.218C1106.828,27.042,1111.286,34.938,1115.916,43.145z"/>
	<path class="st0" d="M614.808,44.045c0.144,6.606-0.33,14.693,0.375,22.753c0.359,4.113,0.939,4.494,5.078,4.973
		c1.05,0.121,3.064-0.449,2.991,0.758c-0.088,1.458-2.05,0.792-3.162,0.763c-6.396-0.169-12.789-0.336-19.184,0.031
		c-0.578,0.033-1.169,0.02-1.739-0.07c-0.416-0.066-0.9-0.265-0.817-0.818c0.062-0.414,0.501-0.478,0.854-0.534
		c1.534-0.243,3.365,0.266,4.413-1.301c1.179-1.763,1.158-3.884,1.178-5.905c0.111-11.134,0.163-22.268,0.222-33.402
		c0.02-3.712-0.016-7.425,0.014-11.137c0.008-0.996-0.096-1.713-1.375-1.606c-4.494,0.376-9.01,0.064-13.511,0.508
		c-2.797,0.276-4.575,1.564-5.517,4.176c-0.216,0.598-0.195,1.703-1.243,1.437c-0.815-0.207-0.558-1.135-0.459-1.71
		c0.507-2.934,1.096-5.853,1.668-8.776c0.165-0.844,0.583-1.336,1.53-0.96c3.124,1.24,6.423,1.12,9.68,1.137
		c10.264,0.053,20.528,0.003,30.792,0.031c2.555,0.007,5.101-0.062,7.59-0.645c1.173-0.275,1.65,0.016,1.606,1.223
		c-0.113,3.124-0.198,6.249-0.305,9.373c-0.017,0.499,0.008,1.123-0.718,1.107c-0.696-0.016-0.639-0.63-0.736-1.129
		c-0.65-3.36-1.788-4.468-5.216-5.118c-4.249-0.806-8.566-0.291-12.837-0.65c-1.484-0.125-1.166,0.935-1.167,1.747
		C614.803,27.727,614.808,35.152,614.808,44.045z"/>
	<path class="st0" d="M506.342,65.005c0.108-1.962,0.185-3.925,0.34-5.883c0.048-0.612,0.014-1.498,0.86-1.562
		c1.06-0.08,0.661,0.899,0.786,1.454c0.159,0.709,0.221,1.44,0.364,2.153c1.587,7.942,9.78,11.908,17.016,8.242
		c4.643-2.352,6.323-7.426,4.114-12.501c-1.319-3.031-3.641-5.222-6.168-7.232c-3.36-2.671-6.863-5.173-9.824-8.316
		c-4.122-4.376-6.683-9.364-5.761-15.568c0.936-6.298,5.529-10.749,12.594-12.198c5.153-1.057,10.277-0.585,15.357,0.672
		c1.107,0.274,1.568,0.742,1.494,1.939c-0.188,3.047-0.246,6.102-0.376,9.153c-0.027,0.63,0.094,1.52-0.732,1.614
		c-0.963,0.109-0.779-0.849-0.883-1.437c-1.282-7.217-8.333-10.973-15.078-8.02c-4.559,1.995-6.16,7.184-3.557,11.529
		c1.452,2.424,3.59,4.185,5.776,5.877c4.144,3.207,8.403,6.276,11.792,10.341c5.997,7.194,6.152,17.012,0.314,23.321
		c-2.878,3.11-6.541,4.803-10.691,5.397c-5.099,0.73-10.142,0.557-15.1-1.066c-2.023-0.662-3.011-1.787-2.768-3.989
		c0.142-1.291,0.026-2.611,0.026-3.918C506.271,65.007,506.307,65.006,506.342,65.005z"/>
	<path class="st0" d="M879.936,73.469c-7.395-0.662-12.697-0.343-18-0.142c-0.436,0.017-0.874,0.013-1.31-0.002
		c-0.641-0.022-1.546,0.036-1.548-0.76c-0.001-0.878,0.945-0.655,1.558-0.716c3.697-0.366,4.348-0.994,4.666-4.88
		c0.392-4.788,0.43-9.588,0.398-14.39c-0.069-10.479-0.05-20.959-0.192-31.437c-0.06-4.408-1.031-5.225-5.472-5.52
		c-0.664-0.044-1.72,0.228-1.652-0.843c0.052-0.819,1.03-0.632,1.632-0.613c7.054,0.217,14.106,0.252,21.16-0.002
		c0.601-0.022,1.573-0.232,1.613,0.625c0.05,1.066-1.002,0.793-1.664,0.832c-4.737,0.281-5.354,0.633-5.464,5.348
		c-0.218,9.31-0.175,18.628-0.183,27.942c-0.004,4.799-0.181,9.602,0.306,14.395c0.396,3.905,1.418,5.14,5.331,5.583
		c3.401,0.385,6.84,0.385,10.245,0.039c3.548-0.36,5.405-2.293,6.326-6.196c0.157-0.667,0.032-1.724,1.065-1.531
		c0.726,0.136,0.559,1.063,0.5,1.706c-0.248,2.677-0.524,5.346-1.012,7.999c-0.346,1.878-1.375,2.573-3.152,2.568
		C889.34,73.46,883.594,73.469,879.936,73.469z"/>
	<path class="st0" d="M564.943,73.33c-3.345,0-6.69,0.006-10.034-0.006c-0.576-0.002-1.163-0.028-1.723-0.146
		c-0.319-0.068-0.758-0.27-0.644-0.716c0.054-0.209,0.379-0.417,0.622-0.493c0.339-0.106,0.716-0.087,1.077-0.122
		c3.727-0.36,4.443-0.914,4.605-4.652c0.557-12.802,0.587-25.612,0.296-38.423c-0.066-2.911-0.035-5.825-0.173-8.732
		c-0.151-3.193-1.27-4.23-4.464-4.404c-0.363-0.02-0.731,0.007-1.091-0.035c-0.434-0.051-0.954-0.14-1.002-0.653
		c-0.071-0.751,0.613-0.752,1.074-0.752c2.035,0.002,4.071,0.115,6.106,0.104c4.511-0.023,9.021-0.101,13.532-0.144
		c0.58-0.006,1.168,0.02,1.736,0.119c0.229,0.04,0.54,0.282,0.599,0.492c0.124,0.44-0.261,0.62-0.613,0.738
		c-0.204,0.069-0.425,0.089-0.64,0.121c-4.562,0.684-5.192,1.247-5.202,5.717c-0.033,14.638,0.023,29.275,0.053,43.913
		c0.001,0.58,0.05,1.163,0.118,1.739c0.462,3.887,0.993,4.399,4.855,4.716c0.651,0.053,1.304,0.088,1.956,0.14
		c0.619,0.049,1.556-0.097,1.485,0.773c-0.059,0.724-0.96,0.706-1.622,0.706C572.215,73.328,568.579,73.329,564.943,73.33z"/>
	<path class="st0" d="M307.662,73.329c-3.561,0-7.122,0.005-10.683-0.004c-0.705-0.002-1.707,0.117-1.697-0.829
		c0.009-0.834,0.992-0.589,1.605-0.649c3.801-0.368,4.395-0.92,4.603-4.867c0.798-15.133,0.316-30.277,0.313-45.417
		c0-1.151-0.185-2.332-0.48-3.447c-0.489-1.847-1.99-2.358-3.703-2.455c-0.581-0.033-1.172,0.005-1.742-0.087
		c-0.418-0.067-0.893-0.269-0.829-0.818c0.05-0.431,0.505-0.519,0.84-0.535c1.162-0.057,2.332-0.133,3.49-0.057
		c5.309,0.351,10.616,0.2,15.923-0.01c0.581-0.023,1.167-0.017,1.746,0.03c0.415,0.034,0.964,0.021,1.037,0.571
		c0.096,0.721-0.521,0.775-1.015,0.841c-0.503,0.068-1.018,0.04-1.525,0.088c-2.441,0.231-3.323,1.084-3.68,3.496
		c-0.45,3.039-0.306,6.104-0.315,9.153c-0.034,11.432,0.011,22.865,0.065,34.297c0.009,1.815,0.156,3.635,0.344,5.441
		c0.247,2.378,1.236,3.316,3.628,3.558c1.157,0.117,2.324,0.135,3.482,0.252c0.461,0.047,1.201-0.017,1.109,0.705
		c-0.09,0.702-0.813,0.741-1.39,0.732c-2.983-0.043-5.965-0.105-8.947-0.177c-0.726-0.017-1.45-0.096-2.175-0.147
		C307.664,73.107,307.663,73.218,307.662,73.329z"/>
	<path class="st0" d="M747.447,58.079c-4.886,0.69-9.625,0.414-14.531,0.161c1.268-0.816,1.431-1.636,0.899-2.909
		c-1.316-3.146-2.471-6.361-3.623-9.572c-0.374-1.043-0.927-1.461-2.067-1.437c-3.348,0.07-6.699,0.055-10.049,0.007
		c-1.023-0.015-1.574,0.3-1.923,1.313c-0.945,2.745-2.082,5.425-3,8.179c-0.988,2.962-0.562,3.513,2.579,3.839
		c0.293,0.03,0.576,0.051,0.73,0.677c-4.738,0-9.413,0-14.181,0c0.113-0.321,0.135-0.437,0.157-0.437
		c4.552-0.072,6.09-3.249,7.504-6.887c4.182-10.757,8.541-21.445,12.858-32.149c0.416-1.031,0.493-2.679,1.76-2.742
		c1.364-0.067,1.432,1.619,1.843,2.626c4.362,10.694,8.671,21.41,13.01,32.114C740.888,54.498,742.407,58.113,747.447,58.079z
		 M723.223,26.968c-1.826,4.843-3.44,9.141-5.069,13.434c-0.336,0.887-0.006,1.164,0.87,1.158c3.093-0.021,6.187-0.008,9.53-0.008
		C726.769,36.669,725.093,32.084,723.223,26.968z"/>
	<path class="st0" d="M770.843,58.395c-6.202,0-11.982,0-17.835,0c0.116-0.34,0.138-0.561,0.203-0.575
		c3.917-0.826,4.001-0.82,4.235-5.037c0.577-10.399,0.161-20.811,0.3-31.216c0.015-1.129-0.48-1.316-1.447-1.277
		c-2.907,0.119-5.817,0.154-8.725,0.258c-2,0.072-3.474,0.951-4.167,2.917c-0.163,0.462-0.218,1.122-0.918,0.936
		c-0.543-0.144-0.397-0.753-0.329-1.131c0.357-2.002,0.784-3.991,1.166-5.989c0.116-0.607,0.399-0.923,1.039-0.762
		c5.663,1.424,11.434,0.775,17.158,0.81c5.523,0.034,11.068,0.421,16.571-0.416c0.708-0.108,1.148-0.04,1.135,0.796
		c-0.035,2.11-0.047,4.221-0.11,6.331c-0.012,0.386-0.055,0.943-0.637,0.92c-0.447-0.018-0.498-0.458-0.517-0.827
		c-0.151-2.84-2.338-3.326-4.442-3.551c-2.595-0.277-5.23-0.162-7.842-0.304c-1.002-0.054-1.251,0.331-1.247,1.239
		c0.035,8.518,0.027,17.036,0.074,25.554c0.012,2.252,0.141,4.505,0.266,6.754c0.161,2.907,0.765,3.484,3.675,3.765
		C769.124,57.657,769.893,57.389,770.843,58.395z"/>
	<path class="st0" d="M517.34,119.89c0.359-5.986,0.607-11.563,0.336-17.14c-0.14-2.873-0.628-3.2-3.561-3.557
		c-0.485-0.059-1.122,0.091-1.048-0.706c0.056-0.601,0.588-0.54,1.008-0.541c3.344-0.007,6.687-0.006,10.031-0.002
		c0.434,0.001,0.942-0.023,1.037,0.54c0.104,0.614-0.382,0.623-0.827,0.709c-3.638,0.699-4.07,1.128-4.202,4.957
		c-0.247,7.197-0.394,14.397-0.608,21.595c-0.021,0.689,0.403,1.704-0.326,2.001c-0.868,0.354-1.309-0.719-1.808-1.26
		c-6.258-6.795-12.479-13.623-18.716-20.438c-0.429-0.468-0.761-1.062-1.459-1.257c-0.613,0.522-0.32,1.223-0.321,1.825
		c-0.001,5.533,0.115,11.067,0.022,16.597c-0.035,2.102,0.499,3.21,2.79,3.02c0.539-0.045,1.549-0.303,1.504,0.697
		c-0.04,0.878-0.923,0.442-1.422,0.448c-3.058,0.038-6.116,0.024-9.174,0.03c-0.424,0.001-0.974,0.124-1.014-0.481
		c-0.038-0.57,0.494-0.581,0.929-0.672c3.608-0.755,3.633-0.759,3.73-4.359c0.162-5.96,0.307-11.92,0.415-17.88
		c0.048-2.627-1.581-4.444-4.207-4.825c-0.474-0.069-1.135,0.126-1.054-0.682c0.076-0.753,0.733-0.559,1.2-0.564
		c1.96-0.019,3.922,0.049,5.878-0.031c1.065-0.043,1.544,0.636,2.117,1.288C504.64,106.09,510.633,113.026,517.34,119.89z"/>
	<path class="st0" d="M256.443,109.787c0-2.403,0.026-4.806-0.007-7.208c-0.039-2.845-0.402-3.185-3.274-3.399
		c-0.519-0.039-1.382,0.309-1.428-0.522c-0.058-1.044,0.919-0.721,1.474-0.697c3.637,0.158,7.27,0.139,10.906-0.005
		c0.513-0.02,1.363-0.268,1.356,0.611c-0.007,0.866-0.841,0.576-1.37,0.617c-3.025,0.233-3.302,0.545-3.353,3.552
		c-0.08,4.728-0.328,9.458,0.03,14.182c0.472,6.236,5.009,9.673,11.167,8.458c2.38-0.47,4.044-1.901,5.022-4.11
		c0.926-2.093,1.302-4.313,1.323-6.583c0.036-3.787,0.032-7.574,0.003-11.361c-0.026-3.368-0.545-3.884-3.864-4.144
		c-0.491-0.038-1.339,0.312-1.244-0.686c0.069-0.719,0.753-0.542,1.224-0.544c3.272-0.014,6.545-0.005,9.817-0.01
		c0.516-0.001,1.155-0.06,1.199,0.602c0.049,0.732-0.617,0.61-1.118,0.655c-3.593,0.321-3.839,0.523-3.994,4.21
		c-0.192,4.58,0.333,9.189-0.278,13.747c-0.642,4.795-2.914,8.612-7.771,10.121c-4.732,1.47-9.241,0.91-12.974-2.702
		c-2.055-1.988-2.714-4.588-2.767-7.354c-0.047-2.475-0.01-4.952-0.01-7.429C256.49,109.787,256.466,109.787,256.443,109.787z"/>
	<path class="st0" d="M594.46,127.398c-1.893,0.001-3.785,0.002-5.678,0c-0.469-0.001-1.116,0.253-1.131-0.556
		c-0.011-0.594,0.518-0.638,0.951-0.626c3.467,0.093,3.535-0.094,3.798-4.402c0.254-4.156-0.659-7.829-2.853-11.357
		c-1.798-2.891-3.26-5.994-4.808-9.036c-0.716-1.406-1.584-2.42-3.335-2.244c-0.395,0.04-0.945,0.129-1.015-0.497
		c-0.088-0.79,0.524-0.731,1.022-0.732c3.415-0.007,6.83-0.005,10.245,0c0.443,0.001,0.935,0.031,0.937,0.631
		c0.002,0.617-0.51,0.544-0.938,0.618c-2.504,0.432-2.729,0.771-1.606,3.051c1.541,3.126,3.225,6.181,4.797,9.292
		c0.593,1.173,1.175,1.203,1.772,0.098c1.827-3.384,3.672-6.76,5.382-10.204c0.708-1.425,0.272-2.412-1.582-2.255
		c-0.565,0.048-1.39,0.095-1.352-0.674c0.039-0.782,0.887-0.551,1.427-0.555c2.541-0.019,5.083-0.025,7.624,0.006
		c0.509,0.006,1.336-0.29,1.347,0.614c0.009,0.7-0.701,0.636-1.184,0.609c-2.218-0.124-3.439,1.116-4.391,2.943
		c-1.544,2.96-2.931,6.058-4.879,8.739c-3.032,4.173-2.516,8.777-2.406,13.402c0.031,1.311,0.928,1.71,2.013,1.86
		c0.573,0.079,1.161,0.054,1.74,0.1c0.419,0.033,0.931-0.014,0.93,0.626c-0.001,0.677-0.521,0.548-0.932,0.549
		C598.391,127.4,596.426,127.398,594.46,127.398z"/>
	<path class="st0" d="M171.98,97.454c0.252,2.405,0.478,4.562,0.702,6.719c0.046,0.44,0.099,0.926-0.494,1.013
		c-0.463,0.068-0.577-0.37-0.712-0.692c-0.536-1.275-1.088-2.542-1.975-3.621c-1.592-1.938-3.684-2.593-6.059-2.027
		c-2.161,0.515-3.549,1.989-3.928,4.2c-0.419,2.444,0.695,4.26,2.744,5.471c2.309,1.365,4.729,2.545,7.028,3.927
		c3.714,2.232,5.016,4.964,4.305,8.687c-0.733,3.837-3.001,5.838-7.336,6.615c-2.995,0.537-5.941-0.013-8.904-0.231
		c-0.436-0.032-1.069-0.091-1.123-0.514c-0.274-2.149-0.443-4.312-0.616-6.472c-0.008-0.098,0.289-0.293,0.462-0.318
		c0.41-0.059,0.627,0.152,0.758,0.573c0.368,1.182,0.853,2.317,1.614,3.313c1.903,2.488,4.5,3.15,7.394,2.525
		c2.179-0.471,3.455-2.044,3.87-4.246c0.451-2.393-0.352-4.362-2.345-5.68c-2.053-1.358-4.236-2.522-6.375-3.747
		c-4.419-2.53-5.805-5.467-4.538-9.67c1.123-3.725,4.801-6.036,9.247-5.756c1.085,0.068,2.184,0.203,3.234,0.472
		C170.005,98.269,170.997,98.428,171.98,97.454z"/>
	<path class="st0" d="M647.893,96.307c0,6.627-0.007,13.098,0.013,19.569c0.002,0.537-0.305,1.262,0.328,1.58
		c0.607,0.305,1.121-0.261,1.52-0.616c1.519-1.354,3.046-2.713,4.428-4.202c0.895-0.964,1.178-2.015-0.772-2.087
		c-0.412-0.015-0.973,0.075-0.897-0.587c0.048-0.42,0.494-0.517,0.859-0.489c2.325,0.179,4.647,0.2,6.971-0.006
		c0.362-0.032,0.769,0.005,0.827,0.481c0.058,0.48-0.288,0.533-0.68,0.612c-3.767,0.764-5.713,4.034-8.468,6.193
		c-0.706,0.553-0.224,1.02,0.152,1.45c2.06,2.355,4.13,4.7,6.2,7.046c0.851,0.965,1.989,1.119,3.183,1.109
		c0.419-0.004,0.783,0.227,0.752,0.608c-0.028,0.352-0.389,0.505-0.819,0.501c-2.692-0.028-5.384-0.028-8.076-0.015
		c-0.419,0.002-0.724-0.118-0.777-0.529c-0.044-0.34,0.256-0.527,0.548-0.562c1.629-0.195,1.07-0.915,0.417-1.667
		c-1.384-1.592-2.768-3.183-4.153-4.774c-0.287-0.33-0.577-0.728-1.069-0.61c-0.716,0.172-0.457,0.81-0.475,1.268
		c-0.038,0.945,0.029,1.895-0.021,2.838c-0.087,1.636,0.181,2.937,2.246,2.915c0.411-0.004,0.969,0.058,0.84,0.681
		c-0.079,0.385-0.488,0.424-0.89,0.42c-2.62-0.023-5.241-0.031-7.861,0.006c-0.434,0.006-0.759-0.077-0.821-0.464
		c-0.067-0.424,0.28-0.678,0.679-0.66c2.547,0.12,2.454-1.598,2.452-3.369c-0.007-6.77,0.064-13.54,0.038-20.309
		c-0.006-1.547,0.205-3.386-2.193-3.56c-0.185-0.013-0.49-0.387-0.485-0.587c0.008-0.394,0.355-0.531,0.745-0.639
		C644.376,97.371,646.102,96.839,647.893,96.307z"/>
	<path class="st0" d="M562.786,122.59c1.618-3.673,3.019-6.885,4.031-10.261c0.377-1.258-0.522-1.47-1.376-1.721
		c-0.357-0.105-0.773-0.206-0.688-0.663c0.076-0.409,0.473-0.46,0.858-0.456c1.742,0.019,3.484,0.041,5.226,0.019
		c0.4-0.005,0.806,0.02,0.883,0.406c0.078,0.394-0.236,0.659-0.676,0.637c-1.975-0.103-2.537,1.362-3.119,2.804
		c-1.765,4.375-3.518,8.754-5.304,13.12c-0.23,0.561-0.291,1.467-1.134,1.38c-0.637-0.066-0.667-0.855-0.843-1.39
		c-1.033-3.138-2.06-6.278-3.26-9.936c-1.664,3.546-3.099,6.617-4.548,9.682c-0.297,0.628-0.398,1.657-1.209,1.601
		c-0.766-0.053-0.838-1.068-1.094-1.728c-1.705-4.395-3.423-8.785-5.087-13.195c-0.466-1.235-1.017-2.26-2.515-2.332
		c-0.358-0.017-0.794-0.019-0.761-0.535c0.028-0.436,0.397-0.595,0.779-0.563c2.467,0.206,4.931,0.225,7.397-0.005
		c0.389-0.036,0.803,0.083,0.857,0.479c0.086,0.636-0.461,0.597-0.887,0.641c-1.547,0.162-1.693,0.966-1.173,2.273
		c1.256,3.158,2.429,6.35,3.789,9.934c1.269-2.624,2.429-4.847,3.426-7.139c0.776-1.785-0.392-4.333-2.193-5.078
		c-0.272-0.113-0.588-0.133-0.6-0.493c-0.017-0.489,0.378-0.608,0.73-0.58c2.178,0.178,4.352,0.138,6.53,0.012
		c0.223-0.013,0.608,0.219,0.665,0.413c0.13,0.438-0.195,0.639-0.615,0.637c-1.91-0.008-1.658,1.079-1.237,2.339
		C560.655,115.948,561.631,119.022,562.786,122.59z"/>
	<path class="st0" d="M289.907,108.327c0.626,1.024-0.042,2.079,0.351,3.08c1.536-0.742,2.84-1.817,4.464-2.302
		c3.946-1.177,6.939,0.676,7.23,4.747c0.227,3.185,0.192,6.392,0.168,9.589c-0.012,1.6,0.029,2.978,2.168,2.901
		c0.367-0.013,0.808,0.068,0.798,0.529c-0.012,0.561-0.464,0.601-0.936,0.595c-2.472-0.03-4.945-0.038-7.417-0.055
		c-0.35-0.002-0.823,0.081-0.865-0.393c-0.051-0.591,0.477-0.68,0.905-0.656c1.717,0.094,2.071-0.879,2.002-2.343
		c-0.147-3.12,0.213-6.252-0.226-9.369c-0.246-1.751-1.057-2.963-2.864-3.41c-2.031-0.502-3.709,0.175-5.23,1.447
		c-0.529,0.443-0.337,1.078-0.34,1.637c-0.016,3.128,0.006,6.257-0.013,9.385c-0.009,1.534,0.209,2.818,2.218,2.653
		c0.368-0.03,0.797,0.042,0.818,0.503c0.029,0.657-0.505,0.548-0.922,0.548c-2.619,0.001-5.238-0.01-7.856,0.011
		c-0.444,0.003-0.931,0.118-0.937-0.508c-0.005-0.429,0.372-0.594,0.774-0.556c2.389,0.224,2.494-1.329,2.49-3.082
		c-0.006-2.907,0.081-5.815,0.118-8.723c0.02-1.535-0.106-2.986-2.119-3.176c-0.394-0.037-0.717-0.199-0.647-0.67
		c0.065-0.437,0.436-0.525,0.801-0.598C286.607,109.757,288.281,109.115,289.907,108.327z"/>
	<path class="st0" d="M424.018,123.897c1.817-3.49,3.326-6.784,4.636-10.164c0.918-2.369,0.749-2.624-1.776-3.166
		c-0.422-0.091-0.959-0.006-0.847-0.648c0.072-0.414,0.512-0.485,0.881-0.45c2.179,0.207,4.356,0.183,6.535,0.018
		c0.364-0.028,0.809-0.038,0.878,0.405c0.096,0.615-0.413,0.651-0.858,0.691c-1.449,0.13-2.051,1.156-2.586,2.336
		c-3.327,7.336-6.684,14.659-10.026,21.988c-0.487,1.068-1.074,2.082-1.912,2.896c-0.936,0.91-2.067,1.097-3.157,0.302
		c-0.891-0.649-1.312-1.572-0.827-2.678c0.547-1.247,1.625-1.871,2.826-1.345c1.538,0.674,2.018-0.114,2.632-1.224
		c1.307-2.362,1.666-4.712,0.609-7.299c-1.675-4.101-3.117-8.294-4.282-12.569c-0.42-1.541-1.21-2.414-2.848-2.429
		c-0.405-0.004-0.964,0.087-0.92-0.582c0.03-0.462,0.463-0.532,0.822-0.507c2.616,0.187,5.231,0.191,7.847,0.001
		c0.358-0.026,0.785,0.063,0.822,0.512c0.04,0.48-0.378,0.553-0.746,0.577c-1.718,0.109-1.724,1.164-1.422,2.463
		C421.154,116.694,422.554,120.162,424.018,123.897z"/>
	<path class="st0" d="M444.319,118.341c0.005-5.629,4.002-9.581,9.654-9.543c5.524,0.037,9.446,3.992,9.461,9.54
		c0.016,5.758-3.803,9.609-9.548,9.63C448.231,127.988,444.315,124.047,444.319,118.341z M448.212,118.502
		c0.056,1.751,0.115,3.561,0.923,5.246c0.926,1.931,2.351,3.029,4.579,3.056c2.294,0.028,3.953-0.927,4.788-3.038
		c1.449-3.662,1.417-7.368-0.171-10.978c-0.824-1.874-2.363-2.87-4.477-2.877c-2.214-0.007-3.679,1.116-4.615,3.03
		C448.392,114.675,448.233,116.55,448.212,118.502z"/>
	<path class="st0" d="M472.748,118.566c0,1.673,0.089,3.352-0.024,5.017c-0.128,1.884,0.406,2.978,2.515,2.785
		c0.466-0.043,1.163-0.111,1.031,0.683c-0.093,0.563-0.65,0.391-1.079,0.387c-2.545-0.022-5.089-0.031-7.634-0.024
		c-0.437,0.001-0.973,0.134-1.109-0.391c-0.161-0.627,0.413-0.678,0.826-0.661c1.868,0.079,2.081-1.056,2.056-2.553
		c-0.056-3.345-0.099-6.693,0.016-10.035c0.059-1.737-0.364-2.636-2.274-2.369c-0.408,0.057-1.151,0.31-1.19-0.48
		c-0.024-0.495,0.567-0.669,0.968-0.698c2.195-0.159,2.338-1.697,2.462-3.39c0.438-5.951,2.826-9.14,7.53-10.091
		c0.845-0.171,1.741-0.223,2.601-0.158c1.32,0.101,2.296,0.74,1.966,2.242c-0.32,1.458-1.444,1.726-2.717,1.319
		c-0.603-0.192-1.152-0.585-1.694-0.935c-1.901-1.226-3.049-0.871-3.773,1.312c-0.915,2.762-0.329,5.631-0.467,8.45
		c-0.036,0.741,0.483,0.768,1.023,0.765c1.018-0.005,2.036,0.01,3.055-0.002c0.674-0.008,1.362-0.088,1.301,0.936
		c-0.055,0.925-0.695,0.997-1.385,0.971c-0.725-0.026-1.468-0.007-2.169-0.161c-1.647-0.364-1.96,0.385-1.862,1.846
		C472.837,115.069,472.748,116.82,472.748,118.566z"/>
	<path class="st0" d="M614.155,108.798c5.568,0.062,9.582,4.226,9.462,9.815c-0.12,5.578-4.045,9.379-9.663,9.355
		c-5.622-0.023-9.61-4.057-9.574-9.686C604.414,112.717,608.518,108.735,614.155,108.798z M608.324,118.537
		c-0.073,1.916,0.222,3.778,1.068,5.495c0.866,1.757,2.284,2.716,4.325,2.775c2.095,0.06,3.772-0.671,4.664-2.554
		c1.883-3.973,1.903-8.074-0.196-11.918c-1.919-3.514-6.737-3.244-8.643,0.313C608.557,114.484,608.264,116.478,608.324,118.537z"/>
	<path class="st0" d="M208.72,125.356c-0.835,1.455-2.202,2.171-3.745,2.572c-0.373,0.097-1.103-0.017-1.212-0.248
		c-1.337-2.852-2.805-0.824-4.275-0.195c-2.183,0.935-4.501,0.515-5.602-0.936c-1.3-1.714-0.973-3.844,0.907-5.386
		c1.821-1.494,3.962-2.472,6.174-3.148c2.133-0.652,1.323-2.241,1.471-3.544c0.211-1.85-0.709-3.055-2.33-3.772
		c-1.443-0.638-2.5,0.197-3.542,1.024c-0.702,0.557-0.274,1.145-0.1,1.768c0.252,0.898,0.21,1.826-0.803,2.21
		c-0.807,0.306-1.761,0.47-2.409-0.358c-0.695-0.886-0.496-1.814,0.266-2.546c1.796-1.723,3.811-3.214,6.169-3.99
		c2.873-0.946,6.023,1.404,6.112,4.462c0.093,3.197,0.023,6.399,0.023,9.599C205.825,126.089,205.825,126.089,208.72,125.356z
		 M202.456,121.917c0-0.938,0-1.59,0-2.241c0-0.59-0.175-1.092-0.875-0.786c-1.514,0.664-3.206,1.153-4.222,2.534
		c-0.928,1.262-0.91,2.809,0.006,4.069c0.943,1.298,2.207,0.571,3.346,0.123C202.613,124.868,202.607,123.279,202.456,121.917z"/>
	<path class="st0" d="M534.602,116.603c-1.383,0-2.777,0.107-4.148-0.026c-1.917-0.186-2.183,0.777-1.951,2.337
		c0.429,2.885,1.782,5.077,4.617,6.069c2.78,0.973,5.152,0.315,6.951-2.094c0.268-0.359,0.547-0.783,1.031-0.424
		c0.498,0.37,0.053,0.816-0.11,1.152c-1.278,2.638-3.393,4.204-6.323,4.317c-3.369,0.129-6.356-0.794-8.17-3.969
		c-2.096-3.669-1.57-9.33,1.179-12.524c2.216-2.575,5.067-3.327,8.279-2.533c2.748,0.679,4.219,2.639,4.834,5.354
		c0.364,1.606,0.154,2.541-1.822,2.366C537.524,116.501,536.058,116.603,534.602,116.603z M532.688,114.986
		c0.795,0,1.591,0.026,2.384-0.005c1.912-0.075,2.43-0.769,1.935-2.621c-0.392-1.468-1.381-2.365-2.867-2.605
		c-1.854-0.299-3.231,0.507-4.171,2.074c-0.518,0.865-1.221,1.893-0.753,2.806c0.408,0.796,1.569,0.239,2.389,0.346
		C531.961,115.026,532.327,114.988,532.688,114.986z"/>
	<path class="st0" d="M353.702,122.392c-0.145,2.957-3.029,5.474-6.556,5.557c-3.217,0.076-6.167-0.776-7.85-3.75
		c-2.083-3.681-1.964-7.543-0.014-11.261c1.724-3.286,4.912-4.748,8.588-4.165c3.168,0.503,5.299,2.839,5.635,6.04
		c0.135,1.289-0.171,1.858-1.601,1.816c-3.054-0.088-6.113,0.029-9.167-0.053c-1.25-0.034-1.599,0.372-1.587,1.597
		c0.03,2.982,1.721,5.741,4.308,6.741c2.747,1.062,4.96,0.456,7.187-1.969C352.931,122.635,353.152,122.199,353.702,122.392z
		 M345.318,114.985c0.797,0,1.595-0.036,2.39,0.007c1.816,0.099,2.277-0.795,1.938-2.436c-0.337-1.627-1.339-2.574-2.907-2.807
		c-1.827-0.272-3.262,0.495-4.168,2.107c-0.491,0.873-1.235,1.91-0.754,2.814c0.409,0.768,1.587,0.2,2.416,0.31
		C344.588,115.027,344.956,114.988,345.318,114.985z"/>
	<path class="st0" d="M233.775,116.603c-1.454,0-2.913,0.077-4.361-0.022c-1.344-0.092-1.922,0.218-1.852,1.745
		c0.13,2.841,1.768,5.544,4.264,6.567c2.668,1.093,4.86,0.52,7.207-1.886c0.292-0.299,0.545-0.875,1.019-0.6
		c0.609,0.353,0.19,0.894-0.033,1.317c-1.401,2.658-3.571,4.217-6.611,4.222c-3.379,0.006-6.406-0.963-7.964-4.273
		c-1.71-3.634-1.608-7.35,0.366-10.873c1.899-3.389,5.34-4.827,9.089-3.933c1.934,0.461,3.393,1.582,4.278,3.406
		c1.618,3.337,1.034,4.332-2.565,4.332C235.665,116.603,234.72,116.603,233.775,116.603z M231.81,114.986
		c0.727,0,1.455,0.018,2.181-0.003c2.17-0.064,2.664-0.822,1.977-2.879c-0.468-1.402-1.468-2.144-2.847-2.359
		c-1.572-0.245-2.869,0.37-3.806,1.626c-0.701,0.939-1.48,2.155-1.104,3.174c0.384,1.043,1.795,0.227,2.729,0.432
		C231.217,115.039,231.519,114.988,231.81,114.986z"/>
	<path class="st0" d="M327.528,123.014c1.45-3.359,2.741-6.359,4.041-9.354c0.763-1.759,0.587-2.988-1.684-3.09
		c-0.419-0.019-0.992,0.032-0.87-0.623c0.102-0.545,0.637-0.464,1.071-0.461c1.889,0.013,3.778,0.025,5.667,0.024
		c0.423,0,0.986-0.176,1.096,0.371c0.121,0.599-0.448,0.629-0.881,0.67c-1.543,0.144-2.169,1.242-2.717,2.499
		c-1.83,4.192-3.687,8.372-5.566,12.542c-0.378,0.838-0.576,1.826-1.585,2.366c-1.182-1.334-1.67-3.035-2.31-4.624
		c-1.356-3.366-2.601-6.777-3.85-10.185c-0.489-1.334-0.875-2.687-2.729-2.549c-0.374,0.028-0.77-0.174-0.711-0.625
		c0.053-0.41,0.463-0.536,0.828-0.508c2.617,0.2,5.231,0.204,7.848-0.003c0.374-0.029,0.759,0.047,0.791,0.52
		c0.033,0.485-0.318,0.571-0.717,0.574c-2.129,0.016-2.105,1.135-1.537,2.753C324.816,116.461,325.949,119.596,327.528,123.014z"/>
	<path class="st0" d="M380.047,108.799c0.145,0.008,0.508,0.025,0.871,0.049c2.758,0.186,4.079,1.864,3.547,4.524
		c-0.037,0.186-0.134,0.451-0.273,0.507c-0.383,0.154-0.707-0.031-0.911-0.376c-0.478-0.809-0.819-1.689-1.504-2.384
		c-1.215-1.234-2.663-1.468-4.217-0.987c-1.231,0.381-1.864,1.36-1.901,2.645c-0.049,1.73,1.062,2.59,2.498,3.184
		c1.207,0.5,2.423,0.984,3.607,1.535c2.45,1.139,3.324,2.616,3.122,5.165c-0.198,2.503-1.591,4.173-3.947,4.932
		c-2.398,0.773-4.767,0.085-7.144-0.027c-0.679-0.032-1.937-4.253-1.381-4.618c0.98-0.643,1.23,0.387,1.536,0.935
		c0.94,1.684,2.095,2.925,4.224,2.924c1.862-0.001,3.076-0.847,3.593-2.574c0.527-1.758-0.321-2.961-1.869-3.708
		c-1.108-0.535-2.262-0.975-3.392-1.466c-3.153-1.37-4.26-3.092-3.744-5.815c0.473-2.501,2.823-4.317,5.757-4.441
		C378.954,108.783,379.392,108.799,380.047,108.799z"/>
	<path class="st0" d="M398.401,111.103c1.839-1.86,3.686-3.293,5.106-5.142c0.193-0.251,0.627-0.492,0.91-0.453
		c0.368,0.05,0.427,0.511,0.44,0.882c0.037,1.065-0.707,2.566,0.15,3.081c0.926,0.557,2.411,0.103,3.615,0.307
		c0.986,0.167,2.826-0.849,2.791,0.878c-0.035,1.725-1.845,0.845-2.862,0.819c-3.843-0.098-3.85-0.145-3.839,3.785
		c0.007,2.329-0.099,4.67,0.1,6.984c0.305,3.551,1.955,4.497,5.352,3.314c0.43-0.15,0.938-0.734,1.316-0.08
		c0.35,0.607-0.302,0.93-0.692,1.164c-2.083,1.251-4.313,1.766-6.683,0.961c-1.611-0.547-2.399-1.788-2.594-3.45
		c-0.374-3.195-0.12-6.401-0.17-9.602C401.294,111.655,401.33,111.654,398.401,111.103z"/>
	<path class="st0" d="M176.845,111.181c1.807-1.899,3.591-3.479,5.08-5.342c0.196-0.246,0.585-0.601,0.907-0.262
		c0.209,0.22,0.231,0.658,0.256,1.004c0.232,3.16,0.227,3.161,3.342,3.161c0.727,0,1.455,0.018,2.182-0.005
		c0.652-0.021,1.199,0.086,1.162,0.896c-0.033,0.717-0.522,1.027-1.176,1.007c-1.451-0.044-2.902-0.107-4.349-0.223
		c-0.927-0.075-1.272,0.221-1.252,1.199c0.065,3.126-0.052,6.258,0.077,9.381c0.151,3.643,1.904,4.753,5.349,3.588
		c0.437-0.148,0.96-0.726,1.331-0.104c0.344,0.576-0.301,0.917-0.694,1.156c-2.077,1.263-4.308,1.776-6.666,0.961
		c-2.014-0.696-2.633-2.384-2.664-4.321c-0.046-2.909-0.088-5.821,0.012-8.727C179.81,112.587,179.871,110.831,176.845,111.181z"/>
	<path class="st0" d="M625.532,126.977c0.073-0.111,0.153-0.337,0.23-0.336c3.538,0.045,3.17-2.408,3.11-4.747
		c-0.066-2.546-0.055-5.096,0.001-7.643c0.032-1.466-0.231-2.628-1.944-2.844c-0.407-0.051-0.723-0.222-0.72-0.646
		c0.003-0.421,0.323-0.589,0.723-0.657c1.794-0.308,3.453-1.033,5.278-1.888c0,1.284,0,2.386,0,3.758
		c1.174-0.89,2.1-1.661,3.096-2.327c1.055-0.706,2.241-1.081,3.523-0.769c0.914,0.223,1.546,0.816,1.728,1.767
		c0.162,0.849-0.081,1.599-0.791,2.131c-0.8,0.599-1.609,0.477-2.445,0.015c-3.19-1.761-5.021-0.676-5.027,2.966
		c-0.005,2.766,0.05,5.534-0.02,8.299c-0.039,1.544,0.51,2.329,2.118,2.311c0.513-0.006,1.432-0.292,1.411,0.526
		c-0.029,1.075-0.999,0.479-1.543,0.488c-2.474,0.043-4.95,0.015-7.425,0.024C626.345,127.407,625.802,127.636,625.532,126.977z"/>
	<path class="st0" d="M362.57,108.284c0,1.21,0,2.277,0,3.651c1.018-0.794,1.842-1.52,2.749-2.124
		c1.173-0.781,2.475-1.351,3.908-0.898c1.386,0.438,2.038,1.506,1.527,2.895c-0.525,1.425-1.653,1.727-3.015,1.038
		c-3.527-1.783-5.139-0.774-5.141,3.221c-0.001,2.547,0.077,5.098-0.027,7.641c-0.074,1.807,0.467,2.805,2.433,2.655
		c0.48-0.037,1.203-0.108,1.141,0.613c-0.06,0.706-0.743,0.444-1.233,0.442c-2.692-0.011-5.385-0.011-8.077,0.016
		c-0.383,0.004-0.819,0.055-0.892-0.357c-0.098-0.554,0.389-0.742,0.829-0.701c2.206,0.205,2.471-1.068,2.416-2.859
		c-0.096-3.127-0.059-6.259-0.012-9.388c0.021-1.388-0.262-2.469-1.842-2.711c-0.467-0.071-0.877-0.178-0.799-0.769
		c0.061-0.46,0.455-0.497,0.816-0.558C359.143,109.786,360.764,108.955,362.57,108.284z"/>
	<path class="st0" d="M212.802,118.06c0-1.381-0.016-2.762,0.004-4.143c0.02-1.38,0.313-2.847-1.977-2.533
		c-1.043,0.143-0.817-0.616-0.288-1.043c1.646-1.33,3.078-2.866,4.486-4.432c0.224-0.249,0.496-0.59,0.917-0.392
		c0.423,0.199,0.229,0.627,0.292,0.959c0.198,1.044-0.646,2.5,0.288,3.056c0.868,0.517,2.278,0.029,3.394,0.254
		c0.982,0.198,2.807-0.961,2.827,0.778c0.024,2.069-1.91,0.897-2.905,0.89c-3.675-0.024-3.682-0.104-3.671,3.526
		c0.007,2.398-0.018,4.798,0.079,7.193c0.136,3.339,1.967,4.569,5.071,3.526c0.482-0.162,1.085-0.885,1.458-0.24
		c0.432,0.748-0.435,1.129-0.961,1.408c-2.211,1.177-4.552,1.669-6.87,0.448c-2.127-1.121-2.181-3.243-2.148-5.33
		C212.819,120.677,212.802,119.368,212.802,118.06z"/>
	<path class="st0" d="M393.702,108.195c0,5.438,0.025,10.529-0.016,15.62c-0.012,1.473,0.123,2.675,2.034,2.543
		c0.418-0.029,0.766,0.166,0.739,0.589c-0.027,0.414-0.374,0.488-0.796,0.485c-2.693-0.02-5.386-0.003-8.078,0.011
		c-0.314,0.002-0.622-0.044-0.693-0.369c-0.098-0.451,0.245-0.72,0.612-0.683c2.846,0.289,2.746-1.681,2.755-3.556
		c0.014-2.912-0.021-5.824,0.02-8.736c0.019-1.396-0.328-2.451-1.889-2.695c-0.368-0.058-0.771-0.12-0.808-0.565
		c-0.048-0.581,0.418-0.669,0.86-0.748C390.223,109.776,391.867,109.037,393.702,108.195z"/>
	<path class="st0" d="M313.204,108.243c0,5.047-0.01,9.895,0.006,14.743c0.005,1.629-0.409,3.584,2.309,3.401
		c0.368-0.025,0.53,0.325,0.501,0.585c-0.029,0.258-0.251,0.471-0.618,0.469c-2.764-0.012-5.527-0.007-8.291,0.006
		c-0.333,0.002-0.612-0.107-0.667-0.412c-0.082-0.459,0.279-0.686,0.652-0.653c2.873,0.255,2.669-1.733,2.676-3.6
		c0.01-2.837,0.033-5.674,0.07-8.51c0.018-1.423-0.216-2.65-1.948-2.861c-0.392-0.048-0.747-0.157-0.761-0.599
		c-0.014-0.419,0.293-0.621,0.69-0.689C309.674,109.809,311.383,109.047,313.204,108.243z"/>
	<path class="st0" d="M394.146,100.234c-0.13,1.286-0.757,2.189-2.144,2.211c-1.248,0.02-2.052-0.695-2.148-1.96
		c-0.104-1.375,0.672-2.249,1.987-2.351C393.189,98.029,393.935,98.883,394.146,100.234z"/>
	<path class="st0" d="M311.46,98.09c1.257,0.148,2.142,0.785,2.16,2.174c0.016,1.247-0.675,2.088-1.936,2.176
		c-1.355,0.095-2.223-0.656-2.314-2.014C309.279,99.057,310.09,98.314,311.46,98.09z"/>
</g>
<g>
	<path class="st1" d="M55.853,89.982c-1.006,0.396-1.602-0.45-2.303-0.836c-3.312-1.825-6.585-3.717-10.034-5.286
		c-1.412-0.642-1.938-0.485-1.775,1.231c0.868,9.125,1.67,18.257,2.481,27.387c0.386,4.348,0.664,8.707,1.149,13.043
		c0.196,1.752-0.412,2.236-2.001,2.023c-0.501-0.067-1.025-0.064-1.527,0c-1.328,0.17-1.689-0.397-1.804-1.703
		c-1.419-16.087-2.9-32.169-4.4-48.249c-0.112-1.205,0.147-2.89-1.911-2.754c-1.688,0.112-2.817,1.76-2.634,3.633
		c0.92,9.412,1.845,18.823,2.736,28.237c0.105,1.114,0.014,2.247,0.014,3.769c-2.631-9.818-5.16-19.255-7.69-28.693
		c-0.156,0.016-0.312,0.031-0.468,0.047c-0.89,4.164-1.711,8.345-2.685,12.49c-2.082,8.863-4.41,17.65-9.22,25.527
		c-1.294,2.119-2.882,3.99-4.804,5.609c-2.574,2.168-5.611,2.135-8.676,2.141c0-1.603,0-3.205,0-4.808
		c3.348-0.297,5.554-2.367,7.356-4.919c4.877-6.91,7.955-14.677,10.544-22.656c1.66-5.115,3.243-10.254,4.81-15.398
		c1.052-3.455,2.796-6.196,6.549-7.208c1.434-0.387,2.542-1.395,3.585-2.423c1.541-1.519,2.905-3.155,5.047-4.039
		c1.761-0.726,1.847-2.768,0.475-4.302c-0.746-0.834-1.16-1.615-0.327-2.682c0.787-1.008,0.519-2.068-0.232-3
		c-0.719-0.892-0.841-1.688-0.193-2.76c0.85-1.407,0.299-2.795-1.22-3.074c-3.071-0.564-3.461-2.535-3.695-5.169
		c-0.732-8.26-1.629-16.509-2.665-24.737c-0.261-2.071,0.594-3.573,1.557-5.045c1.421-2.172,1.694-4.166,0.163-6.379
		c-0.697-1.007-1.048-2.249-1.712-3.284c-0.806-1.256-0.595-1.795,0.891-2.137c22.195-5.101,44.025-4.574,65.311,4.218
		c5.955,2.46,11.402,5.794,16.391,9.886c0.987,0.81,1.416,1.639,1.415,2.945c-0.035,34.964-0.025,69.928-0.045,104.892
		c0,0.82,0.494,2.005-1.153,2.033c-1.279,0.022-2.035-0.099-2.443-1.677c-3.34-12.911-9.4-24.531-17.161-35.303
		c-1.862-2.584-4.106-4.734-7.391-5.411c-0.264-0.054-0.549-0.007-0.896-0.007c7.971,12.848,9.767,29.856,4.188,42.057
		c-0.036-3.959,0.01-7.379-0.251-10.789c-0.428-5.588-0.812-11.173-2.167-16.638c-1.757-7.088-5.828-12.399-12.132-16.082
		c-3.613-2.111-3.571-2.187-2.428-6.221c0.178-0.629,0.418-1.243,0.573-1.877c0.302-1.242,1.018-1.609,2.253-1.293
		c1.545,0.395,3.084,0.909,4.71,0.823c1.948-0.103,3.374-0.8,3.508-3.056c0.045-0.754,0.088-1.539,0.97-2.036
		c1.941-1.094,2.772-2.868,2.718-5.084c0.132-0.034,0.272-0.115,0.396-0.095c4.272,0.676,4.731,0.215,3.672-3.905
		c-0.534-2.079-0.427-4.183-0.523-6.288c-0.062-1.355,0.565-1.615,1.693-1.538c1.742,0.119,3.418,0.583,5.361,1.099
		c-0.308-1.187-1.027-1.768-1.726-2.282c-4.783-3.517-10.088-4.667-15.907-3.419c-0.83,0.178-1.26,0.544-1.188,1.478
		c0.09,1.159,0.076,2.329,0.063,3.493c-0.046,4.272-1.775,6.498-5.959,7.687c-2.814,0.8-5.734,0.955-8.605,1.411
		c-4.558,0.724-8.79,2.396-13.086,5.009c0.801-2.87,2.229-4.739,4.316-6.179c2.971-2.05,6.429-2.614,9.85-3.303
		c2.359-0.476,4.665-1.119,6.843-2.166c1.186-0.57,2.314-1.226,3.261-2.158c1.213-1.194,2.822-2.772,2.165-4.202
		c-0.564-1.228-2.614-0.006-3.943,0.256c-7.436,1.468-14.733,3.405-21.51,6.945c-3.929,2.053-7.3,4.771-10.068,8.232
		c-0.643,0.804-1.17,1.617-0.937,2.772c0.3,1.484-0.811,2.396-1.602,3.424c-1.506,1.958-1.326,2.249,0.637,3.55
		c6.123,4.056,11.264,9.142,15.398,15.227L55.853,89.982z M65.689,12.514c-0.856,0.168-1.708,0.298-2.542,0.504
		C55.114,15,49.46,19.546,47.37,27.835c-1.642,6.512-1.759,13.09-0.554,19.685c0.507,2.774,2.997,4.119,5.627,3.024
		c7.629-3.173,15.509-5.365,23.737-6.236c7.45-0.789,14.571-0.292,20.344,5.338c0.044,0.043,0.216-0.045,0.559-0.127
		c-3.949-8.777-7.194-17.811-12.332-25.957c-1.835-2.91-4.086-5.467-6.875-7.534c-1.991-1.476-4.474-2.19-5.622-4.932
		c-0.667-1.591-1.973-2.7-0.99-4.66c0.509-1.016,0.631-2.351-0.459-3.214c-0.998-0.79-2.178-0.684-3.316-0.193
		c-1.006,0.434-2.076,0.852-2.623,1.854c-0.537,0.984-1.348,1.343-2.34,1.733c-1.879,0.739-3.646,1.752-4.295,4.028
		C63.953,9.891,64.403,10.006,65.689,12.514z"/>
	<path class="st1" d="M0.302,19.195C7.099,13.53,17.047,7.798,22.169,6.638c0.05,2.007-0.767,3.843-0.969,5.771
		c-0.068,0.647-0.397,1.324,0.223,1.828c4.461,3.627,4.148,8.84,4.556,13.785c0.509,6.161,0.745,12.349,1.435,18.487
		c0.295,2.623-0.782,4.358-2.415,5.902c-3.436,3.248-5.382,7.247-6.948,11.655c-2.902,8.167-6.278,16.145-12.323,22.642
		C3.492,89.113,2,92.038,0.302,94.814C0.302,69.608,0.302,44.401,0.302,19.195z"/>
	<path class="st1" d="M58.095,99.146c7.089,4.977,19.101,20.616,21.785,28.447c-2.954,0-5.811-0.003-8.668,0.002
		c-0.62,0.001-0.832-0.344-1.018-0.898c-3.15-9.383-7.127-18.395-12.13-26.945C58.008,99.656,58.074,99.488,58.095,99.146z"/>
	<path class="st1" d="M54.077,112.287c3.174,2.379,5.542,5.472,7.662,8.763c1.288,1.998,2.439,4.084,3.892,6.534
		c-2.013,0-3.626,0.007-5.239-0.004c-0.54-0.003-0.986-0.144-1.105-0.792c-0.939-5.105-3.322-9.68-5.293-14.407L54.077,112.287z"/>
	<path class="st1" d="M57.847,69.541c-4.237,2.855-7.29,6.069-9.431,10.276C46.791,73.915,50.761,69.395,57.847,69.541z"/>
	<path class="st1" d="M55.806,90.009c0.061,0.087,0.123,0.173,0.184,0.26c-0.057-0.002-0.114-0.004-0.172-0.005
		c0.011-0.094,0.023-0.187,0.034-0.281C55.853,89.982,55.806,90.009,55.806,90.009z"/>
	<path class="st1" d="M53.993,112.381c-0.224-0.025-0.377-0.197-0.21-0.34c0.204-0.174,0.252,0.086,0.294,0.246
		C54.077,112.287,53.993,112.381,53.993,112.381z"/>
	<path class="st1" d="M47.47,40.943c3.799-9.129,17.229-13.46,28.792-9.559c-5.248,0.352-10.229,0.81-14.949,2.598
		C56.625,35.758,52.274,38.244,47.47,40.943z"/>
</g>
</svg>
