<svg id="Layer_1" xmlns="http://www.w3.org/2000/svg" viewBox="0 0 1144 139"><style>.st0{fill:#2f1b61}.st1{fill:#eeb313}</style><path class="st0" d="M1069.17 57.984c0-8.092.023-16.016-.01-23.94-.016-3.785-.115-7.569-.222-11.353a27.28 27.28 0 0 0-.345-3.468c-.341-2.158-1.664-3.319-3.827-3.515-.651-.059-1.31-.035-1.963-.082-.677-.049-1.754.241-1.729-.749.023-.927 1.106-.731 1.776-.711 5.745.173 11.49.251 17.236.003.593-.026 1.544-.209 1.593.663.049.889-.874.742-1.495.796-3.644.316-4.478.934-4.799 4.556-.302 3.4-.238 6.833-.301 10.252-.252 13.751-.486 27.503-.746 41.254-.016.841.247 1.937-.678 2.38-1.018.488-1.776-.388-2.431-1.029-3.904-3.818-7.804-7.64-11.652-11.515-10.258-10.328-20.749-20.431-30.758-31.917 0 2.309-.04 4.05.007 5.789.255 9.453.527 18.906.805 28.359.028.945.066 1.898.214 2.829.66 4.164 1.619 5.005 5.801 5.27.672.043 1.843-.293 1.836.585-.009 1.166-1.274.933-2.062.867-6.512-.55-13.057-.258-19.556-.211-5.507.04-11.032-.018-16.547.091-1.36.027-2.719-.036-4.687-.59 3.816-1.25 2.039-3.292 1.38-5.098-1.568-4.297-3.242-8.555-4.801-12.855-.447-1.232-.994-1.86-2.466-1.83-5.023.103-10.051.04-15.076.039-.79 0-1.624-.154-1.974.88-1.603 4.745-3.853 9.263-5.046 14.147-.72 2.946.057 3.845 3.12 3.965.145.006.293-.013.437.004.608.069 1.588-.201 1.581.664-.007.963-1.014.814-1.713.806-1.09-.013-2.184-.032-3.268-.134-4.222-.4-8.432.097-12.647.142-.51.005-1.022.022-1.528-.025-.516-.048-1.091-.194-1.043-.844.039-.515.552-.591 1.005-.604.218-.006.437-.019.655-.015 3.688.068 6.013-1.884 7.359-5.12 2.092-5.026 4.114-10.081 6.14-15.135 4.808-11.995 9.587-24.002 14.423-35.985.467-1.156.639-2.966 2.112-3.02 1.67-.061 1.839 1.837 2.328 3.043 6.276 15.472 12.497 30.966 18.759 46.443a42.51 42.51 0 0 0 2.242 4.719c2.562 4.606 9.516 6.793 14.356 4.591 1.208-.55 1.601-1.577 1.821-2.779.751-4.115.394-8.279.502-12.415.282-10.768.333-21.542.486-32.314.042-2.983.106-5.965.193-8.946.021-.703-.135-1.602.68-1.938.899-.37 1.491.363 2.027.946 9.751 10.619 19.939 20.816 30.02 31.116 4.204 4.297 8.348 8.654 12.476 12.938zm-87.796-29.878l-7.795 20.808h11.564c3.852 0 3.86-.003 2.52-3.668-2.033-5.563-4.08-11.122-6.289-17.14zM817.41 51.545c-3.641 0-7.283.051-10.923-.028-1.246-.027-1.836.452-2.212 1.576-2.3 6.886-4.663 13.752-6.945 20.643-.408 1.232-.59 2.549-.788 3.84-.459 2.995.821 4.485 3.911 4.626.291.013.583-.009.874.007.579.032 1.32.02 1.339.764.019.724-.683.847-1.286.838-1.382-.02-2.77.006-4.143-.126-4.73-.457-9.445.083-14.167.134-.947.01-1.894.027-2.84-.007-.758-.027-1.935.241-1.956-.795-.022-1.07 1.161-.82 1.898-.802 4.661.109 7.709-2.251 9.525-6.33 3.192-7.169 5.568-14.652 8.286-22.003 6.294-17.025 12.501-34.081 18.769-51.116.434-1.179.546-3.025 1.951-3.11 1.694-.103 1.741 1.896 2.202 3.08 8.56 21.987 17.063 43.996 25.584 65.999 1.13 2.919 2.445 5.744 4.17 8.373 2.156 3.287 5.121 5.062 9.089 5.104.679.007 1.734-.25 1.747.737.012.891-1.016.856-1.721.861-6.404.04-12.809.041-19.206-.328-.48-.028-1.086.114-1.373-.438-.357-.687.298-.824.683-1.108 1.036-.764.848-1.832.493-2.78-3.311-8.839-6.684-17.655-9.99-26.496-.406-1.085-1.129-1.13-2.048-1.124-3.64.022-7.282.009-10.923.009zm-.082-3.942c3.129 0 6.258-.03 9.386.015 1.243.018 1.713-.194 1.208-1.604-3.4-9.493-6.721-19.014-10.08-28.521-.178-.505-.169-1.335-.914-1.265-.639.06-.733.844-.906 1.373-3.068 9.376-6.102 18.763-9.188 28.133-.451 1.369-.363 1.968 1.326 1.903 3.052-.12 6.112-.034 9.168-.034zM270.356 58.082c0-6.339.057-12.502-.017-18.663-.067-5.675-.27-11.349-.426-17.022a18.116 18.116 0 0 0-.186-2.169c-.519-3.481-1.668-4.456-5.149-4.622-.895-.043-2.487.581-2.471-.823.012-1.043 1.582-.636 2.451-.608 5.457.181 10.911.207 16.367-.004.649-.025 1.76-.282 1.742.72-.016.908-1.094.687-1.776.734-3.18.223-4.193.965-4.466 4.17-.315 3.691-.299 7.412-.37 11.12-.259 13.606-.49 27.213-.744 40.819-.016.85.235 1.957-.694 2.37-1.001.445-1.762-.428-2.426-1.077-3.593-3.511-7.201-7.008-10.731-10.582-10.536-10.669-21.401-21.02-31.595-32.762 0 3.696-.069 6.899.014 10.099.199 7.707.461 15.412.719 23.117.046 1.379.08 2.775.32 4.128.676 3.813 1.609 4.586 5.488 4.815.363.021.731-.009 1.091.037.414.053.969.023 1.026.581.072.706-.546.829-1.037.829-2.255-.001-4.523.078-6.763-.126-3.794-.346-7.556.252-11.335.164-.509-.012-1.02-.01-1.524-.064-.375-.04-.722-.234-.762-.645-.059-.614.455-.637.873-.726.141-.03.29-.044.434-.038 4.405.156 5.543-.756 5.658-6.207.297-14.117.455-28.238.673-42.357.042-2.692.075-5.385.178-8.075.031-.817-.257-1.915.827-2.267.893-.29 1.451.51 1.996 1.079 6.995 7.312 13.944 14.668 20.979 21.942 7.129 7.373 14.34 14.664 21.636 22.113zm185.788-43.931c5.589.221 11.175-.38 16.764.567 12.042 2.04 14.909 13.199 10.265 21.891-1.74 3.258-4.274 5.878-7.098 8.203-.857.706-.975 1.16-.253 2.056 5.294 6.57 10.366 13.329 16.155 19.483 2.847 3.026 6.175 5.315 10.553 5.509.485.021 1.178-.037 1.228.613.061.799-.678.852-1.244.843-4.29-.073-8.6.344-12.862-.381-3.166-.538-5.557-2.448-7.638-4.744-4.607-5.084-8.386-10.8-12.253-16.434-1.425-2.076-2.944-3.002-5.529-2.895-5.029.208-5.079.055-5.022 5.122.05 4.434-.135 8.876.411 13.298.429 3.477 1.092 4.053 4.648 4.485 1.016.123 2.955-.573 2.911.837-.04 1.28-1.957.725-3.024.695-6.106-.173-12.209-.319-18.313.028-.507.029-1.021.022-1.527-.023-.441-.039-.961-.219-1.01-.664-.078-.712.592-.694 1.071-.765.429-.064.87-.07 1.306-.073 2.16-.017 3.266-1.076 3.649-3.232.59-3.32.588-6.675.603-10.002.055-12.664.36-25.334-.189-37.993-.167-3.849-1.313-4.794-5.124-4.956-.864-.037-2.365.44-2.375-.721-.011-1.207 1.49-.71 2.334-.721 3.853-.056 7.708-.026 11.563-.026zm3.054 17.083v6.986c0 6.996.043 6.938 7.057 7.002 4.231.039 6.778-2.049 8.408-5.686 1.225-2.733 1.341-5.621 1.282-8.548-.175-8.736-6.168-14.025-14.808-13.09-1.41.152-2.003.713-1.968 2.204.087 3.709.029 7.421.029 11.132zm476.278 8.298c2.986 1.318 5.758 2.681 8.128 4.754 9.31 8.143 7.245 21.979-4.052 27.093-3.733 1.69-7.659 2.242-11.706 2.088-6.539-.249-13.075-.607-19.619-.142-.434.031-.878.03-1.309-.024-.507-.063-1.11-.185-1.034-.847.057-.493.609-.546 1.039-.59.578-.059 1.16-.113 1.74-.124 1.817-.035 2.776-.992 3.121-2.735.797-4.026.72-8.109.733-12.173.037-11.507-.026-23.014-.058-34.52a18.611 18.611 0 0 0-.136-1.957c-.401-3.693-1.389-4.575-5.154-4.736-.868-.037-2.365.386-2.367-.732-.002-1.184 1.508-.754 2.34-.707 7.635.43 15.276-.17 22.907.185 1.295.06 2.605.31 3.86.648 8.761 2.353 12.008 10.844 7.143 18.536-1.453 2.3-3.505 4.042-5.576 5.983zM921.96 54.256h.15c0 3.777-.019 7.555.01 11.332.01 1.319.543 2.476 1.762 3.049 3.816 1.794 7.733 2.082 11.504.008 3.62-1.991 4.499-5.473 4.441-9.307-.011-.724-.107-1.448-.186-2.169-.979-8.945-7.271-14.768-15.826-14.76-1.398.001-1.927.344-1.885 1.816.095 3.341.03 6.687.03 10.031zm.001-26.002c0 3.052.004 6.103-.003 9.155-.002.751.018 1.372.946 1.697 5.675 1.986 11.257-1.416 11.898-7.366a19.692 19.692 0 0 0-.009-4.348c-.74-6.403-4.931-10.239-10.706-10.031-1.545.056-2.216.53-2.156 2.176.105 2.902.029 5.811.03 8.717zm-724.965 8.729c0-5.17.031-10.339-.009-15.509-.035-4.576-1.065-5.599-5.632-5.851-.673-.037-1.746.23-1.75-.748-.005-1.041 1.094-.724 1.738-.706 5.818.167 11.635.233 17.454.002.639-.025 1.715-.306 1.706.752-.007.795-.974.651-1.599.705-3.948.339-4.843 1.216-4.884 5.35-.085 8.665-.039 17.331-.105 25.996-.027 3.565-.321 7.111-1.134 10.605-2.173 9.337-9.139 15.625-18.699 16.602-3.985.407-8.007.394-11.952-.514-9.032-2.079-14.473-8.292-15.801-17.807-.496-3.554-.474-7.111-.495-10.676-.048-8.08-.041-16.161-.184-24.239-.074-4.149-1.266-5.184-5.453-5.313-.146-.004-.294.018-.436-.004-.66-.102-1.714.234-1.684-.82.024-.86 1.006-.642 1.602-.639 2.182.01 4.363.138 6.545.13 4.583-.018 9.167-.099 13.75-.143.579-.005 1.167.015 1.734.114.238.042.557.283.624.5.136.444-.295.588-.609.746-.125.063-.279.068-.421.098-5.159 1.086-5.289 1.085-5.334 6.429-.086 10.048-.031 20.097.025 30.146.013 2.329.433 4.634 1.064 6.883 2.093 7.461 8.122 11.77 15.605 11.177 7.906-.626 12.905-5.482 13.913-13.412.836-6.605.315-13.237.421-19.854zm160.342 22.159c3.699-9.273 7.337-18.366 10.95-27.468 1.579-3.979 3.173-7.954 4.638-11.976 1.124-3.085.483-3.911-2.828-4.065-.363-.017-.734.019-1.089-.043-.42-.073-.933-.183-.951-.706-.02-.58.563-.608.952-.678.495-.09 1.015-.064 1.524-.052 4.796.114 9.591.37 14.388.003a7.065 7.065 0 0 1 1.525.038c.338.048.773.152.828.578.075.573-.43.817-.824.791-5.144-.344-6.501 3.596-8.086 7.186-7.037 15.932-14.012 31.891-21.073 47.811-.613 1.381-.818 3.609-2.64 3.651-2.071.048-2.116-2.326-2.713-3.755-6.651-15.941-13.28-31.892-19.767-47.9-1.715-4.233-4.065-7.185-9.056-6.937-.514.026-1.112-.048-1.09-.744.023-.713.699-.687 1.16-.686 2.253.007 4.507.119 6.76.109 4.653-.021 9.307-.098 13.96-.146.581-.006 1.168-.013 1.743.053.418.048.955.128.953.69-.002.527-.487.664-.922.71-.432.046-.874.002-1.309.032-2.204.154-3.016 1.175-2.418 3.299 1.497 5.319 3.746 10.369 5.674 15.534a3255.195 3255.195 0 0 0 8.556 22.602c.252.658.308 1.441 1.155 2.069zm54.275 14.329c-6.372-.712-11.458-.3-16.545-.145-.582.018-1.169.029-1.747-.027-.507-.049-1.107-.18-1.041-.843.051-.509.598-.552 1.03-.594.651-.064 1.304-.137 1.957-.153 1.654-.042 2.484-.97 2.838-2.498.629-2.714.721-5.487.734-8.24.058-12.675.026-25.351.022-38.026 0-.581-.03-1.164-.082-1.743-.423-4.721-1.091-5.342-5.909-5.577-.68-.033-1.749.193-1.738-.762.011-1 1.109-.699 1.76-.695 8.956.052 17.912.135 26.868.216 2.552.023 5.099-.033 7.578-.71.951-.26 1.478-.074 1.278.977-.574 3.014-.691 6.067-.889 9.116-.04.622-.024 1.515-.896 1.476-.912-.04-.67-.95-.737-1.561-.364-3.293-1.351-4.441-4.511-4.888-3.829-.542-7.696-.428-11.552-.484-.992-.014-1.244.43-1.242 1.309.015 6.265.014 12.53.001 18.794-.002.869.234 1.351 1.232 1.332 4.147-.081 8.301.142 12.442-.259 1.321-.128 2.611-.346 3.479-1.525.284-.385.683-.591 1.133-.381.399.186.306.627.257.962-.528 3.605-.801 7.23-.873 10.871-.01.481-.196.9-.689.953-.588.063-.65-.444-.711-.884-.08-.575-.182-1.149-.234-1.727-.191-2.122-1.428-3.3-3.435-3.659-3.825-.684-7.697-.321-11.548-.426-.944-.026-1.066.534-1.044 1.258.195 6.401-.469 12.807.066 19.204.281 3.362 1.522 4.543 4.947 4.925 2.899.323 5.796.337 8.7.017 3.82-.42 5.356-1.749 6.283-5.525.121-.495.223-.995.356-1.487.108-.401.414-.605.809-.568.476.044.517.45.517.813-.001 3.286-.338 6.538-1.141 9.726-.302 1.198-1.303 1.438-2.403 1.437-5.535-.002-11.07.001-15.32.001zm257.755-30.377c3.988-7.685 8.542-14.781 12.103-22.411 1.399-2.999 1.046-3.674-1.655-5.261-.324-.19-.709-.367-.556-.784.075-.203.436-.347.695-.423.272-.08.578-.076.866-.06 5.015.29 10.03.252 15.046.008.602-.029 1.539-.206 1.594.624.055.833-.871.796-1.5.836-2.905.182-5.113 1.657-6.763 3.904-5.991 8.161-11.042 16.905-15.697 25.878-.987 1.902-1.119 4.062-1.114 6.174.012 4.873.053 9.748.183 14.619.116 4.353.961 5.113 5.21 5.576 1.026.112 2.955-.478 2.917.822-.037 1.261-1.937.728-3.002.703-6.323-.153-12.643-.389-18.965.025-.579.038-1.168.03-1.745-.03-.499-.052-1.11-.145-1.02-.845.07-.541.633-.497 1.046-.575 4.854-.918 4.927-.912 5.302-5.884.373-4.938.281-9.893.11-14.839-.087-2.503-.87-4.866-2.139-7.024-4.311-7.327-8.654-14.638-13.372-21.712-2.188-3.28-4.509-6.532-9.006-6.859-.36-.026-.735-.208-.749-.649-.019-.602.489-.703.904-.702 1.598.003 3.196.107 4.793.096 4.437-.03 8.873-.108 13.309-.137.599-.004 1.501-.284 1.632.599.111.746-.755.731-1.272.896-1.338.429-1.68 1.26-1.108 2.518.15.329.234.691.401 1.01 4.209 8.037 8.925 15.782 13.552 23.907zm446.548.051c3.906-7.073 7.604-13.737 11.258-20.425.551-1.009.955-2.112 1.319-3.208.613-1.845.694-3.5-1.808-3.983-.391-.075-.947-.282-.78-.844.18-.604.802-.539 1.292-.525 3.852.112 7.702.349 11.558.154 1.451-.073 2.905-.116 4.357-.132.414-.004.949.022 1.033.57.089.58-.476.783-.845.792-5.313.135-7.775 4.017-10.257 7.815a287.125 287.125 0 0 0-12.152 20.402c-1.321 2.44-1.909 5.035-1.932 7.743-.043 5.162-.146 10.327.264 15.485.275 3.458 1.208 4.367 4.671 4.751 1.213.135 3.528-.344 3.425.738-.156 1.641-2.298.844-3.53.804-6.178-.203-12.35-.343-18.525.042a9.764 9.764 0 0 1-1.743-.051c-.422-.05-.929-.175-.95-.709-.024-.582.518-.601.928-.694 5.109-1.159 5.157-1.155 5.457-6.408.282-4.938.392-9.883.028-14.824-.179-2.434-.978-4.69-2.239-6.762-4.153-6.828-8.253-13.691-12.541-20.434-2.331-3.666-4.68-7.512-9.762-7.878-.328-.024-.698-.272-.656-.731.043-.463.446-.6.787-.601 1.524-.004 3.049.028 4.573.082 4.511.16 9.018.002 13.525-.149.614-.021 1.54-.253 1.708.515.192.877-.789.837-1.363 1.019-1.155.366-1.396 1.168-1.108 2.223.114.419.26.842.472 1.218 4.448 7.902 8.906 15.798 13.536 24.005zm-501.108.9c.144 6.606-.33 14.693.375 22.753.359 4.113.939 4.494 5.078 4.973 1.05.121 3.064-.449 2.991.758-.088 1.458-2.05.792-3.162.763-6.396-.169-12.789-.336-19.184.031a8.217 8.217 0 0 1-1.739-.07c-.416-.066-.9-.265-.817-.818.062-.414.501-.478.854-.534 1.534-.243 3.365.266 4.413-1.301 1.179-1.763 1.158-3.884 1.178-5.905.111-11.134.163-22.268.222-33.402.02-3.712-.016-7.425.014-11.137.008-.996-.096-1.713-1.375-1.606-4.494.376-9.01.064-13.511.508-2.797.276-4.575 1.564-5.517 4.176-.216.598-.195 1.703-1.243 1.437-.815-.207-.558-1.135-.459-1.71.507-2.934 1.096-5.853 1.668-8.776.165-.844.583-1.336 1.53-.96 3.124 1.24 6.423 1.12 9.68 1.137 10.264.053 20.528.003 30.792.031 2.555.007 5.101-.062 7.59-.645 1.173-.275 1.65.016 1.606 1.223-.113 3.124-.198 6.249-.305 9.373-.017.499.008 1.123-.718 1.107-.696-.016-.639-.63-.736-1.129-.65-3.36-1.788-4.468-5.216-5.118-4.249-.806-8.566-.291-12.837-.65-1.484-.125-1.166.935-1.167 1.747-.01 7.426-.005 14.851-.005 23.744zm-108.466 20.96c.108-1.962.185-3.925.34-5.883.048-.612.014-1.498.86-1.562 1.06-.08.661.899.786 1.454.159.709.221 1.44.364 2.153 1.587 7.942 9.78 11.908 17.016 8.242 4.643-2.352 6.323-7.426 4.114-12.501-1.319-3.031-3.641-5.222-6.168-7.232-3.36-2.671-6.863-5.173-9.824-8.316-4.122-4.376-6.683-9.364-5.761-15.568.936-6.298 5.529-10.749 12.594-12.198 5.153-1.057 10.277-.585 15.357.672 1.107.274 1.568.742 1.494 1.939-.188 3.047-.246 6.102-.376 9.153-.027.63.094 1.52-.732 1.614-.963.109-.779-.849-.883-1.437-1.282-7.217-8.333-10.973-15.078-8.02-4.559 1.995-6.16 7.184-3.557 11.529 1.452 2.424 3.59 4.185 5.776 5.877 4.144 3.207 8.403 6.276 11.792 10.341 5.997 7.194 6.152 17.012.314 23.321-2.878 3.11-6.541 4.803-10.691 5.397-5.099.73-10.142.557-15.1-1.066-2.023-.662-3.011-1.787-2.768-3.989.142-1.291.026-2.611.026-3.918l.105-.002zm373.594 8.464c-7.395-.662-12.697-.343-18-.142-.436.017-.874.013-1.31-.002-.641-.022-1.546.036-1.548-.76-.001-.878.945-.655 1.558-.716 3.697-.366 4.348-.994 4.666-4.88.392-4.788.43-9.588.398-14.39-.069-10.479-.05-20.959-.192-31.437-.06-4.408-1.031-5.225-5.472-5.52-.664-.044-1.72.228-1.652-.843.052-.819 1.03-.632 1.632-.613 7.054.217 14.106.252 21.16-.002.601-.022 1.573-.232 1.613.625.05 1.066-1.002.793-1.664.832-4.737.281-5.354.633-5.464 5.348-.218 9.31-.175 18.628-.183 27.942-.004 4.799-.181 9.602.306 14.395.396 3.905 1.418 5.14 5.331 5.583 3.401.385 6.84.385 10.245.039 3.548-.36 5.405-2.293 6.326-6.196.157-.667.032-1.724 1.065-1.531.726.136.559 1.063.5 1.706-.248 2.677-.524 5.346-1.012 7.999-.346 1.878-1.375 2.573-3.152 2.568-5.747-.014-11.493-.005-15.151-.005zm-314.993-.139c-3.345 0-6.69.006-10.034-.006-.576-.002-1.163-.028-1.723-.146-.319-.068-.758-.27-.644-.716.054-.209.379-.417.622-.493.339-.106.716-.087 1.077-.122 3.727-.36 4.443-.914 4.605-4.652.557-12.802.587-25.612.296-38.423-.066-2.911-.035-5.825-.173-8.732-.151-3.193-1.27-4.23-4.464-4.404-.363-.02-.731.007-1.091-.035-.434-.051-.954-.14-1.002-.653-.071-.751.613-.752 1.074-.752 2.035.002 4.071.115 6.106.104 4.511-.023 9.021-.101 13.532-.144a9.58 9.58 0 0 1 1.736.119c.229.04.54.282.599.492.124.44-.261.62-.613.738-.204.069-.425.089-.64.121-4.562.684-5.192 1.247-5.202 5.717-.033 14.638.023 29.275.053 43.913.001.58.05 1.163.118 1.739.462 3.887.993 4.399 4.855 4.716.651.053 1.304.088 1.956.14.619.049 1.556-.097 1.485.773-.059.724-.96.706-1.622.706-3.634-.002-7.27-.001-10.906 0zm-257.281-.001c-3.561 0-7.122.005-10.683-.004-.705-.002-1.707.117-1.697-.829.009-.834.992-.589 1.605-.649 3.801-.368 4.395-.92 4.603-4.867.798-15.133.316-30.277.313-45.417 0-1.151-.185-2.332-.48-3.447-.489-1.847-1.99-2.358-3.703-2.455-.581-.033-1.172.005-1.742-.087-.418-.067-.893-.269-.829-.818.05-.431.505-.519.84-.535 1.162-.057 2.332-.133 3.49-.057 5.309.351 10.616.2 15.923-.01a14.53 14.53 0 0 1 1.746.03c.415.034.964.021 1.037.571.096.721-.521.775-1.015.841-.503.068-1.018.04-1.525.088-2.441.231-3.323 1.084-3.68 3.496-.45 3.039-.306 6.104-.315 9.153-.034 11.432.011 22.865.065 34.297.009 1.815.156 3.635.344 5.441.247 2.378 1.236 3.316 3.628 3.558 1.157.117 2.324.135 3.482.252.461.047 1.201-.017 1.109.705-.09.702-.813.741-1.39.732a920.02 920.02 0 0 1-8.947-.177c-.726-.017-1.45-.096-2.175-.147l-.004.335zm439.785-15.25c-4.886.69-9.625.414-14.531.161 1.268-.816 1.431-1.636.899-2.909-1.316-3.146-2.471-6.361-3.623-9.572-.374-1.043-.927-1.461-2.067-1.437-3.348.07-6.699.055-10.049.007-1.023-.015-1.574.3-1.923 1.313-.945 2.745-2.082 5.425-3 8.179-.988 2.962-.562 3.513 2.579 3.839.293.03.576.051.73.677h-14.181c.113-.321.135-.437.157-.437 4.552-.072 6.09-3.249 7.504-6.887 4.182-10.757 8.541-21.445 12.858-32.149.416-1.031.493-2.679 1.76-2.742 1.364-.067 1.432 1.619 1.843 2.626 4.362 10.694 8.671 21.41 13.01 32.114 1.475 3.636 2.994 7.251 8.034 7.217zm-24.224-31.111c-1.826 4.843-3.44 9.141-5.069 13.434-.336.887-.006 1.164.87 1.158 3.093-.021 6.187-.008 9.53-.008l-5.331-14.584zm47.62 31.427h-17.835c.116-.34.138-.561.203-.575 3.917-.826 4.001-.82 4.235-5.037.577-10.399.161-20.811.3-31.216.015-1.129-.48-1.316-1.447-1.277-2.907.119-5.817.154-8.725.258-2 .072-3.474.951-4.167 2.917-.163.462-.218 1.122-.918.936-.543-.144-.397-.753-.329-1.131.357-2.002.784-3.991 1.166-5.989.116-.607.399-.923 1.039-.762 5.663 1.424 11.434.775 17.158.81 5.523.034 11.068.421 16.571-.416.708-.108 1.148-.04 1.135.796-.035 2.11-.047 4.221-.11 6.331-.012.386-.055.943-.637.92-.447-.018-.498-.458-.517-.827-.151-2.84-2.338-3.326-4.442-3.551-2.595-.277-5.23-.162-7.842-.304-1.002-.054-1.251.331-1.247 1.239.035 8.518.027 17.036.074 25.554.012 2.252.141 4.505.266 6.754.161 2.907.765 3.484 3.675 3.765.675.067 1.444-.201 2.394.805zM517.34 119.89c.359-5.986.607-11.563.336-17.14-.14-2.873-.628-3.2-3.561-3.557-.485-.059-1.122.091-1.048-.706.056-.601.588-.54 1.008-.541 3.344-.007 6.687-.006 10.031-.002.434.001.942-.023 1.037.54.104.614-.382.623-.827.709-3.638.699-4.07 1.128-4.202 4.957-.247 7.197-.394 14.397-.608 21.595-.021.689.403 1.704-.326 2.001-.868.354-1.309-.719-1.808-1.26-6.258-6.795-12.479-13.623-18.716-20.438-.429-.468-.761-1.062-1.459-1.257-.613.522-.32 1.223-.321 1.825-.001 5.533.115 11.067.022 16.597-.035 2.102.499 3.21 2.79 3.02.539-.045 1.549-.303 1.504.697-.04.878-.923.442-1.422.448-3.058.038-6.116.024-9.174.03-.424.001-.974.124-1.014-.481-.038-.57.494-.581.929-.672 3.608-.755 3.633-.759 3.73-4.359.162-5.96.307-11.92.415-17.88.048-2.627-1.581-4.444-4.207-4.825-.474-.069-1.135.126-1.054-.682.076-.753.733-.559 1.2-.564 1.96-.019 3.922.049 5.878-.031 1.065-.043 1.544.636 2.117 1.288 6.05 6.888 12.043 13.824 18.75 20.688zm-260.897-10.103c0-2.403.026-4.806-.007-7.208-.039-2.845-.402-3.185-3.274-3.399-.519-.039-1.382.309-1.428-.522-.058-1.044.919-.721 1.474-.697 3.637.158 7.27.139 10.906-.005.513-.02 1.363-.268 1.356.611-.007.866-.841.576-1.37.617-3.025.233-3.302.545-3.353 3.552-.08 4.728-.328 9.458.03 14.182.472 6.236 5.009 9.673 11.167 8.458 2.38-.47 4.044-1.901 5.022-4.11.926-2.093 1.302-4.313 1.323-6.583.036-3.787.032-7.574.003-11.361-.026-3.368-.545-3.884-3.864-4.144-.491-.038-1.339.312-1.244-.686.069-.719.753-.542 1.224-.544 3.272-.014 6.545-.005 9.817-.01.516-.001 1.155-.06 1.199.602.049.732-.617.61-1.118.655-3.593.321-3.839.523-3.994 4.21-.192 4.58.333 9.189-.278 13.747-.642 4.795-2.914 8.612-7.771 10.121-4.732 1.47-9.241.91-12.974-2.702-2.055-1.988-2.714-4.588-2.767-7.354-.047-2.475-.01-4.952-.01-7.429l-.069-.001zm338.017 17.611c-1.893.001-3.785.002-5.678 0-.469-.001-1.116.253-1.131-.556-.011-.594.518-.638.951-.626 3.467.093 3.535-.094 3.798-4.402.254-4.156-.659-7.829-2.853-11.357-1.798-2.891-3.26-5.994-4.808-9.036-.716-1.406-1.584-2.42-3.335-2.244-.395.04-.945.129-1.015-.497-.088-.79.524-.731 1.022-.732 3.415-.007 6.83-.005 10.245 0 .443.001.935.031.937.631.002.617-.51.544-.938.618-2.504.432-2.729.771-1.606 3.051 1.541 3.126 3.225 6.181 4.797 9.292.593 1.173 1.175 1.203 1.772.098 1.827-3.384 3.672-6.76 5.382-10.204.708-1.425.272-2.412-1.582-2.255-.565.048-1.39.095-1.352-.674.039-.782.887-.551 1.427-.555 2.541-.019 5.083-.025 7.624.006.509.006 1.336-.29 1.347.614.009.7-.701.636-1.184.609-2.218-.124-3.439 1.116-4.391 2.943-1.544 2.96-2.931 6.058-4.879 8.739-3.032 4.173-2.516 8.777-2.406 13.402.031 1.311.928 1.71 2.013 1.86.573.079 1.161.054 1.74.1.419.033.931-.014.93.626-.001.677-.521.548-.932.549-1.964.002-3.929 0-5.895 0zM171.98 97.454c.252 2.405.478 4.562.702 6.719.046.44.099.926-.494 1.013-.463.068-.577-.37-.712-.692-.536-1.275-1.088-2.542-1.975-3.621-1.592-1.938-3.684-2.593-6.059-2.027-2.161.515-3.549 1.989-3.928 4.2-.419 2.444.695 4.26 2.744 5.471 2.309 1.365 4.729 2.545 7.028 3.927 3.714 2.232 5.016 4.964 4.305 8.687-.733 3.837-3.001 5.838-7.336 6.615-2.995.537-5.941-.013-8.904-.231-.436-.032-1.069-.091-1.123-.514-.274-2.149-.443-4.312-.616-6.472-.008-.098.289-.293.462-.318.41-.059.627.152.758.573.368 1.182.853 2.317 1.614 3.313 1.903 2.488 4.5 3.15 7.394 2.525 2.179-.471 3.455-2.044 3.87-4.246.451-2.393-.352-4.362-2.345-5.68-2.053-1.358-4.236-2.522-6.375-3.747-4.419-2.53-5.805-5.467-4.538-9.67 1.123-3.725 4.801-6.036 9.247-5.756 1.085.068 2.184.203 3.234.472 1.072.274 2.064.433 3.047-.541zm475.913-1.147c0 6.627-.007 13.098.013 19.569.002.537-.305 1.262.328 1.58.607.305 1.121-.261 1.52-.616 1.519-1.354 3.046-2.713 4.428-4.202.895-.964 1.178-2.015-.772-2.087-.412-.015-.973.075-.897-.587.048-.42.494-.517.859-.489 2.325.179 4.647.2 6.971-.006.362-.032.769.005.827.481.058.48-.288.533-.68.612-3.767.764-5.713 4.034-8.468 6.193-.706.553-.224 1.02.152 1.45 2.06 2.355 4.13 4.7 6.2 7.046.851.965 1.989 1.119 3.183 1.109.419-.004.783.227.752.608-.028.352-.389.505-.819.501a530.269 530.269 0 0 0-8.076-.015c-.419.002-.724-.118-.777-.529-.044-.34.256-.527.548-.562 1.629-.195 1.07-.915.417-1.667a9459.968 9459.968 0 0 0-4.153-4.774c-.287-.33-.577-.728-1.069-.61-.716.172-.457.81-.475 1.268-.038.945.029 1.895-.021 2.838-.087 1.636.181 2.937 2.246 2.915.411-.004.969.058.84.681-.079.385-.488.424-.89.42-2.62-.023-5.241-.031-7.861.006-.434.006-.759-.077-.821-.464-.067-.424.28-.678.679-.66 2.547.12 2.454-1.598 2.452-3.369-.007-6.77.064-13.54.038-20.309-.006-1.547.205-3.386-2.193-3.56-.185-.013-.49-.387-.485-.587.008-.394.355-.531.745-.639 1.742-.481 3.468-1.013 5.259-1.545zm-85.107 26.283c1.618-3.673 3.019-6.885 4.031-10.261.377-1.258-.522-1.47-1.376-1.721-.357-.105-.773-.206-.688-.663.076-.409.473-.46.858-.456 1.742.019 3.484.041 5.226.019.4-.005.806.02.883.406.078.394-.236.659-.676.637-1.975-.103-2.537 1.362-3.119 2.804-1.765 4.375-3.518 8.754-5.304 13.12-.23.561-.291 1.467-1.134 1.38-.637-.066-.667-.855-.843-1.39-1.033-3.138-2.06-6.278-3.26-9.936-1.664 3.546-3.099 6.617-4.548 9.682-.297.628-.398 1.657-1.209 1.601-.766-.053-.838-1.068-1.094-1.728-1.705-4.395-3.423-8.785-5.087-13.195-.466-1.235-1.017-2.26-2.515-2.332-.358-.017-.794-.019-.761-.535.028-.436.397-.595.779-.563 2.467.206 4.931.225 7.397-.005.389-.036.803.083.857.479.086.636-.461.597-.887.641-1.547.162-1.693.966-1.173 2.273 1.256 3.158 2.429 6.35 3.789 9.934 1.269-2.624 2.429-4.847 3.426-7.139.776-1.785-.392-4.333-2.193-5.078-.272-.113-.588-.133-.6-.493-.017-.489.378-.608.73-.58 2.178.178 4.352.138 6.53.012.223-.013.608.219.665.413.13.438-.195.639-.615.637-1.91-.008-1.658 1.079-1.237 2.339 1.017 3.056 1.993 6.13 3.148 9.698zm-272.879-14.263c.626 1.024-.042 2.079.351 3.08 1.536-.742 2.84-1.817 4.464-2.302 3.946-1.177 6.939.676 7.23 4.747.227 3.185.192 6.392.168 9.589-.012 1.6.029 2.978 2.168 2.901.367-.013.808.068.798.529-.012.561-.464.601-.936.595-2.472-.03-4.945-.038-7.417-.055-.35-.002-.823.081-.865-.393-.051-.591.477-.68.905-.656 1.717.094 2.071-.879 2.002-2.343-.147-3.12.213-6.252-.226-9.369-.246-1.751-1.057-2.963-2.864-3.41-2.031-.502-3.709.175-5.23 1.447-.529.443-.337 1.078-.34 1.637-.016 3.128.006 6.257-.013 9.385-.009 1.534.209 2.818 2.218 2.653.368-.03.797.042.818.503.029.657-.505.548-.922.548-2.619.001-5.238-.01-7.856.011-.444.003-.931.118-.937-.508-.005-.429.372-.594.774-.556 2.389.224 2.494-1.329 2.49-3.082-.006-2.907.081-5.815.118-8.723.02-1.535-.106-2.986-2.119-3.176-.394-.037-.717-.199-.647-.67.065-.437.436-.525.801-.598 1.767-.354 3.441-.996 5.067-1.784zm134.111 15.57c1.817-3.49 3.326-6.784 4.636-10.164.918-2.369.749-2.624-1.776-3.166-.422-.091-.959-.006-.847-.648.072-.414.512-.485.881-.45 2.179.207 4.356.183 6.535.018.364-.028.809-.038.878.405.096.615-.413.651-.858.691-1.449.13-2.051 1.156-2.586 2.336-3.327 7.336-6.684 14.659-10.026 21.988-.487 1.068-1.074 2.082-1.912 2.896-.936.91-2.067 1.097-3.157.302-.891-.649-1.312-1.572-.827-2.678.547-1.247 1.625-1.871 2.826-1.345 1.538.674 2.018-.114 2.632-1.224 1.307-2.362 1.666-4.712.609-7.299a109.167 109.167 0 0 1-4.282-12.569c-.42-1.541-1.21-2.414-2.848-2.429-.405-.004-.964.087-.92-.582.03-.462.463-.532.822-.507 2.616.187 5.231.191 7.847.001.358-.026.785.063.822.512.04.48-.378.553-.746.577-1.718.109-1.724 1.164-1.422 2.463.855 3.669 2.255 7.137 3.719 10.872zm20.301-5.556c.005-5.629 4.002-9.581 9.654-9.543 5.524.037 9.446 3.992 9.461 9.54.016 5.758-3.803 9.609-9.548 9.63-5.655.02-9.571-3.921-9.567-9.627zm3.893.161c.056 1.751.115 3.561.923 5.246.926 1.931 2.351 3.029 4.579 3.056 2.294.028 3.953-.927 4.788-3.038 1.449-3.662 1.417-7.368-.171-10.978-.824-1.874-2.363-2.87-4.477-2.877-2.214-.007-3.679 1.116-4.615 3.03-.847 1.734-1.006 3.609-1.027 5.561zm24.536.064c0 1.673.089 3.352-.024 5.017-.128 1.884.406 2.978 2.515 2.785.466-.043 1.163-.111 1.031.683-.093.563-.65.391-1.079.387a669.877 669.877 0 0 0-7.634-.024c-.437.001-.973.134-1.109-.391-.161-.627.413-.678.826-.661 1.868.079 2.081-1.056 2.056-2.553-.056-3.345-.099-6.693.016-10.035.059-1.737-.364-2.636-2.274-2.369-.408.057-1.151.31-1.19-.48-.024-.495.567-.669.968-.698 2.195-.159 2.338-1.697 2.462-3.39.438-5.951 2.826-9.14 7.53-10.091a9.616 9.616 0 0 1 2.601-.158c1.32.101 2.296.74 1.966 2.242-.32 1.458-1.444 1.726-2.717 1.319-.603-.192-1.152-.585-1.694-.935-1.901-1.226-3.049-.871-3.773 1.312-.915 2.762-.329 5.631-.467 8.45-.036.741.483.768 1.023.765 1.018-.005 2.036.01 3.055-.002.674-.008 1.362-.088 1.301.936-.055.925-.695.997-1.385.971-.725-.026-1.468-.007-2.169-.161-1.647-.364-1.96.385-1.862 1.846.116 1.738.027 3.489.027 5.235z"/><path class="st0" d="M614.155 108.798c5.568.062 9.582 4.226 9.462 9.815-.12 5.578-4.045 9.379-9.663 9.355-5.622-.023-9.61-4.057-9.574-9.686.034-5.565 4.138-9.547 9.775-9.484zm-5.831 9.739c-.073 1.916.222 3.778 1.068 5.495.866 1.757 2.284 2.716 4.325 2.775 2.095.06 3.772-.671 4.664-2.554 1.883-3.973 1.903-8.074-.196-11.918-1.919-3.514-6.737-3.244-8.643.313-.985 1.836-1.278 3.83-1.218 5.889zm-399.604 6.819c-.835 1.455-2.202 2.171-3.745 2.572-.373.097-1.103-.017-1.212-.248-1.337-2.852-2.805-.824-4.275-.195-2.183.935-4.501.515-5.602-.936-1.3-1.714-.973-3.844.907-5.386 1.821-1.494 3.962-2.472 6.174-3.148 2.133-.652 1.323-2.241 1.471-3.544.211-1.85-.709-3.055-2.33-3.772-1.443-.638-2.5.197-3.542 1.024-.702.557-.274 1.145-.1 1.768.252.898.21 1.826-.803 2.21-.807.306-1.761.47-2.409-.358-.695-.886-.496-1.814.266-2.546 1.796-1.723 3.811-3.214 6.169-3.99 2.873-.946 6.023 1.404 6.112 4.462.093 3.197.023 6.399.023 9.599.001 3.221.001 3.221 2.896 2.488zm-6.264-3.439v-2.241c0-.59-.175-1.092-.875-.786-1.514.664-3.206 1.153-4.222 2.534-.928 1.262-.91 2.809.006 4.069.943 1.298 2.207.571 3.346.123 1.902-.748 1.896-2.337 1.745-3.699zm332.146-5.314c-1.383 0-2.777.107-4.148-.026-1.917-.186-2.183.777-1.951 2.337.429 2.885 1.782 5.077 4.617 6.069 2.78.973 5.152.315 6.951-2.094.268-.359.547-.783 1.031-.424.498.37.053.816-.11 1.152-1.278 2.638-3.393 4.204-6.323 4.317-3.369.129-6.356-.794-8.17-3.969-2.096-3.669-1.57-9.33 1.179-12.524 2.216-2.575 5.067-3.327 8.279-2.533 2.748.679 4.219 2.639 4.834 5.354.364 1.606.154 2.541-1.822 2.366-1.445-.127-2.911-.025-4.367-.025zm-1.914-1.617c.795 0 1.591.026 2.384-.005 1.912-.075 2.43-.769 1.935-2.621-.392-1.468-1.381-2.365-2.867-2.605-1.854-.299-3.231.507-4.171 2.074-.518.865-1.221 1.893-.753 2.806.408.796 1.569.239 2.389.346.356.045.722.007 1.083.005zm-178.986 7.406c-.145 2.957-3.029 5.474-6.556 5.557-3.217.076-6.167-.776-7.85-3.75-2.083-3.681-1.964-7.543-.014-11.261 1.724-3.286 4.912-4.748 8.588-4.165 3.168.503 5.299 2.839 5.635 6.04.135 1.289-.171 1.858-1.601 1.816-3.054-.088-6.113.029-9.167-.053-1.25-.034-1.599.372-1.587 1.597.03 2.982 1.721 5.741 4.308 6.741 2.747 1.062 4.96.456 7.187-1.969.286-.31.507-.746 1.057-.553zm-8.384-7.407c.797 0 1.595-.036 2.39.007 1.816.099 2.277-.795 1.938-2.436-.337-1.627-1.339-2.574-2.907-2.807-1.827-.272-3.262.495-4.168 2.107-.491.873-1.235 1.91-.754 2.814.409.768 1.587.2 2.416.31.355.047.723.008 1.085.005zm-111.543 1.618c-1.454 0-2.913.077-4.361-.022-1.344-.092-1.922.218-1.852 1.745.13 2.841 1.768 5.544 4.264 6.567 2.668 1.093 4.86.52 7.207-1.886.292-.299.545-.875 1.019-.6.609.353.19.894-.033 1.317-1.401 2.658-3.571 4.217-6.611 4.222-3.379.006-6.406-.963-7.964-4.273-1.71-3.634-1.608-7.35.366-10.873 1.899-3.389 5.34-4.827 9.089-3.933 1.934.461 3.393 1.582 4.278 3.406 1.618 3.337 1.034 4.332-2.565 4.332-.947-.002-1.892-.002-2.837-.002zm-1.965-1.617c.727 0 1.455.018 2.181-.003 2.17-.064 2.664-.822 1.977-2.879-.468-1.402-1.468-2.144-2.847-2.359-1.572-.245-2.869.37-3.806 1.626-.701.939-1.48 2.155-1.104 3.174.384 1.043 1.795.227 2.729.432.277.062.579.011.87.009zm95.718 8.028c1.45-3.359 2.741-6.359 4.041-9.354.763-1.759.587-2.988-1.684-3.09-.419-.019-.992.032-.87-.623.102-.545.637-.464 1.071-.461 1.889.013 3.778.025 5.667.024.423 0 .986-.176 1.096.371.121.599-.448.629-.881.67-1.543.144-2.169 1.242-2.717 2.499-1.83 4.192-3.687 8.372-5.566 12.542-.378.838-.576 1.826-1.585 2.366-1.182-1.334-1.67-3.035-2.31-4.624-1.356-3.366-2.601-6.777-3.85-10.185-.489-1.334-.875-2.687-2.729-2.549-.374.028-.77-.174-.711-.625.053-.41.463-.536.828-.508 2.617.2 5.231.204 7.848-.003.374-.029.759.047.791.52.033.485-.318.571-.717.574-2.129.016-2.105 1.135-1.537 2.753 1.103 3.15 2.236 6.285 3.815 9.703zm52.519-14.215c.145.008.508.025.871.049 2.758.186 4.079 1.864 3.547 4.524-.037.186-.134.451-.273.507-.383.154-.707-.031-.911-.376-.478-.809-.819-1.689-1.504-2.384-1.215-1.234-2.663-1.468-4.217-.987-1.231.381-1.864 1.36-1.901 2.645-.049 1.73 1.062 2.59 2.498 3.184 1.207.5 2.423.984 3.607 1.535 2.45 1.139 3.324 2.616 3.122 5.165-.198 2.503-1.591 4.173-3.947 4.932-2.398.773-4.767.085-7.144-.027-.679-.032-1.937-4.253-1.381-4.618.98-.643 1.23.387 1.536.935.94 1.684 2.095 2.925 4.224 2.924 1.862-.001 3.076-.847 3.593-2.574.527-1.758-.321-2.961-1.869-3.708-1.108-.535-2.262-.975-3.392-1.466-3.153-1.37-4.26-3.092-3.744-5.815.473-2.501 2.823-4.317 5.757-4.441.435-.02.873-.004 1.528-.004zm18.354 2.304c1.839-1.86 3.686-3.293 5.106-5.142.193-.251.627-.492.91-.453.368.05.427.511.44.882.037 1.065-.707 2.566.15 3.081.926.557 2.411.103 3.615.307.986.167 2.826-.849 2.791.878-.035 1.725-1.845.845-2.862.819-3.843-.098-3.85-.145-3.839 3.785.007 2.329-.099 4.67.1 6.984.305 3.551 1.955 4.497 5.352 3.314.43-.15.938-.734 1.316-.08.35.607-.302.93-.692 1.164-2.083 1.251-4.313 1.766-6.683.961-1.611-.547-2.399-1.788-2.594-3.45-.374-3.195-.12-6.401-.17-9.602-.047-2.896-.011-2.897-2.94-3.448zm-221.556.078c1.807-1.899 3.591-3.479 5.08-5.342.196-.246.585-.601.907-.262.209.22.231.658.256 1.004.232 3.16.227 3.161 3.342 3.161.727 0 1.455.018 2.182-.005.652-.021 1.199.086 1.162.896-.033.717-.522 1.027-1.176 1.007a87.673 87.673 0 0 1-4.349-.223c-.927-.075-1.272.221-1.252 1.199.065 3.126-.052 6.258.077 9.381.151 3.643 1.904 4.753 5.349 3.588.437-.148.96-.726 1.331-.104.344.576-.301.917-.694 1.156-2.077 1.263-4.308 1.776-6.666.961-2.014-.696-2.633-2.384-2.664-4.321-.046-2.909-.088-5.821.012-8.727.068-1.963.129-3.719-2.897-3.369zm448.687 15.796c.073-.111.153-.337.23-.336 3.538.045 3.17-2.408 3.11-4.747-.066-2.546-.055-5.096.001-7.643.032-1.466-.231-2.628-1.944-2.844-.407-.051-.723-.222-.72-.646.003-.421.323-.589.723-.657 1.794-.308 3.453-1.033 5.278-1.888v3.758c1.174-.89 2.1-1.661 3.096-2.327 1.055-.706 2.241-1.081 3.523-.769.914.223 1.546.816 1.728 1.767.162.849-.081 1.599-.791 2.131-.8.599-1.609.477-2.445.015-3.19-1.761-5.021-.676-5.027 2.966-.005 2.766.05 5.534-.02 8.299-.039 1.544.51 2.329 2.118 2.311.513-.006 1.432-.292 1.411.526-.029 1.075-.999.479-1.543.488-2.474.043-4.95.015-7.425.024-.49.002-1.033.231-1.303-.428zM362.57 108.284v3.651c1.018-.794 1.842-1.52 2.749-2.124 1.173-.781 2.475-1.351 3.908-.898 1.386.438 2.038 1.506 1.527 2.895-.525 1.425-1.653 1.727-3.015 1.038-3.527-1.783-5.139-.774-5.141 3.221-.001 2.547.077 5.098-.027 7.641-.074 1.807.467 2.805 2.433 2.655.48-.037 1.203-.108 1.141.613-.06.706-.743.444-1.233.442a572.273 572.273 0 0 0-8.077.016c-.383.004-.819.055-.892-.357-.098-.554.389-.742.829-.701 2.206.205 2.471-1.068 2.416-2.859-.096-3.127-.059-6.259-.012-9.388.021-1.388-.262-2.469-1.842-2.711-.467-.071-.877-.178-.799-.769.061-.46.455-.497.816-.558 1.792-.305 3.413-1.136 5.219-1.807zm-149.768 9.776c0-1.381-.016-2.762.004-4.143.02-1.38.313-2.847-1.977-2.533-1.043.143-.817-.616-.288-1.043 1.646-1.33 3.078-2.866 4.486-4.432.224-.249.496-.59.917-.392.423.199.229.627.292.959.198 1.044-.646 2.5.288 3.056.868.517 2.278.029 3.394.254.982.198 2.807-.961 2.827.778.024 2.069-1.91.897-2.905.89-3.675-.024-3.682-.104-3.671 3.526.007 2.398-.018 4.798.079 7.193.136 3.339 1.967 4.569 5.071 3.526.482-.162 1.085-.885 1.458-.24.432.748-.435 1.129-.961 1.408-2.211 1.177-4.552 1.669-6.87.448-2.127-1.121-2.181-3.243-2.148-5.33.021-1.308.004-2.617.004-3.925zm180.9-9.865c0 5.438.025 10.529-.016 15.62-.012 1.473.123 2.675 2.034 2.543.418-.029.766.166.739.589-.027.414-.374.488-.796.485-2.693-.02-5.386-.003-8.078.011-.314.002-.622-.044-.693-.369-.098-.451.245-.72.612-.683 2.846.289 2.746-1.681 2.755-3.556.014-2.912-.021-5.824.02-8.736.019-1.396-.328-2.451-1.889-2.695-.368-.058-.771-.12-.808-.565-.048-.581.418-.669.86-.748 1.781-.315 3.425-1.054 5.26-1.896zm-80.498.048c0 5.047-.01 9.895.006 14.743.005 1.629-.409 3.584 2.309 3.401.368-.025.53.325.501.585-.029.258-.251.471-.618.469a916.548 916.548 0 0 0-8.291.006c-.333.002-.612-.107-.667-.412-.082-.459.279-.686.652-.653 2.873.255 2.669-1.733 2.676-3.6.01-2.837.033-5.674.07-8.51.018-1.423-.216-2.65-1.948-2.861-.392-.048-.747-.157-.761-.599-.014-.419.293-.621.69-.689 1.851-.314 3.56-1.076 5.381-1.88zm80.942-8.009c-.13 1.286-.757 2.189-2.144 2.211-1.248.02-2.052-.695-2.148-1.96-.104-1.375.672-2.249 1.987-2.351 1.348-.105 2.094.749 2.305 2.1zM311.46 98.09c1.257.148 2.142.785 2.16 2.174.016 1.247-.675 2.088-1.936 2.176-1.355.095-2.223-.656-2.314-2.014-.091-1.369.72-2.112 2.09-2.336z"/><path class="st1" d="M55.853 89.982c-1.006.396-1.602-.45-2.303-.836-3.312-1.825-6.585-3.717-10.034-5.286-1.412-.642-1.938-.485-1.775 1.231.868 9.125 1.67 18.257 2.481 27.387.386 4.348.664 8.707 1.149 13.043.196 1.752-.412 2.236-2.001 2.023a5.958 5.958 0 0 0-1.527 0c-1.328.17-1.689-.397-1.804-1.703a9624.03 9624.03 0 0 0-4.4-48.249c-.112-1.205.147-2.89-1.911-2.754-1.688.112-2.817 1.76-2.634 3.633.92 9.412 1.845 18.823 2.736 28.237.105 1.114.014 2.247.014 3.769l-7.69-28.693-.468.047c-.89 4.164-1.711 8.345-2.685 12.49-2.082 8.863-4.41 17.65-9.22 25.527a22.812 22.812 0 0 1-4.804 5.609c-2.574 2.168-5.611 2.135-8.676 2.141v-4.808c3.348-.297 5.554-2.367 7.356-4.919 4.877-6.91 7.955-14.677 10.544-22.656 1.66-5.115 3.243-10.254 4.81-15.398 1.052-3.455 2.796-6.196 6.549-7.208 1.434-.387 2.542-1.395 3.585-2.423 1.541-1.519 2.905-3.155 5.047-4.039 1.761-.726 1.847-2.768.475-4.302-.746-.834-1.16-1.615-.327-2.682.787-1.008.519-2.068-.232-3-.719-.892-.841-1.688-.193-2.76.85-1.407.299-2.795-1.22-3.074-3.071-.564-3.461-2.535-3.695-5.169a675.081 675.081 0 0 0-2.665-24.737c-.261-2.071.594-3.573 1.557-5.045 1.421-2.172 1.694-4.166.163-6.379-.697-1.007-1.048-2.249-1.712-3.284-.806-1.256-.595-1.795.891-2.137C53.429-1.523 75.259-.996 96.545 7.796c5.955 2.46 11.402 5.794 16.391 9.886.987.81 1.416 1.639 1.415 2.945-.035 34.964-.025 69.928-.045 104.892 0 .82.494 2.005-1.153 2.033-1.279.022-2.035-.099-2.443-1.677-3.34-12.911-9.4-24.531-17.161-35.303-1.862-2.584-4.106-4.734-7.391-5.411-.264-.054-.549-.007-.896-.007 7.971 12.848 9.767 29.856 4.188 42.057-.036-3.959.01-7.379-.251-10.789-.428-5.588-.812-11.173-2.167-16.638-1.757-7.088-5.828-12.399-12.132-16.082-3.613-2.111-3.571-2.187-2.428-6.221.178-.629.418-1.243.573-1.877.302-1.242 1.018-1.609 2.253-1.293 1.545.395 3.084.909 4.71.823 1.948-.103 3.374-.8 3.508-3.056.045-.754.088-1.539.97-2.036 1.941-1.094 2.772-2.868 2.718-5.084.132-.034.272-.115.396-.095 4.272.676 4.731.215 3.672-3.905-.534-2.079-.427-4.183-.523-6.288-.062-1.355.565-1.615 1.693-1.538 1.742.119 3.418.583 5.361 1.099-.308-1.187-1.027-1.768-1.726-2.282-4.783-3.517-10.088-4.667-15.907-3.419-.83.178-1.26.544-1.188 1.478.09 1.159.076 2.329.063 3.493-.046 4.272-1.775 6.498-5.959 7.687-2.814.8-5.734.955-8.605 1.411-4.558.724-8.79 2.396-13.086 5.009.801-2.87 2.229-4.739 4.316-6.179 2.971-2.05 6.429-2.614 9.85-3.303 2.359-.476 4.665-1.119 6.843-2.166 1.186-.57 2.314-1.226 3.261-2.158 1.213-1.194 2.822-2.772 2.165-4.202-.564-1.228-2.614-.006-3.943.256-7.436 1.468-14.733 3.405-21.51 6.945-3.929 2.053-7.3 4.771-10.068 8.232-.643.804-1.17 1.617-.937 2.772.3 1.484-.811 2.396-1.602 3.424-1.506 1.958-1.326 2.249.637 3.55a55.55 55.55 0 0 1 15.398 15.227l.048-.024zm9.836-77.468c-.856.168-1.708.298-2.542.504C55.114 15 49.46 19.546 47.37 27.835c-1.642 6.512-1.759 13.09-.554 19.685.507 2.774 2.997 4.119 5.627 3.024 7.629-3.173 15.509-5.365 23.737-6.236 7.45-.789 14.571-.292 20.344 5.338.044.043.216-.045.559-.127-3.949-8.777-7.194-17.811-12.332-25.957-1.835-2.91-4.086-5.467-6.875-7.534-1.991-1.476-4.474-2.19-5.622-4.932-.667-1.591-1.973-2.7-.99-4.66.509-1.016.631-2.351-.459-3.214-.998-.79-2.178-.684-3.316-.193-1.006.434-2.076.852-2.623 1.854-.537.984-1.348 1.343-2.34 1.733-1.879.739-3.646 1.752-4.295 4.028 5.722-.753 6.172-.638 7.458 1.87z"/><path class="st1" d="M.302 19.195C7.099 13.53 17.047 7.798 22.169 6.638c.05 2.007-.767 3.843-.969 5.771-.068.647-.397 1.324.223 1.828 4.461 3.627 4.148 8.84 4.556 13.785.509 6.161.745 12.349 1.435 18.487.295 2.623-.782 4.358-2.415 5.902-3.436 3.248-5.382 7.247-6.948 11.655-2.902 8.167-6.278 16.145-12.323 22.642C3.492 89.113 2 92.038.302 94.814V19.195zm57.793 79.951c7.089 4.977 19.101 20.616 21.785 28.447-2.954 0-5.811-.003-8.668.002-.62.001-.832-.344-1.018-.898-3.15-9.383-7.127-18.395-12.13-26.945-.056-.096.01-.264.031-.606zm-4.018 13.141c3.174 2.379 5.542 5.472 7.662 8.763 1.288 1.998 2.439 4.084 3.892 6.534-2.013 0-3.626.007-5.239-.004-.54-.003-.986-.144-1.105-.792-.939-5.105-3.322-9.68-5.293-14.407l.083-.094zm3.77-42.746c-4.237 2.855-7.29 6.069-9.431 10.276-1.625-5.902 2.345-10.422 9.431-10.276zm-2.041 20.468l.184.26-.172-.005.034-.281a2.458 2.458 0 0 0-.046.026zm-1.813 22.372c-.224-.025-.377-.197-.21-.34.204-.174.252.086.294.246l-.084.094zM47.47 40.943c3.799-9.129 17.229-13.46 28.792-9.559-5.248.352-10.229.81-14.949 2.598-4.688 1.776-9.039 4.262-13.843 6.961z"/></svg>