<svg xmlns="http://www.w3.org/2000/svg" viewBox="0 0 183.6 51.4"><g fill="#fff"><path d="M57.1 39.9c.7.6 1.7.9 2.8.9.5 0 1.1-.1 1.4-.2.1-.1.2-.1.2-.2.1-.3.2-1 .2-1.1 0-.1 0-.1-.1-.1s-.1 0-.1.2c0 .1-.1.4-.3.5-.3.4-.8.4-1.5.4-1.1 0-2.5-.9-2.5-2.9 0-.8.2-1.5.7-2.1.4-.3.8-.5 1.5-.5s1.4.2 1.6.5c.2.2.3.5.3.7 0 .1 0 .2.1.2s.1-.1.1-.2v-1.3s0-.1-.1-.1c-.2 0-.5-.1-.8-.1-.4 0-.7-.1-1.2-.1-1.2 0-2 .3-2.5.9-.8.7-.9 1.7-.9 2.2.1.8.3 1.7 1.1 2.4zm6.9.8h2.1c.3 0 .3 0 .4-.2 0-.1.1-.6.1-.8 0-.1 0-.2-.1-.2 0 0-.1 0-.1.1 0 .3-.1.4-.3.5-.2.1-.5.1-.7.1-.7 0-.9-.1-1-.6V38h1.1c.3 0 .4.1.4.3v.2s0 .1.1.1.1-.1.1-.2v-.5c0-.3.1-.5.1-.5s0-.1-.1-.1c0 0-.1 0-.1.1-.1.1-.2.1-.3.1h-1.2v-1.6h1.1c.4 0 .4.1.5.2v.2c0 .1 0 .1.1.1s.1-.1.1-.1v-.4c0-.3.1-.4.1-.4v-.1h-3.3c-.1 0-.2 0-.2.1 0 0 0 .1.1.1h.3c.2.1.3.1.3.4v4.1c0 .2-.1.3-.2.4h-.2c-.1 0-.1 0-.1.1 0 0 0 .1.1.1h.8zm4.9 0h2.2c.4 0 .4 0 .4-.2.1-.2.1-.7.1-.8 0-.1 0-.2-.1-.2s-.1 0-.1.1-.1.3-.2.4c-.2.2-.4.2-.8.2-.5 0-.8 0-.9-.1-.2-.1-.2-.6-.2-1.4v-2.6c0-.2.1-.3.3-.4h.3c.1 0 .1 0 .1-.1 0 0 0-.1-.2-.1h-2c-.1 0-.2 0-.2.1 0 0 0 .1.1.1h.2c.2.1.3.1.3.4v4.1c0 .2-.1.3-.2.4h-.2c-.1 0-.1 0-.1.1 0 0 0 .1.1.1h.5c.4-.1.5-.1.6-.1zm4.8 0h2.1c.3 0 .3 0 .4-.2 0-.1.1-.6.1-.8 0-.1 0-.2-.1-.2 0 0-.1 0-.1.1 0 .3-.1.4-.3.5-.2.1-.5.1-.7.1-.7 0-.9-.1-1-.6V38h1.1c.3 0 .4.1.4.3v.2s0 .1.1.1.1-.1.1-.2v-.5c0-.3.1-.5.1-.5s0-.1-.1-.1c0 0-.1 0-.1.1-.1.1-.2.1-.3.1h-1.2v-1.6h1.1c.4 0 .4.1.5.2v.2c0 .1 0 .1.1.1s.1-.1.1-.1v-.4c0-.3.1-.4.1-.4v-.1h-3.3c-.1 0-.2 0-.2.1 0 0 0 .1.1.1h.3c.2.1.3.1.3.4v4.1c0 .2-.1.3-.2.4h-.2c-.1 0-.1 0-.1.1 0 0 0 .1.1.1h.8zm7.9-1.5c0-.8-.7-1.3-1.3-1.5.4-.3.8-.7.8-1.2 0-.4-.2-1-1.5-1h-2.1c-.1 0-.2 0-.2.1 0 0 0 .1.1.1h.3c.2.1.3.1.3.4v4.1c0 .2-.1.3-.2.4h-.2c-.1 0-.1 0-.1.1 0 0 0 .1.1.1h2.1c1.3-.1 1.9-.9 1.9-1.6zM79.1 36c0-.1 0-.1.1-.1h.3c.6 0 .9.6.9 1 0 .3-.1.6-.3.7-.1.1-.3.1-.6.1h-.3V36zm.7 4.4c-.2 0-.3 0-.5-.1s-.2-.2-.2-.7v-1.5h.3c.3 0 .5.1.6.2.5.4.7.9.7 1.2 0 .7-.5.9-.9.9zm3-4.7h.3c.2.1.3.1.3.4v4.1c0 .2-.1.3-.2.4H83c-.1 0-.1 0-.1.1 0 0 0 .1.1.1h2c.1 0 .1 0 .1-.1 0 0 0-.1-.1-.1h-.3c-.2 0-.2-.2-.3-.4v-1.6s0-.1.1-.1h.7c.1.1.4.6.7.9.4.5.7.9 1 1 .2.1.4.1.8.1h.3c-.1 0-.1 0-.1-.1 0 0 0-.1.1-.1h.2c-.1 0-.4-.1-.7-.4-.4-.4-.9-1-1.5-1.8.7-.6 1-1 1-1.5s-.3-.8-.5-.9c-.4-.2-.9-.3-1.3-.3h-2.1c-.1 0-.2 0-.2.1-.2.1-.2.2-.1.2zm1.5.3c0-.1 0-.1 0 0 .1-.1.3-.1.5-.1.4 0 1.1.2 1.1 1.2 0 .6-.2.9-.5 1-.1.1-.2.1-.5.1-.2 0-.4 0-.5-.1 0 0-.1 0-.1-.1v-2zm3.9 4.7h-.3.3z"/><path d="M88.2 40.5c.1 0 .1.1 0 0 .1.1.1.1 0 .1h1.2c.1 0 .1 0 .1-.1 0 0 0-.1-.1-.1h-.1c-.2 0-.3-.1-.3-.2s0-.2.1-.4l.4-.9h1.9l.5 1.4c0 .1 0 .1-.1.2-.1 0-.1 0-.1.1 0 0 .1 0 .2.1h1.4c.3 0 .3 0 .3-.1 0 0 0-.1-.1-.1h-.3c-.1 0-.3-.1-.6-.7-.4-1-1.6-3.8-1.8-4.2-.1-.2-.1-.2-.2-.2s-.1.1-.2.3L88.6 40c-.1.3-.3.5-.5.6 0-.1 0-.1.1-.1zm1.5-2l.7-1.7v-.1.1l.7 1.7h-1.4c0 .1 0 .1 0 0z"/><path d="M87.8 40.5c-.1 0-.1.1 0 0-.1.1 0 .1 0 .1h.4s.1 0 .1-.1c0 0 0-.1-.1-.1H88c-.1.1-.2.1-.2.1zm5.4-4c.1 0 .1 0 0 0 .1-.1.1-.2.2-.3.1-.2.3-.2.7-.2h1.1v4.3c0 .2-.1.3-.2.4h-.2c-.1 0-.1 0-.1.1 0 0 0 .1.1.1h2c.1 0 .1 0 .1-.1 0 0 0-.1-.1-.1h-.4c-.2 0-.2-.2-.3-.4V36h.9c.6 0 .8.2.8.4v.1c0 .1 0 .1.1.1 0 0 .1 0 .1-.1v-.8c0-.1 0-.1-.1-.1h-4.3c-.2 0-.2-.1-.3-.1 0 0-.1 0-.1.1s-.2.7-.2.8l.2.1zm6-.8h.3c.2 0 .2.1.2.4v4.1c0 .2-.1.3-.2.3h-.2c-.1 0-.1 0-.1.1 0 0 0 .1.1.1h2c.1 0 .1 0 .1-.1 0 0 0-.1-.1-.1h-.4c-.2 0-.3-.1-.3-.3v-4.1c0-.2.1-.3.3-.4h.2c.1 0 .1 0 .1-.1l-.1-.1h-1.8c-.1 0-.2 0-.2.1 0 0 0 .1.1.1zm5.3 4.9s0-.1-.1-.1h-.4c-.1 0-.2-.2-.2-.7l-.1-2.8 1.7 1.7c.7.7 1.6 1.6 2.1 2 .1.1.2.1.3.1.1 0 .1-.1.1-.2l.1-4.3c0-.4.1-.5.3-.6h.2c.1 0 .1 0 .1-.1s-.1-.1-.2-.1h-1.6c-.1 0-.2 0-.2.1 0 0 0 .1.1.1h.4c.2.1.2.2.2.6l.1 3c-.1-.1-1-1.1-1.5-1.5l-2.2-2.2c-.1-.1-.2-.2-.3-.2-.1 0-.1.1-.1.2l-.1 4c0 .6 0 .8-.2.8h-.3c-.1 0-.1 0-.1.1s.1.1.2.1h1.7c0 .1 0 .1 0 0zm8.4.2c.6 0 1.3-.1 1.7-.3.1 0 .1-.1.1-.2v-1.6c0-.2.1-.3.3-.4h.2s.1 0 .1-.1 0-.1-.1-.1h-1.9c-.1 0-.2 0-.2.1 0 0 0 .1.1.1h.3c.2.1.3.1.3.4v1.4c0 .1 0 .2-.1.2-.2.1-.3.1-.5.1-1.5 0-2.5-1.1-2.5-2.5 0-.8.3-1.3.6-1.7.5-.4 1-.4 1.4-.4.8 0 1.3.3 1.5.5.2.2.2.4.2.6 0 .1 0 .1.1.1s.1 0 .1-.2v-1.1s0-.1-.1-.1c-.2 0-.4 0-.6-.1-.1 0-.8-.1-1.3-.1-.6 0-1.2 0-1.9.4-.6.4-1.2 1.1-1.2 2.2.2 2 1.7 2.8 3.4 2.8zm7.9-4.8h.1c.2-.1.8-.4.9-.4.1 0 .1.1.1.3v4.2c0 .3-.1.4-.3.4-.1 0-.6.1-.6.1s-.1 0-.1.1 0 .1.1.1h2.7c.1 0 .1 0 .1-.1s0-.1-.1-.1h-.5c-.3-.1-.3-.2-.3-.4v-5.4c0-.1 0-.2-.1-.2s-.1.1-.2.1c-.3.2-1.8 1.2-1.9 1.2.1 0 0 0 .1.1-.1 0 0 0 0 0zm8.8 3.1s-.1 0-.1.1c-.1.4-.4.6-.9.7h-1.9s-.1 0 0-.1c1-.8 2.8-2.2 2.8-3.7 0-.9-.6-1.7-2-1.7-.7 0-1.1.1-1.5.3-.1.1-.1.1-.1.2v1c0 .1 0 .2.1.2s.1-.1.1-.2c0-.2.1-.6.3-.8.2-.2.5-.3.9-.3s1.1.3 1.1 1.5c0 1.7-1.6 2.9-2.7 3.9-.1.1-.2.1-.2.2s.1.1.1.1h3.1c.5 0 .6 0 .7-.2.1-.3.2-1 .2-1.1v-.1zm2.3-2.8l.1-1h1.5c.6 0 .7.2.7.4 0 .1 0 .1.1.1s.1 0 .1-.1c.1-.5.1-.9.1-1 0-.1 0-.2-.1-.2h-2.6c-.1 0-.1 0-.2.1l-.2 2.1c0 .1 0 .1.1.2.6.1 2 .6 2 1.9 0 1-.7 1.5-1.3 1.5-.6 0-1.1-.2-1.1-1.1 0-.1 0-.1-.1-.1l-.1.1v1c0 .2 0 .2.2.3.2.1.5.1.8.1 1.9 0 2.6-1.2 2.6-2.3 0-1.2-1.4-1.8-2.6-2zm13.3-1.7h-1.7c-.1 0-.1 0-.1.1l.1.1c.1 0 .2.1.2.2s0 .2-.1.4-1.1 2-1.2 2.2c-.1-.2-1.3-2.2-1.4-2.4-.1-.1-.1-.2-.1-.3 0-.1 0-.1.1-.1s.2 0 .2-.1c0 0 0-.1-.1-.1h-1.9c-.1 0-.2 0-.2.1s.1.1.1.1c.1 0 .2 0 .3.1.2.1.4.3.6.6.3.4 1.4 2.2 1.4 2.3.1.2.2.4.2.8v1.5c0 .2-.1.4-.2.4h-.3c-.1 0-.1 0-.1.1s.1.1.2.1h2.2c.1 0 .2 0 .2-.1 0 0 0-.1-.1-.1h-.4c-.2 0-.3-.2-.3-.4v-1.5c0-.3 0-.5.1-.8.1-.3 1.3-2.2 1.5-2.6l.4-.4c.1-.1.3-.1.4-.1.1 0 .2 0 .2-.1h-.2zm1.4 6.1h2.1c.3 0 .3 0 .4-.2 0-.1.1-.6.1-.8 0-.1 0-.2-.1-.2 0 0-.1 0-.1.1 0 .3-.1.4-.3.5-.2.1-.5.1-.7.1-.7 0-.9-.1-1-.6V38h1.1c.3 0 .4.1.4.3v.2s0 .1.1.1.1-.1.1-.2v-.5c0-.3.1-.5.1-.5s0-.1-.1-.1c0 0-.1 0-.1.1-.1.1-.2.1-.3.1h-1.2v-1.6h1.1c.4 0 .4.1.5.2v.2c0 .1 0 .1.1.1s.1-.1.1-.1v-.4c0-.3.1-.4.1-.4v-.1h-3.3c-.1 0-.2 0-.2.1 0 0 0 .1.1.1h.3c.2.1.3.1.3.4v4.1c0 .2-.1.3-.2.4h-.2c-.1 0-.1 0-.1.1 0 0 0 .1.1.1h.8zm8.9-.1s0-.1 0 0c-.2-.1-.3-.1-.4-.1-.1 0-.3-.1-.6-.7-.4-1-1.6-3.8-1.8-4.2-.1-.2-.1-.2-.2-.2s-.1.1-.2.3l-1.8 4.3c-.1.3-.3.6-.6.6h-.2c-.1 0-.1 0-.1.1s0 .1.1.1h1.6c.1 0 .1 0 .1-.1 0 0 0-.1-.1-.1h-.1c-.2 0-.3-.1-.3-.2s0-.2.1-.4l.4-.9h1.9l.5 1.4c0 .1 0 .1-.1.2-.1 0-.1 0-.1.1 0 0 .1 0 .2.1h1.4c.3-.2.3-.2.3-.3zm-2.5-2h-1.4l.7-1.7v-.1.1l.7 1.7c.1 0 0 0 0 0zm7.8 2.1h.7c.1 0 .1 0 .1-.1 0 0 0-.1-.1-.1h-.2c-.1 0-.4-.1-.8-.4-.4-.4-.9-1-1.5-1.8.7-.6 1-1 1-1.5s-.3-.8-.5-.9c-.4-.2-.9-.3-1.3-.3h-2.1c-.1 0-.2 0-.2.1 0 0 0 .1.1.1h.3c.2.1.3.1.3.4v4.1c0 .2-.1.3-.2.4h-.2c-.1 0-.1 0-.1.1 0 0 0 .1.1.1h2c.1 0 .1 0 .1-.1 0 0 0-.1-.1-.1h-.3c-.2 0-.2-.2-.3-.4v-1.6s0-.1.1-.1h.7c.1.1.4.6.7.9.4.5.7.9 1 1 .1.1.3.2.7.2zm-2.1-2.6c-.1.1-.2.1-.5.1-.2 0-.4 0-.5-.1 0 0-.1 0-.1-.1v-2c0-.1 0-.1.1-.1h.4c.4 0 1.1.2 1.1 1.2-.1.5-.3.8-.5 1zm6.4 1.1c0-.6-.3-1.1-1.2-1.7l-.3-.2c-.6-.4-.7-.6-.7-.9 0-.5.5-.7 1-.7s.7.2.8.3c.2.2.2.4.2.4 0 .1 0 .1.1.1s.1-.1.1-.2v-.8s0-.1-.1-.1c-.2 0-.5-.1-1-.1-1 0-1.8.5-1.8 1.4 0 .6.3 1.1 1.1 1.5l.4.2c.6.4.7.7.7 1 0 .5-.4.9-1 .9-.4 0-1-.2-1.1-.7 0-.1-.1-.3-.1-.4 0 0 0-.1-.1-.1s-.1.1-.1.2v.9c0 .2 0 .2.1.2.3.1.7.2 1.1.2.4 0 .8 0 1.2-.3.5-.2.7-.6.7-1.1zm11.1-1.2c0-1.6-1.1-2.5-2.9-2.5-2.1 0-3 1.5-3 2.7 0 1.2.8 2.7 2.9 2.7 1.9-.1 3-1.4 3-2.9zm-4.8-.1c0-1.7.9-2.1 1.7-2.1 1.1 0 2 .9 2 2.4 0 1.9-1.1 2.2-1.6 2.2-1.3 0-2.1-1.1-2.1-2.5zm9.4-2.4h-3.3c-.1 0-.2 0-.2.1l.1.1h.3c.2.1.3.1.3.4v4.1c0 .2-.1.3-.2.4h-.2c-.1 0-.1 0-.1.1s0 .1.1.1h2c.1 0 .2 0 .2-.1 0 0 0-.1-.1-.1h-.3c-.2 0-.3-.2-.3-.4v-2.1h1.1c.2 0 .3.2.3.2v.2s0 .1.1.1.1-.1.1-.2v-.5c0-.2.1-.4.1-.4v-.1s-.1 0-.1.1c-.1.1-.2.1-.3.1h-1.3V36c0-.1 0-.1.1-.1h1.2c.3 0 .4.1.4.2v.3c0 .1 0 .1.1.1l.1-.1v-.6c0-.2.1-.3.1-.3v-.1c-.2.1-.2.1-.3.1zM59.4 44.6c-2.4 0-3.3 1.8-3.3 3.1 0 1.4.9 3.1 3.2 3.1 2 0 3.3-1.5 3.3-3.3s-1.2-2.9-3.2-2.9zm.2 5.9c-1.5 0-2.5-1.3-2.5-3 0-2 1.1-2.5 2-2.5 1.3 0 2.3 1.1 2.3 2.9.1 2.3-1.2 2.6-1.8 2.6zm6.1-4.8h-2.2c-.1 0-.2 0-.2.1 0 0 0 .1.1.1h.3c.2.1.3.1.3.4v4.1c0 .2-.1.3-.2.4h-.2c-.1 0-.1 0-.1.1 0 0 0 .1.1.1h2.1c.1 0 .1 0 .1-.1 0 0 0-.1-.1-.1h-.4c-.2 0-.2-.2-.3-.4v-4.2c0-.1 0-.1.1-.1h.3c.2 0 .4 0 .7.3.4.3.4.8.4 1 0 .7-.6 1.1-.9 1.1-.2 0-.2 0-.2.1 0 0 0 .1.1.1h.2c1 0 1.8-.7 1.8-1.7 0-.4-.2-.7-.4-.8-.2-.3-.6-.5-1.4-.5zm4.9 0h-2.2c-.1 0-.2 0-.2.1 0 0 0 .1.1.1h.3c.2.1.3.1.3.4v4.1c0 .2-.1.3-.2.4h-.2c-.1 0-.1 0-.1.1 0 0 0 .1.1.1h2.1c.1 0 .1 0 .1-.1 0 0 0-.1-.1-.1h-.4c-.2 0-.2-.2-.3-.4v-4.2c0-.1 0-.1.1-.1h.3c.2 0 .4 0 .7.3.4.3.4.8.4 1 0 .7-.6 1.1-.9 1.1-.2 0-.2 0-.2.1 0 0 0 .1.1.1h.2c1 0 1.8-.7 1.8-1.7 0-.4-.2-.7-.4-.8-.2-.3-.6-.5-1.4-.5zm5.5-.1c-2.1 0-3 1.5-3 2.7 0 1.2.8 2.7 2.9 2.7 1.8 0 3-1.2 3-2.8 0-1.7-1.1-2.6-2.9-2.6zm.2 4.9c-1.3 0-2.1-1.1-2.1-2.5 0-1.7.9-2.1 1.7-2.1 1.1 0 2 .9 2 2.4 0 2-1.1 2.2-1.6 2.2zm9 .2h-.2c-.1 0-.4-.1-.8-.4-.4-.4-.9-1-1.5-1.8.7-.6 1-1 1-1.5s-.3-.8-.5-.9c-.4-.2-.9-.3-1.3-.3h-2.1c-.1 0-.2 0-.2.1 0 0 0 .1.1.1h.3c.2.1.3.1.3.4v4.1c0 .2-.1.3-.2.4H80c-.1 0-.1 0-.1.1 0 0 0 .1.1.1h2c.1 0 .1 0 .1-.1 0 0 0-.1-.1-.1h-.3c-.2 0-.2-.2-.3-.4v-1.6s0-.1.1-.1h.7c.1.1.4.6.7.9.4.5.7.9 1 1 .2.1.4.1.8.1h.7l-.1-.1c.1 0 .1 0 0 0zm-2.8-2.5c-.1.1-.2.1-.5.1-.2 0-.4 0-.5-.1 0 0-.1 0-.1-.1v-2c0-.1 0-.1.1-.1h.4c.4 0 1.1.2 1.1 1.2 0 .6-.3.9-.5 1zm7.1-2.6h-4.3c-.2 0-.2-.1-.3-.1 0 0-.1 0-.1.1s-.2.7-.2.8c0 .1 0 .1.1.1 0 0 .1 0 .1-.1 0 0 0-.1.1-.2.1-.2.3-.2.7-.2h1.1v4.3c0 .2-.1.3-.2.4h-.2c-.1 0-.1 0-.1.1 0 0 0 .1.1.1h2c.1 0 .1 0 .1-.1 0 0 0-.1-.1-.1H88c-.2 0-.2-.2-.3-.4V46h.9c.6 0 .8.2.8.4v.1c0 .1 0 .1.1.1 0 0 .1 0 .1-.1v-.8c.1-.1.1-.1 0-.1zm6.1.1h-1.6c-.1 0-.1 0-.1.1 0 0 0 .1.1.1h.3c.2.1.3.1.3.4v2.3c0 .7 0 1.3-.4 1.7-.3.3-.6.4-.9.4-.2 0-.6 0-.9-.3-.3-.3-.5-.7-.5-1.7v-2.4c0-.2.1-.3.3-.4h.2c.1 0 .1 0 .1-.1 0 0 0-.1-.2-.1h-2c-.1 0-.2 0-.2.1 0 0 0 .1.1.1h.3c.2.1.3.1.3.4v2.4c0 1 .3 1.5.6 1.8.5.4 1.2.5 1.6.5.5 0 1-.1 1.5-.5.6-.5.7-1.3.7-2.1v-2.1c0-.2.1-.3.3-.4h.2c.1 0 .1 0 .1-.1s-.1-.1-.2-.1zm6.6 0h-1.6c-.1 0-.2 0-.2.1 0 0 0 .1.1.1h.4c.2.1.2.2.2.6l.1 3c-.1-.1-1-1.1-1.5-1.5l-2.2-2.2c-.1-.1-.2-.2-.3-.2-.1 0-.1.1-.1.2l-.1 4c0 .6 0 .8-.2.8h-.3c-.1 0-.1 0-.1.1s.1.1.2.1h1.7c.1 0 .2 0 .2-.1 0 0 0-.1-.1-.1h-.4c-.1 0-.2-.2-.2-.7l-.1-2.8 1.7 1.7c.7.7 1.6 1.6 2.1 2 .1.1.2.1.3.1.1 0 .1-.1.1-.2l.1-4.3c0-.4.1-.5.3-.6h.2c.1 0 .1 0 .1-.1h-.4zm3.6 5h-.4c-.2 0-.3-.1-.3-.3v-4.1c0-.2.1-.3.3-.4h.2c.1 0 .1 0 .1-.1l-.1-.1h-1.8c-.1 0-.2 0-.2.1s0 .1.1.1h.3c.2 0 .2.1.2.4v4.1c0 .2-.1.3-.2.3h-.2c-.1 0-.1 0-.1.1 0 0 0 .1.1.1h2c.1 0 .1 0 .1-.1s0-.1-.1-.1zm5.5-5.1h-4.3c-.2 0-.2-.1-.3-.1 0 0-.1 0-.1.1s-.2.7-.2.8c0 .1 0 .1.1.1 0 0 .1 0 .1-.1 0 0 0-.1.1-.2.1-.2.3-.2.7-.2h1.1v4.3c0 .2-.1.3-.2.4h-.2c-.1 0-.1 0-.1.1 0 0 0 .1.1.1h2c.1 0 .1 0 .1-.1 0 0 0-.1-.1-.1h-.4c-.2 0-.2-.2-.3-.4V46h.9c.6 0 .8.2.8.4v.1c0 .1 0 .1.1.1 0 0 .1 0 .1-.1v-.8c.1-.1.1-.1 0-.1zm5.5.1h-1.5c-.1 0-.1 0-.1.1s.1.1.1.1c.1 0 .2.1.2.2s0 .2-.1.4-1 1.7-1.1 1.8c-.1-.2-1-1.8-1.2-2-.1-.1-.1-.2-.1-.2 0-.1 0-.1.1-.1s.2 0 .2-.1c0 0 0-.1-.1-.1h-1.7c-.1 0-.1 0-.1.1 0 0 0 .1.1.1s.2 0 .3.1c.1.1.3.2.5.5.2.4 1.2 1.9 1.3 2 .1.2.2.3.2.7v1.3c0 .2-.1.3-.2.4h-.2c-.1 0-.1 0-.1.1s.1.1.2.1h2c.1 0 .2 0 .2-.1 0 0 0-.1-.1-.1h-.4c-.2 0-.3-.2-.3-.4v-1.2c0-.2 0-.4.1-.7.1-.3 1.1-1.9 1.4-2.2.2-.2.2-.2.4-.3.1 0 .2-.1.3-.1.1 0 .1 0 .1-.1-.3-.3-.3-.3-.4-.3zm9.8 5c-.2 0-.6-.1-.9-.3-.2-.1-.6-.3-1.1-.8.5-.5.8-1.3.8-1.9 0-.1-.1-.1-.3-.2-.4 0-.8-.1-1-.1-.1 0-.1 0-.1.1 0 0 0 .1.1.1s.3 0 .4.1c.1.1.2.2.2.4 0 .5-.2 1-.4 1.2-.2-.1-1.1-1-1.4-1.3-.6-.7-1.3-1.4-1.3-2.1 0-.7.5-.9.9-.9s.7.2.9.4c.2.2.2.5.2.7 0 .1 0 .2.1.2 0 0 .1 0 .1-.1s.1-.8.1-1c0-.1 0-.2-.1-.2-.2-.1-.6-.2-1-.2-1.4 0-2 .8-1.9 1.5 0 .4.1.7.4 1.1-.5.2-1.3 1-1.3 1.9 0 .7.5 1.8 2.2 1.8 1.1 0 1.6-.5 1.9-.7.7.5 1 .6 1.9.6h.6c.2 0 .2 0 .2-.1 0-.2-.1-.2-.2-.2zm-4.2-.3c-.8 0-1.5-.6-1.5-1.6 0-.6.3-1 .6-1.2.1.2.6.8.9 1l1.4 1.4c-.3.1-.8.4-1.4.4zm11.1-.8c-.1 0-.1 0-.1.1-.1.3-.2.5-.4.6-.2.1-.5.1-.8.1-.8 0-.9-.1-1-.7v-1.9h1.1c.3 0 .4.2.4.3v.3s0 .1.1.1.1-.1.1-.2v-.5c0-.4.1-.5.1-.6 0 0 0-.1-.1-.1 0 0-.1 0-.1.1-.1.1-.2.1-.4.1h-1.3s-.1 0-.1-.1v-2c0-.1 0-.1.1-.1h1.1c.4 0 .5.1.5.3v.3c0 .1 0 .1.1.1s.1 0 .1-.1v-.5c0-.4.1-.5.1-.5v-.1h-3.5c-.1 0-.2 0-.2.1s0 .1.1.1h.3c.3.1.3.2.3.5v4.8c0 .2-.1.4-.2.4h-.3c-.1 0-.1 0-.1.1s.1.1.2.1h3.3c.3 0 .4 0 .4-.2s.1-.7.1-.9c.1.1.1 0 .1 0zm6 1.1h-.3c-.2 0-.3-.1-.4-.3-.2-.2-1.3-2.1-1.6-2.4l1.2-1.6c.2-.3.3-.5.5-.5h.3c.1 0 .1 0 .1-.1 0 0 0-.1-.1-.1h-1.4c-.1 0-.2 0-.2.1 0 0 0 .1.1.1h.2c.1 0 .1.1.1.1 0 .1 0 .2-.1.2-.1.2-.7 1.1-1 1.4-.3-.5-.6-.9-.9-1.5 0-.1-.1-.2-.1-.2s0-.1.1-.1h.2c.1 0 .1 0 .1-.1 0 0 0-.1-.1-.1h-1.9c-.1 0-.1 0-.1.1 0 0 0 .1.1.1h.3c.2.1.4.2.6.5l1.2 1.9-1.4 1.9c-.2.3-.4.4-.6.5h-.3c-.1 0-.1 0-.1.1s0 .1.1.1h1.5c.1 0 .1 0 .1-.1 0 0 0-.1-.1-.1h-.2c-.1 0-.1 0-.1-.1s0-.2.1-.3l1-1.6c.3.5.7 1.2 1.1 1.8.1.1 0 .1 0 .1-.1 0-.1 0-.1.1 0 0 .1.1.2.1h1.5c.5.1.5.1.4 0 .1 0 .1 0 0 0zm5.3-1.2c-.1 0-.1 0-.1.1s-.1.3-.2.5c-.3.3-.6.4-1.3.4-.9 0-2.2-.8-2.2-2.4 0-.7.1-1.3.6-1.8.3-.3.7-.4 1.3-.4.6 0 1.1.2 1.4.4.2.2.3.4.3.6 0 .1 0 .1.1.1s.1-.1.1-.2v-1.1s0-.1-.1-.1c-.2 0-.4-.1-.7-.1-.3 0-.6-.1-1-.1-1.1 0-1.7.3-2.2.7-.7.6-.8 1.4-.8 1.9 0 .7.2 1.4.9 2 .6.5 1.5.7 2.4.7.5 0 1 0 1.3-.2.1 0 .2-.1.2-.2.1-.2.2-.8.2-.9-.1.2-.1.1-.2.1zm4.7.3c0 .3-.1.4-.3.5-.2.1-.5.1-.7.1-.7 0-.9-.1-1-.6v-1.6h1.1c.3 0 .4.1.4.3v.2s0 .1.1.1.1-.1.1-.2v-.5c0-.3.1-.5.1-.5s0-.1-.1-.1c0 0-.1 0-.1.1-.1.1-.2.1-.3.1h-1.2v-1.9h1.1c.4 0 .4.1.5.2v.2c0 .1 0 .1.1.1s.1-.1.1-.1v-.4c0-.3.1-.4.1-.4v-.1h-3.3c-.1 0-.2 0-.2.1 0 0 0 .1.1.1h.3c.2.1.3.1.3.4V50c0 .2-.1.3-.2.4h-.2c-.1 0-.1 0-.1.1 0 0 0 .1.1.1h3c.3 0 .3 0 .4-.2 0-.1.1-.6.1-.8 0-.1 0-.2-.1-.2-.2.3-.2.4-.2.4zm4.9-.1c-.1 0-.1 0-.1.1s-.1.3-.2.4c-.2.2-.4.2-.8.2-.5 0-.8 0-.9-.1-.2-.1-.2-.6-.2-1.4v-2.6c0-.2.1-.3.3-.4h.3c.1 0 .1 0 .1-.1 0 0 0-.1-.2-.1h-2c-.1 0-.2 0-.2.1 0 0 0 .1.1.1h.2c.2.1.3.1.3.4v4.1c0 .2-.1.3-.2.4h-.2c-.1 0-.1 0-.1.1 0 0 0 .1.1.1h3.1c.4 0 .4 0 .4-.2.1-.2.1-.7.1-.8.2-.2.1-.3.1-.3zm4.6 0c-.1 0-.1 0-.1.1s-.1.3-.2.4c-.2.2-.4.2-.8.2-.5 0-.8 0-.9-.1-.2-.1-.2-.6-.2-1.4v-2.6c0-.2.1-.3.3-.4h.3c.1 0 .1 0 .1-.1 0 0 0-.1-.2-.1h-2c-.1 0-.2 0-.2.1 0 0 0 .1.1.1h.2c.2.1.3.1.3.4v4.1c0 .2-.1.3-.2.4h-.2c-.1 0-.1 0-.1.1 0 0 0 .1.1.1h3.1c.4 0 .4 0 .4-.2.1-.2.1-.7.1-.8.2-.2.2-.3.1-.3zm4.4.1c0 .3-.1.4-.3.5-.2.1-.5.1-.7.1-.7 0-.9-.1-1-.6v-1.6h1.1c.3 0 .4.1.4.3v.2s0 .1.1.1.1-.1.1-.2v-.5c0-.3.1-.5.1-.5s0-.1-.1-.1c0 0-.1 0-.1.1-.1.1-.2.1-.3.1h-1.2v-1.9h1.1c.4 0 .4.1.5.2v.2c0 .1 0 .1.1.1s.1-.1.1-.1v-.4c0-.3.1-.4.1-.4v-.1h-3.3c-.1 0-.2 0-.2.1 0 0 0 .1.1.1h.3c.2.1.3.1.3.4V50c0 .2-.1.3-.2.4h-.2c-.1 0-.1 0-.1.1 0 0 0 .1.1.1h3c.3 0 .3 0 .4-.2 0-.1.1-.6.1-.8 0-.1 0-.2-.1-.2-.2.3-.2.4-.2.4zm6.8-4.1h-1.6c-.1 0-.2 0-.2.1 0 0 0 .1.1.1h.4c.2.1.2.2.2.6l.1 3c-.1-.1-1-1.1-1.5-1.5l-2.2-2.2c-.1-.1-.2-.2-.3-.2-.1 0-.1.1-.1.2l-.1 4c0 .6 0 .8-.2.8h-.3c-.1 0-.1 0-.1.1s.1.1.2.1h1.7c.1 0 .2 0 .2-.1 0 0 0-.1-.1-.1h-.4c-.1 0-.2-.2-.2-.7l-.1-2.8 1.7 1.7c.7.7 1.6 1.6 2.1 2 .1.1.2.1.3.1.1 0 .1-.1.1-.2l.1-4.3c0-.4.1-.5.3-.6h.2c.1 0 .1 0 .1-.1h-.4zm5.9 3.8c-.1 0-.1 0-.1.1s-.1.3-.2.5c-.3.3-.6.4-1.3.4-.9 0-2.2-.8-2.2-2.4 0-.7.1-1.3.6-1.8.3-.3.7-.4 1.3-.4.6 0 1.1.2 1.4.4.2.2.3.4.3.6 0 .1 0 .1.1.1s.1-.1.1-.2v-1.1s0-.1-.1-.1c-.2 0-.4-.1-.7-.1-.3 0-.6-.1-1-.1-1.1 0-1.7.3-2.2.7-.7.6-.8 1.4-.8 1.9 0 .7.2 1.4.9 2 .6.5 1.5.7 2.4.7.5 0 1 0 1.3-.2.1 0 .2-.1.2-.2.1-.2.2-.8.2-.9-.1.2-.1.1-.2.1zm4.7.3c0 .3-.1.4-.3.5-.2.1-.5.1-.7.1-.7 0-.9-.1-1-.6v-1.6h1.1c.3 0 .4.1.4.3v.2s0 .1.1.1.1-.1.1-.2v-.5c0-.3.1-.5.1-.5s0-.1-.1-.1c0 0-.1 0-.1.1-.1.1-.2.1-.3.1H179v-1.9h1.1c.4 0 .4.1.5.2v.2c0 .1 0 .1.1.1s.1-.1.1-.1v-.4c0-.3.1-.4.1-.4v-.1h-3.3c-.1 0-.2 0-.2.1 0 0 0 .1.1.1h.3c.2.1.3.1.3.4V50c0 .2-.1.3-.2.4h-.2c-.1 0-.1 0-.1.1 0 0 0 .1.1.1h3c.3 0 .3 0 .4-.2 0-.1.1-.6.1-.8 0-.1 0-.2-.1-.2-.2.3-.2.4-.2.4z"/></g><g fill="#ffd600"><path d="M1.2 7.9c3-1 4.1-1.8 4.9-1.8.7 0 .8.5.8 1.3v13.9c0 4.3 0 7-.2 9.9-.1 1.3-.4 2-1.8 2.3-.8.2-2.8.3-3.3.3-.3 0-.5.2-.5.4 0 .3.3.4.7.4 2.8 0 5.1-.1 6.6-.1 1.3 0 3.5.1 6.7.1.5 0 .7-.2.7-.5s-.2-.4-.5-.4c-.4 0-3-.2-3.6-.3-1.4-.3-1.6-.9-1.8-2.3-.2-1.8-.2-5.6-.1-10V1.9c0-.4 0-.7-.3-.8H9c-.1.1-.3.2-.6.4-2 2.1-4.3 3.9-7.8 5.6-.1 0-.1.1-.2.1v.6c.2.1.2.2.3.2.2 0 .3-.1.5-.1z"/><path d="M30.1 33c-.3 0-.4.2-.4.7-.3 2.3-1.3 3.9-4.4 4.2-1.6.2-6.1.2-6.8.2h-3.2c-.2 0-.3-.1-.1-.3 5.2-6.3 11.4-11.9 13.4-18.4.3-1 .5-2.1.6-3.2 0-.4.1-.8.1-1.3 0-4.3-3.3-8.3-9.4-8.3-3.3 0-5.5 1.2-7.1 1.9-.4.3-.4.4-.4.6.1 1.2.1 3.6 0 5.3 0 .4.2.6.3.6.2 0 .4-.3.4-.6 0-1.6.6-3.2 1.5-4.3 1-1.2 2.5-1.9 4.4-1.9 2.7 0 6.7 1.2 6.7 7 0 8.7-13.8 23.3-14.4 23.9-.3.3-.8.7-.8 1.1 0 .4.3.6.6.6h16.4c1.8 0 2.8-.1 2.8-1.1-.1-1.5-.1-3.9.1-6 0-.2 0-.7-.3-.7z"/><path d="M30.3 25.4v-6.5h8.3c3.5 0 4.3 1.1 4.3 2.7 0 .3.1.6.3.6.2 0 .3-.2.3-.5 0-2.1-.1-4.1 0-5.3 0-.3-.1-.4-.3-.4-.1 0-.4.1-.9.2s-1.2.1-2.4.1H29.2c-.3 0-.5.2-.5.5l-.1 2.6-.3 7.8c0 .5.3.7 1.1.8 3.4.2 13 1 13 10 0 7.3-5.4 11-10.3 11-4.3 0-7.7-.7-7.7-6.1 0-.7-.1-1-.5-1s-.5.4-.5 1.1c.1 2 .1 3.4 0 5.3 0 .6.1 1.1 1.1 1.7.8.5 1.7.8 2.6.9h5.1c8.2-1 12.2-6.2 12.9-12.1V35c-.9-8.3-9.4-8.8-14.8-9.6z"/></g><path fill="none" stroke="#fff" stroke-miterlimit="10" d="M.5 1.1h44.8v49.8H.5z"/><path d="M148.3 22c-4 4.2-7 6.5-11.1 5.9-4.3-.6-6.8-3.6-8.3-7.7-1.4-4-1.5-12 2.4-16.2 2.6-2.7 7.7-2.9 9.9-2.2 4 1.2 5.5 3.2 6.7 7.4h.8s-.1-2.2 0-3.7c0-1.1.2-2.9.2-2.9-.1-.1-.3-.3-.6-.4-4.1-2.3-13.4-3.2-18.9-.1-5.5 3.1-7.1 8.2-7 12.8.1 5.1 1.9 10.1 7.3 13 5 2.6 12.7 2.1 18.4-1.5.6-.5.9-.7 1-.9 0 0 0-1.4.1-1.9 0-.7-.2-2.3-.2-2.3l-.7.7zm35.3-4.8h-10v.9c1.2.3 2.7.4 2.7 3.1v5.3c-.2.2-.3.3-.7.5-2.2 1.2-6.1 1.2-8.5.1-5.1-2.4-6.8-7-7.3-11.2-.3-3.1 0-9.4 3.8-12.5 3.2-2.5 8-2.4 11.3-1.2 3.9 1.5 4.7 3 5.5 6.6h1l-.4-6.6c-.2-.2-2.1-.9-2.1-.9-5.7-1.5-14.3-2.6-20 2.1-4.6 3.9-5.5 9.8-4.9 14 .5 4.4 3.2 8.4 7.9 10.6 4.9 2.4 14.7 1.3 18.1-.5l.9-.6v-5.5c0-2.5.4-2.9 2.6-3.4v-.8zM57 5v11.3c0 3.6.4 8.6 5 11.3 3.9 2.4 8.8 2.5 12.8.3 4.9-2.6 5.3-7.7 5.4-11.1l.3-10.6c.1-1.6 0-3.2 1.4-4.1.1-.1 1.4-.5 1.7-.5V.8s-2.8.1-4.5.1c-1.4 0-3.7-.1-3.7-.1v.9c2.4.3 3 1.6 3 4.3v11.6c0 3.3-.3 6.8-4.1 9-2.4 1.4-6 1.6-8.4.2-3.9-2.2-4.3-5.6-4.3-8.7V5c0-1.3.1-2.4 1.4-3.1.6-.3.9-.2 1.5-.3V.8c-1 0-3.1.1-5.1.1-2.7 0-5.3-.1-5.3-.1v.9c.6.1.9 0 1.5.3 1.3.6 1.4 1.8 1.4 3zm39.2 23.7v-.9c-.4 0-1.6-.3-1.8-.5-1.5-.9-1.5-2.5-1.5-4.1V5.7l18.4 20.9c1 1.2 2.3 3 2.9 2.8.6-.2.5-1.9.5-3.2v-20c0-1.6 0-3.2 1.5-4.1.2-.1 1.4-.5 1.8-.5V.8s-2.7.1-4.4.1c-1.4 0-3.7-.1-3.7-.1v.9c2.5.3 3 1.6 3 4.2v14.8L95.3.8s-2 .1-3.5.1c-1.4 0-3.5-.1-3.5-.1v.9c.4.1 1.5.1 2 .4 1 .7.9 1.8.9 3.8v17.7c0 2.6-.6 3.9-3 4.2v.9s2.2-.1 3.6-.1c1.7 0 4.4.1 4.4.1z" fill="#fff"/></svg>