<svg xmlns="http://www.w3.org/2000/svg" viewBox="0 0 150 150"><title>uncg_school_icons</title><path d="M143.14 46.26a72.72 72.72 0 0 0-39.4-39.4 73.37 73.37 0 0 0-57.48 0 72.72 72.72 0 0 0-39.4 39.4 73.37 73.37 0 0 0 0 57.48 72.72 72.72 0 0 0 39.4 39.4 73.37 73.37 0 0 0 57.48 0 72.72 72.72 0 0 0 39.4-39.4 73.37 73.37 0 0 0 0-57.48zM138.43 75a61.7 61.7 0 0 1-5 24.61 62.68 62.68 0 0 1-33.78 33.78 62.64 62.64 0 0 1-49.22 0 62.68 62.68 0 0 1-33.82-33.78 61.72 61.72 0 0 1-5-24.61 61.7 61.7 0 0 1 5-24.61 62.68 62.68 0 0 1 33.78-33.78 62.64 62.64 0 0 1 49.22 0 62.68 62.68 0 0 1 33.78 33.78 61.72 61.72 0 0 1 5 24.61z" fill="#fff"/><path d="M120.53 75.56C96.46 82 89.89 79.37 83 76.29c-.79-3.67-7.47-6.62-16-7.13a5.14 5.14 0 0 0 .16-1.28v-.08a3.89 3.89 0 1 0-5.52 0v.08a5.14 5.14 0 0 0 .16 1.28C52.76 69.7 45.76 73 45.76 77a3.44 3.44 0 0 0 0 .47L44 79.31A20.29 20.29 0 0 0 42.4 81c-2-3.22-3.12-7.09-6.32-9.79-12-9.64-25.57 10-11 16.78a48 48 0 0 1 7.45 4.35 4.72 4.72 0 0 0-2.6 4 3.45 3.45 0 0 0 .18 1.56 4.73 4.73 0 0 0 4.54 3.41h.52c1.63-.13 3.39-1.17 4.92-3.68 2.65 5.17 8.32 9.28 15.46 11.17a11.34 11.34 0 0 0-3.38 2.54c-3 1.28-4.87 3-4.87 5 0 3.92 7.67 7.09 17.13 7.09s17.13-3.17 17.13-7.09c0-1.93-1.86-3.67-4.87-5a10.65 10.65 0 0 0-2.49-2c25.32-3.52 29.47-20.85 56.36-29.82 2.06-1.25-4.07-5.27-10.03-3.96zM38.67 88.69c-4.47-3.58-12.78-5.56-12.94-10.24-.1-4 5.67-4.76 8.61-2.75 2.94 1.81 4.51 4.83 6.69 7.11a15.18 15.18 0 0 0-2.36 5.88zm39.65-5.39a39.22 39.22 0 0 1-14.85 2.59c-8.89 0-15.33-2-18.11-4.23l1-1a44.1 44.1 0 0 0 17.13 3.11c8 0 15.2-1.66 19.81-4.5-.3 1.26-2.15 2.83-4.98 4.03zm58.33-34.53a23.15 23.15 0 0 0-1.31-5.1 18.92 18.92 0 0 0-2.09-4 17.44 17.44 0 0 0-2.81-3.11 23.59 23.59 0 0 0-3.23-2.41 31.27 31.27 0 0 0-3.6-1.87h-.07a19 19 0 0 1 2.25 6.11 7.48 7.48 0 0 1-.11 2.79 8.89 8.89 0 0 1-1 2.48q-.66 1.13-1.49 2.28t-1.64 2.46a21.23 21.23 0 0 0-1.43 2.73 12 12 0 0 0-.85 3.35 15.72 15.72 0 0 0 .08 4.12 23.06 23.06 0 0 0 1.31 5.1 18.91 18.91 0 0 0 2.09 4 17.44 17.44 0 0 0 2.81 3.11 23.47 23.47 0 0 0 3.23 2.41c1.07.65 1.88 2.18 3.21 2.78-1.26-2.27-1.56-5.23-1.82-7a7.47 7.47 0 0 1 .11-2.79 8.85 8.85 0 0 1 1-2.48q.66-1.13 1.49-2.28t1.67-2.45a21.22 21.22 0 0 0 1.43-2.73 12.08 12.08 0 0 0 .85-3.35 15.73 15.73 0 0 0-.08-4.15z" fill="#fff"/></svg>