<svg xmlns="http://www.w3.org/2000/svg" viewBox="0 0 7539.96 832.54"><title>uncg-125</title><path d="M7330 610.11c-1.92 5.62-4.53 10.52-11 12a76.88 76.88 0 0 1-35.71-.08 11.32 11.32 0 0 1-9-9.07 51.12 51.12 0 0 1-1.47-9.78q-.25-19.4 0-38.8c.07-6.5.59-7 7.51-6.93 8.4.15 16.8.77 25.19 1.23 10.16.56 12 2.17 14.13 12.56.3 1.42.14 3.4 2.14 3.32 2.27-.09 2.72-2.26 2.68-4-.21-8.76 2-17.31 2.18-26 0-1.43.35-3-1.88-4.49-4.31 3.95-10.05 5.54-15.95 5.79-10.21.45-20.44.24-30.67.36-3.83 0-5.38-1.9-5.37-5.57 0-14.44.08-28.88 0-43.31 0-4.34 1.88-5.84 6-5.72 8.72.26 17.44.19 26.16.45 13.18.39 15.54 2.49 18.55 15.81.1.45.77.77 1.18 1.14 3.26-4.1 3.35-4.1 3.56-7.35.41-6.29.37-12.58 1.65-18.83.9-4.41-.44-5.72-4.94-4.67-9.25 2.15-18.56 1.3-27.85 1.34-21.66.09-43.31-.15-65-.11-2.61 0-5.93-1.37-7.81 1.91 1.43 2.19 3.36 1.75 5.09 1.95 12.12 1.37 14.54 3.84 14.55 15.86q0 56.4-.13 112.79a49.5 49.5 0 0 1-.93 10.75c-1.15 5.15-4.17 7.66-9.24 8.38-2.36.34-5.61-1.27-6.94 2.65 2.45 2.33 5.37 2.65 8.38 2 4.77-1 9.59-.62 14.39-.82 22.56-.94 45 1.91 67.6 1.48 12.7-.24 12.71 0 16.88-10.58v-21.61c-4.18.06-3.11 3.65-3.93 5.95zm-48.24-437.74c-15.62-1-31.23-.71-46.84-1.06a42.8 42.8 0 0 0-7.15.47 2.53 2.53 0 0 0-1.64 1.82 2.68 2.68 0 0 0 1.45 2 12.67 12.67 0 0 0 3.51.57c13.19 1.48 14.87 3.12 14.88 16.16q.07 54.56-.11 109.11c0 3.61 0 7.22-.35 10.81-.68 7.81-2.3 9.42-10.29 10.8a18.44 18.44 0 0 0-3.51.7c-1.08.42-2.07 1.13-1.73 2.66.25 1.15 1.19 1.32 2 1.43a36.9 36.9 0 0 0 4.5.2c18 0 36.07.07 54.1-.05 2.39 0 6.59 1.34 6.58-2.28 0-3.07-4.16-2.48-6.77-2.69-10.92-.9-13.68-2.94-14-13.28-.6-18-.42-36.06-.64-54.1 0-3.77 1.47-5.46 5.33-5.38 7.81.17 15.63.08 23.44.21 11.53.2 13.77 1.89 17.21 12.86.47 1.51.94 3.15 2.69 3s2.34-1.82 2.25-3.35c-.53-9.07 2-17.9 2-26.92a14.12 14.12 0 0 0-.78-3c-4.12 2.12-7.55 5.07-12.41 5-11.11-.24-22.24-.07-33.36.18-4.6.1-6.43-1.62-6.37-6.29.17-13.83 0-27.65.09-41.48.06-6.32.38-6.72 6.68-6.62 9 .14 18 .83 27 1.09 13.25.38 14.15 1 17.59 13.77.32 1.19.72 2.4 2.16 2.49 1.93.11 2.58-1.34 2.66-2.88.2-3.9.08-7.82.36-11.71.21-2.85-1.09-6.09 1.73-8.43V171c-17.46.73-34.86 2.48-52.26 1.37zm-5220.09-28.16c-.12-7.3-.15-7.43-7.81-7.13-4.79.19-9.57 1-14.36 1.12-34.88.65-69.77.83-104.66 0-4.79-.11-9.56-.85-14.35-1.17-2.08-.14-4.63-.37-5.53 2-1.42 3.72-1.18 7.78-.34 11.56.75 3.42 4.47 2.36 6.85 3.21 3.1 1.1 6.4 1.61 9.57 2.5 17.69 5 28.89 16.2 33.78 34 3.23 11.77 3.54 23.72 3.55 35.74q.06 130.83 0 261.66c0 2.26.82 4.74-.91 6.86-2.58.11-3.58-2-4.88-3.46q-14.73-16.47-29.31-33.06-39.09-44.26-78.18-88.53-30.47-34.44-61-68.81-38.52-43.57-77-87.21c-21.09-23.88-42.3-47.65-63.26-71.64-3.05-3.5-6-5.37-10.75-5-8.07.67-16.18 1.26-24.28 1.3-29.75.14-59.51 1-89.25-1.11-9.15-.65-9.18-.2-9 8.57.1 6.54.08 6.67 6.79 8 5.88 1.14 11.86 1.81 17.75 2.93 14.68 2.78 22.9 11.36 26 26.18a99.79 99.79 0 0 1 1.73 20.61v352.79a168.71 168.71 0 0 1-2 26c-3.56 22.92-16.59 37.92-37.86 43.21a56.41 56.41 0 0 1-8.82 1.79c-4.1.34-6 2.09-5.57 6.31.22 2.08.07 4.21.09 6.31 0 2.59 1.37 3.68 3.93 3.8 4.85.21 9.57-1 14.35-1.16 35.78-.95 71.57-.71 107.36 0 5.09.1 10.17.72 15.26 1.16 4 .35 5.46-1.56 5.21-5.32a29.22 29.22 0 0 1 0-4.51c.35-4-1-5.9-5.33-6.45a96.32 96.32 0 0 1-15.73-3.79c-19.67-6-31.1-19.28-35.28-39.38-2.6-12.48-2.66-25.18-2.71-37.67-.42-104.36-.25-208.73-.19-313.09 0-1.86-1.08-4.28 2.12-5.77 7.26 8.17 14.64 16.43 22 24.73q29.58 33.42 59.12 66.88 37.25 42.28 74.41 84.65c19.67 22.33 39.44 44.56 59.1 66.89q36.94 42 73.78 84c19.19 21.94 39 43.38 57.4 66 8.56 10.48 17.14 21 27.55 29.74 8.93 7.5 15.33 5.43 18.62-5.62a27.26 27.26 0 0 0 .72-3.52 141 141 0 0 0 1.75-22.42q-.16-66.77-.07-133.54v-259c0-9.61-.08-19.23 2-28.71 4.37-20.07 15.25-34.35 35.63-40.18 5.19-1.48 10.39-3.14 15.71-3.9 4.88-.7 6.92-2.79 6.26-7.61a15.12 15.12 0 0 1 .04-1.74zm1176.78 290.13c-27.07-.13-54.15-.08-81.22-.08h-77.61c-2.71 0-5.41.06-8.12 0s-4.25 1.06-4.64 4.15c-1.27 10.19-.4 11.64 9.69 14.1.88.21 1.76.38 2.63.62 23.18 6.39 34.55 20 35 44.1.57 34 .23 68 .4 102 0 3.68-1.4 6-4.1 8.4-6.91 6.11-14.93 10.07-23.48 13.09-34.34 12.13-69.48 13.47-104.78 5.9-46.9-10.06-84.22-35.9-113.63-73.15-35.6-45.09-49.71-98.09-53.79-154.17a362 362 0 0 1 1.14-63.94c3.24-31 9.88-61.07 22.76-89.5 18.5-40.85 48.22-69.93 91.07-84.66 31.74-10.91 64.28-13.72 97.7-10.6a247 247 0 0 1 95.79 29.28c23.07 12.5 40.07 30.45 49.64 55a262.79 262.79 0 0 1 11.61 39.74c1.79 8.22 1.73 8.23 9.79 8.32 9.89.1 10 .1 9.87-9.7-.47-34.87-1.16-69.74-1.39-104.62 0-5.85-2.32-8.88-7.33-10.89-12.82-5.13-25.51-10.57-39-14a701.22 701.22 0 0 0-97.24-18.19c-32.35-3.6-64.65-4.58-97.13-1.8a335.87 335.87 0 0 0-68 12.51c-81.85 24.51-136.71 77.59-166.34 157.24-9.37 25.19-14.17 51.34-16.61 78.14-2.73 29.92-1.67 59.64 5 88.69 21 90.81 78.71 149.29 164.37 181.51 34.08 12.82 70.39 14.92 106.45 16 32.16.95 64.19-1.84 96.06-6.47 28.29-4.11 56.19-9.79 83-19.82 10.42-3.89 20.57-8.27 29.41-15.39 4-3.19 5.33-6.55 5.28-11.49-.23-21.36-.12-42.71-.09-64.07 0-15-.63-30.13.37-45.11 1.64-24.78 7.79-34.13 31.47-41.12 3.74-1.11 7.51-2.12 11.27-3.17 1.44-.4 3.27-.6 3.62-2.24.87-4.14 1.37-8.61-.09-12.46s-5.76-2.14-8.8-2.15zm-634.67 92.94c-24.92 25.28-50 50.37-79.53 70.42-35.27 23.92-73.28 36.74-116.51 30-34.9-5.42-65.4-19.7-91-44.07-23.94-22.81-40.14-50.74-52.65-81-15.24-36.94-19.9-75.9-21.44-115.35-.9-23.14 1.38-46.17 4.84-69.08 4.75-31.46 13.89-61.42 29-89.5 17.22-31.93 41.8-55.47 76.36-67.83a221.18 221.18 0 0 1 52.52-12c32-3.24 63.35-2.18 94.09 9.23 39.47 14.65 68.87 39.59 86.11 78.41 6.12 13.77 10.84 28 15.54 42.26 2.67 8.08 3.16 8.24 11.39 7.86 4-.18 5.21-1.9 5.06-5.58-.46-11.11.12-22.23-.91-33.34a115.29 115.29 0 0 1-.16-18.91c1.36-18.57.67-37.25 3.17-55.74.66-4.87-1.38-7.74-5.47-10.22a192.64 192.64 0 0 0-31.67-15.16c-41.08-15.61-83.95-22.69-127.59-25a457.81 457.81 0 0 0-62.14 1 396.7 396.7 0 0 0-68.2 11.32c-50.29 13.2-92.87 39.29-126.87 78.49-37.68 43.44-55 95.22-58 152a368.36 368.36 0 0 0 1.18 54c2.44 26.17 7.42 51.66 16.36 76.35 25.07 69.25 73 116.16 141.09 142.72 50.5 19.7 103.18 21.84 156.23 15.39a364.64 364.64 0 0 0 132.14-42.53c11.6-6.36 23.07-12.92 32.71-22.22 3.69-3.56 5.6-7.32 5.55-12.62-.08-9.6.68-19.2 1.09-28.78a173.71 173.71 0 0 0-3-38.58c-7.07 6.58-13.4 12.08-19.29 18.06zM1430.83 136.5c-1.79.17-3.61.06-5.41.12-18.62.56-37.24 1.06-55.86 1.7-24.07.84-48.05-1.61-72.09-1.73-9.66 0-10.2.56-9.56 10.06.24 3.55 1.4 5.65 5.13 6.06a70.22 70.22 0 0 1 14.82 3.7c15.81 5.33 25.55 16.42 30.11 32.18a95.07 95.07 0 0 1 3.89 26.65q-.1 62.7 0 125.41v120a222.24 222.24 0 0 1-5.7 49.1c-11.12 49.16-40.65 82.93-87 101.84-23.64 9.64-48.4 13-74.07 11.22-22.94-1.62-44.33-7.32-64-19.24-30.65-18.56-53.19-43.65-64-78.46a182.42 182.42 0 0 1-8.68-54q-.26-132.63-.23-265.25c0-3 0-6 .28-9 1.67-19.23 10.32-33.59 28.76-41.17 5.4-2.22 11-2.77 16.73-3 6.23-.3 6.66-1 6.92-6.88.4-8.9.14-9.12-8.57-9.23-31-.38-61.87 2.53-92.85 1.86-12.91-.28-25.81 0-38.74-1-14.38-1-28.85-.65-43.29-.81-2.28 0-4.84-.6-5.81 2.73-2.53 8.69.36 13 9.34 13.47h.9a43.81 43.81 0 0 1 40.12 34.42 107.52 107.52 0 0 1 1.88 22.4v194.88c0 23.15.54 46.23 3.24 69.25 2.57 21.87 7.09 43.22 15 63.8 11.58 30.14 29.24 56.14 55.46 75.14Q1095.54 662 1180 656.87a235.14 235.14 0 0 0 95.49-26.81c40.29-21 67.62-53 82.72-95.79 10.21-28.92 13.81-58.94 15.57-89.26 1.09-18.89.48-37.84 1.72-56.76 1.34-20.38 1-40.84 1.64-61.27.93-27.93 2.16-55.86 2.32-83.81q.12-20.77 2.13-41.39c1.56-15.62 6.29-30.06 20.23-39.54 8.17-5.56 17.82-6.95 27.11-9.2 8.45-2.05 8.48-2.06 8.46-10.58-.05-4.91-2.13-6.38-6.56-5.96zm3195.43 139.16c4.65-.08 7.14 1.64 8.74 5.93q6.29 16.89 13.13 33.57c1.62 4 1.77 7.39-2.18 10.22 2.59 2.94 4.82 2.44 6.84 2.45 13.53.11 27.06.16 40.6.2 1.5 0 3-.08 4.5-.21 1.31-.12 2.38-.84 2.16-2.22a3.07 3.07 0 0 0-1.71-1.84 8.52 8.52 0 0 0-3.5-.71c-7.58.21-12.34-4-15.82-10.08a116.82 116.82 0 0 1-5.91-11.13c-7.78-17.91-15.39-35.89-23.09-53.84q-15.62-36.45-31.32-72.86c-1.28-3-2.36-6.95-6.19-7-4.41-.09-5.37 4.29-6.75 7.49q-28.37 65.79-56.57 131.66a32.32 32.32 0 0 1-6 10c-5.34 5.6-9 6.38-16.06 3.44a35.53 35.53 0 0 1-10.34-7.12c-17.49-16.22-31.68-35.32-46.91-53.52-3.07-3.67-3-6.49.78-9.86a116.66 116.66 0 0 0 14.45-14.84c21-27 6-56.61-20.81-61.46-6.2-1.12-12.39-2.48-18.7-2.51-21.65-.12-43.3-.08-65-.05a25.43 25.43 0 0 0-5.29.67 1.62 1.62 0 0 0-1.16 2.05 2.1 2.1 0 0 0 1 1.35 15.81 15.81 0 0 0 3.44.79c13.54 1.71 15.23 3.43 15.25 16.93q.05 54.13-.1 108.26a51 51 0 0 1-1.18 12.53c-1.88 7.46-2.28 8-10 9.15-2.3.34-5.84-.1-5.72 2.85.14 3.25 3.76 2.11 5.94 2.12 17.14.09 34.28.12 51.42 0 2.74 0 7.62 1.57 7.72-2 .13-4.72-5.05-2.62-7.91-3-8.32-1-10.81-3-11.4-10.92-.67-9-1.14-18-1.51-27-.22-5.4-.06-10.82-.05-16.24 0-2.55.41-5 3.53-5.36 6.63-.67 13.26.32 19.66 1.65 3.91.81 5.16 5.57 7.39 8.71 9.9 14 19.43 28.23 31.09 40.86 8.4 9.1 18.65 13.64 31.24 13.42 19.24-.32 38.49 0 57.73-.18 2.42 0 6.58 1.54 6.84-2s-3.94-2.5-6.42-2.89c-6.35-1-7.71-2.75-6.76-8.94a16.79 16.79 0 0 1 1-3.47c3.89-10.09 7.88-20.13 11.7-30.24 1.39-3.67 3.82-4.79 7.63-4.74 13.52.12 27.05.17 40.58-.07zm-184.48-23c-4.48-.32-9 0-13.47-.5-6-.63-7.13-1.9-7.23-8-.14-9 0-18 0-27s.24-18-.1-27c-.19-5 1.94-6.9 6.47-7.76 18.11-3.44 34.77 6.66 39.18 24.59 2.7 11 2.31 22.07-3.26 32.33-4.64 8.5-11.18 14.05-21.59 13.31zm148 11.93c-3.39 0-5.29-.95-3.74-4.79q9.72-24.14 19.38-48.31l2-.12 7.39 19c3.59 9.21 7.28 18.39 10.75 27.65 2.06 5.5 1.45 6.47-4.26 6.56-10.54.1-21.04-.05-31.54-.02zM5358.22 481c.18.53.19 1.3.55 1.56 7.11 5 7.44 6 4.11 13.74a65.77 65.77 0 0 1-3.23 6.45c-8.31 14.64-16.61 29.28-25 43.84-1.12 1.94-1.79 4.59-4.78 5.08a8.61 8.61 0 0 1-1.9-1.73c-10.94-18.67-21.92-37.31-32.68-56.09-4-7-3.68-7.53 4.47-12.79-3.11-2.45-5.87-1.67-8.43-1.68-14.14-.07-28.28-.27-42.4.1-5.15.13-9.92-2.8-15.08-1.26s-10.72 1.27-16.12 1.28h-82.11c-9.92 0-19.87.31-29.48-2.72-3.6-1.13-5.22.59-5.87 3.55-1.68 7.61-3.8 15.16-4.3 23-.11 1.67-.54 3.73 2.06 4.53.6-.46 1.68-.85 1.9-1.52 3.77-11.56 12.89-14 23.5-14 8.12 0 16.24-.22 24.36-.23 7.74 0 7.85 0 7.84 8.08q0 55.49-.18 111a41.14 41.14 0 0 1-1.12 10.72c-1.9 7.07-2.88 8.07-10.23 9.16-2.09.31-4.89-.71-5.76 2.79 1.06.45 1.83 1.06 2.61 1.07q31.57.12 63.15.09c1.46 0 3.07-.32 2.84-2.5-1.32-1.59-3.2-1.31-5-1.43a49.52 49.52 0 0 1-6.27-.56c-7.18-1.45-8.85-3.56-9.76-10.8a237.14 237.14 0 0 1-1.5-29.68v-88.43c0-1.5.07-3 0-4.51-.14-3.26 1.09-5.09 4.64-5 9.62.19 19.28-.22 28.85.55 9.86.79 18.33 4.24 19.49 16.08 0 .3.93.51 1.8 1 2.45-2.54 2.34-5.81 2.39-9 .07-4.21.26-8.42.14-12.63s1.92-5.45 5.59-4.52a24.83 24.83 0 0 1 11.09 5.74 57.66 57.66 0 0 1 9.21 11.06c12.19 19 24.48 37.86 36.49 56.93a41.66 41.66 0 0 1 6.59 23.09c-.14 10.53 0 21.05-.16 31.58 0 3-.51 6-.84 8.94-.7 6.31-4.26 9.61-10.57 10.19-2.08.19-4.88-.63-5.74 2.67 8.32 2.11 63 1.69 68.41-.43 0-.28.05-.68-.11-.83-2.54-2.35-5.73-1.09-8.61-1.47-9.84-1.28-13.23-4.63-13.4-14.6-.26-14.43-.12-28.87-.16-43.31a27.42 27.42 0 0 1 3.66-13.8c12.54-21.92 25.46-43.59 40.38-64a29 29 0 0 1 18.45-11.98c1.62-.32 3.72 0 3.69-2.68-7.84-1.88-41.69-1.62-47.47.31zm-1641.71-24.89c-27-10.59-54.51-10.89-82-2.4-19.91 6.15-35.7 18.42-46.89 36-15.47 24.34-19.23 51-12.54 78.68 6.94 28.78 23.83 50.21 51.25 62.37a91.31 91.31 0 0 0 43.32 7.71c3 0 6.33.23 9.61 0 30.42-2.46 55.53-14.93 72.87-40.53s21-53.93 14.42-83.6c-6.24-28.09-23.21-47.7-50.04-58.23zm12.85 133.06c-7.09 19.73-19.94 33.65-41.59 36.61-29.05 4-54.81-9.47-69.08-35.53-11.29-20.62-14.87-42.77-12.5-66.07a134 134 0 0 1 3.67-22.12c11.41-41.53 51.58-49.49 80.81-36.61 18 7.92 29.81 21.85 37 39.87a103.72 103.72 0 0 1 7.44 43.67c.48 14.01-1.11 27.36-5.74 40.17zm1971.82 42.14c-21.93-2.84-38.4-16.18-55.33-28.68-3.77-2.79-4.05-5.59-.8-8.91a20.5 20.5 0 0 0 2.21-2.85c8.6-12.58 14.62-26.27 16.93-41.37 1.61-10.54-.63-13-11-13.81-5.69-.45-11.36-1.08-17-1.44a73.37 73.37 0 0 0-9 .13 2.29 2.29 0 0 0-2.29 2.29c0 1.39 1 2.05 2.32 2.25.89.14 1.81.11 2.68.3 9.14 2 13 6.38 12.84 15.58a65.93 65.93 0 0 1-8.53 31c-2.57 4.69-3.42 4.9-7.29 1.37-22-20-43.36-40.79-62.08-64-7-8.68-13.09-18.05-15.22-29.33-1.81-9.61-.51-18.53 6.17-26.19 8-9.18 18.57-9.62 29.09-7.35 10.9 2.35 19 9 21.88 20.41 1 3.76 1.29 7.68 2 11.5a1.65 1.65 0 0 0 1.9 1.46 2.18 2.18 0 0 0 1.48-.8 11.77 11.77 0 0 0 1.45-4.19c.32-8.71 2.42-17.26 2.14-26-.25-7.48-.73-8.46-8-10.89-6.32-2.11-12.88-2.73-19.49-3.27-15.35-1.23-30.06.81-43.28 9-14 8.67-22 20.94-21.32 38.08a52.64 52.64 0 0 0 8.37 26.28c3.27 5.23 3.18 5.4-2.09 9a84.43 84.43 0 0 0-24.92 25.61c-18.1 29.19-5.83 64.82 26.31 77 12.41 4.71 25.13 5.53 38.12 5.12 17.06-.53 32.4-5.74 45.69-16.66 5.84-4.8 5.92-4.8 12.18-.22 9.88 7.23 20.53 12.44 33 13.14 4.8.27 9.58 1.07 14.37 1 9.49-.11 19.15 1.53 28.72-1.71-.57-2.28-1.28-2.73-2.21-2.85zm-93.08-19.72a54.58 54.58 0 0 1-12.54 7c-22.88 9.05-42.33 5.82-57.14-9.67-8.08-8.44-12.88-22.09-12.84-38.75a45.24 45.24 0 0 1 12.91-30.24c2.46-2.46 4.24-2.48 6.49.44 17.8 23.14 39.06 43 60.13 63 1.09 1 2.17 2.07 3.27 3.09 1.93 1.85 2.01 3.42-.28 5.13zM4220.44 485.2c-25.09-11.36-51.1-11.94-77.43-4.67-12.08 3.33-23 9.11-31.92 17.87-21.33 20.91-29.36 46.46-23.43 75.62 5.59 27.48 21.58 47.2 47.94 57.73a94.56 94.56 0 0 0 38.42 6.54c5.53.55 12.37-.41 19.15-1.79 19.68-4 36.81-12.51 49.88-28.28 15.69-18.94 21-41 18.56-64.89-2.79-26.8-16.3-46.87-41.17-58.13zm.25 119.24c-7.65 14-23.69 23.86-44.75 22.15-32.62-2.65-51.37-28.32-56.62-56.45a110.67 110.67 0 0 1 0-40.24c7.25-40.34 43.07-49.83 71.51-38.17 20.71 8.49 31.18 25.31 36.73 46 2.13 7.93 2.26 16 2.23 25.59.47 13.48-1.79 27.78-9.1 41.12zm2898.25-274.97c29-5 51.06-19.73 63.8-47.2 6.55-14.13 7.93-28.88 6.89-44-1.81-26.2-13.79-46.2-37.29-58.68-15.21-8.08-31.56-11.22-48.69-10.39-4.21 0-8.43-.29-12.61.05-15.85 1.28-30.73 5.8-43.66 15.21-23.09 16.81-34.05 39.84-33 68.29 1.14 31.09 15.21 54.48 43.17 68.7 19.39 9.87 40.24 11.7 61.39 8.02zm-69.45-115c10.31-35 45-40.35 68.85-30.53 22.26 9.18 33.53 27.32 38.27 50a103.39 103.39 0 0 1-1.82 49c-4.75 17.26-14.89 29.9-33 34.91-4.15 1.15-8.29 1.17-12 1.29-28.29 0-49.81-16.1-59.26-44.47a98.49 98.49 0 0 1-1.04-60.16zM5028.1 327.86c1.32-.12 2.39-.82 2.26-2.17a2.76 2.76 0 0 0-1.7-1.84 32.8 32.8 0 0 0-5.3-.87c-8.84-1-11.57-3.5-12.42-12.28-.81-8.36-1.63-16.71-1.74-25.16-.23-16.82.33-33.66-1.45-50.45-.61-5.8-.1-11.72-.1-18.27 3.26 1.2 4.69 3.15 6.27 4.82 6.4 6.77 12.66 13.67 19.11 20.39 26 27.13 53.87 52.4 80.66 78.76 2.35 2.31 5 4.35 7.45 6.54s5.17 3.51 8.24 2.27 2.49-4.46 2.56-7.1c.49-16.81 1.1-33.63 1.36-50.45.37-24.05.52-48.11.61-72.16a85.4 85.4 0 0 1 1.45-14.32c1.09-6.27 3.11-8.2 9.23-9.27 1.76-.31 3.61-.27 5.32-.73a2.53 2.53 0 0 0 1.38-2 2.75 2.75 0 0 0-1.65-1.83 10.62 10.62 0 0 0-3.54-.43h-46c-2 0-4.27-.09-5.1 2.55 1.61 3.17 4.64 2.12 7.18 2.34 9.7.84 12.56 3.57 13.4 13.4.31 3.59.16 7.21.26 10.82.39 13.81.31 27.61 1.19 41.44.92 14.31.2 28.73.2 44-4.09-1.94-6-4.71-8.3-7q-51.06-51.62-102.05-103.3c-2.31-2.34-4.45-4.91-7.42-6.52-3.22-1.74-5.24-.52-6.11 2.68a22.54 22.54 0 0 0-.35 5.28q-.83 43.72-1.62 87.43c-.21 12.93-.28 25.86-.27 38.79a64.43 64.43 0 0 1-1.48 12.49c-.88 4.47-3.49 6.72-8 7.11-2.66.23-5.49-.34-7.93 1.13a3.23 3.23 0 0 0-1.36 2c-.15 1 .83 1.57 1.69 1.74a19.27 19.27 0 0 0 3.59.25h46.9c1.19.06 2.39.06 3.58-.08zm1968.98 151.62c-6.62 0-13.25-.3-19.84 0-5.82.29-12-1.75-17.93 1.78 2.5 2.7 5.06 1.79 7.37 2 10.2 1 13.24 4 13.65 14.11.44 10.8.78 21.61 1.26 32.41.83 18.92.62 37.88.75 56.83 0 1.88 1 4.2-1.43 5.68-8.82-8.61-17.71-17.05-26.34-25.75-28.4-28.59-57.28-56.7-85-86-2.42-2.56-5-6.11-9.1-4.1-3.5 1.71-2.84 5.66-2.81 8.92.4 38.79-1.72 77.54-1.85 116.32 0 4.21 0 8.42-.13 12.63-.36 13.34-1.22 14.31-14.47 16.79a6.21 6.21 0 0 0-2.54.74 1.6 1.6 0 0 0 .15 2.87 6.45 6.45 0 0 0 3.39.82 345.37 345.37 0 0 1 48.64.21c2.19.18 4.77-.19 5.22-3a4.18 4.18 0 0 0-3.54-1.6c-11.94-.6-16.38-2.31-17.19-17.77-.71-13.5-1.21-27-1.59-40.52-.33-11.42-.51-22.85-.44-34.28 0-4.38-2.18-8.72-.1-14.33a34.62 34.62 0 0 1 3.72 2.81c7 7.41 14 14.93 21 22.31 27.07 28.23 56 54.52 83.93 81.9a35.94 35.94 0 0 0 6.33 5c5.09 3.11 7.88 1.72 8.34-4.24.58-7.48 1.06-15 1.17-22.48.32-21.35.3-42.71.67-64.06.27-16.22.84-32.44 1.44-48.65.36-9.66 2.53-11.95 12-13.63 1.65-.29 3.75.1 3.65-3.79zm-2046.73.01c-6.61-.1-13.23-.28-19.83 0-5.92.27-12.13-1.57-18 1.25 1.29 2.95 3.31 2.51 5 2.48 11.23-.22 15.61 4.63 16 16.93.15 5.11.1 10.22.2 15.33.2 9.91 0 19.85.77 29.73 1.18 15.58.49 31.15 1.11 47.72-4.7-1.72-6.52-4.6-8.78-6.88q-51.55-51.74-103-103.55a43 43 0 0 0-6-5.47c-3.15-2.15-5.79-1-6.72 2.77a20.26 20.26 0 0 0-.33 4.48c-.54 27.93-1.12 55.86-1.58 83.79-.23 13.82-.24 27.65-.31 41.48a51.83 51.83 0 0 1-1.19 11.62c-1.76 7.55-2.92 8.67-10.63 9.89-2.43.38-5.55-1.14-7.13 2.26 2.12 3.24 5.16 2.13 8.08 2 14.12-.61 28.24-.61 42.35.07 2.89.14 7.21 1.78 7.59-2s-4.18-2-6.54-2.41c-10-1.84-11.51-3.58-12.88-14.1a177.87 177.87 0 0 1-1.44-18.83c-.41-17.71.26-35.44-1.51-53.13-.64-6.4-.1-12.93-.1-20.88 6.17 3.48 8.87 8.3 12.45 12 31.67 32.94 64.64 64.55 97.75 96a27.63 27.63 0 0 0 3.34 3c2.44 1.65 5 4 8.15 2.28 2.84-1.49 2.53-4.53 2.57-7.23q.32-26.12 1.24-52.23c.84-23.72.61-47.48.76-71.22a68.11 68.11 0 0 1 1.19-12.53c1.46-7.56 3.19-9.4 10.93-10.85 1.87-.35 4.2.31 5.45-3.33-6.69-1.13-12.86-.36-18.96-.44zm1796.09-151.61a4.55 4.55 0 0 0 .86-.21 1.78 1.78 0 0 0 1.4-2 1.91 1.91 0 0 0-.91-1.41 9.63 9.63 0 0 0-3.34-1.18c-10-.82-17.17-6.5-23.92-13.18-15.42-15.26-28.74-32.32-42.22-49.23-5-6.22-4.91-6.58 1.19-11.43a76.06 76.06 0 0 0 17.56-20.37c8.12-13.34 7.17-28.89-2.06-41.46-7-9.48-17.18-12.59-28-14.57-14.92-2.73-30-1.2-45-1.61h-32.47a38.61 38.61 0 0 0-6.26.44 1.95 1.95 0 0 0-.36 3.8 11.88 11.88 0 0 0 3.49.64c12.93 1.51 14.88 3.51 14.9 16.32q.06 54.57-.07 109.14a57.67 57.67 0 0 1-.33 9c-1.16 7.22-2.31 13.18-12 12.5a7.1 7.1 0 0 0-2.64.47c-1.16.39-2.24 1.1-2.06 2.49s1.47 1.74 2.69 1.84 2.4.1 3.6.1c17.74 0 35.48.07 53.22-.06 2.42 0 6.63 1.39 6.67-2.26 0-3.22-4.12-2.49-6.71-2.7-11.1-.9-13.4-3.14-13.77-14.43-.34-10.52-.47-21-.49-31.57 0-14.37-1.87-15.07 14-12.78a6.22 6.22 0 0 0 1.8 0c6-.91 9.19 2.4 12.36 7q13.14 18.84 27.08 37.12c6.45 8.44 14 16 24.89 18.36 12.22 2.74 24.61 1.09 36.9 1.23zm-96.56-75.26c-3.29-.2-6.61 0-9.91-.19-10.39-.47-11.36-1.45-11.43-11.56v-23.43c0-8.71-.08-17.42 0-26.13.09-6.82 1.16-8.36 7.33-9 19.3-1.86 37.65 6.95 39.35 31.91.62 9.1 0 18-5 26.11-4.59 7.67-10.7 12.87-20.34 12.29zM4451.15 631.11c-10.56-1.71-18.93-7.27-26.2-14.81-15-15.61-28.1-32.89-42.07-49.4-3-3.59-2.37-6.09 1.21-9a86.14 86.14 0 0 0 17.06-18.51c9.07-13.18 9.73-29.24 1.76-41.54-8.12-12.54-20.58-17.6-34.58-18-25.54-.73-51.12-.39-76.68-.42-1.54 0-3.9-.52-3.68 2.36.84 1.14 2 1.27 3.22 1.41 14 1.63 16.1 3.73 16.11 17.25q0 54.59-.09 109.18a67.37 67.37 0 0 1-1.31 13.41c-1 5-3.92 7.11-8.49 7.92-2.46.44-5.39-.63-7.1 1.37-.1 1.75.57 2.62 1.39 2.63 20.38.4 40.77-.78 61.14.68 1.41.1 3-.57 4.23-3.07-3.61-2.42-7.37-1.14-10.74-1.84-7-1.44-9.73-3.69-10.13-10.59-.84-14.39-1.1-28.82-1.72-43.23-.19-4.42 1.89-5.93 6-5.62a28.52 28.52 0 0 0 6.31 0c9-1.37 14.29 3 19 10.3 7.2 11.07 15.19 21.65 23.28 32.1 5.51 7.11 11.64 13.65 19.92 18 6.2 3.24 12.79 2.94 19.29 3.81 7.48 1 15 .49 22.52.31 1.64 0 3.93-.29 3.82-2.76-.11-1.9-2.06-1.71-3.47-1.94zm-98.09-70.42c-3.57-.27-7.14-.08-10.7-1-7.64-1.87-7.78-1.76-7.86-9.34-.1-8.69 0-17.38 0-26.07 0-9-.13-18 .06-27 .12-5.93 1-6.67 6.79-7a98.64 98.64 0 0 1 9.88-.07c11.37.43 20.38 5.34 25.59 15.48 6.86 13.35 6.66 27.43.2 40.7-4.58 9.41-12.6 15.14-23.96 14.3zm-133.99-384.85a22 22 0 0 0 2.67.32c13.12 1.57 15.06 3.48 15.08 16.12q.07 55-.1 109.92a47.36 47.36 0 0 1-.94 10.73c-2 8.55-2 8.64-11 10.13a13.4 13.4 0 0 0-3.47.78 2.88 2.88 0 0 0-1.57 1.94 2.6 2.6 0 0 0 1.55 1.86 11.12 11.12 0 0 0 3.55.35q34.23.07 68.47.11c8.3 0 16-2.42 23.36-6 29.76-14.45 33.6-51.14 7.7-71.78-6.08-4.84-12.91-8.3-20.81-11.92a70.78 70.78 0 0 0 13.34-11.8c18.2-21.17 10-46.92-17.05-53.22a75.69 75.69 0 0 0-17.83-2.2c-18.92.16-37.84.05-56.76.08a41.52 41.52 0 0 0-6.27.37 2.74 2.74 0 0 0-1.83 1.71c-.32 1.34.66 2.19 1.91 2.5zm93.66 108.86a88.76 88.76 0 0 1 .09 9c-.31 14.54-11.61 26.51-30.05 24.7a49.06 49.06 0 0 1-8-1.5c-6.44-1.74-9.1-4.74-9.32-11.48-.28-8.71-.07-17.44-.07-26.16h-.2c0-8.42-.1-16.85 0-25.27.1-6.76.4-6.93 7.34-6.93 20.48 0 38.48 16.84 40.21 37.64zm-47.51-94.7c0-8.13.24-8 7.78-8.48 18.16-1.12 26.14 11.29 28.6 24.93a31.9 31.9 0 0 1-.47 14.27c-3.33 11.84-11 17-25.12 17h-1.8c-8.88-.15-9-.17-9-9.1q-.08-19.31.01-38.62zm-645.31 127.39c20.37 11.13 42.48 14.24 69.08 14.25 8.87.31 21.4-1 33.73-3.86 4.33-1 9.25-2 11.05-6.82 4.14-11.06 4.94-22.8 6.3-34.41a2.66 2.66 0 0 0-2.41-3.19c-1.34-.11-2.13.91-2.53 2.12-.66 2-1.22 4-1.94 6-4.3 11.85-12.37 19.85-24.66 23-34 8.59-66.24-1.11-86.35-31.12-20.93-31.24-21-65-6.05-98.76 6.47-14.64 18.32-24.38 34.12-28.6 21.07-5.63 41.76-4.21 61.63 4.6 11.44 5.07 18.37 14.22 19.74 27.06.3 2.77-.76 7.25 3.11 7.2 3.5-.05 2.85-4.64 3.31-7.4a57 57 0 0 0 .24-8.1c.15-7.51.07-15 .49-22.54.5-8.86.7-8.94-7.68-10.47-25.46-4.66-51-8-76.94-4.23-28.12 4.12-51.38 16.13-67.33 40.35-11.68 17.74-15.58 37.44-14.44 58.42 1.86 34.19 17.24 59.95 47.53 76.5zM5224 317c15.23 8.41 31.76 12.07 49.1 13.36 19.1 1.42 37.73-.1 55.95-5.91 9.68-3.09 10.19-4.09 10.22-14.06 0-14.13 0-28.25.14-42.38.12-9.26 1.35-10.52 10.32-12.73 2.1-.52 4.67-.6 5.47-3.55-9.26-2.12-59.66-1.66-65.17.53 1.47 3 4.33 2.86 6.88 3 10.89.49 13.41 5.49 13.51 15.11q.19 18.48 0 37c-.07 7.35-2.63 10.45-9.94 11.34a73.94 73.94 0 0 1-15.3.24c-26.35-2.32-46.93-13.79-59-38.18-10.12-20.38-10.66-41.86-5.17-63.26 4.57-17.82 16.86-29.92 34.56-34.88 18.1-5.08 36.31-3.63 53.77 3.75 11.33 4.79 20.35 11.74 21.61 25.25.15 1.57.92 3.24 2.46 3.42 2.28.27 2.86-1.85 3.27-3.58a21.88 21.88 0 0 0 .42-4.47c.2-8.41.4-16.83.53-25.24.1-6.4.06-6.47-6.75-7.8-22.5-4.39-45.23-6.37-68.09-4.52-20 1.61-38.15 8.5-52.85 22.5-18.12 17.25-25.29 38.93-23.81 63.64 1.69 27.19 13.77 48.14 37.87 61.42zm681.31 282.34c-3.17-.39-2.5 3.46-3.12 5.58-3.83 13-8.82 17-22.63 17.48-7.21.23-14.45.28-21.65-.07-12.47-.62-16.75-4.89-17-17.26-.29-14.13-.12-28.27-.14-42.41q0-7.67.07-15.34c0-2.41 1-4.32 3.7-4 11.08 1.4 22.27.1 33.33 1.33 7 .78 10.73 4.69 12 11.54.37 2.06.41 4.18.74 6.25.07.44.74.87 1.23 1.13 1 .55 1.71-.23 2.24-.91 1.4-1.8 1.13-4 1.18-6.07a172.31 172.31 0 0 1 1.52-20.66c.52-3.52 1.74-7.5-1-11.52-4.57 3.24-8.69 6-14.17 6-11.43-.15-22.86.23-34.29.15-6.15 0-6.41-.39-6.51-6.9-.14-9.62 0-19.25 0-28.88v-24.37c0-3 .68-5.46 4.39-5.36 11.1.3 22.27-.85 33.29 1.15 11.51 2.09 13.39 4.14 15.2 15.46.27 1.69-.21 4.2 2.24 4.16 2.69 0 2.81-2.65 3-4.73.7-8.38 1.39-16.76 2-25.15.15-2 .81-4.22-1-5.69-29.52 3.4-58.92 2.58-88.33 1.26-7.5-.34-15-.13-22.53 0-1.39 0-3 .81-2.72 2.79.22 1.5 1.62 1.6 2.77 1.75s2.4.06 3.6.14c12.47.77 16.31 4.34 16.33 16.42.08 45.72 0 91.44-.05 137.17a64.8 64.8 0 0 1-1.62 12.48c-.94 4.82-3.86 7-8.38 8.21-3 .82-6.57-.29-10.1 2.74 3.49 2.86 6.73 2.86 10.34 2.51a258.25 258.25 0 0 1 45-.33c16.84 1.3 33.65.9 50.48 1.06 6.83.06 8-1.47 9.91-8 2.11-7.31 1.3-14.95 2.9-22.32.47-2.39 1.42-6.35-2.22-6.79zM4751.48 479.49c-6.61-.13-13.24-.28-19.85 0-5.94.27-12.16-1.57-18.11 1.23a10 10 0 0 0 .72 1.44c1.14 1.3 2.75.91 4.19 1.13 11.46 1.79 14.28 4.42 14.38 15.62.25 26.76.43 53.54 0 80.3-.17 9.82-1.24 19.88-6.64 28.67-8.67 14.12-21.92 18.67-37.72 18.07-16.21-.61-29.48-10.14-34.76-25.46a64.51 64.51 0 0 1-3.76-21.2c0-26.77-.09-53.53 0-80.3.06-12.27.86-13 13.5-15.88a9.83 9.83 0 0 0 2.25-1.18c-.27-2.22-1.3-2.37-2.1-2.37q-30.67-.05-61.34 0a1.78 1.78 0 0 0-1.94 2.24c1 1.4 2.6 1.29 4.08 1.46 13.19 1.47 15.16 3.55 15.24 17 .11 19.25 0 38.5 0 57.74a241.41 241.41 0 0 0 1.48 29.67c3.16 25.67 18.85 43.35 43.77 48.62a103.27 103.27 0 0 0 32.3 1.69c26.61-2.82 46.87-17.71 53-44a97.05 97.05 0 0 0 2.79-22.3c-.06-21.05.1-42.11.12-63.16 0-4.82.7-9.59 1-14.36.42-7.64 2.42-9.05 10.58-10.8 2-.43 4.94.68 5.76-3.23-6.49-1.48-12.75-.52-18.94-.64zm1502.4-335.44c-.9-.06-1.8 0-2.7 0-13.82 0-27.64-.05-41.46 0-2.23 0-4.85-.9-6.45 1.36-.3 1.73.68 2.38 1.73 3 6.76 3.8 7.93 6.35 5.38 13.48a84 84 0 0 1-5.28 11.44q-10.69 19.82-21.63 39.51c-3.57 6.41-6.24 13.39-10.94 19a6 6 0 0 1-3.62-3.37q-18.56-33-37-66c-1.7-3.06-4.11-6.17-3.15-10.05.88-3.57 5.09-2.79 7.05-5 .34-.38.33-1.06.48-1.6a2.75 2.75 0 0 0-2.88-1.67q-27.94-.05-55.89-.06c-.6 0-1.2.08-1.8.12-1.33.09-2.46.79-2.51 2.06a2.57 2.57 0 0 0 2.31 2.4c5.06.93 10 2.07 13.95 5.71a77.54 77.54 0 0 1 13.55 15.6c14 22.38 28.11 44.76 41.1 67.78 3.73 6.61 6.18 13.68 6.16 21.39-.05 16.53 0 33.05-.3 49.58-.21 10.49-2.87 13.07-13.08 14.35-2.29.29-5.83-.15-5.65 2.85.18 3.17 3.79 2.1 6 2.11 19.53.08 39.07.22 58.59-.12 3.65-.06 10.14 2.82 10.51-2.44.26-3.64-6.55-2.22-10.23-2.55-10-.9-13.41-4-13.76-14q-.54-15.31-.4-30.65c.35-34.1-3.15-27.71 16.53-62 10.17-17.7 20.33-35.43 32.25-52.05 5.77-8 12.52-14.64 23.2-15.25 1.83-.1 4.07-.42 4-2.64s-2.3-2.17-4.06-2.29zM5786.7 283.14a2.53 2.53 0 0 0-1.8-1.64 2.68 2.68 0 0 0-2.16 1.19 35.88 35.88 0 0 0-1.39 4.25c-3.34 9.14-9.73 15-19.15 17.44a58.18 58.18 0 0 1-14.22 2.16c-13.53 0-27.06.36-40.59.43-2.58 0-5.35.81-8.55-1.46 2.62-4.13 6.09-6.57 9.34-9.13a314 314 0 0 0 40.21-37.45c15-16.76 27-35.19 30.68-58.14 3.71-23.24-7.6-45-29-54.6a66.64 66.64 0 0 0-20-5 103.74 103.74 0 0 0-51.26 6.62c-5.12 2.06-7.27 5.24-7.11 11 .21 7.83 1.22 15.56 1.7 23.35.14 2.26-.67 5.82 2.32 6.07 4 .34 2.72-3.67 3.33-6 .38-1.45.79-2.9 1.17-4.35 5.66-21.5 20.88-27.26 39.79-24.76 12.85 1.7 22.5 12.88 25.68 28.13 4.87 23.31-.46 44.65-12.38 64.75-12.28 20.71-29.25 37.27-46.93 53.21-7.58 6.84-15.29 13.54-22.89 20.37-1.58 1.42-3 3.2-2 5.52s3.06 2.67 5.27 2.68h73.07c9 0 18.05.15 27.06-.16 9.26-.32 12.42-2.92 14.5-11.73 2-8.47 3.7-17 5.31-25.56a26.87 26.87 0 0 0 0-7.19zm282 337.55q-21.81-33.67-43.63-67.32c-2.3-3.53-2.06-6.42.47-9.81 12.38-16.63 24.71-33.29 36.74-50.18a23 23 0 0 1 15.38-9.94c1.8-.32 4.39.34 4.65-2.77-9.51-2.25-44.16-1.66-49 .8.88 2.2 2.93 1.52 4.58 1.88 7.29 1.61 8.84 4.18 4.82 10.61-9 14.46-18.68 28.55-28.67 43.7-6.34-10.54-12.06-20-17.7-29.47-2.92-4.91-5.86-9.81-8.48-14.88-3.58-6.9-3.08-7.9 4.16-10 1.59-.46 3.87 0 3.38-2.88-9.41-1.87-57.33-1.34-62.89.71.41 2.59 2.62 2 4.2 2.26 9.88 1.53 17 6.85 22.23 15.25q17.46 27.88 35.33 55.51c2.09 3.25 2 5.58-.38 8.81q-21.12 28.1-41.72 56.58c-4.71 6.54-10.59 10.45-18.5 11.47-1.95.25-5-.37-4.78 2.58.2 2.39 3 2.41 5.2 2.36.6 0 1.19-.13 1.79-.19a162.94 162.94 0 0 1 36.86 0c3.22.38 6.32.39 8.41-2.33-1-2.43-2.67-2.13-4.08-2.43-6.33-1.35-7.46-3.4-4.93-9.26a46 46 0 0 1 3.51-6.3c5.48-8.62 10.91-17.28 16.57-25.78 4-5.93 7.31-12.31 12.66-18.25L6037 624.2c1.19 1.95 1.51 3.8-.17 5.76-3.89 4.55-.21 4.82 3 4.91 11.71.32 23.43.13 35.12 1.15a68.06 68.06 0 0 0 11.7-.19c1.86-.16 4.43-.26 4.32-3.36-2.18-2.21-5.15-1.23-7.69-1.94-5.99-1.7-11.11-4.53-14.58-9.84zm-135.45-368.76c-3.15-18.59-15.32-30.85-30.75-40.19a125 125 0 0 0-40.19-15.41c-7-1.42-7.15-1.51-6.68-8.91.38-6 1.33-11.92 1.86-17.9.28-3.13 2.07-4 4.82-4 15.33.06 30.68-.27 46 .28 9.59.35 11.94 3 14.43 12.55.4 1.55.87 3 2.68 2.95 1.23-.06 2-1.19 2.25-2.48 2-9.73 2.41-19.64 3.43-29.48.44-4.24-1.6-5.68-5.93-5.58-11.72.28-23.44.1-35.16.1v.51c-11.43 0-22.85-.06-34.28 0-8.5.06-9.71 1.22-10.44 9.84-.46 5.39-.6 10.8-1 16.19-1 12.86-2.28 25.71-3.07 38.58-.44 7.12.08 7.31 7.07 8.86 12.43 2.77 24.18 7.16 34.51 14.83 18.3 13.58 26.5 31.15 22 54.1-5.77 29.2-33 37.13-53.62 30-7.61-2.64-12.55-7.91-15.21-15.5a42.43 42.43 0 0 1-2.14-14.18c0-1.51-.25-3.31-2-3.59-2.46-.39-2.69 1.74-3.06 3.48-1.88 8.91-1.51 17.94-1.48 26.95 0 11.08 1.76 13.62 12.91 15.87 23.4 4.71 45.89 1.35 65.56-12.12 22.74-15.68 32.16-38.19 27.49-65.75zm315.34 345.36c-1.81-.49-2.57.9-3.07 2.43-.56 1.71-1.15 3.42-1.85 5.08-4.27 10.15-11.68 16.74-22.56 18.74-5 .92-10.17.8-15.27 1.11-27.35 1.65-47.88-10.21-61.41-33.22-13.34-22.71-12.87-47.46-4.52-71.52 6.78-19.53 21.65-30.52 42.93-31.62 2.1-.11 4.18-.6 6.27-.62 13-.16 25.79.5 37.69 6.57 8.62 4.39 14 11.16 15.5 20.8.42 2.6.33 5.42 3 7.4a3.87 3.87 0 0 0 2.65-3.13c1.7-11.34.78-22.79 1.33-34.19.13-2.62-2-3.27-4.27-3.68-24-4.34-48-7.24-72.49-3.84-44.38 6.15-74.08 41.61-69.8 86.18 3 31.55 19.41 53 47.94 65.42 22.08 9.61 45.53 10.3 69.07 8.47 5.9-.46 11.93-1 17.75-2.9 5.13-1.65 8.27-4.53 9.17-9.89 1.23-7.4 2.58-14.78 3.86-22.16a9.38 9.38 0 0 0 .08-1.8c0-1.57-.34-3.18-2-3.63zm942.31.08c-3.4-.62-3 3.07-3.72 5.1-5.13 13.9-14.88 21.41-29.83 21.84-4.81.14-9.61.33-14.42.32-22.88 0-40.94-10.17-53.13-28.81-17-25.95-16.78-54-4.71-81.77 5.63-12.94 16.49-21.16 30.68-24.3a94.71 94.71 0 0 1 45.39 1.12 34.46 34.46 0 0 1 18.72 11.86c3.92 5 5 10.79 6 16.73.2 1.17.38 2.49 1.81 2.72 1.95.31 2.55-1.27 3-2.66a13.68 13.68 0 0 0 .46-3.55c.44-9.59-.49-19.23 1.45-28.76.63-3.11-.94-5.09-4.25-5.69-24.29-4.37-48.53-7.41-73.34-3.91-42.88 6-71.37 39-70 80.93 1 32.06 18.75 58.73 48.36 70.81 16.68 6.8 34.09 9.19 53 9a126.69 126.69 0 0 0 33.78-3.7c4.79-1.22 8.06-4 9-9 1.38-7.37 2.7-14.75 3.78-22.17.3-2.19 1.07-5.54-2.03-6.11zM3880.74 328.18c3.1-.06 5.26-1.63 6-4.55 1.94-8.17 3.44-16.43 3.14-24.89a2.19 2.19 0 0 0-2.1-2.39 2.89 2.89 0 0 0-2 1.53 36.24 36.24 0 0 0-1.34 4.28c-3.26 9.83-7.11 13-17.66 13.47-7.19.35-14.43.38-21.63 0-12.17-.58-16.83-4.31-17.49-16.06-.82-14.69-.3-29.44-.34-44.17 0-3.2 1.43-5.18 4.84-5.1 9.9.22 19.86-.7 29.69.92 9.31 1.53 10.67 3.15 12.28 12.57.24 1.41-.09 3.38 1.83 3.59 2.42.27 3-1.94 2.95-3.61-.2-9.35 2-18.5 2.2-27.81 0-1.12 0-2.47-2.25-2.89-3.4 1.93-6.88 4.88-11.7 4.85-11.42-.06-22.85.06-34.27.3-4.39.09-5.71-2-5.67-6q.18-21.19 0-42.39c0-4.77 2.19-6.19 6.63-6.22a280.46 280.46 0 0 1 32.38 1.71c5 .56 8.27 3.38 10 7.9 1 2.46 1.48 5.1 2.63 9.18 3.46-3.56 3.73-6.74 3.89-10 .29-5.69.23-11.36 1.52-17 1.08-4.76.32-4.95-5.28-4.58-10.48.7-21 2-31.47 1.47-20.13-1.11-40.26-.35-60.38-1a46.18 46.18 0 0 0-6.3.24 2.2 2.2 0 0 0-2.22 2.29c.11 1.33 1.2 2 2.49 2.14.89.12 1.8.13 2.69.22 12.47 1.32 14.54 3.38 14.56 15.57q.06 55.92-.09 111.84a62.15 62.15 0 0 1-.29 7.21c-1.09 9.18-2.61 10.68-12.12 12.31a13.42 13.42 0 0 0-2.63.54c-1.12.44-2.1 1.13-1.85 2.62a1.91 1.91 0 0 0 1.95 1.54c1.79.18 3.6.21 5.4.22l84.78.26c2.42-.01 4.82-.07 7.23-.11zm18 161.21a41.49 41.49 0 0 0-26.65-9.66c-25.55-.4-51.1-.27-76.66-.29-1.61 0-3.85-.43-3.83 2.29a3.93 3.93 0 0 0 3.19 1.5c14.77 1.75 16.18 3.19 16.2 17.9q.06 54.11-.09 108.23a75 75 0 0 1-.49 10.8c-1.2 8.12-3.25 9.86-11.67 11-1.86.25-4.46-.75-4.8 2.44a3.19 3.19 0 0 0 2.92 1.93c20.1-.69 40.19-1.22 60.28.38a10 10 0 0 0 3.46-.87c.9-.28 1.44-.94 1.58-2.69-3.29-2-6.72-.9-9.92-1.42-8.12-1.31-9.78-3-11.35-11.37-2.18-11.64-1.15-23.38-1.23-35.07-.18-28.86-.09-57.72 0-86.58 0-7.89 1-8.81 8.69-9.2A32.61 32.61 0 0 1 3868 494c14.25 9.06 18.74 26.78 14 44.1-3.57 12.93-12.76 20.7-26.39 22.64-2.19.31-5.92-.76-5.85 2.42.09 3.46 3.9 2.67 6.45 2.92 5.49.52 10.87-.53 16-1.91 18.38-4.93 31.54-15.82 37-34.59 4.41-15.4 2.26-29.38-10.47-40.19zm2667.12-163.8a2 2 0 0 0-1-1.39 7.56 7.56 0 0 0-3.35-1.07c-10.57.68-15.59-6.33-19.81-14.3-2.39-4.51-4.61-9.13-6.62-13.83q-24.6-57.62-49.11-115.27a60.3 60.3 0 0 0-4.84-9.65c-2.18-3.3-5-3.25-7.26-.07a33.42 33.42 0 0 0-3.32 6.38c-4.57 10.47-9.07 21-13.59 31.45q-21.59 50.08-43.15 100.18c-3.81 8.89-8.87 15.77-19.89 15.11-1.78-.11-4 .41-3.66 2.81s2.64 2 4.37 2c4.81 0 9.62-.12 14.44-.11 10.23 0 20.45.11 30.68.09 1.4 0 3.36.25 3.65-1.7.37-2.49-1.84-2.62-3.52-3-.58-.14-1.2-.07-1.79-.16-8.56-1.32-9.47-2.68-7-11.26 3.06-10.72 8.11-20.69 12-31.1 1.54-4.14 4.39-5.09 8.42-5 13.23.15 26.47.22 39.7 0 5.11-.1 7.5 2.16 9.16 6.72 3.71 10.16 7.77 20.19 11.89 30.19 2 4.79 3.66 9.36-.88 13.14a3.48 3.48 0 0 0 3.51 2q23 .18 46 .25a16.79 16.79 0 0 0 3.55-.44 1.86 1.86 0 0 0 1.42-1.97zM6449.4 264l21-52.77 2.22.22 20.15 52.55zm-84.99 64.23c7.68-.06 8.67-.8 10.18-8.43 1.11-5.58 1.65-11.27 2.28-16.93.26-2.36.63-5.75-2-6.3-3.47-.73-2.65 3.09-3.28 5.08-3.17 10-7 13.24-17.32 14a143.26 143.26 0 0 1-25.23-.16c-9.56-1-14.35-5.6-14.62-15.09-.43-15-.11-30.07-.17-45.1 0-3.28 1.22-5.08 4.72-5 9.61.24 19.28-.12 28.83.79 9.81.93 11.41 3 13.31 12.72.27 1.4-.12 3.38 1.77 3.65 2.47.35 2.87-1.94 3-3.59.82-9.56 1.49-19.13 2.13-28.71.05-.79-.3-1.82-2.29-2-3.26 1.74-6.68 4.81-11.52 4.78-11.42-.07-22.85.06-34.27.3-4.35.09-5.75-1.87-5.71-6q.18-21.65 0-43.3c0-3.85 1.55-5.35 5.37-5.34 11.13 0 22.24.11 33.28 1.73 5.55.82 9.26 3.71 10.81 9.41.58 2.13.06 4.9 3.32 6.85a23.84 23.84 0 0 0 2.84-10.88c.28-4.5.35-9 .87-13.48.75-6.54.88-6.6-5.58-6.22-11.39.66-22.78 2.26-34.2 1.37-19.22-1.5-38.46-.57-57.68-1.07-2.63-.07-7.18-1.61-7.27 2.53-.07 3.42 4.3 2 6.77 2.33 9.49 1.11 12.36 4.19 12.67 14 .07 2.1.05 4.21.05 6.31v93.82c0 6.31.07 12.64-.34 18.94-.68 10.39-2.26 11.95-12.5 13.85-.59.11-1.19.16-1.77.32-1.21.33-2.49 1-2.5 2.25 0 1.9 1.62 2.25 3.17 2.29 2.1.06 4.21 0 6.31 0l55 .12c10.53.09 21.05.25 31.57.16zM4031.29 481.74a63.33 63.33 0 0 0-17.79-2.33h-68.51c-2.22 0-4.79-.88-7 1.85 1.61 2.26 3.52 1.85 5.26 2 12.84 1.12 15.49 3.88 15.51 16.88 0 36.06-.05 72.11 0 108.17a74.72 74.72 0 0 1-1.69 15.18c-.83 4.06-3.36 6-7.18 7.11-2.72.77-6-.36-8.76 2.23 2 3 4.44 2.8 7.15 2.68 18-.82 36-1.23 54 .34 2.93.26 5.87.29 7.9-2.61-1.83-3-4.47-1.95-6.68-2.13-12.3-1-15.61-3.84-15.72-16.05-.34-39.66-.32-79.32-.32-119 0-6.27 1-7 7.51-7.39 13.6-.81 24.25 4.9 31.07 16.23 7.44 12.35 7.74 25.83 1.31 38.78-5.33 10.74-14.48 16.53-26.68 17.11-1.83.09-3.86.6-3.52 3 .24 1.68 2 2 3.55 2.13 23.22 1.44 50.92-10.53 56.77-39.66 4.41-21.72-4.47-38.26-26.18-44.52zM4172 328.22c3.88 0 5.91-1.91 6.91-5.69 2-7.62 1.8-15.47 2.77-23.2a2.67 2.67 0 0 0-2.47-3.1c-.33.09-.8.09-.87.26-.81 1.91-1.65 3.82-2.31 5.79-3.32 9.9-6.6 12.35-16.69 13.42a128.69 128.69 0 0 1-25.13-.16c-9.43-.85-14.28-4.86-14.61-13.92-.57-15.61-.2-31.24-.25-46.87 0-2.94 1.26-4.5 4.3-4.42 10.19.27 20.46-.73 30.57 1 8.72 1.49 10.35 3.41 11.9 12.1.29 1.64-.24 3.72 2.82 4.08 2.39-5.51 2.79-11.47 2.48-17.31s3.46-11.37.47-17.71c-4.46 2.54-7.91 5.51-12.77 5.47-11.42-.08-22.84.11-34.25.28-3.62.05-5.59-1.17-5.57-5.15q.13-22.09 0-44.17c0-3.88 1.61-5.3 5.4-5.28 11.12 0 22.23.06 33.25 1.77 5.49.85 9.44 3.55 10.54 9.51.41 2.22.37 4.83 2.76 6.2 2-.41 2.17-1.93 2.33-3.42.78-7.46 1.26-15 2.38-22.36.61-4-.88-4.7-4.29-4.48-9.58.63-19.11 1.94-28.76 1.7q-32-.8-63.95-1.22c-3.11 0-6.72-1.27-9.11 2.18 3.81 2.48 3.81 2.48 6.06 2.68 11.94 1.1 14.53 3.74 14.55 15.75q.07 54.54-.07 109.08a55.39 55.39 0 0 1-1 10.74c-1.87 9.49-1.75 9.51-11.68 11.36a8.58 8.58 0 0 0-2.6.63c-.72.4-1.61 1.15-1.72 1.87-.22 1.37.82 2.14 2.13 2.23 1.79.13 3.6.16 5.4.17l83.84.26c2.48-.01 4.88-.07 7.24-.07zm2637.65 276.12a2.74 2.74 0 0 0-2 1.4 33.14 33.14 0 0 0-1.11 4.35c-2 7.41-6.59 11.65-14.45 12.83-9.3 1.4-18.54 1.76-27.76 0-11.24-2.16-14.44-5.48-14.81-16.87-.46-14.12 0-28.27-.18-42.4-.05-4.72 2-6.2 6.52-6.33 8.15-.24 16.18 1 24.29 1.32 12.25.42 13.21 1.27 16.18 13.37.27 1.12.3 2.48 1.91 2.62s2.05-1.09 2.42-2.15a11.13 11.13 0 0 0 .55-3.54 138.7 138.7 0 0 1 1.8-20.62c.38-2.51 1.18-5.34-1.91-9.21-3.94 6.09-10 6.36-15.51 6.71-10.19.65-20.43.3-30.66.45-4.45.07-5.61-2.4-5.56-6.32.1-7.82 0-15.64 0-23.46v-19.85c0-2.71.79-4.88 4-4.85 11.72.11 23.47-.52 35.12 1 6.06.81 9.47 4.59 10.77 10.57.44 2-.4 4.89 2.34 5.88a4.94 4.94 0 0 0 2.62-3.93c1.49-8 .41-16.18 2.26-24.19.82-3.53-2.55-3.63-4.91-3-6.21 1.69-12.51 1.45-18.81 1.44-25-.05-49.92-.18-74.89-.15-2.35 0-5.37-1.14-7 1.89a8.31 8.31 0 0 0 .75 1c1.24 1.1 2.8.81 4.26 1 12 1.39 14.59 4.05 14.6 15.94q.06 55.94-.1 111.88a60.57 60.57 0 0 1-.44 9c-1.24 8.15-3.26 9.91-11.65 11-1.88.24-4.44-.71-4.9 2.54 2.29 2.69 5.21 2 8.25 1.87a446.93 446.93 0 0 1 52.24.24c12.28.84 24.64.44 37 .55 5 0 7.9-2.51 8.61-7.39 1-6.53 1.79-13.07 2.57-19.62a7.49 7.49 0 0 0-.49-3.51 2.62 2.62 0 0 0-1.92-1.46zm-418.44.16c-3.53-.92-3.11 2.94-3.62 4.91-2.14 8.3-7.43 12.77-15.8 13.8-9.58 1.17-19.16 1.54-28.66-.7-8.85-2.09-12.43-6-12.59-15-.27-14.73 0-29.47-.14-44.2 0-4.1 1.24-5.9 5.64-6 10.25-.25 20.39 1.14 30.58 1.72 6.24.35 9 3.39 10.43 9.45.51 2.12-.27 4.72 2.41 6.76 2.41-3.14 2.54-6.43 2.81-9.55.54-6.28.26-12.62 1.83-18.81.43-1.71.79-3.89-.66-5.15-2.17-1.89-3.83.33-5.47 1.42-1.84 1.22-3.91 1.39-6 1.8-12.23 2.41-24.59.84-36.88 1.28-3.53.13-4.7-1.76-4.69-5q.08-22.1 0-44.21c0-3.83 1.67-5.41 5.43-5.33 9.62.22 19.25.1 28.86.54 10.28.46 12.44 2.45 15.64 12.7.34 1.1.88 2.14 1.43 3.47 2.9-.95 2.59-2.65 3-4 2.12-7 .83-14.37 2.31-21.47 1-4.58-.09-5.81-4.49-4.73-8.94 2.18-18 1.35-26.93 1.38-22 .08-43.91-.14-65.86-.12-3 0-6.36-1-8.91 1.55 1.26 2.7 3.24 2.14 4.94 2.29 13.08 1.19 15.72 3.85 15.73 16.69q.06 54.13-.06 108.26a54.9 54.9 0 0 1-1.33 13.41c-1.86 7.43-3 8.48-10.88 9.5-1.86.24-4.44-.76-4.89 2.48 2.29 2.92 5.33 1.72 8.27 1.67 18.32-.3 36.62-.9 55 .6 11.36.93 22.84.39 34.26.41 4.51 0 7.38-2.2 8.12-6.8 1-6.22 2-12.43 2.9-18.67.31-2.32 1.06-5.62-1.73-6.35zM4692 200.32a6.11 6.11 0 0 0 1.66-2c3.1-10 10.58-13 20.19-13 9 0 18-.25 27.05-.31 8.25-.05 8.34 0 8.35 8.57q0 51.41-.08 102.81a91.69 91.69 0 0 1-1.21 15.24c-1.63 9.66-1.47 9.68-11.45 11.49a12 12 0 0 0-2.62.58c-1.08.47-2.1 1.1-1.79 2.63.23 1.13 1.16 1.37 2 1.48a35.18 35.18 0 0 0 4.49.22h55a30.16 30.16 0 0 0 5.38-.32 2.51 2.51 0 0 0 1.61-1.78 2.74 2.74 0 0 0-1.37-2c-2.78-1.51-5.88-.8-8.85-1-7.9-.63-9.2-1.8-10.8-9.3a68.26 68.26 0 0 1-1.37-14.32q-.07-52.76-.18-105.52c0-1.5.06-3 .06-4.51 0-3 1.53-4.36 4.46-4.3 10.51.22 21.09-.16 31.53.84 8.14.78 15.15 4.34 16.19 14.05a2.55 2.55 0 0 0 2.46 2.53c1.56-1 1.49-2.83 1.51-4.58.08-6.91.25-13.83.14-20.74-.09-6.11-.32-6.39-6-6.1-23.14 1.17-46.29.71-69.43.46-20.07-.22-40.26 2.06-60.2-2.1-2.3-.48-4.38 0-4.92 2.61-1.94 9.31-5.19 18.47-3.76 28.62 1.45-.16 1.84-.09 1.95-.25zM6853.77 297c5.32-17.73 1.11-33.81-12.18-47.23-7.07-7.14-15.36-12.48-24-17.35-7.33-4.12-14.83-8-21.29-13.48-12.72-10.82-10.53-31.3 7.5-37.33a41.82 41.82 0 0 1 22.24-1.1c10 2.11 16.38 8.4 19 18.37.58 2.23.3 4.89 3.23 6.2a4.4 4.4 0 0 0 2.69-4.08q.57-12.15.8-24.31c.07-4-3.07-4.79-6.06-5.44a123.53 123.53 0 0 0-39.47-1.63 56.34 56.34 0 0 0-19.62 6.36c-28.61 14.71-25.6 49.07-10.47 64.41a118.81 118.81 0 0 0 23.57 18c8.46 5.12 17.47 9.44 24.38 16.85 13.68 14.65 7.44 38.51-12 43-21.8 5.07-44-3.32-45.19-27.64a6.67 6.67 0 0 0-.09-.9c-.28-1.53-.83-3.12-2.62-3.06s-2.22 1.69-2.45 3.24a153 153 0 0 0-1.57 24.25c.11 9.51 1.27 11.33 10.67 13.65 15.65 3.86 31.5 4.9 47.31 1.35 17.73-3.96 30.39-14.65 35.62-32.13zM4577.46 478.18c-6.82 1.74-13.73 1.34-20.62 1.35h-79.36c-9.61 0-19.25.21-28.57-2.69-3.31-1-5.39 0-6 3.28-1.51 7.64-3.81 15.16-4.07 23-.05 1.64-.65 3.71 1.62 4.5a2.8 2.8 0 0 0 2.54-2.27c3.18-10.11 11.27-12.55 20.46-12.9 9-.34 18-.31 27.05-.34 7.86 0 8 0 8 8 0 36.07-.11 72.15-.08 108.22a76.09 76.09 0 0 1-1.5 13.4c-1.22 6.87-2.88 8.31-10 9.37-2.08.31-4.9-.75-5.7 2.65 7.76 1.94 62.86 1.66 69.51-.62-4.32-3.24-8.46-1.57-12.19-2.5-6.87-1.7-8.39-3-9.68-9.93a67.91 67.91 0 0 1-1.39-12.51q0-54.11-.22-108.22c0-1.5 0-3 .1-4.51a3.11 3.11 0 0 1 3.48-3.26c12.27.38 24.64-1.27 36.79 1.82 6 1.54 10.26 4.72 11.51 11.19.31 1.58 0 3.76 2.43 4.27.47-.32 1.27-.58 1.33-1 1.35-8.61.34-17.35 1.45-26 .56-4.59-3.35-5.2-6.89-4.3zM3981 328.24c15.94 0 31.88.1 47.82 0 7.53-.07 8.24-.57 9.73-7.75 1.34-6.45 2.06-13 2.95-19.56a7.66 7.66 0 0 0-.4-3.53 2.79 2.79 0 0 0-1.86-1.64 2.63 2.63 0 0 0-2.11 1.29c-.67 1.65-.9 3.48-1.42 5.2-2.2 7.41-7.28 12-14.81 12.67-11.66 1.08-23.42 1.74-35-.75-7.74-1.67-10-4.4-10.85-12.16a77 77 0 0 1-.35-8.11q-.06-51-.05-102a50.08 50.08 0 0 1 .29-6.31c.77-6 3.06-8.32 9.18-9.19 1.48-.21 3-.14 4.5-.24 1.79-.12 4.1 0 4.25-2.31s-2.15-2.36-3.91-2.54a17.76 17.76 0 0 0-1.8 0h-55a18.35 18.35 0 0 0-4.38.69 1.9 1.9 0 0 0-1.1 1.28 1.77 1.77 0 0 0 1.07 2.16 22.22 22.22 0 0 0 3.46.74c11.66 1.83 13.52 3.63 13.53 14.8q.05 57.75-.19 115.5a50.59 50.59 0 0 1-.89 8.94c-.85 4.6-3.21 7.66-8.46 7.6a20.86 20.86 0 0 0-5.24 1 1.81 1.81 0 0 0-1.26 2.07 1.84 1.84 0 0 0 1.81 1.66c2.39.17 4.8.21 7.21.21h43.31zm1542.16-141.32c3.39-1.18 6.76-2.47 10-3.94 5.48-2.45 10.66-5.59 16.51-7.17 4.57-1.24 6-.27 6.51 4.38a30.21 30.21 0 0 1 .06 3.6q-.07 57.72-.17 115.44a69.7 69.7 0 0 1-1.1 12.53c-1 5.42-3.52 8.42-9.06 9.66-5.07 1.13-10.13 1.15-15.21 1.46-2.05.12-4.88-.18-5 2.55-.11 2.94 2.79 2.44 4.78 2.59 1.2.09 2.4 0 3.61 0h35.17c11.42 0 22.85.14 34.27-.09 3.31-.07 9.3 1.74 9.37-2 .1-5.54-6.06-2.87-9.39-3.12-13.57-1-16.53-3.83-17-17.8-.28-9.31-.22-18.64-.7-27.94-1.29-25.23-1.05-50.49-.24-75.7.58-18 .73-36 1.12-54.06.15-6.91-2.39-8.08-8.23-4.17q-27.25 18.3-54.46 36.86a16.57 16.57 0 0 0-3.33 2.93 2.34 2.34 0 0 0 .1 3.25 2.9 2.9 0 0 0 2.39.74zm1013.27 416.21c-2-.49-2.46 1.2-3 2.5a26.59 26.59 0 0 0-.65 2.62c-3.23 10.09-7.73 13.83-18.19 14.21-8.4.31-16.84.23-25.25-.05-13.87-.48-17.2-3.92-18.06-18v-1.8c0-34.88-.11-69.76 0-104.64 0-11.23 2.29-13.31 13.64-14.73 2.05-.26 5.07.91 5.28-2.9-9.7-1.74-61.12-1.22-67.85 1 3.58 2.59 6.8 1.74 9.62 2.58 7 2.09 9.52 4.85 10.19 12 .17 1.79.09 3.61.09 5.41 0 34.28 0 68.56-.11 102.84a147.56 147.56 0 0 1-1.53 17.93c-.74 5.77-2.64 7.42-8.59 8.81-2.34.55-5.38-.67-7.38 2.81 3.31 2.16 6.64 1.36 9.72 1.37 19.53 0 39-.7 58.57.93 10.76.89 21.64.34 32.46.3 4.42 0 8.41-1 9.66-6.2 1.89-7.91 3.28-15.88 2.94-24-.1-1.18.01-2.62-1.56-2.99zm138.48-.13c-2.46 2-2.39 5.24-3.41 7.94-2.33 6.15-6.67 10.35-13.07 11.09a156.16 156.16 0 0 1-36-.19c-5.91-.68-9.81-3.9-10.74-10.32a91.78 91.78 0 0 1-1.43-13.4q.06-48.25 0-96.51c0-1.5 0-3 .09-4.51.66-10.1 2.89-12.46 12.89-13.74 2.17-.28 4.71.43 6.4-2.11-7.3-2.56-61.09-2.42-67.1 0 .06.27 0 .59.2.79 1.09 1.36 2.68 1 4.14 1.24 11.94 1.59 14.42 4.21 14.43 16.16 0 36.68-.06 73.36 0 110a72.66 72.66 0 0 1-1.55 13.39c-1 5.24-4.11 7.7-9.23 8.23-2.16.22-4.85-.82-6.78 3.11 4.16 1.41 7.78.87 11.33.87 19.52 0 39-.71 58.56 1 10.15.87 20.43.45 30.65.25 7.61-.15 9.43-2 10.88-9.28a85.23 85.23 0 0 0 2-19.67c-.09-1.67.47-3.78-2.26-4.34zM4871.24 176c1.19.16 2.4.11 3.58.3 7.57 1.21 9.76 3.48 10.34 11.1.48 6.28 1 12.57 1.05 18.86 0 33.92.58 67.84-1.18 101.73-.22 4.18.11 8.46-2.54 12.13-2.53 3.5-6.49 2.44-9.9 3.15-1.67.35-3.87.61-3.36 3.12.39 1.91 2.35 1.59 3.74 1.6 10.21.06 20.42 0 30.63 0h23.42c2.7 0 5.4 0 8.1-.13 1.29 0 2.47-.63 2.51-2a2.41 2.41 0 0 0-2.27-2.36c-3.27-.36-6.57-.41-9.85-.76-5.63-.59-8.21-2.66-9.52-7.93a30.07 30.07 0 0 1-.69-7.14c-.07-39-.15-78.07-.06-117.11 0-11.27 1.1-12.22 12.58-14.46a9.68 9.68 0 0 0 1.76-.33c.82-.33 1.65-.71 1.78-1.79a2.15 2.15 0 0 0-2-2.46 31.64 31.64 0 0 0-5.38-.29h-47.74c-1.5 0-3 0-4.5.12s-3.08.57-3 2.49c.05 1.41 1.26 1.98 2.5 2.16zm195.59 455c-11.4-1.13-13.82-3.66-14.33-15.22-.08-1.8-.1-3.61-.1-5.41q-.05-53.66-.09-107.32c0-2.71 0-5.42.19-8.11.57-7.28 2.38-9.19 9.36-11.26 2.17-.64 5.53.64 6.64-3-8.89-2.06-56.47-1.66-62.16.4a1.5 1.5 0 0 0 1.45 1.81c16 1.92 13.71 6.4 15.6 18.34a10.86 10.86 0 0 1 0 1.8c-.42 38.16 1.26 76.33-1.26 114.47-.69 10.4-1.75 11.8-11.73 13.58-1.65.29-4.13-.3-4.15 2.2 0 2.23 2.27 2.45 4 2.6a25.86 25.86 0 0 0 4.49-.12 298.14 298.14 0 0 1 50.39 0c3.51.28 7.07.68 10.28-2.85-3.16-2.52-5.98-1.6-8.58-1.91z" fill="#fff"/><path d="M677.34 640.42c4.87-24.06 5.4-48.31.53-72.56-6.66-33.11-23.91-59.29-51.18-79-23.32-16.82-49.75-26.36-77.5-32.74-21.75-5-43.85-7.24-66.06-8.73-1.8-.12-3.61-.12-5.4-.3-11.38-1.09-14.1-4.09-13.73-15.31q1.92-54.54 3.85-109.12c-2.07.07-2.31 1.82-2.75 3-13.1 36.58-33.28 69.24-56.1 100.41-27.38 37.44-58.34 71.9-88.92 106.67-18.67 21.23-37.16 42.61-55.68 64-1.33 1.53-3.22 2.8-3.35 5.13 1.14 2.56 3.46 2 5.45 2 49.62.1 99.25.08 148.79-3.41a115.34 115.34 0 0 0 21.29-3.69c26.49-7 40.9-24.84 45.85-51.14.72-3.84 1.34-7.7 1.88-11.57a14 14 0 0 1 2.42-6.71c2.69-3.54 6.75-3 8.4 1.12a17.93 17.93 0 0 1 1 8c-2 28.84-1.67 57.7-1 86.57.34 13.85-2.56 17.61-16.15 20a77.15 77.15 0 0 1-13.46 1q-130.83.16-261.65.22c-4.72 0-9.25-.32-11.5-5.23-2.54-5.55.11-10.05 3.94-13.74 15-14.42 28.79-29.88 42.46-45.49 7.33-8.37 14.52-16.86 21.69-25.37 1.28-1.51 3.28-2.7 3.09-6.15h-6.68Q215 548.17 173 547c-36.09-1-72.15 1.78-108.25 1.31-3 0-6 .1-9-.07-6.17-.37-9.39-2.61-9.47-6.34s3-6.14 9.07-6.68c12.28-1.1 24.56-2.05 36.83-3.26a130.13 130.13 0 0 0 15.14-2.31c15.95-3.5 23.19-11.41 25-27.67a557.57 557.57 0 0 0 3.47-62.12q.27-124.51.21-249c0-19.25-.26-38.5-.35-57.74a65.37 65.37 0 0 0-1.6-15.22c-1.54-6.34-5.16-9-11.73-8.85s-12.23 2.84-18 5.44c-19.7 8.93-39.56 17.45-60.3 23.76 0 2.71-.11 5.41-.11 8.12v635.2c0 1.8.08 3.61 0 5.41-.13 3.4 1.44 5 4.84 4.84 1.5-.07 3 0 4.51 0h353.69c2.93 0 6.05.78 8.72-1.27-5.31-2.82-10.72-5.44-15.55-9.09-6.66-5-10.35-11.43-10-20.05 1.17-28.55 1.56-57.11.21-85.68a24.75 24.75 0 0 1 .93-8.93c1-3.05 2.51-5.6 6.14-5.61s5.21 2.25 6.22 5.44c1.21 3.83 1.12 7.72 1.12 11.62a127.86 127.86 0 0 0 5 36.49C416.48 737.37 431 752.65 453 761c13.62 5.19 27.88 7.25 42.29 8.41 30.91 2.48 61.34 1 90.17-12 50.97-22.95 80.89-62.68 91.88-116.99z" fill="#fc0"/><path d="M186 510c2.55 9.5 8.54 15.53 17.82 18.67 11.58 3.92 23.68 3.81 35.61 5 11 1.08 22.18.14 32.93 3.45a2.69 2.69 0 0 0 3.14-.91c.79-.91 1.59-1.81 2.34-2.74C318.2 483.17 356 431.18 386.19 374c14.63-27.7 27.09-56.3 34.14-87 5.74-25 6.26-50-.24-75-10.62-40.84-40.4-62.9-80.51-68.1-15.35-2-30.59-1.59-45.61 2.6-21.08 5.9-36.61 18.92-47.73 37.45a106.73 106.73 0 0 0-14.91 46.81c-.34 4.19-.71 8.4-1.44 12.54-.49 2.76-2 5.28-5.31 5.1s-4.18-3.07-4.82-5.71a15.33 15.33 0 0 1-.22-4.49 602.86 602.86 0 0 0-.45-75.75c-.47-7.22 2.49-11.35 8.42-14.31 38.26-19.12 78.18-30.93 121.52-27.69 31.28 2.33 60.31 11.16 84.84 31.42 30.69 25.34 45.18 58.37 45.3 98 0 5.54-3.22 12.86 1.06 16.18 3.41 2.64 10.38.77 15.77.77h151.6c14.14 0 28.23-.48 42.13-3.61 6.7-1.51 8.52 0 8.21 6.62-1.23 26.16-.36 52.33-.38 78.49 0 3.43.89 7.71-4.07 8.76-3.33.71-4.89-2-5.3-8.69-1.33-21.42-9.58-31.45-30.38-36.77a112.16 112.16 0 0 0-27.66-3.54q-64.52-.11-129-.1c-6.84 0-7 .12-7 6.88q0 42.41.18 84.82c0 8.16.07 8.17 8.36 9.24 24.14 3.12 48.29 6.18 72.17 11 22.73 4.6 45 10.78 66.09 20.57 34.74 16.11 60.4 41 74.54 77.06 2.48-2.87 1.36-6.34 1.36-9.52q.09-228.19 0-456.39c0-12 .85-11.07-11.35-11.07H192.29c-3.6 0-7.2.3-10.8.46q-.18 77.6-.34 155.21-.05 117.4-.05 234.76 0 30.24 1.81 60.42A93.64 93.64 0 0 0 186 510zm529.73 144.86c-1.34 3.66-2.65 7.33-4 11-14.23 37.54-37.35 68.31-70 91.77-21 15-44.13 25.48-68.74 32.9 3 2.12 6.39 1.27 9.61 1.28q47.25.09 94.5 0c11.1 0 22.2.09 33.3 0 6.33-.07 6.33-.22 6.57-6.68V663.62c-.09-2.96.67-6.06-1.24-8.76zM44 117.87c0 1.83.15 3.62 1.81 4.83a267.51 267.51 0 0 0 28.52-15.34c30.58-18.28 58.6-39.76 82.54-66.31q-53.65-.2-107.31-.45c-4.41 0-5.65 2-5.63 6 .13 23.77.07 47.52.07 71.27z" fill="#fc0"/></svg>