<svg xmlns="http://www.w3.org/2000/svg" viewBox="0 0 473.704 50.8"><g fill="#FFF"><path d="M237.232 21.015c1.372 1.191 3.106 1.643 5.171 1.643.965 0 2.11-.105 2.714-.347.256-.105.317-.18.392-.436.15-.513.331-1.825.331-2.005 0-.12-.03-.227-.136-.227-.121 0-.151.06-.196.302a2.526 2.526 0 0 1-.513.994c-.603.694-1.417.845-2.759.845-2.02 0-4.749-1.779-4.749-5.367 0-1.463.287-2.895 1.387-3.906.664-.603 1.523-.934 2.835-.934 1.387 0 2.563.407 3.06.934.377.393.573.92.588 1.387 0 .211.03.333.151.333.136 0 .166-.122.18-.347.03-.302.015-1.131.045-1.629.03-.527.076-.709.076-.829 0-.09-.061-.165-.227-.18-.452-.045-.935-.18-1.507-.256a14.838 14.838 0 0 0-2.186-.151c-2.246 0-3.678.603-4.764 1.598-1.447 1.326-1.764 3.106-1.764 4.131.001 1.462.393 3.151 1.871 4.447zm13.092 1.387c.392 0 .889.015 1.538.031a55.56 55.56 0 0 0 2.442.045c.498 0 .618 0 .709-.331.076-.257.18-1.131.18-1.418 0-.136-.015-.301-.12-.301-.09 0-.12.06-.151.196-.09.527-.241.799-.573.95-.347.151-.905.166-1.252.166-1.356 0-1.764-.197-1.794-1.071-.015-.376 0-1.463 0-1.899v-1.025c0-.076.015-.136.076-.136.332 0 1.84.029 2.081.06.497.045.664.241.738.497.03.166.03.333.045.468 0 .06.03.105.121.105.12 0 .136-.18.136-.287 0-.09.03-.603.06-.859.076-.649.106-.86.106-.935s-.045-.136-.106-.136-.106.076-.211.166c-.136.12-.317.166-.633.196-.301.031-2.02.031-2.321.031-.076 0-.091-.06-.091-.136v-3.166c0-.076.03-.122.091-.122.271 0 1.854.031 2.08.06.664.061.769.242.875.468.076.15.09.376.09.467 0 .105.015.165.106.165.106 0 .136-.15.151-.211.03-.15.06-.708.076-.843.03-.589.106-.74.106-.829 0-.06-.015-.12-.091-.12-.06 0-.136.045-.211.06-.105.014-.316.06-.557.076-.257.014-3.197 0-3.618 0-.377 0-1.221-.031-1.915-.031-.196 0-.301.031-.301.12 0 .091.09.136.226.136.196 0 .422.015.528.046.422.12.543.256.573.694.015.407.015.768.015 2.713v2.261c0 1.176 0 2.187-.06 2.73-.045.376-.121.618-.392.678-.12.029-.271.045-.467.045-.166 0-.211.076-.211.136 0 .091.09.136.256.136.271 0 .603-.014.92-.029.313-.001.599-.017.75-.017zm9.141 0c.543 0 1.101.015 1.763.031.664.029 1.433.045 2.383.045.694 0 .754-.06.845-.347.105-.378.196-1.327.196-1.478 0-.15-.031-.285-.122-.285-.105 0-.136.074-.15.196-.031.241-.166.603-.333.769-.331.347-.843.361-1.552.361-1.025 0-1.538-.076-1.764-.271-.287-.241-.287-1.054-.287-2.699v-2.261c0-1.945 0-2.306.03-2.713.031-.453.136-.633.498-.694a2.87 2.87 0 0 1 .513-.046c.165 0 .241-.045.241-.136 0-.09-.091-.12-.287-.12-.512 0-1.598.031-1.914.031-.362 0-1.206-.031-1.824-.031-.196 0-.287.031-.287.12 0 .091.076.136.227.136.166 0 .331.015.437.046.422.12.543.256.573.694.015.407.015.768.015 2.713v2.261c0 1.176 0 2.187-.06 2.73-.045.376-.121.618-.392.678-.12.029-.271.045-.467.045-.166 0-.211.076-.211.136 0 .091.09.136.256.136.271 0 .603-.014.92-.029.315-.002.602-.018.753-.018zm9.079 0c.392 0 .889.015 1.538.031a55.56 55.56 0 0 0 2.442.045c.498 0 .618 0 .709-.331.076-.257.18-1.131.18-1.418 0-.136-.015-.301-.12-.301-.091 0-.12.06-.151.196-.09.527-.241.799-.573.95-.346.151-.903.166-1.25.166-1.358 0-1.765-.197-1.794-1.071-.015-.376 0-1.463 0-1.899v-1.025c0-.076.014-.136.076-.136.331 0 1.839.029 2.079.06.498.045.664.241.74.497.029.166.029.333.045.468 0 .06.031.105.12.105.122 0 .136-.18.136-.287 0-.09.031-.603.06-.859.076-.649.106-.86.106-.935s-.045-.136-.106-.136c-.06 0-.105.076-.211.166-.136.12-.316.166-.632.196-.302.031-2.021.031-2.323.031-.076 0-.09-.06-.09-.136v-3.166c0-.076.029-.122.09-.122.271 0 1.854.031 2.081.06.664.061.769.242.874.468.076.15.091.376.091.467 0 .105.015.165.106.165.105 0 .136-.15.15-.211.031-.15.061-.708.076-.843.031-.589.106-.74.106-.829 0-.06-.015-.12-.091-.12-.06 0-.136.045-.211.06-.105.014-.316.06-.558.076-.256.014-3.195 0-3.618 0-.378 0-1.221-.031-1.914-.031-.197 0-.302.031-.302.12 0 .091.091.136.227.136.196 0 .422.015.527.046.422.12.543.256.573.694.014.407.014.768.014 2.713v2.261c0 1.176 0 2.187-.06 2.73-.045.376-.12.618-.392.678-.12.029-.271.045-.467.045-.166 0-.211.076-.211.136 0 .091.091.136.256.136.271 0 .603-.014.92-.029.315-.001.601-.017.752-.017zm14.855-2.714c0-1.507-1.356-2.426-2.443-2.773.755-.482 1.493-1.252 1.493-2.247 0-.678-.422-1.914-2.819-1.914-.453 0-1.327.031-1.99.031-.257 0-1.101-.031-1.794-.031-.197 0-.302.031-.302.12 0 .091.091.136.227.136.196 0 .422.015.527.046.422.12.543.256.573.694.015.407.015.768.015 2.713v2.261c0 1.176 0 2.187-.061 2.73-.045.376-.12.618-.392.678-.12.029-.271.045-.467.045-.166 0-.211.076-.211.136 0 .091.091.136.256.136.271 0 .603-.014.92-.029.316 0 .603-.015.754-.015.211 0 .678.015 1.131.031.452.029.903.045 1.054.045 2.444-.003 3.529-1.421 3.529-2.793zm-4.794-6.105c0-.136.029-.196.12-.211.136-.031.392-.031.572-.031 1.147 0 1.658 1.071 1.658 1.93 0 .619-.256 1.086-.603 1.358-.227.18-.603.227-1.04.227-.301 0-.497-.015-.618-.046-.045-.015-.09-.029-.09-.136v-3.091zm1.417 8.277c-.302 0-.603-.015-.95-.151-.422-.166-.467-.422-.467-1.267v-2.909c0-.076.029-.091.074-.091h.573c.513 0 .874.136 1.147.331a2.809 2.809 0 0 1 1.25 2.277c.001 1.418-.918 1.81-1.627 1.81zm5.554-8.851c.196 0 .422.015.527.046.422.12.543.256.573.694.015.407.015.768.015 2.713v2.261c0 1.176 0 2.187-.061 2.73-.045.376-.12.618-.392.678-.12.029-.271.045-.467.045-.166 0-.211.076-.211.136 0 .091.091.136.256.136.529 0 1.372-.045 1.629-.045.196 0 1.296.045 2.065.045.165 0 .271-.045.271-.136 0-.06-.06-.136-.166-.136-.166 0-.452-.015-.649-.045-.407-.06-.467-.302-.512-.678-.06-.543-.076-1.538-.076-2.73v-.18c0-.076.045-.105.105-.105l1.191.029c.091 0 .166.015.242.091.165.196.723 1.054 1.252 1.748.738.996 1.236 1.598 1.808 1.885.347.18.709.256 1.447.256h.609c-.166 0-.242-.029-.242-.136 0-.076.045-.136.151-.136.12 0 .271-.015.392-.015.031-.005.051-.019.081-.026-.228-.047-.673-.139-1.367-.833-.8-.799-1.734-1.96-2.91-3.408 1.296-1.039 1.839-1.884 1.839-2.833 0-.86-.558-1.509-.934-1.765-.709-.467-1.674-.543-2.518-.543-.407 0-1.612.031-2.065.031-.271 0-1.115-.031-1.808-.031-.197 0-.302.031-.302.12 0 .093.091.137.227.137zm2.804.634c0-.105.031-.151.12-.18.136-.031.453-.046.784-.046.783 0 2.021.468 2.021 2.277 0 1.056-.453 1.614-.86 1.9-.227.165-.407.211-.934.211-.333 0-.724-.031-1.011-.122-.09-.045-.12-.09-.12-.225v-3.815zm7.312 8.804c.045 0 .07-.01.104-.015a22.57 22.57 0 0 1-.761.015h.657zm.091-.271c.105 0 .165.076.165.136 0 .077-.063.106-.152.12.381-.013.692-.03.776-.03.422 0 1.04.045 1.478.045.136 0 .211-.029.211-.136 0-.076-.031-.136-.196-.136h-.197c-.407 0-.527-.136-.527-.361 0-.151.06-.468.196-.784l.709-1.734c.031-.076.045-.091.12-.091h3.121c.06 0 .105.015.136.091l1.025 2.593c.06.151-.031.271-.12.287-.136.015-.166.06-.166.136 0 .091.151.091.393.106 1.115.029 2.079.029 2.548.029.497 0 .572-.029.572-.136 0-.09-.06-.136-.18-.136-.151 0-.302-.015-.498-.045-.241-.045-.618-.211-1.13-1.372-.845-1.945-3.061-7.132-3.378-7.839-.136-.287-.196-.408-.392-.408-.136 0-.24.151-.391.513l-3.468 8.006c-.257.615-.484.99-1.02 1.104l.05.012c.133.03.208.03.315.03zm2.809-3.769l1.281-3.197c.015-.045.031-.12.076-.12.031 0 .046.076.06.12l1.251 3.212c.015.045 0 .076-.06.076h-2.563c-.045 0-.076-.031-.045-.091z"/><path d="M294.943 22.176c-.106 0-.151.06-.151.136 0 .106.076.136.242.136.266 0 .524-.007.761-.015.09-.014.152-.043.152-.12 0-.06-.06-.136-.165-.136-.106 0-.182 0-.317-.029l-.05-.012c-.029.006-.049.021-.081.026-.12-.002-.271.014-.391.014zm10.287-7.598c.09 0 .12-.061.15-.166a1.53 1.53 0 0 1 .227-.438c.196-.287.513-.376 1.282-.392l1.975-.045v5.185c0 1.176 0 2.187-.06 2.73-.046.376-.12.618-.393.678a1.92 1.92 0 0 1-.467.045c-.165 0-.211.076-.211.136 0 .091.091.136.257.136.527 0 1.432-.045 1.733-.045.378 0 1.267.045 2.141.045.151 0 .257-.045.257-.136 0-.06-.06-.136-.211-.136a4.97 4.97 0 0 1-.678-.045c-.393-.06-.468-.302-.513-.663-.06-.558-.076-1.569-.076-2.745v-5.185l1.674.029c1.191.015 1.538.407 1.568.738l.015.136c.015.197.045.257.151.257.076 0 .105-.076.12-.211 0-.331.029-1.282.029-1.554 0-.196-.014-.271-.105-.271-.045 0-.151.031-.362.06a5.742 5.742 0 0 1-.905.061h-5.382c-.436 0-.934-.015-1.326-.061-.331-.045-.468-.15-.573-.15-.076 0-.12.076-.151.241-.029.106-.287 1.342-.287 1.554-.001.137.03.212.121.212zm11.22-1.569a1.7 1.7 0 0 1 .482.06c.287.091.422.242.453.68.015.407.015.768.015 2.713v2.261c0 1.236 0 2.262-.061 2.79-.045.376-.12.558-.392.618-.12.029-.271.045-.467.045-.166 0-.211.076-.211.136 0 .091.091.136.256.136.529 0 1.432-.045 1.734-.045.362 0 1.267.045 2.141.045.151 0 .256-.045.256-.136 0-.06-.06-.136-.211-.136-.196 0-.497-.015-.678-.045-.392-.06-.482-.256-.527-.603-.06-.543-.06-1.569-.06-2.805v-2.261c0-1.945 0-2.306.029-2.713.031-.453.136-.633.498-.694.151-.031.256-.046.392-.046s.211-.029.211-.151c0-.074-.105-.105-.271-.105-.512 0-1.372.031-1.703.031-.378 0-1.281-.031-1.779-.031-.211 0-.317.031-.317.105-.001.122.075.151.21.151zm10.045 9.302c0-.076-.076-.136-.227-.136a2.27 2.27 0 0 1-.694-.09c-.256-.091-.422-.393-.453-1.387l-.15-5.231h.045c.256.225 1.659 1.779 3.106 3.166a324.046 324.046 0 0 0 3.875 3.693c.136.136.316.271.543.271.105 0 .211-.12.211-.407l.151-8.081c.014-.723.12-.95.482-1.054.165-.046.271-.046.407-.046.151 0 .225-.06.225-.136 0-.105-.12-.12-.301-.12-.649 0-1.147.031-1.296.031-.287 0-.996-.031-1.689-.031-.196 0-.331.015-.331.12 0 .076.045.136.211.136.18 0 .498 0 .694.076.316.12.436.347.452 1.131l.136 5.698h-.06c-.196-.18-1.959-1.99-2.864-2.879-1.93-1.885-3.92-3.92-4.086-4.086-.227-.227-.407-.422-.573-.422-.136 0-.225.182-.225.438l-.122 7.599c-.014 1.116-.06 1.461-.407 1.552-.18.045-.422.06-.603.06-.12 0-.211.06-.211.136 0 .122.12.136.302.136.678 0 1.312-.045 1.432-.045.241 0 .859.045 1.719.045.179-.001.301-.03.301-.137zm15.777.302c1.04 0 2.352-.136 3.241-.573.166-.09.166-.105.166-.452V20.17c0-.632 0-1.145.015-1.537.015-.453.151-.633.512-.694.151-.031.257-.046.362-.046.091 0 .166-.06.166-.136 0-.105-.091-.12-.271-.12-.438 0-1.131.031-1.554.031-.392 0-1.341-.031-2.035-.031-.182 0-.287.015-.287.12 0 .076.091.136.211.136.18 0 .407.015.512.046.422.12.558.256.573.694.015.392.015.874.015 1.507v1.176c0 .225-.06.362-.256.452-.317.136-.589.136-.935.136-2.835 0-4.613-2.005-4.613-4.764 0-1.568.482-2.517 1.221-3.12.92-.74 1.84-.754 2.563-.754 1.493 0 2.488.572 2.879.979.347.362.422.769.453 1.056.015.105.045.166.136.166.105 0 .18-.091.18-.287 0-1.614.091-1.96.091-2.111 0-.09-.031-.136-.18-.15a10.642 10.642 0 0 1-1.056-.136c-.271-.061-1.432-.211-2.352-.211-1.116 0-2.307.09-3.573.829-1.221.708-2.323 2.141-2.323 4.191.003 3.543 2.883 5.021 6.139 5.021zm14.807-8.879c.061 0 .137-.031.211-.06.333-.136 1.463-.724 1.749-.724.227 0 .227.182.227.543v1.976l.015 2.397c.014 1.447-.015 2.728-.076 3.392-.046.482-.122.694-.604.799-.271.06-1.039.105-1.205.105-.06 0-.12.046-.12.151 0 .106.09.136.256.136.965 0 2.232-.045 2.579-.045.407 0 1.372.045 2.517.045.166 0 .241-.029.241-.136 0-.105-.074-.151-.136-.151a9.36 9.36 0 0 1-.994-.09c-.482-.106-.558-.331-.603-.814-.06-.664-.06-1.945-.06-3.392v-2.79c0-2.306.09-3.799.09-3.92 0-.151-.045-.316-.18-.316-.12 0-.256.105-.392.196-.529.392-3.423 2.292-3.483 2.321-.076.046-.151.12-.151.211-.001.09.074.166.119.166zm16.453 5.774c-.091 0-.136.06-.18.242-.182.708-.678 1.221-1.719 1.341-.558.076-2.338.091-2.594.091h-1.025c-.076 0-.105-.046-.029-.106 1.944-1.552 5.185-4.1 5.185-7.026 0-1.763-1.13-3.211-3.784-3.211-1.327 0-2.141.271-2.728.572-.166.106-.182.166-.182.302 0 .438.076 1.689.091 1.825.015.18.06.285.136.285.151 0 .196-.136.196-.285 0-.393.271-1.101.633-1.447.453-.422.95-.544 1.598-.544.754 0 2.065.484 2.065 2.865 0 3.181-3.001 5.533-5.111 7.388-.151.136-.302.271-.302.392s.106.211.211.211h5.911c.95 0 1.19-.045 1.312-.452.15-.513.436-1.916.436-2.156 0-.152-.014-.287-.12-.287zm4.331-5.307l.211-1.839h2.745c1.221 0 1.326.392 1.326.814 0 .12.031.211.122.211.105 0 .15-.091.165-.182.151-.95.196-1.612.196-1.93 0-.225-.029-.285-.151-.285-.045 0-.136.045-.301.06-.166.029-.422.045-.845.045h-3.693c-.166 0-.271.045-.287.196l-.347 3.98c-.015.197.091.273.271.302 1.191.166 3.815 1.161 3.815 3.573 0 1.96-1.282 2.759-2.488 2.759-1.056 0-2.051-.407-2.051-2.019 0-.166-.029-.257-.136-.257-.09 0-.136.122-.165.271-.076.498-.06 1.403-.06 1.9 0 .316.029.452.287.587.376.182.934.271 1.417.271 3.497 0 4.96-2.231 4.96-4.236-.001-2.623-2.744-3.859-4.991-4.221zm25.013-3.151c-.285 0-1.281.045-1.612.045-.438 0-.92-.045-1.418-.045-.18 0-.256.029-.256.136 0 .09.136.12.271.151.256.06.316.225.316.376 0 .196-.06.453-.21.784-.211.467-2.111 3.784-2.262 4.146-.241-.422-2.352-4.057-2.562-4.508-.106-.211-.182-.392-.182-.513 0-.12.076-.241.211-.271.227-.06.331-.076.331-.165 0-.091-.076-.136-.225-.136-.68 0-1.298.045-1.614.045-.498 0-1.628-.045-1.899-.045-.182 0-.287.045-.287.136 0 .105.105.136.225.136.182 0 .438.09.633.196.287.166.664.543 1.04 1.101.529.784 2.548 4.1 2.654 4.342.196.438.347.769.347 1.583v1.236c0 .242 0 .874-.046 1.507-.029.438-.165.769-.467.829a2.37 2.37 0 0 1-.527.06c-.166 0-.242.046-.242.122 0 .12.12.15.331.15.558 0 1.509-.045 1.885-.045.407 0 1.356.045 2.307.045.196 0 .316-.045.316-.15 0-.076-.076-.122-.241-.122-.211 0-.544-.029-.755-.06-.452-.06-.587-.392-.618-.829-.045-.633-.045-1.266-.045-1.507v-1.236c0-.498 0-.965.227-1.507.271-.649 2.382-4.191 2.879-4.795.331-.407.498-.587.814-.738.227-.12.513-.18.664-.18.165 0 .285-.046.285-.151.003-.093-.102-.123-.268-.123zm2.72 11.352c.392 0 .889.015 1.538.031a55.56 55.56 0 0 0 2.442.045c.498 0 .618 0 .709-.331.076-.257.18-1.131.18-1.418 0-.136-.015-.301-.12-.301-.091 0-.12.06-.151.196-.09.527-.241.799-.573.95-.346.151-.903.166-1.25.166-1.358 0-1.765-.197-1.794-1.071-.015-.376 0-1.463 0-1.899v-1.025c0-.076.014-.136.076-.136.331 0 1.839.029 2.079.06.498.045.664.241.74.497.029.166.029.333.045.468 0 .06.031.105.12.105.122 0 .136-.18.136-.287 0-.09.031-.603.06-.859.076-.649.106-.86.106-.935s-.045-.136-.106-.136c-.06 0-.105.076-.211.166-.136.12-.316.166-.632.196-.302.031-2.021.031-2.323.031-.076 0-.09-.06-.09-.136v-3.166c0-.076.029-.122.09-.122.271 0 1.854.031 2.081.06.664.061.769.242.874.468.076.15.091.376.091.467 0 .105.015.165.106.165.105 0 .136-.15.15-.211.031-.15.061-.708.076-.843.031-.589.106-.74.106-.829 0-.06-.015-.12-.091-.12-.06 0-.136.045-.211.06-.105.014-.316.06-.558.076-.256.014-3.195 0-3.618 0-.378 0-1.221-.031-1.914-.031-.197 0-.302.031-.302.12 0 .091.091.136.227.136.196 0 .422.015.527.046.422.12.543.256.573.694.014.407.014.768.014 2.713v2.261c0 1.176 0 2.187-.06 2.73-.045.376-.12.618-.392.678-.12.029-.271.045-.467.045-.166 0-.211.076-.211.136 0 .091.091.136.256.136.271 0 .603-.014.92-.029.314-.001.601-.017.752-.017zm16.723-.091c0-.09-.06-.136-.18-.136-.151 0-.302-.015-.498-.045-.241-.045-.618-.211-1.13-1.372-.845-1.945-3.061-7.132-3.378-7.839-.136-.287-.196-.408-.392-.408-.136 0-.241.151-.392.513l-3.468 8.006c-.271.649-.498 1.04-1.101 1.13-.12 0-.271.015-.392.015-.106 0-.151.06-.151.136 0 .106.076.136.242.136.692 0 1.401-.045 1.537-.045.422 0 1.04.045 1.478.045.136 0 .211-.029.211-.136 0-.076-.031-.136-.196-.136h-.197c-.407 0-.527-.136-.527-.361 0-.151.06-.468.196-.784l.709-1.734c.031-.076.045-.091.12-.091h3.121c.06 0 .105.015.136.091l1.025 2.593c.06.151-.031.271-.12.287-.136.015-.166.06-.166.136 0 .091.151.091.393.106 1.115.029 2.079.029 2.548.029.497 0 .572-.029.572-.136zm-4.673-3.813h-2.563c-.045 0-.076-.031-.045-.091l1.281-3.197c.015-.045.031-.12.076-.12.031 0 .046.076.06.12l1.252 3.212c.014.045-.001.076-.061.076zm14.612 3.949h1.267c.166 0 .256-.029.256-.136 0-.06-.06-.136-.165-.136-.106 0-.182 0-.317-.029-.211-.046-.678-.106-1.417-.845-.8-.799-1.734-1.96-2.91-3.408 1.296-1.039 1.839-1.884 1.839-2.833 0-.86-.558-1.509-.934-1.765-.709-.467-1.674-.543-2.518-.543-.407 0-1.612.031-2.065.031-.271 0-1.115-.031-1.808-.031-.197 0-.302.031-.302.12 0 .091.091.136.227.136.196 0 .422.015.527.046.422.12.543.256.573.694.014.407.014.768.014 2.713v2.261c0 1.176 0 2.187-.06 2.73-.045.376-.12.618-.392.678-.12.029-.271.045-.467.045-.166 0-.211.076-.211.136 0 .091.091.136.256.136.529 0 1.372-.045 1.629-.045.196 0 1.296.045 2.065.045.165 0 .271-.045.271-.136 0-.06-.06-.136-.166-.136-.166 0-.452-.015-.649-.045-.407-.06-.467-.302-.512-.678-.06-.543-.076-1.538-.076-2.73v-.18c0-.076.045-.105.105-.105l1.191.029c.091 0 .166.015.242.091.165.196.723 1.054 1.252 1.748.738.996 1.236 1.598 1.808 1.885.347.182.709.257 1.447.257zm-3.979-4.854c-.227.165-.407.211-.934.211-.333 0-.724-.031-1.011-.122-.09-.045-.12-.09-.12-.225v-3.815c0-.105.031-.151.12-.18.136-.031.453-.046.784-.046.784 0 2.021.468 2.021 2.277 0 1.056-.453 1.614-.86 1.9zm12.097 2.095c0-1.161-.543-2.141-2.291-3.106l-.544-.301c-1.19-.664-1.401-1.116-1.401-1.689 0-.874.859-1.372 1.809-1.372.859 0 1.281.362 1.477.603.287.333.347.724.347.845 0 .151.045.227.136.227.106 0 .166-.136.166-.407 0-1.011.045-1.372.045-1.538 0-.091-.06-.136-.18-.165-.347-.091-1.025-.211-1.885-.211-1.839 0-3.346 1.01-3.346 2.577 0 1.131.512 1.99 2.079 2.91l.769.452c1.176.694 1.312 1.252 1.312 1.809 0 .905-.694 1.629-1.839 1.629-.829 0-1.825-.317-2.111-1.267a2.445 2.445 0 0 1-.12-.663c0-.091-.015-.211-.136-.211-.105 0-.165.136-.165.331-.015.211-.076 1.01-.076 1.703 0 .287.045.347.256.438.573.256 1.387.331 2.156.331.708 0 1.583-.076 2.216-.527.965-.679 1.326-1.447 1.326-2.398zm20.882-2.321c0-2.939-2.081-4.794-5.427-4.794-4.026 0-5.564 2.833-5.564 5.02 0 2.277 1.569 5.02 5.428 5.02 3.422 0 5.563-2.307 5.563-5.246zm-9.031-.167c0-3.166 1.734-3.949 3.211-3.949 2.141 0 3.845 1.748 3.845 4.583 0 3.648-2.112 4.086-3.046 4.086-2.503 0-4.01-2.081-4.01-4.72zm17.75-4.477a3.521 3.521 0 0 1-.543.061c-.316.014-3.257 0-3.769 0-.378 0-1.221-.031-1.9-.031-.211 0-.316.031-.316.12 0 .091.105.136.227.136.196 0 .422.015.527.046.422.105.543.256.573.694.014.407.014.768.014 2.713v2.261c0 1.236 0 2.187-.06 2.73-.045.376-.12.618-.392.678-.12.029-.271.045-.467.045-.151 0-.196.076-.196.136 0 .106.09.136.271.136.498 0 1.341-.045 1.688-.045s1.282.045 2.126.045c.197 0 .287-.045.287-.136 0-.06-.06-.136-.225-.136-.182 0-.468-.015-.649-.045-.392-.06-.482-.302-.527-.678-.061-.543-.076-1.447-.076-2.684v-1.056c0-.091.029-.105.09-.105.227 0 1.794.014 2.127.045.407.029.572.287.632.467.06.151.091.302.091.392 0 .091.045.182.12.182.136 0 .151-.182.151-.287 0-.091.015-.678.045-.934.046-.408.106-.755.106-.829 0-.076-.031-.122-.076-.122-.076 0-.105.06-.18.136-.122.166-.317.211-.558.227-.196.015-.378.015-.604.015l-1.854.015c-.076 0-.09-.046-.09-.122v-3.106c0-.15.045-.18.12-.18l2.201.045c.498.015.754.211.845.393.09.18.076.376.076.482 0 .151.076.211.165.211.091 0 .122-.151.136-.257.015-.15.046-.905.06-1.04.046-.331.106-.482.106-.572 0-.06-.045-.12-.091-.12-.075-.001-.135.06-.211.074zM241.588 29.892c-4.523 0-6.226 3.331-6.226 5.91 0 2.668 1.749 5.91 6.076 5.91 3.829 0 6.241-2.728 6.241-6.181s-2.337-5.639-6.091-5.639zm.483 11.066c-2.895 0-4.628-2.488-4.628-5.623 0-3.755 1.975-4.719 3.709-4.719 2.472 0 4.417 2.096 4.417 5.473 0 4.357-2.442 4.869-3.498 4.869zm11.314-9.151c-.603 0-1.658.031-2.201.031-.377 0-1.221-.031-1.915-.031-.196 0-.301.031-.301.12 0 .091.09.136.226.136.196 0 .422.015.528.046.422.12.543.256.573.694.015.407.015.768.015 2.713v2.261c0 1.176 0 2.187-.06 2.73-.045.376-.121.618-.392.678-.12.031-.271.045-.467.045-.166 0-.211.076-.211.136 0 .091.09.136.256.136.528 0 1.372-.045 1.674-.045.347 0 1.282.045 2.171.045.136 0 .241-.045.241-.136 0-.06-.06-.136-.211-.136-.196 0-.482-.014-.678-.045-.392-.06-.468-.302-.513-.663-.06-.558-.06-1.569-.06-2.745v-5.08c0-.136.03-.211.106-.241.121-.046.377-.061.573-.061.301 0 .844.061 1.326.482.739.633.784 1.478.784 1.9 0 1.312-1.04 2.081-1.779 2.081-.287 0-.437.06-.437.165 0 .091.09.136.166.136.06.015.331.015.392.015 1.885 0 3.332-1.296 3.332-3.106 0-.694-.377-1.266-.664-1.537-.213-.182-.815-.724-2.474-.724zm9.215 0c-.603 0-1.658.031-2.2.031-.377 0-1.221-.031-1.915-.031-.196 0-.301.031-.301.12 0 .091.09.136.226.136.196 0 .422.015.528.046.422.12.543.256.573.694.015.407.015.768.015 2.713v2.261c0 1.176 0 2.187-.06 2.73-.045.376-.121.618-.392.678-.12.031-.271.045-.467.045-.166 0-.211.076-.211.136 0 .091.09.136.256.136.528 0 1.372-.045 1.674-.045.347 0 1.282.045 2.171.045.136 0 .241-.045.241-.136 0-.06-.06-.136-.211-.136-.196 0-.482-.014-.678-.045-.392-.06-.467-.302-.512-.663-.06-.558-.06-1.569-.06-2.745v-5.08c0-.136.029-.211.105-.241.12-.046.378-.061.573-.061a2 2 0 0 1 1.327.482c.738.633.783 1.478.783 1.9 0 1.312-1.04 2.081-1.779 2.081-.287 0-.438.06-.438.165 0 .091.091.136.166.136.06.015.331.015.392.015 1.885 0 3.332-1.296 3.332-3.106 0-.694-.378-1.266-.664-1.537-.211-.182-.815-.724-2.474-.724zm10.409-.181c-4.026 0-5.564 2.835-5.564 5.02 0 2.277 1.569 5.02 5.428 5.02 3.422 0 5.563-2.307 5.563-5.247s-2.08-4.793-5.427-4.793zm.407 9.347c-2.503 0-4.011-2.081-4.011-4.719 0-3.166 1.734-3.949 3.211-3.949 2.141 0 3.845 1.748 3.845 4.583.001 3.647-2.111 4.085-3.045 4.085zm16.968.256c-.106 0-.182 0-.317-.029-.211-.046-.678-.106-1.417-.845-.8-.799-1.734-1.96-2.91-3.408 1.296-1.04 1.839-1.884 1.839-2.833 0-.86-.558-1.509-.934-1.765-.709-.467-1.674-.543-2.518-.543-.407 0-1.612.031-2.065.031-.271 0-1.115-.031-1.808-.031-.197 0-.302.031-.302.12 0 .091.091.136.227.136.196 0 .422.015.527.046.422.12.543.256.573.694.014.407.014.768.014 2.713v2.261c0 1.176 0 2.187-.06 2.73-.045.376-.12.618-.392.678-.12.031-.271.045-.467.045-.166 0-.211.076-.211.136 0 .091.091.136.256.136.529 0 1.372-.045 1.629-.045.196 0 1.296.045 2.065.045.165 0 .271-.045.271-.136 0-.06-.06-.136-.166-.136a4.9 4.9 0 0 1-.649-.045c-.407-.06-.467-.302-.512-.678-.06-.543-.076-1.538-.076-2.73v-.18c0-.076.045-.105.105-.105l1.191.029c.091 0 .166.015.242.091.165.196.723 1.054 1.252 1.748.738.996 1.236 1.598 1.808 1.885.347.18.709.256 1.447.256h1.267c.166 0 .256-.029.256-.136 0-.059-.06-.135-.165-.135zm-5.338-4.582c-.227.165-.407.211-.934.211-.333 0-.724-.031-1.011-.122-.09-.045-.12-.09-.12-.225v-3.815c0-.105.031-.151.12-.18.136-.031.453-.046.784-.046.784 0 2.021.468 2.021 2.277 0 1.055-.453 1.613-.86 1.9zm13.393-4.931c-.045 0-.151.031-.362.06a5.742 5.742 0 0 1-.905.061h-5.382c-.436 0-.934-.015-1.326-.061-.331-.045-.468-.15-.573-.15-.076 0-.12.076-.151.241-.029.106-.287 1.342-.287 1.554 0 .136.031.211.122.211.09 0 .12-.061.15-.166a1.53 1.53 0 0 1 .227-.438c.196-.287.513-.376 1.282-.392l1.975-.045v5.185c0 1.176 0 2.187-.06 2.73-.046.376-.12.618-.393.678a1.825 1.825 0 0 1-.467.045c-.165 0-.211.076-.211.136 0 .091.091.136.257.136.527 0 1.432-.045 1.733-.045.378 0 1.267.045 2.141.045.151 0 .257-.045.257-.136 0-.06-.06-.136-.211-.136-.196 0-.498-.014-.678-.045-.393-.06-.468-.302-.513-.663-.06-.558-.076-1.569-.076-2.745v-5.185l1.674.029c1.191.015 1.538.407 1.568.738l.015.137c.015.196.045.256.151.256.076 0 .105-.076.12-.211 0-.331.029-1.282.029-1.554-.001-.195-.015-.27-.106-.27zm11.523.091c-.513 0-1.403.031-1.554.031-.014 0-.905-.031-1.583-.031-.18 0-.271.031-.271.12 0 .091.076.136.227.136.151 0 .378.015.482.046.422.12.527.256.558.694.015.407.029.768.029 2.713v1.614c0 1.312-.029 2.428-.768 3.121-.529.512-1.207.678-1.78.678-.452 0-1.085-.046-1.673-.513-.649-.512-1.011-1.236-1.011-3.106v-1.794c0-1.945 0-2.306.031-2.713.029-.453.136-.633.482-.694.166-.031.241-.046.392-.046.136 0 .211-.045.211-.136 0-.09-.091-.12-.287-.12-.482 0-1.372.031-1.703.031-.392 0-1.281-.031-1.989-.031-.196 0-.287.031-.287.12 0 .091.076.136.227.136.18 0 .407.015.511.046.422.12.543.241.573.694.031.407.015.768.015 2.713V37.4c0 1.854.527 2.804 1.205 3.392.965.843 2.337.874 3.03.874.86 0 1.87-.136 2.805-.92 1.115-.919 1.266-2.426 1.266-3.86v-1.372c0-1.945.015-2.306.031-2.713.029-.453.12-.633.482-.694.165-.031.241-.046.392-.046s.227-.045.227-.136c.002-.088-.089-.118-.27-.118zm12.368 0c-.649 0-1.147.031-1.296.031-.287 0-.996-.031-1.689-.031-.196 0-.331.015-.331.12 0 .076.045.136.211.136.18 0 .498 0 .694.076.316.12.436.347.452 1.131l.136 5.698h-.06c-.196-.18-1.959-1.99-2.864-2.879-1.93-1.885-3.92-3.92-4.086-4.086-.227-.227-.407-.422-.573-.422-.136 0-.225.182-.225.438l-.122 7.599c-.014 1.115-.06 1.461-.407 1.552-.18.046-.422.06-.603.06-.12 0-.211.06-.211.136 0 .122.12.136.302.136.678 0 1.312-.045 1.432-.045.241 0 .859.045 1.719.045.18 0 .302-.029.302-.136 0-.076-.076-.136-.227-.136-.211 0-.467-.014-.694-.09-.256-.091-.422-.393-.453-1.387l-.15-5.231h.045c.256.225 1.658 1.779 3.106 3.166a324.046 324.046 0 0 0 3.875 3.693c.136.136.316.271.543.271.105 0 .211-.12.211-.407l.151-8.081c.014-.723.12-.95.482-1.054.165-.046.271-.046.407-.046.15 0 .225-.06.225-.136-.001-.106-.121-.121-.302-.121zm6.684 9.422c-.196 0-.497-.014-.678-.045-.392-.06-.482-.256-.527-.603-.06-.543-.06-1.569-.06-2.805v-2.261c0-1.945 0-2.306.029-2.713.031-.453.136-.633.498-.694.151-.031.256-.046.392-.046s.211-.029.211-.151c0-.074-.105-.105-.271-.105-.512 0-1.372.031-1.703.031-.378 0-1.281-.031-1.779-.031-.211 0-.317.031-.317.105 0 .122.076.151.211.151a1.7 1.7 0 0 1 .482.06c.287.091.422.242.453.68.015.407.015.768.015 2.713v2.261c0 1.236 0 2.262-.061 2.79-.045.376-.12.558-.392.618-.12.031-.271.045-.467.045-.166 0-.211.076-.211.136 0 .091.091.136.256.136.529 0 1.432-.045 1.734-.045.362 0 1.267.045 2.141.045.151 0 .256-.045.256-.136-.001-.06-.061-.136-.212-.136zm10.467-9.513c-.045 0-.151.031-.362.06a5.742 5.742 0 0 1-.905.061h-5.382c-.436 0-.934-.015-1.326-.061-.331-.045-.468-.15-.573-.15-.076 0-.12.076-.151.241-.029.106-.287 1.342-.287 1.554 0 .136.031.211.122.211.09 0 .12-.061.15-.166a1.53 1.53 0 0 1 .227-.438c.196-.287.513-.376 1.282-.392l1.975-.045v5.185c0 1.176 0 2.187-.06 2.73-.046.376-.12.618-.393.678a1.825 1.825 0 0 1-.467.045c-.165 0-.211.076-.211.136 0 .091.091.136.257.136.527 0 1.432-.045 1.733-.045.378 0 1.267.045 2.141.045.151 0 .257-.045.257-.136 0-.06-.06-.136-.211-.136-.196 0-.498-.014-.678-.045-.393-.06-.468-.302-.513-.663-.06-.558-.076-1.569-.076-2.745v-5.185l1.674.029c1.191.015 1.538.407 1.568.738l.015.137c.015.196.045.256.151.256.076 0 .105-.076.12-.211 0-.331.029-1.282.029-1.554-.001-.195-.015-.27-.106-.27zm10.243.091c-.257 0-1.131.031-1.418.031-.392 0-.859-.031-1.296-.031-.151 0-.227.031-.227.12 0 .106.12.12.242.151.225.045.285.166.285.287 0 .166-.06.392-.196.678-.196.392-1.808 3.137-1.975 3.437-.227-.362-1.961-3.362-2.201-3.753-.106-.182-.166-.333-.166-.438s.076-.166.182-.196c.211-.06.301-.06.301-.166 0-.09-.076-.12-.196-.12-.603 0-1.221.031-1.507.031-.438 0-1.432-.031-1.658-.031-.165 0-.256.031-.256.12 0 .091.091.136.196.136.166 0 .392.076.558.166.256.136.527.438.859.905.468.678 2.277 3.497 2.367 3.693.18.378.302.649.302 1.342v1.054c0 .211 0 .74-.046 1.282-.029.376-.136.618-.407.678-.12.031-.287.045-.467.045-.151 0-.211.076-.211.136 0 .106.106.136.287.136.498 0 1.387-.045 1.719-.045.362 0 1.252.045 2.081.045.18 0 .287-.045.287-.136 0-.06-.076-.136-.227-.136-.18 0-.467-.014-.663-.045-.393-.06-.513-.302-.544-.678-.029-.543-.029-1.071-.029-1.282v-1.025c0-.422-.031-.814.166-1.281.241-.543 2.14-3.588 2.577-4.101.287-.347.407-.467.694-.603.196-.091.438-.151.573-.151.151 0 .256-.06.256-.151-.002-.074-.093-.104-.242-.104zm18.523 9.422c-.302 0-1.131-.241-1.614-.527a15.697 15.697 0 0 1-2.096-1.478c.86-1.01 1.478-2.412 1.478-3.573 0-.18-.227-.271-.513-.301a16.748 16.748 0 0 0-1.808-.106c-.122 0-.242.031-.242.151 0 .091.091.12.182.12.225 0 .543.046.738.227.227.196.287.467.287.694 0 .92-.422 1.899-.724 2.321-.287-.256-2.141-1.93-2.653-2.517-1.207-1.342-2.503-2.548-2.503-3.966 0-1.281.98-1.719 1.614-1.719.843 0 1.372.317 1.673.678.333.393.438.875.438 1.267 0 .227.015.287.105.287.091 0 .151-.031.182-.256.045-.227.165-1.433.165-1.93 0-.182 0-.302-.256-.393-.407-.165-1.085-.316-1.824-.316-2.623 0-3.679 1.583-3.664 2.774.015.678.136 1.296.769 2.14-.905.438-2.458 1.809-2.458 3.574 0 1.312.965 3.331 4.191 3.331 2.067 0 3.076-.919 3.574-1.372 1.296.996 1.839 1.161 3.558 1.161h1.161c.331 0 .453-.045.453-.136-.002-.12-.077-.135-.213-.135zm-8.021-.467c-1.568 0-2.895-1.205-2.895-3.09 0-1.207.527-1.914 1.04-2.292.256.378 1.221 1.463 1.614 1.885a49.812 49.812 0 0 0 2.713 2.593c-.316.301-1.311.904-2.472.904zm20.819-1.552c-.106 0-.137.06-.166.225-.106.618-.287.935-.678 1.116-.393.18-1.025.18-1.418.18-1.537 0-1.779-.225-1.808-1.266-.015-.438 0-1.825 0-2.337v-1.191c0-.091.014-.151.09-.151.362 0 1.854.015 2.141.046.558.06.769.285.845.587.045.196.045.392.06.543 0 .076.031.136.136.136.136 0 .136-.165.136-.287 0-.105.045-.708.06-1.01.06-.769.12-1.01.12-1.101s-.045-.12-.105-.12c-.076 0-.136.076-.241.196-.136.151-.362.196-.724.227-.347.029-2.081.029-2.412.029-.091 0-.105-.06-.105-.165v-3.815c0-.106.029-.151.105-.151.302 0 1.885.031 2.141.06.754.091.905.271 1.01.543.076.182.091.438.091.543 0 .137.031.211.136.211.105 0 .136-.09.151-.165.029-.182.06-.845.076-.996.045-.694.12-.874.12-.98 0-.074-.015-.136-.091-.136s-.165.046-.241.061a6.29 6.29 0 0 1-.649.09c-.287.015-3.286.015-3.769.015-.211 0-.558-.015-.95-.031-.378 0-.814-.014-1.222-.014-.225 0-.331.029-.331.136 0 .105.091.136.256.136.211 0 .468.015.589.045.498.106.618.347.649.86.029.482.029.905.029 3.195v2.654c0 1.387 0 2.577-.076 3.211-.06.438-.136.769-.436.829a2.42 2.42 0 0 1-.544.06c-.18 0-.241.046-.241.122 0 .105.105.15.302.15.301 0 .692-.029 1.039-.029.362-.015.694-.015.86-.015.452 0 .92.015 1.568.045.649.015 1.478.046 2.608.046.573 0 .709 0 .815-.393.076-.301.196-1.326.196-1.673-.001-.151-.001-.271-.122-.271zm11.462 2.019c-.12 0-.331-.014-.512-.076-.287-.09-.498-.225-.724-.512-.331-.407-2.533-3.89-2.955-4.524l2.201-3c.407-.558.649-.905.95-.98a2.13 2.13 0 0 1 .482-.076c.136 0 .211-.06.211-.136 0-.09-.09-.12-.241-.12-.498 0-1.04.031-1.296.031-.257 0-.875-.031-1.387-.031-.196 0-.287.031-.287.12 0 .091.091.136.165.136.106 0 .287 0 .422.046.136.029.227.12.227.211 0 .105-.045.285-.151.467-.225.362-1.401 2.095-1.794 2.668-.527-.874-1.07-1.763-1.658-2.788-.076-.136-.136-.302-.136-.378 0-.076.06-.151.182-.18.105-.031.241-.046.316-.046.12 0 .211-.045.211-.136 0-.09-.091-.12-.271-.12-.498 0-1.312.031-1.492.031-.633 0-1.705-.031-2.021-.031-.166 0-.271.031-.271.105 0 .091.06.151.136.151.136 0 .347.031.558.091.467.151.738.422 1.07.934l2.337 3.648-2.593 3.499c-.452.618-.663.829-1.056.934-.196.046-.392.06-.482.06-.105 0-.18.076-.18.151 0 .076.06.12.196.12h.227c.211 0 .859-.045 1.116-.045.331 0 1.205.045 1.281.045h.242c.18 0 .271-.029.271-.12 0-.076-.091-.151-.166-.151-.105 0-.211-.014-.287-.014-.12 0-.241-.076-.256-.197-.015-.136.06-.331.196-.543l1.945-3.015c.603.98 1.327 2.186 2.095 3.437.106.166.015.256-.045.271-.12.031-.18.091-.18.166 0 .09.12.12.467.136 1.085.029 2.141.029 2.457.029h.393c.15 0 .256-.045.256-.136-.002-.072-.078-.132-.169-.132zm9.927-2.155c-.106 0-.136.06-.166.256-.045.241-.227.603-.452.859-.529.589-1.176.68-2.352.68-1.78 0-4.131-1.447-4.131-4.493 0-1.252.241-2.488 1.221-3.332.603-.512 1.341-.723 2.503-.723 1.221 0 2.11.316 2.562.754.333.331.498.783.513 1.19 0 .166.031.271.136.271.12 0 .166-.136.18-.316.015-.256.015-.965.046-1.387.029-.452.06-.603.06-.709 0-.076-.046-.136-.196-.15-.393-.046-.829-.136-1.327-.211a13.526 13.526 0 0 0-1.93-.136c-1.975 0-3.241.512-4.206 1.356-1.267 1.131-1.552 2.639-1.552 3.513 0 1.236.345 2.684 1.657 3.784 1.207 1.01 2.745 1.387 4.553 1.387.86 0 1.87-.076 2.398-.287.225-.091.285-.151.347-.376.136-.438.285-1.554.285-1.705.001-.105-.059-.225-.149-.225zm8.763.603c-.09.527-.241.799-.573.95-.346.151-.903.166-1.25.166-1.358 0-1.765-.197-1.794-1.071-.015-.376 0-1.463 0-1.899v-1.025c0-.076.014-.136.076-.136.331 0 1.839.029 2.079.06.498.045.664.241.74.497.029.166.029.333.045.468 0 .06.031.105.12.105.122 0 .136-.18.136-.287 0-.09.031-.603.06-.859.076-.649.106-.86.106-.935 0-.076-.045-.136-.106-.136-.06 0-.105.076-.211.166-.136.12-.316.165-.632.196-.302.031-2.021.031-2.323.031-.076 0-.09-.061-.09-.136v-3.166c0-.076.029-.122.09-.122.271 0 1.854.031 2.081.06.664.061.769.242.874.468.076.15.091.376.091.467 0 .105.015.165.106.165.105 0 .136-.15.15-.21.031-.151.061-.709.076-.845.031-.589.106-.74.106-.829 0-.06-.015-.12-.091-.12-.06 0-.136.045-.211.06-.105.014-.316.06-.558.076-.256.014-3.195 0-3.618 0-.378 0-1.221-.031-1.914-.031-.197 0-.302.031-.302.12 0 .091.091.136.227.136.196 0 .422.015.527.046.422.12.543.256.573.694.014.407.014.768.014 2.713v2.261c0 1.176 0 2.187-.06 2.73-.045.376-.12.618-.392.678-.12.031-.271.045-.467.045-.166 0-.211.076-.211.136 0 .091.091.136.256.136.271 0 .603-.014.92-.029.316 0 .603-.015.754-.015.392 0 .889.015 1.538.031a55.56 55.56 0 0 0 2.442.045c.498 0 .618 0 .709-.331.076-.257.18-1.131.18-1.418 0-.136-.015-.301-.12-.301-.093-.001-.122.059-.153.195zm9.231-.256c-.105 0-.136.074-.15.196-.031.241-.166.603-.333.769-.331.346-.843.361-1.552.361-1.025 0-1.538-.076-1.763-.271-.287-.241-.287-1.054-.287-2.699v-2.261c0-1.945 0-2.306.029-2.713.031-.453.136-.633.498-.694a2.87 2.87 0 0 1 .513-.046c.165 0 .241-.045.241-.136 0-.09-.091-.12-.287-.12-.512 0-1.598.031-1.914.031-.362 0-1.205-.031-1.825-.031-.196 0-.285.031-.285.12 0 .091.076.136.225.136.166 0 .333.015.438.046.422.12.543.256.573.694.014.407.014.768.014 2.713v2.261c0 1.176 0 2.187-.06 2.73-.045.376-.12.618-.392.678-.12.031-.271.045-.467.045-.166 0-.211.076-.211.136 0 .091.091.136.256.136.271 0 .603-.014.92-.029.316 0 .603-.015.754-.015.543 0 1.101.015 1.763.031.664.029 1.433.045 2.383.045.694 0 .754-.06.843-.347.106-.378.197-1.327.197-1.478 0-.152-.03-.288-.121-.288zm8.703 0c-.105 0-.136.074-.15.196-.031.241-.166.603-.333.769-.331.346-.843.361-1.552.361-1.025 0-1.538-.076-1.763-.271-.287-.241-.287-1.054-.287-2.699v-2.261c0-1.945 0-2.306.029-2.713.031-.453.136-.633.498-.694a2.87 2.87 0 0 1 .513-.046c.165 0 .241-.045.241-.136 0-.09-.091-.12-.287-.12-.512 0-1.598.031-1.914.031-.362 0-1.205-.031-1.824-.031-.197 0-.287.031-.287.12 0 .091.076.136.225.136.166 0 .333.015.438.046.422.12.543.256.573.694.015.407.015.768.015 2.713v2.261c0 1.176 0 2.187-.061 2.73-.045.376-.12.618-.392.678-.12.031-.271.045-.467.045-.166 0-.211.076-.211.136 0 .091.091.136.256.136.271 0 .603-.014.92-.029.316 0 .603-.015.754-.015.543 0 1.101.015 1.763.031.664.029 1.433.045 2.383.045.694 0 .754-.06.845-.347.105-.378.196-1.327.196-1.478.001-.152-.03-.288-.121-.288zm8.235.256c-.091.527-.241.799-.572.95-.347.151-.905.166-1.252.166-1.358 0-1.765-.197-1.794-1.071-.015-.376 0-1.463 0-1.899v-1.025c0-.076.014-.136.076-.136.331 0 1.839.029 2.079.06.498.045.664.241.74.497.029.166.029.333.045.468 0 .06.031.105.12.105.122 0 .136-.18.136-.287 0-.09.031-.603.06-.859.076-.649.106-.86.106-.935 0-.076-.045-.136-.106-.136-.06 0-.105.076-.21.166-.137.12-.317.165-.633.196-.302.031-2.021.031-2.323.031-.076 0-.09-.061-.09-.136v-3.166c0-.076.029-.122.09-.122.271 0 1.854.031 2.081.06.664.061.769.242.875.468.074.15.09.376.09.467 0 .105.015.165.106.165.105 0 .136-.15.15-.21.031-.151.061-.709.076-.845.031-.589.106-.74.106-.829 0-.06-.015-.12-.091-.12-.06 0-.136.045-.211.06-.105.014-.316.06-.558.076-.256.014-3.195 0-3.618 0-.378 0-1.221-.031-1.914-.031-.197 0-.302.031-.302.12 0 .091.091.136.227.136.196 0 .422.015.527.046.422.12.543.256.573.694.015.407.015.768.015 2.713v2.261c0 1.176 0 2.187-.061 2.73-.045.376-.12.618-.392.678-.12.031-.271.045-.467.045-.166 0-.211.076-.211.136 0 .091.091.136.256.136.271 0 .603-.014.92-.029.316 0 .603-.015.754-.015.392 0 .889.015 1.538.031a55.56 55.56 0 0 0 2.442.045c.498 0 .618 0 .709-.331.076-.257.18-1.131.18-1.418 0-.136-.015-.301-.12-.301-.092-.001-.122.059-.152.195zm12.79-7.87c-.649 0-1.147.031-1.296.031-.287 0-.996-.031-1.689-.031-.196 0-.331.015-.331.12 0 .076.045.136.211.136.18 0 .498 0 .694.076.316.12.436.347.452 1.131l.136 5.698h-.06c-.196-.18-1.959-1.99-2.864-2.879-1.93-1.885-3.92-3.92-4.086-4.086-.227-.227-.407-.422-.573-.422-.136 0-.225.182-.225.438l-.122 7.599c-.014 1.115-.06 1.461-.407 1.552-.18.046-.422.06-.603.06-.12 0-.211.06-.211.136 0 .122.12.136.302.136.678 0 1.312-.045 1.432-.045.241 0 .859.045 1.719.045.18 0 .302-.029.302-.136 0-.076-.076-.136-.227-.136-.211 0-.467-.014-.694-.09-.256-.091-.422-.393-.453-1.387l-.15-5.231h.045c.256.225 1.658 1.779 3.106 3.166a324.046 324.046 0 0 0 3.875 3.693c.136.136.316.271.543.271.105 0 .211-.12.211-.407l.151-8.081c.014-.723.12-.95.482-1.054.165-.046.271-.046.407-.046.15 0 .225-.06.225-.136-.001-.106-.121-.121-.302-.121zm11.134 7.267c-.106 0-.136.06-.166.256-.045.241-.227.603-.452.859-.529.589-1.176.68-2.352.68-1.78 0-4.131-1.447-4.131-4.493 0-1.252.241-2.488 1.221-3.332.603-.512 1.341-.723 2.503-.723 1.221 0 2.11.316 2.562.754.333.331.498.783.513 1.19 0 .166.031.271.136.271.12 0 .166-.136.18-.316.015-.256.015-.965.046-1.387.029-.452.06-.603.06-.709 0-.076-.046-.136-.196-.15-.393-.046-.829-.136-1.327-.211a13.526 13.526 0 0 0-1.93-.136c-1.975 0-3.241.512-4.206 1.356-1.267 1.131-1.552 2.639-1.552 3.513 0 1.236.346 2.684 1.657 3.784 1.207 1.01 2.745 1.387 4.553 1.387.86 0 1.87-.076 2.398-.287.225-.091.285-.151.347-.376.136-.438.285-1.554.285-1.705 0-.105-.06-.225-.149-.225zm8.763.603c-.09.527-.241.799-.573.95-.346.151-.903.166-1.25.166-1.358 0-1.765-.197-1.794-1.071-.015-.376 0-1.463 0-1.899v-1.025c0-.076.014-.136.076-.136.331 0 1.839.029 2.079.06.498.045.664.241.74.497.029.166.029.333.045.468 0 .06.031.105.12.105.122 0 .136-.18.136-.287 0-.09.031-.603.06-.859.076-.649.106-.86.106-.935 0-.076-.045-.136-.106-.136-.06 0-.105.076-.211.166-.136.12-.316.165-.632.196-.302.031-2.021.031-2.323.031-.076 0-.09-.061-.09-.136v-3.166c0-.076.029-.122.09-.122.271 0 1.854.031 2.081.06.664.061.769.242.874.468.076.15.091.376.091.467 0 .105.015.165.106.165.105 0 .136-.15.15-.21.031-.151.061-.709.076-.845.031-.589.106-.74.106-.829 0-.06-.015-.12-.091-.12-.06 0-.136.045-.211.06-.105.014-.316.06-.558.076-.256.014-3.195 0-3.618 0-.378 0-1.221-.031-1.914-.031-.197 0-.302.031-.302.12 0 .091.091.136.227.136.196 0 .422.015.527.046.422.12.543.256.573.694.014.407.014.768.014 2.713v2.261c0 1.176 0 2.187-.06 2.73-.045.376-.12.618-.392.678-.12.031-.271.045-.467.045-.166 0-.211.076-.211.136 0 .091.091.136.256.136.271 0 .603-.014.92-.029.316 0 .603-.015.754-.015.392 0 .889.015 1.538.031a55.56 55.56 0 0 0 2.442.045c.498 0 .618 0 .709-.331.076-.257.18-1.131.18-1.418 0-.136-.015-.301-.12-.301-.093-.001-.122.059-.153.195z"/></g><path fill="#FED600" d="M1.2 7.3c3-1 4.1-1.8 4.9-1.8.7 0 .8.5.8 1.3v13.9c0 4.3 0 7-.2 9.9-.1 1.3-.4 2-1.8 2.3-.8.2-2.8.3-3.3.3-.3 0-.5.2-.5.4 0 .3.3.4.7.4 2.8 0 5.1-.1 6.6-.1 1.3 0 3.5.1 6.7.1.5 0 .7-.2.7-.5s-.2-.4-.5-.4c-.4 0-3-.2-3.6-.3-1.4-.3-1.6-.9-1.8-2.3-.2-1.8-.2-5.6-.1-10V1.3c0-.4 0-.7-.3-.8H9c-.1.1-.3.2-.6.4C6.4 3 4.1 4.8.6 6.5c-.1 0-.1.1-.2.1v.6c.2.1.2.2.3.2.2 0 .3-.1.5-.1z"/><path fill="#FED600" d="M30.1 32.4c-.3 0-.4.2-.4.7-.3 2.3-1.3 3.9-4.4 4.2-1.6.2-6.1.2-6.8.2h-3.2c-.2 0-.3-.1-.1-.3 5.2-6.3 11.4-11.9 13.4-18.4.3-1 .5-2.1.6-3.2 0-.4.1-.8.1-1.3C29.3 10 26 6 19.9 6c-3.3 0-5.5 1.2-7.1 1.9-.4.3-.4.4-.4.6.1 1.2.1 3.6 0 5.3 0 .4.2.6.3.6.2 0 .4-.3.4-.6 0-1.6.6-3.2 1.5-4.3 1-1.2 2.5-1.9 4.4-1.9 2.7 0 6.7 1.2 6.7 7 0 8.7-13.8 23.3-14.4 23.9-.3.3-.8.7-.8 1.1 0 .4.3.6.6.6h16.4c1.8 0 2.8-.1 2.8-1.1-.1-1.5-.1-3.9.1-6 0-.2 0-.7-.3-.7z"/><path fill="#FED600" d="M30.3 24.8v-6.5h8.3c3.5 0 4.3 1.1 4.3 2.7 0 .3.1.6.3.6s.3-.2.3-.5c0-2.1-.1-4.1 0-5.3 0-.3-.1-.4-.3-.4-.1 0-.4.1-.9.2s-1.2.1-2.4.1H29.2c-.3 0-.5.2-.5.5l-.1 2.6-.3 7.8c0 .5.3.7 1.1.8 3.4.2 13 1 13 10 0 7.3-5.4 11-10.3 11-4.3 0-7.7-.7-7.7-6.1 0-.7-.1-1-.5-1s-.5.4-.5 1.1c.1 2 .1 3.4 0 5.3 0 .6.1 1.1 1.1 1.7.8.5 1.7.8 2.6.9h5.1c8.2-1 12.2-6.2 12.9-12.1v-3.8c-.9-8.3-9.4-8.8-14.8-9.6z"/><path fill="none" stroke="#FFF" stroke-miterlimit="10" d="M.5.5h44.8v49.8H.5V.5z"/><path fill="#FFF" d="M178.728 35.068c-5.101 5.356-8.926 8.289-14.155 7.524-5.483-.765-8.671-4.591-10.584-9.819-1.785-5.101-1.913-15.302 3.06-20.658 3.316-3.443 9.819-3.698 12.625-2.805 5.101 1.53 7.014 4.081 8.544 9.437h1.02s-.128-2.805 0-4.718c0-1.403.255-3.698.255-3.698-.128-.128-.383-.383-.765-.51-5.228-2.933-17.088-4.081-24.101-.128s-9.054 10.457-8.926 16.323c.128 6.504 2.423 12.88 9.309 16.578 6.376 3.316 16.195 2.678 23.464-1.913.765-.638 1.148-.893 1.275-1.148 0 0 0-1.785.128-2.423 0-.893-.255-2.933-.255-2.933l-.894.891zm45.015-6.121h-12.752v1.148c1.53.383 3.443.51 3.443 3.953v6.759c-.255.255-.383.383-.893.638-2.805 1.53-7.779 1.53-10.839.128-6.504-3.061-8.671-8.926-9.309-14.282-.383-3.953 0-11.987 4.846-15.94 4.081-3.188 10.202-3.06 14.41-1.53 4.973 1.913 5.993 3.826 7.014 8.416h1.275l-.51-8.416c-.255-.255-2.678-1.148-2.678-1.148-7.269-1.913-18.235-3.316-25.504 2.678-5.866 4.973-7.014 12.497-6.249 17.853.638 5.611 4.081 10.712 10.074 13.517 6.249 3.06 18.746 1.658 23.081-.638l1.148-.765v-7.014c0-3.188.51-3.698 3.316-4.336v-1.02h.127zM62.302 13.389v14.41c0 4.591.51 10.967 6.376 14.41 4.973 3.06 11.222 3.188 16.323.383 6.249-3.316 6.759-9.819 6.886-14.155l.383-13.517c.128-2.04 0-4.081 1.785-5.228.128-.128 1.785-.638 2.168-.638v-1.02s-3.571.128-5.738.128c-1.785 0-4.718-.128-4.718-.128v1.148c3.061.383 3.826 2.04 3.826 5.483v14.792c0 4.208-.383 8.671-5.228 11.477-3.061 1.785-7.651 2.04-10.712.255-4.973-2.805-5.483-7.141-5.483-11.094V13.389c0-1.658.128-3.06 1.785-3.953.765-.383 1.148-.255 1.913-.383v-1.02c-1.275 0-3.953.128-6.504.128-3.443 0-6.759-.128-6.759-.128v1.148c.765.128 1.148 0 1.913.383 1.656.765 1.784 2.295 1.784 3.825zm49.988 30.223v-1.148c-.51 0-2.04-.383-2.295-.638-1.913-1.148-1.913-3.188-1.913-5.228V14.282l23.464 26.652c1.275 1.53 2.933 3.826 3.698 3.571.765-.255.638-2.423.638-4.081V14.919c0-2.04 0-4.081 1.913-5.228.255-.128 1.785-.638 2.295-.638v-1.02s-3.443.128-5.611.128c-1.785 0-4.718-.128-4.718-.128v1.148c3.188.383 3.826 2.04 3.826 5.356V33.41L111.142 8.033s-2.55.128-4.463.128c-1.785 0-4.463-.128-4.463-.128v1.148c.51.128 1.913.128 2.55.51 1.275.893 1.148 2.295 1.148 4.846v22.571c0 3.316-.765 4.973-3.826 5.356v1.148s2.805-.128 4.591-.128c2.168 0 5.611.128 5.611.128z"/></svg>