<svg xmlns="http://www.w3.org/2000/svg" viewBox="0 0 150 150"><title>uncg_school_icons</title><path d="M143.14 46.26a72.72 72.72 0 0 0-39.4-39.4 73.37 73.37 0 0 0-57.48 0 72.72 72.72 0 0 0-39.4 39.4 73.37 73.37 0 0 0 0 57.48 72.72 72.72 0 0 0 39.4 39.4 73.37 73.37 0 0 0 57.48 0 72.72 72.72 0 0 0 39.4-39.4 73.37 73.37 0 0 0 0-57.48zM138.43 75a61.7 61.7 0 0 1-5 24.61 62.68 62.68 0 0 1-33.78 33.78 62.64 62.64 0 0 1-49.22 0 62.68 62.68 0 0 1-33.82-33.78 61.72 61.72 0 0 1-5-24.61 61.7 61.7 0 0 1 5-24.61 62.68 62.68 0 0 1 33.78-33.78 62.64 62.64 0 0 1 49.22 0 62.68 62.68 0 0 1 33.78 33.78 61.72 61.72 0 0 1 5 24.61z" fill="#fff"/><path d="M89.22 123.27a14.42 14.42 0 0 0-16.27-12.57c-7.48 1-12.09 7.55-12.22 12.57a58.85 58.85 0 0 0 28.49 0zM60.66 26.73a14.39 14.39 0 0 0 28.57 0 57.49 57.49 0 0 0-28.57 0zM30.79 50.9a14.32 14.32 0 0 0 19.3-1.44c5.42-5.63 4.81-14.21.82-18.75a55.54 55.54 0 0 0-11.26 8.72 57.48 57.48 0 0 0-8.86 11.47zM51 119.08a14.41 14.41 0 0 0-20.21-20.25A56.38 56.38 0 0 0 51 119.08zm68.16-20.18a14.47 14.47 0 0 0-20 2.13c-5.08 6.11-3.64 14.28-.21 18a56 56 0 0 0 20.21-20.13zm0-48A57.81 57.81 0 0 0 98.9 30.64a14.43 14.43 0 0 0 20.26 20.26zm4.05 38.25a57.06 57.06 0 0 0 1.65-18.06 48 48 0 0 0-1.72-10.44 14.41 14.41 0 0 0-12.5 16.07c.97 7.55 7.49 12.15 12.57 12.43zM26.8 60.58a57.49 57.49 0 0 0 0 28.57 14.24 14.24 0 0 0 12.63-13A14.44 14.44 0 0 0 26.8 60.58zm48.07 46.08a4.43 4.43 0 0 0 4.53-4.46 4.48 4.48 0 0 0-4.53-4.53 4.56 4.56 0 0 0-4.53 4.46 4.62 4.62 0 0 0 4.53 4.53zm-19.09-17.1A4.39 4.39 0 0 0 51.25 94a4.5 4.5 0 1 0 9 .07 4.43 4.43 0 0 0-4.47-4.51zm46.35-19.16a4.43 4.43 0 0 0-4.53 4.46 4.51 4.51 0 0 0 4.46 4.53 4.5 4.5 0 1 0 .07-9zM55.78 60.24a4.44 4.44 0 0 0 4.53-4.53 4.53 4.53 0 0 0-4.53-4.53 4.53 4.53 0 0 0 0 9.06zm-7.9 10.16a4.48 4.48 0 0 0-4.53 4.53 4.5 4.5 0 0 0 9 0 4.3 4.3 0 0 0-4.47-4.53zm27-18.06a4.38 4.38 0 0 0 4.53-4.46 4.48 4.48 0 0 0-4.53-4.53 4.41 4.41 0 0 0-4.46 4.46 4.47 4.47 0 0 0 4.45 4.53zM94.1 98.55a4.34 4.34 0 0 0 4.53-4.46 4.5 4.5 0 1 0-9 0 4.36 4.36 0 0 0 4.47 4.46zm4.53-42.85A4.53 4.53 0 1 0 94 60.24a4.5 4.5 0 0 0 4.63-4.54z" fill="#fff"/><path d="M89.22 123.27a57.22 57.22 0 0 1-28.5 0c.14-5 4.81-11.6 12.22-12.57a14.37 14.37 0 0 1 16.28 12.57zM60.66 26.73a57.49 57.49 0 0 1 28.57 0 14.39 14.39 0 0 1-28.57 0zM30.79 50.9a57.48 57.48 0 0 1 8.86-11.47 55.54 55.54 0 0 1 11.25-8.72 14.43 14.43 0 0 1-.82 18.75 14.25 14.25 0 0 1-19.29 1.44zM51 119.08A57.89 57.89 0 0 1 30.79 98.9c4.67-4 13-4.39 18.54.76A14.36 14.36 0 0 1 51 119.08zm68.16-20.18A56.81 56.81 0 0 1 99 119.08c-3.43-3.71-4.88-11.88.21-18a14.42 14.42 0 0 1 19.95-2.18zm0-48A14.43 14.43 0 0 1 98.9 30.64a58.38 58.38 0 0 1 20.26 20.26zm4.05 38.25c-5.08-.27-11.67-4.88-12.57-12.5a14.41 14.41 0 0 1 12.5-16.07A60.18 60.18 0 0 1 124.86 71a55.72 55.72 0 0 1-1.65 18.15zM26.8 60.58A14.44 14.44 0 0 1 39.44 76.1a14.24 14.24 0 0 1-12.63 13 57.49 57.49 0 0 1-.01-28.52zm48.07 46.08a4.43 4.43 0 0 1-4.46-4.53 4.53 4.53 0 1 1 4.46 4.53zm-19.09-17.1a4.47 4.47 0 0 1 4.46 4.53 4.53 4.53 0 0 1-4.6 4.46 4.5 4.5 0 0 1 .14-9zm46.35-19.16a4.4 4.4 0 0 1 4.46 4.46 4.5 4.5 0 1 1-9 0 4.43 4.43 0 0 1 4.54-4.46zM55.78 60.24a4.41 4.41 0 0 1-4.46-4.46 4.48 4.48 0 0 1 4.53-4.53 4.53 4.53 0 0 1 4.53 4.53 4.62 4.62 0 0 1-4.6 4.46zm-7.9 10.16a4.46 4.46 0 1 1 .12 8.93 4.43 4.43 0 0 1-4.53-4.46 4.37 4.37 0 0 1 4.41-4.47zm26.99-18.06a4.5 4.5 0 1 1 4.53-4.46 4.38 4.38 0 0 1-4.53 4.46zM94.1 98.55a4.4 4.4 0 0 1-4.46-4.46 4.48 4.48 0 0 1 4.53-4.53 4.39 4.39 0 0 1 4.46 4.53 4.34 4.34 0 0 1-4.53 4.46zm4.53-42.85a4.5 4.5 0 1 1-4.46-4.6 4.48 4.48 0 0 1 4.46 4.6z" fill="#fff"/></svg>