<?xml version="1.0" encoding="utf-8"?>
<!-- Generator: Adobe Illustrator 20.1.0, SVG Export Plug-In . SVG Version: 6.00 Build 0)  -->
<svg version="1.1" id="Layer_1" xmlns="http://www.w3.org/2000/svg" xmlns:xlink="http://www.w3.org/1999/xlink" x="0px" y="0px"
	 viewBox="0 0 183.6 51.4" style="enable-background:new 0 0 183.6 51.4;" xml:space="preserve">
<g id="slogan">
	<path style="fill:#FFFFFF;" d="M57.1,39.9c0.7,0.6,1.7,0.9,2.8,0.9c0.5,0,1.1-0.1,1.4-0.2c0.1-0.1,0.2-0.1,0.2-0.2
		c0.1-0.3,0.2-1,0.2-1.1c0-0.1,0-0.1-0.1-0.1c-0.1,0-0.1,0-0.1,0.2c0,0.1-0.1,0.4-0.3,0.5c-0.3,0.4-0.8,0.4-1.5,0.4
		c-1.1,0-2.5-0.9-2.5-2.9c0-0.8,0.2-1.5,0.7-2.1c0.4-0.3,0.8-0.5,1.5-0.5c0.7,0,1.4,0.2,1.6,0.5c0.2,0.2,0.3,0.5,0.3,0.7
		c0,0.1,0,0.2,0.1,0.2c0.1,0,0.1-0.1,0.1-0.2c0-0.2,0-0.6,0-0.9c0-0.3,0-0.4,0-0.4c0,0,0-0.1-0.1-0.1c-0.2,0-0.5-0.1-0.8-0.1
		c-0.4,0-0.7-0.1-1.2-0.1c-1.2,0-2,0.3-2.5,0.9c-0.8,0.7-0.9,1.7-0.9,2.2C56.1,38.3,56.3,39.2,57.1,39.9z"/>
	<path style="fill:#FFFFFF;" d="M64,40.7c0.2,0,0.5,0,0.8,0c0.3,0,0.8,0,1.3,0c0.3,0,0.3,0,0.4-0.2c0-0.1,0.1-0.6,0.1-0.8
		c0-0.1,0-0.2-0.1-0.2c0,0-0.1,0-0.1,0.1c0,0.3-0.1,0.4-0.3,0.5c-0.2,0.1-0.5,0.1-0.7,0.1c-0.7,0-0.9-0.1-1-0.6c0-0.2,0-0.8,0-1
		v-0.5c0,0,0-0.1,0-0.1c0.2,0,1,0,1.1,0c0.3,0,0.4,0.1,0.4,0.3c0,0.1,0,0.2,0,0.2c0,0,0,0.1,0.1,0.1c0.1,0,0.1-0.1,0.1-0.2
		c0,0,0-0.3,0-0.5c0-0.3,0.1-0.5,0.1-0.5c0,0,0-0.1-0.1-0.1c0,0-0.1,0-0.1,0.1c-0.1,0.1-0.2,0.1-0.3,0.1c-0.2,0-1.1,0-1.2,0
		c0,0,0,0,0-0.1V36c0,0,0-0.1,0-0.1c0.1,0,1,0,1.1,0c0.4,0,0.4,0.1,0.5,0.2c0,0.1,0,0.2,0,0.2c0,0.1,0,0.1,0.1,0.1
		c0.1,0,0.1-0.1,0.1-0.1c0-0.1,0-0.4,0-0.4c0-0.3,0.1-0.4,0.1-0.4c0,0,0-0.1,0-0.1c0,0-0.1,0-0.1,0c-0.1,0-0.2,0-0.3,0
		c-0.1,0-1.7,0-1.9,0c-0.2,0-0.6,0-1,0c-0.1,0-0.2,0-0.2,0.1c0,0,0,0.1,0.1,0.1c0.1,0,0.2,0,0.3,0c0.2,0.1,0.3,0.1,0.3,0.4
		c0,0.2,0,0.4,0,1.4v1.2c0,0.6,0,1.2,0,1.5c0,0.2-0.1,0.3-0.2,0.4c-0.1,0-0.1,0-0.2,0c-0.1,0-0.1,0-0.1,0.1c0,0,0,0.1,0.1,0.1
		c0.1,0,0.3,0,0.5,0C63.8,40.7,63.9,40.7,64,40.7z"/>
	<path style="fill:#FFFFFF;" d="M68.9,40.7c0.3,0,0.6,0,0.9,0c0.4,0,0.8,0,1.3,0c0.4,0,0.4,0,0.4-0.2c0.1-0.2,0.1-0.7,0.1-0.8
		c0-0.1,0-0.2-0.1-0.2c-0.1,0-0.1,0-0.1,0.1c0,0.1-0.1,0.3-0.2,0.4c-0.2,0.2-0.4,0.2-0.8,0.2c-0.5,0-0.8,0-0.9-0.1
		c-0.2-0.1-0.2-0.6-0.2-1.4v-1.2c0-1,0-1.2,0-1.4c0-0.2,0.1-0.3,0.3-0.4c0.1,0,0.2,0,0.3,0c0.1,0,0.1,0,0.1-0.1c0,0,0-0.1-0.2-0.1
		c-0.3,0-0.8,0-1,0c-0.2,0-0.6,0-1,0c-0.1,0-0.2,0-0.2,0.1c0,0,0,0.1,0.1,0.1c0.1,0,0.2,0,0.2,0c0.2,0.1,0.3,0.1,0.3,0.4
		c0,0.2,0,0.4,0,1.4v1.2c0,0.6,0,1.2,0,1.5c0,0.2-0.1,0.3-0.2,0.4c-0.1,0-0.1,0-0.2,0c-0.1,0-0.1,0-0.1,0.1c0,0,0,0.1,0.1,0.1
		c0.1,0,0.3,0,0.5,0C68.7,40.7,68.8,40.7,68.9,40.7z"/>
	<path style="fill:#FFFFFF;" d="M73.7,40.7c0.2,0,0.5,0,0.8,0c0.3,0,0.8,0,1.3,0c0.3,0,0.3,0,0.4-0.2c0-0.1,0.1-0.6,0.1-0.8
		c0-0.1,0-0.2-0.1-0.2c0,0-0.1,0-0.1,0.1c0,0.3-0.1,0.4-0.3,0.5c-0.2,0.1-0.5,0.1-0.7,0.1c-0.7,0-0.9-0.1-1-0.6c0-0.2,0-0.8,0-1
		v-0.5c0,0,0-0.1,0-0.1c0.2,0,1,0,1.1,0c0.3,0,0.4,0.1,0.4,0.3c0,0.1,0,0.2,0,0.2c0,0,0,0.1,0.1,0.1c0.1,0,0.1-0.1,0.1-0.2
		c0,0,0-0.3,0-0.5c0-0.3,0.1-0.5,0.1-0.5c0,0,0-0.1-0.1-0.1c0,0-0.1,0-0.1,0.1c-0.1,0.1-0.2,0.1-0.3,0.1c-0.2,0-1.1,0-1.2,0
		c0,0,0,0,0-0.1V36c0,0,0-0.1,0-0.1c0.1,0,1,0,1.1,0c0.4,0,0.4,0.1,0.5,0.2c0,0.1,0,0.2,0,0.2c0,0.1,0,0.1,0.1,0.1
		c0.1,0,0.1-0.1,0.1-0.1c0-0.1,0-0.4,0-0.4c0-0.3,0.1-0.4,0.1-0.4c0,0,0-0.1,0-0.1c0,0-0.1,0-0.1,0c-0.1,0-0.2,0-0.3,0
		c-0.1,0-1.7,0-1.9,0c-0.2,0-0.6,0-1,0c-0.1,0-0.2,0-0.2,0.1c0,0,0,0.1,0.1,0.1c0.1,0,0.2,0,0.3,0c0.2,0.1,0.3,0.1,0.3,0.4
		c0,0.2,0,0.4,0,1.4v1.2c0,0.6,0,1.2,0,1.5c0,0.2-0.1,0.3-0.2,0.4c-0.1,0-0.1,0-0.2,0c-0.1,0-0.1,0-0.1,0.1c0,0,0,0.1,0.1,0.1
		c0.1,0,0.3,0,0.5,0C73.5,40.7,73.6,40.7,73.7,40.7z"/>
	<path style="fill:#FFFFFF;" d="M81.6,39.2c0-0.8-0.7-1.3-1.3-1.5c0.4-0.3,0.8-0.7,0.8-1.2c0-0.4-0.2-1-1.5-1c-0.2,0-0.7,0-1.1,0
		c-0.1,0-0.6,0-1,0c-0.1,0-0.2,0-0.2,0.1c0,0,0,0.1,0.1,0.1c0.1,0,0.2,0,0.3,0c0.2,0.1,0.3,0.1,0.3,0.4c0,0.2,0,0.4,0,1.4v1.2
		c0,0.6,0,1.2,0,1.5c0,0.2-0.1,0.3-0.2,0.4c-0.1,0-0.1,0-0.2,0c-0.1,0-0.1,0-0.1,0.1c0,0,0,0.1,0.1,0.1c0.1,0,0.3,0,0.5,0
		c0.2,0,0.3,0,0.4,0c0.1,0,0.4,0,0.6,0c0.2,0,0.5,0,0.6,0C81,40.7,81.6,39.9,81.6,39.2z M79.1,36c0-0.1,0-0.1,0.1-0.1
		c0.1,0,0.2,0,0.3,0c0.6,0,0.9,0.6,0.9,1c0,0.3-0.1,0.6-0.3,0.7c-0.1,0.1-0.3,0.1-0.6,0.1c-0.2,0-0.3,0-0.3,0c0,0,0,0,0-0.1V36z
		 M79.8,40.4c-0.2,0-0.3,0-0.5-0.1c-0.2-0.1-0.2-0.2-0.2-0.7v-1.5c0,0,0,0,0,0h0.3c0.3,0,0.5,0.1,0.6,0.2c0.5,0.4,0.7,0.9,0.7,1.2
		C80.7,40.2,80.2,40.4,79.8,40.4z"/>
	<path style="fill:#FFFFFF;" d="M82.8,35.7c0.1,0,0.2,0,0.3,0c0.2,0.1,0.3,0.1,0.3,0.4c0,0.2,0,0.4,0,1.4v1.2c0,0.6,0,1.2,0,1.5
		c0,0.2-0.1,0.3-0.2,0.4c-0.1,0-0.1,0-0.2,0c-0.1,0-0.1,0-0.1,0.1c0,0,0,0.1,0.1,0.1c0.3,0,0.7,0,0.9,0c0.1,0,0.7,0,1.1,0
		c0.1,0,0.1,0,0.1-0.1c0,0,0-0.1-0.1-0.1c-0.1,0-0.2,0-0.3,0c-0.2,0-0.2-0.2-0.3-0.4c0-0.3,0-0.8,0-1.5v-0.1c0,0,0-0.1,0.1-0.1
		l0.6,0c0,0,0.1,0,0.1,0c0.1,0.1,0.4,0.6,0.7,0.9c0.4,0.5,0.7,0.9,1,1c0.2,0.1,0.4,0.1,0.8,0.1h0.3c-0.1,0-0.1,0-0.1-0.1
		c0,0,0-0.1,0.1-0.1c0.1,0,0.1,0,0.2,0c0,0,0,0,0,0c-0.1,0-0.4-0.1-0.7-0.4c-0.4-0.4-0.9-1-1.5-1.8c0.7-0.6,1-1,1-1.5
		c0-0.5-0.3-0.8-0.5-0.9c-0.4-0.2-0.9-0.3-1.3-0.3c-0.2,0-0.9,0-1.1,0c-0.1,0-0.6,0-1,0c-0.1,0-0.2,0-0.2,0.1
		C82.7,35.6,82.7,35.7,82.8,35.7z M84.3,36C84.3,35.9,84.3,35.9,84.3,36c0.1-0.1,0.3-0.1,0.5-0.1c0.4,0,1.1,0.2,1.1,1.2
		c0,0.6-0.2,0.9-0.5,1c-0.1,0.1-0.2,0.1-0.5,0.1c-0.2,0-0.4,0-0.5-0.1c0,0-0.1,0-0.1-0.1V36z"/>
	<path style="fill:#FFFFFF;" d="M88.2,40.7C88.2,40.7,88.2,40.7,88.2,40.7c-0.1,0-0.2,0-0.3,0H88.2z"/>
	<path style="fill:#FFFFFF;" d="M88.2,40.5C88.3,40.5,88.3,40.6,88.2,40.5c0.1,0.1,0.1,0.1,0,0.1c0.2,0,0.4,0,0.4,0
		c0.2,0,0.6,0,0.8,0c0.1,0,0.1,0,0.1-0.1c0,0,0-0.1-0.1-0.1h-0.1c-0.2,0-0.3-0.1-0.3-0.2c0-0.1,0-0.2,0.1-0.4l0.4-0.9c0,0,0,0,0.1,0
		h1.7c0,0,0.1,0,0.1,0l0.5,1.4c0,0.1,0,0.1-0.1,0.2c-0.1,0-0.1,0-0.1,0.1c0,0,0.1,0,0.2,0.1c0.6,0,1.1,0,1.4,0c0.3,0,0.3,0,0.3-0.1
		c0,0,0-0.1-0.1-0.1c-0.1,0-0.2,0-0.3,0c-0.1,0-0.3-0.1-0.6-0.7c-0.4-1-1.6-3.8-1.8-4.2c-0.1-0.2-0.1-0.2-0.2-0.2
		c-0.1,0-0.1,0.1-0.2,0.3l-1.8,4.3c-0.1,0.3-0.3,0.5-0.5,0.6c0,0,0,0,0,0C88.1,40.5,88.1,40.5,88.2,40.5z M89.7,38.5l0.7-1.7
		c0,0,0-0.1,0-0.1c0,0,0,0,0,0.1l0.7,1.7c0,0,0,0,0,0L89.7,38.5C89.7,38.6,89.7,38.6,89.7,38.5z"/>
	<path style="fill:#FFFFFF;" d="M87.8,40.5C87.7,40.5,87.7,40.6,87.8,40.5c-0.1,0.1,0,0.1,0,0.1c0.1,0,0.3,0,0.4,0
		c0,0,0.1,0,0.1-0.1c0,0,0-0.1-0.1-0.1c-0.1,0-0.1,0-0.2,0c0,0,0,0,0,0c0,0,0,0,0,0C87.9,40.5,87.8,40.5,87.8,40.5z"/>
	<path style="fill:#FFFFFF;" d="M93.2,36.5C93.3,36.5,93.3,36.5,93.2,36.5c0.1-0.1,0.1-0.2,0.2-0.3c0.1-0.2,0.3-0.2,0.7-0.2l1.1,0
		v2.8c0,0.6,0,1.2,0,1.5c0,0.2-0.1,0.3-0.2,0.4c-0.1,0-0.1,0-0.2,0c-0.1,0-0.1,0-0.1,0.1c0,0,0,0.1,0.1,0.1c0.3,0,0.8,0,0.9,0
		c0.2,0,0.7,0,1.1,0c0.1,0,0.1,0,0.1-0.1c0,0,0-0.1-0.1-0.1c-0.1,0-0.3,0-0.4,0c-0.2,0-0.2-0.2-0.3-0.4c0-0.3,0-0.8,0-1.5v-2.8
		l0.9,0c0.6,0,0.8,0.2,0.8,0.4l0,0.1c0,0.1,0,0.1,0.1,0.1c0,0,0.1,0,0.1-0.1c0-0.2,0-0.7,0-0.8c0-0.1,0-0.1-0.1-0.1c0,0-0.1,0-0.2,0
		c-0.1,0-0.3,0-0.5,0h-2.9c-0.2,0-0.5,0-0.7,0c-0.2,0-0.2-0.1-0.3-0.1c0,0-0.1,0-0.1,0.1c0,0.1-0.2,0.7-0.2,0.8
		C93.2,36.5,93.2,36.5,93.2,36.5z"/>
	<path style="fill:#FFFFFF;" d="M99.2,35.7c0.1,0,0.2,0,0.3,0c0.2,0,0.2,0.1,0.2,0.4c0,0.2,0,0.4,0,1.4v1.2c0,0.7,0,1.2,0,1.5
		c0,0.2-0.1,0.3-0.2,0.3c-0.1,0-0.1,0-0.2,0c-0.1,0-0.1,0-0.1,0.1c0,0,0,0.1,0.1,0.1c0.3,0,0.8,0,0.9,0c0.2,0,0.7,0,1.1,0
		c0.1,0,0.1,0,0.1-0.1c0,0,0-0.1-0.1-0.1c-0.1,0-0.3,0-0.4,0c-0.2,0-0.3-0.1-0.3-0.3c0-0.3,0-0.8,0-1.5v-1.2c0-1,0-1.2,0-1.4
		c0-0.2,0.1-0.3,0.3-0.4c0.1,0,0.1,0,0.2,0s0.1,0,0.1-0.1c0,0-0.1-0.1-0.1-0.1c-0.3,0-0.7,0-0.9,0c-0.2,0-0.7,0-0.9,0
		c-0.1,0-0.2,0-0.2,0.1C99.1,35.6,99.1,35.7,99.2,35.7z"/>
	<path style="fill:#FFFFFF;" d="M104.5,40.6c0,0,0-0.1-0.1-0.1c-0.1,0-0.2,0-0.4,0c-0.1,0-0.2-0.2-0.2-0.7l-0.1-2.8h0
		c0.1,0.1,0.9,0.9,1.7,1.7c0.7,0.7,1.6,1.6,2.1,2c0.1,0.1,0.2,0.1,0.3,0.1c0.1,0,0.1-0.1,0.1-0.2l0.1-4.3c0-0.4,0.1-0.5,0.3-0.6
		c0.1,0,0.1,0,0.2,0c0.1,0,0.1,0,0.1-0.1c0-0.1-0.1-0.1-0.2-0.1c-0.3,0-0.6,0-0.7,0c-0.2,0-0.5,0-0.9,0c-0.1,0-0.2,0-0.2,0.1
		c0,0,0,0.1,0.1,0.1c0.1,0,0.3,0,0.4,0c0.2,0.1,0.2,0.2,0.2,0.6l0.1,3h0c-0.1-0.1-1-1.1-1.5-1.5c-1-1-2.1-2.1-2.2-2.2
		c-0.1-0.1-0.2-0.2-0.3-0.2c-0.1,0-0.1,0.1-0.1,0.2l-0.1,4c0,0.6,0,0.8-0.2,0.8c-0.1,0-0.2,0-0.3,0c-0.1,0-0.1,0-0.1,0.1
		c0,0.1,0.1,0.1,0.2,0.1c0.4,0,0.7,0,0.8,0c0.1,0,0.5,0,0.9,0C104.5,40.7,104.5,40.7,104.5,40.6z"/>
	<path style="fill:#FFFFFF;" d="M112.9,40.8c0.6,0,1.3-0.1,1.7-0.3c0.1,0,0.1-0.1,0.1-0.2v-0.8c0-0.3,0-0.6,0-0.8
		c0-0.2,0.1-0.3,0.3-0.4c0.1,0,0.1,0,0.2,0c0,0,0.1,0,0.1-0.1c0-0.1,0-0.1-0.1-0.1c-0.2,0-0.6,0-0.8,0c-0.2,0-0.7,0-1.1,0
		c-0.1,0-0.2,0-0.2,0.1c0,0,0,0.1,0.1,0.1c0.1,0,0.2,0,0.3,0c0.2,0.1,0.3,0.1,0.3,0.4c0,0.2,0,0.5,0,0.8v0.6c0,0.1,0,0.2-0.1,0.2
		c-0.2,0.1-0.3,0.1-0.5,0.1c-1.5,0-2.5-1.1-2.5-2.5c0-0.8,0.3-1.3,0.6-1.7c0.5-0.4,1-0.4,1.4-0.4c0.8,0,1.3,0.3,1.5,0.5
		c0.2,0.2,0.2,0.4,0.2,0.6c0,0.1,0,0.1,0.1,0.1c0.1,0,0.1,0,0.1-0.2c0-0.9,0-1,0-1.1c0,0,0-0.1-0.1-0.1c-0.2,0-0.4,0-0.6-0.1
		c-0.1,0-0.8-0.1-1.3-0.1c-0.6,0-1.2,0-1.9,0.4c-0.6,0.4-1.2,1.1-1.2,2.2C109.7,40,111.2,40.8,112.9,40.8z"/>
	<path style="fill:#FFFFFF;" d="M120.8,36c0,0,0.1,0,0.1,0c0.2-0.1,0.8-0.4,0.9-0.4c0.1,0,0.1,0.1,0.1,0.3c0,0.3,0,0.6,0,1.1l0,1.3
		c0,0.8,0,1.5,0,1.8c0,0.3-0.1,0.4-0.3,0.4c-0.1,0-0.6,0.1-0.6,0.1c0,0-0.1,0-0.1,0.1c0,0.1,0,0.1,0.1,0.1c0.5,0,1.2,0,1.4,0
		c0.2,0,0.7,0,1.3,0c0.1,0,0.1,0,0.1-0.1c0-0.1,0-0.1-0.1-0.1c-0.1,0-0.4,0-0.5,0c-0.3-0.1-0.3-0.2-0.3-0.4c0-0.4,0-1,0-1.8v-1.5
		c0-1.2,0-2,0-2.1c0-0.1,0-0.2-0.1-0.2c-0.1,0-0.1,0.1-0.2,0.1c-0.3,0.2-1.8,1.2-1.9,1.2C120.8,35.9,120.7,35.9,120.8,36
		C120.7,36,120.8,36,120.8,36z"/>
	<path style="fill:#FFFFFF;" d="M129.6,39.1c0,0-0.1,0-0.1,0.1c-0.1,0.4-0.4,0.6-0.9,0.7c-0.3,0-1.2,0-1.4,0h-0.5c0,0-0.1,0,0-0.1
		c1-0.8,2.8-2.2,2.8-3.7c0-0.9-0.6-1.7-2-1.7c-0.7,0-1.1,0.1-1.5,0.3c-0.1,0.1-0.1,0.1-0.1,0.2c0,0.2,0,0.9,0,1c0,0.1,0,0.2,0.1,0.2
		c0.1,0,0.1-0.1,0.1-0.2c0-0.2,0.1-0.6,0.3-0.8c0.2-0.2,0.5-0.3,0.9-0.3c0.4,0,1.1,0.3,1.1,1.5c0,1.7-1.6,2.9-2.7,3.9
		c-0.1,0.1-0.2,0.1-0.2,0.2c0,0.1,0.1,0.1,0.1,0.1h3.1c0.5,0,0.6,0,0.7-0.2c0.1-0.3,0.2-1,0.2-1.1C129.6,39.2,129.6,39.1,129.6,39.1
		z"/>
	<path style="fill:#FFFFFF;" d="M131.9,36.3l0.1-1h1.5c0.6,0,0.7,0.2,0.7,0.4c0,0.1,0,0.1,0.1,0.1c0.1,0,0.1,0,0.1-0.1
		c0.1-0.5,0.1-0.9,0.1-1c0-0.1,0-0.2-0.1-0.2c0,0-0.1,0-0.2,0c-0.1,0-0.2,0-0.4,0h-2c-0.1,0-0.1,0-0.2,0.1l-0.2,2.1
		c0,0.1,0,0.1,0.1,0.2c0.6,0.1,2,0.6,2,1.9c0,1-0.7,1.5-1.3,1.5c-0.6,0-1.1-0.2-1.1-1.1c0-0.1,0-0.1-0.1-0.1c0,0-0.1,0.1-0.1,0.1
		c0,0.3,0,0.7,0,1c0,0.2,0,0.2,0.2,0.3c0.2,0.1,0.5,0.1,0.8,0.1c1.9,0,2.6-1.2,2.6-2.3C134.5,37.1,133.1,36.5,131.9,36.3z"/>
	<path style="fill:#FFFFFF;" d="M145.2,34.6c-0.2,0-0.7,0-0.9,0c-0.2,0-0.5,0-0.8,0c-0.1,0-0.1,0-0.1,0.1c0,0,0.1,0.1,0.1,0.1
		c0.1,0,0.2,0.1,0.2,0.2c0,0.1,0,0.2-0.1,0.4c-0.1,0.2-1.1,2-1.2,2.2c-0.1-0.2-1.3-2.2-1.4-2.4c-0.1-0.1-0.1-0.2-0.1-0.3
		c0-0.1,0-0.1,0.1-0.1c0.1,0,0.2,0,0.2-0.1c0,0,0-0.1-0.1-0.1c-0.4,0-0.7,0-0.9,0c-0.3,0-0.9,0-1,0c-0.1,0-0.2,0-0.2,0.1
		c0,0.1,0.1,0.1,0.1,0.1c0.1,0,0.2,0,0.3,0.1c0.2,0.1,0.4,0.3,0.6,0.6c0.3,0.4,1.4,2.2,1.4,2.3c0.1,0.2,0.2,0.4,0.2,0.8v0.7
		c0,0.1,0,0.5,0,0.8c0,0.2-0.1,0.4-0.2,0.4c-0.1,0-0.2,0-0.3,0c-0.1,0-0.1,0-0.1,0.1c0,0.1,0.1,0.1,0.2,0.1c0.3,0,0.8,0,1,0
		c0.2,0,0.7,0,1.2,0c0.1,0,0.2,0,0.2-0.1c0,0,0-0.1-0.1-0.1c-0.1,0-0.3,0-0.4,0c-0.2,0-0.3-0.2-0.3-0.4c0-0.3,0-0.7,0-0.8v-0.7
		c0-0.3,0-0.5,0.1-0.8c0.1-0.3,1.3-2.2,1.5-2.6c0.2-0.2,0.3-0.3,0.4-0.4c0.1-0.1,0.3-0.1,0.4-0.1c0.1,0,0.2,0,0.2-0.1
		C145.3,34.6,145.2,34.6,145.2,34.6z"/>
	<path style="fill:#FFFFFF;" d="M146.6,40.7c0.2,0,0.5,0,0.8,0c0.3,0,0.8,0,1.3,0c0.3,0,0.3,0,0.4-0.2c0-0.1,0.1-0.6,0.1-0.8
		c0-0.1,0-0.2-0.1-0.2c0,0-0.1,0-0.1,0.1c0,0.3-0.1,0.4-0.3,0.5c-0.2,0.1-0.5,0.1-0.7,0.1c-0.7,0-0.9-0.1-1-0.6c0-0.2,0-0.8,0-1
		v-0.5c0,0,0-0.1,0-0.1c0.2,0,1,0,1.1,0c0.3,0,0.4,0.1,0.4,0.3c0,0.1,0,0.2,0,0.2c0,0,0,0.1,0.1,0.1c0.1,0,0.1-0.1,0.1-0.2
		c0,0,0-0.3,0-0.5c0-0.3,0.1-0.5,0.1-0.5c0,0,0-0.1-0.1-0.1c0,0-0.1,0-0.1,0.1c-0.1,0.1-0.2,0.1-0.3,0.1c-0.2,0-1.1,0-1.2,0
		c0,0,0,0,0-0.1V36c0,0,0-0.1,0-0.1c0.1,0,1,0,1.1,0c0.4,0,0.4,0.1,0.5,0.2c0,0.1,0,0.2,0,0.2c0,0.1,0,0.1,0.1,0.1
		c0.1,0,0.1-0.1,0.1-0.1c0-0.1,0-0.4,0-0.4c0-0.3,0.1-0.4,0.1-0.4c0,0,0-0.1,0-0.1c0,0-0.1,0-0.1,0c-0.1,0-0.2,0-0.3,0
		c-0.1,0-1.7,0-1.9,0c-0.2,0-0.6,0-1,0c-0.1,0-0.2,0-0.2,0.1c0,0,0,0.1,0.1,0.1c0.1,0,0.2,0,0.3,0c0.2,0.1,0.3,0.1,0.3,0.4
		c0,0.2,0,0.4,0,1.4v1.2c0,0.6,0,1.2,0,1.5c0,0.2-0.1,0.3-0.2,0.4c-0.1,0-0.1,0-0.2,0c-0.1,0-0.1,0-0.1,0.1c0,0,0,0.1,0.1,0.1
		c0.1,0,0.3,0,0.5,0C146.4,40.7,146.5,40.7,146.6,40.7z"/>
	<path style="fill:#FFFFFF;" d="M155.5,40.6C155.5,40.6,155.5,40.5,155.5,40.6c-0.2-0.1-0.3-0.1-0.4-0.1c-0.1,0-0.3-0.1-0.6-0.7
		c-0.4-1-1.6-3.8-1.8-4.2c-0.1-0.2-0.1-0.2-0.2-0.2c-0.1,0-0.1,0.1-0.2,0.3l-1.8,4.3c-0.1,0.3-0.3,0.6-0.6,0.6c-0.1,0-0.1,0-0.2,0
		c-0.1,0-0.1,0-0.1,0.1c0,0.1,0,0.1,0.1,0.1c0.4,0,0.7,0,0.8,0c0.2,0,0.6,0,0.8,0c0.1,0,0.1,0,0.1-0.1c0,0,0-0.1-0.1-0.1h-0.1
		c-0.2,0-0.3-0.1-0.3-0.2c0-0.1,0-0.2,0.1-0.4l0.4-0.9c0,0,0,0,0.1,0h1.7c0,0,0.1,0,0.1,0l0.5,1.4c0,0.1,0,0.1-0.1,0.2
		c-0.1,0-0.1,0-0.1,0.1c0,0,0.1,0,0.2,0.1c0.6,0,1.1,0,1.4,0C155.5,40.7,155.5,40.7,155.5,40.6z M153,38.6h-1.4c0,0,0,0,0,0l0.7-1.7
		c0,0,0-0.1,0-0.1c0,0,0,0,0,0.1L153,38.6C153.1,38.6,153,38.6,153,38.6z"/>
	<path style="fill:#FFFFFF;" d="M160.8,40.7h0.7c0.1,0,0.1,0,0.1-0.1c0,0,0-0.1-0.1-0.1c-0.1,0-0.1,0-0.2,0c-0.1,0-0.4-0.1-0.8-0.4
		c-0.4-0.4-0.9-1-1.5-1.8c0.7-0.6,1-1,1-1.5c0-0.5-0.3-0.8-0.5-0.9c-0.4-0.2-0.9-0.3-1.3-0.3c-0.2,0-0.9,0-1.1,0c-0.1,0-0.6,0-1,0
		c-0.1,0-0.2,0-0.2,0.1c0,0,0,0.1,0.1,0.1c0.1,0,0.2,0,0.3,0c0.2,0.1,0.3,0.1,0.3,0.4c0,0.2,0,0.4,0,1.4v1.2c0,0.6,0,1.2,0,1.5
		c0,0.2-0.1,0.3-0.2,0.4c-0.1,0-0.1,0-0.2,0c-0.1,0-0.1,0-0.1,0.1c0,0,0,0.1,0.1,0.1c0.3,0,0.7,0,0.9,0c0.1,0,0.7,0,1.1,0
		c0.1,0,0.1,0,0.1-0.1c0,0,0-0.1-0.1-0.1c-0.1,0-0.2,0-0.3,0c-0.2,0-0.2-0.2-0.3-0.4c0-0.3,0-0.8,0-1.5v-0.1c0,0,0-0.1,0.1-0.1
		l0.6,0c0,0,0.1,0,0.1,0c0.1,0.1,0.4,0.6,0.7,0.9c0.4,0.5,0.7,0.9,1,1C160.2,40.6,160.4,40.7,160.8,40.7z M158.7,38.1
		c-0.1,0.1-0.2,0.1-0.5,0.1c-0.2,0-0.4,0-0.5-0.1c0,0-0.1,0-0.1-0.1v-2c0-0.1,0-0.1,0.1-0.1c0.1,0,0.2,0,0.4,0
		c0.4,0,1.1,0.2,1.1,1.2C159.1,37.6,158.9,37.9,158.7,38.1z"/>
	<path style="fill:#FFFFFF;" d="M165.1,39.2c0-0.6-0.3-1.1-1.2-1.7l-0.3-0.2c-0.6-0.4-0.7-0.6-0.7-0.9c0-0.5,0.5-0.7,1-0.7
		c0.5,0,0.7,0.2,0.8,0.3c0.2,0.2,0.2,0.4,0.2,0.4c0,0.1,0,0.1,0.1,0.1c0.1,0,0.1-0.1,0.1-0.2c0-0.5,0-0.7,0-0.8c0,0,0-0.1-0.1-0.1
		c-0.2,0-0.5-0.1-1-0.1c-1,0-1.8,0.5-1.8,1.4c0,0.6,0.3,1.1,1.1,1.5l0.4,0.2c0.6,0.4,0.7,0.7,0.7,1c0,0.5-0.4,0.9-1,0.9
		c-0.4,0-1-0.2-1.1-0.7c0-0.1-0.1-0.3-0.1-0.4c0,0,0-0.1-0.1-0.1c-0.1,0-0.1,0.1-0.1,0.2c0,0.1,0,0.5,0,0.9c0,0.2,0,0.2,0.1,0.2
		c0.3,0.1,0.7,0.2,1.1,0.2c0.4,0,0.8,0,1.2-0.3C164.9,40.1,165.1,39.7,165.1,39.2z"/>
	<path style="fill:#FFFFFF;" d="M176.2,38c0-1.6-1.1-2.5-2.9-2.5c-2.1,0-3,1.5-3,2.7c0,1.2,0.8,2.7,2.9,2.7
		C175.1,40.8,176.2,39.5,176.2,38z M171.4,37.9c0-1.7,0.9-2.1,1.7-2.1c1.1,0,2,0.9,2,2.4c0,1.9-1.1,2.2-1.6,2.2
		C172.2,40.4,171.4,39.3,171.4,37.9z"/>
	<path style="fill:#FFFFFF;" d="M180.8,35.5c-0.1,0-0.2,0-0.3,0c-0.2,0-1.7,0-2,0c-0.2,0-0.6,0-1,0c-0.1,0-0.2,0-0.2,0.1
		c0,0,0.1,0.1,0.1,0.1c0.1,0,0.2,0,0.3,0c0.2,0.1,0.3,0.1,0.3,0.4c0,0.2,0,0.4,0,1.4v1.2c0,0.7,0,1.2,0,1.5c0,0.2-0.1,0.3-0.2,0.4
		c-0.1,0-0.1,0-0.2,0c-0.1,0-0.1,0-0.1,0.1c0,0.1,0,0.1,0.1,0.1c0.3,0,0.7,0,0.9,0s0.7,0,1.1,0c0.1,0,0.2,0,0.2-0.1
		c0,0,0-0.1-0.1-0.1c-0.1,0-0.2,0-0.3,0c-0.2,0-0.3-0.2-0.3-0.4c0-0.3,0-0.8,0-1.4v-0.6c0,0,0-0.1,0-0.1c0.1,0,1,0,1.1,0
		c0.2,0,0.3,0.2,0.3,0.2c0,0.1,0,0.2,0,0.2c0,0,0,0.1,0.1,0.1c0.1,0,0.1-0.1,0.1-0.2c0,0,0-0.4,0-0.5c0-0.2,0.1-0.4,0.1-0.4
		c0,0,0-0.1,0-0.1c0,0-0.1,0-0.1,0.1c-0.1,0.1-0.2,0.1-0.3,0.1c-0.1,0-0.2,0-0.3,0l-1,0c0,0,0,0,0-0.1V36c0-0.1,0-0.1,0.1-0.1l1.2,0
		c0.3,0,0.4,0.1,0.4,0.2c0,0.1,0,0.2,0,0.3c0,0.1,0,0.1,0.1,0.1c0,0,0.1-0.1,0.1-0.1c0-0.1,0-0.5,0-0.6c0-0.2,0.1-0.3,0.1-0.3
		c0,0,0-0.1,0-0.1C180.9,35.5,180.9,35.5,180.8,35.5z"/>
	<path style="fill:#FFFFFF;" d="M59.4,44.6c-2.4,0-3.3,1.8-3.3,3.1c0,1.4,0.9,3.1,3.2,3.1c2,0,3.3-1.5,3.3-3.3S61.4,44.6,59.4,44.6z
		 M59.6,50.5c-1.5,0-2.5-1.3-2.5-3c0-2,1.1-2.5,2-2.5c1.3,0,2.3,1.1,2.3,2.9C61.5,50.2,60.2,50.5,59.6,50.5z"/>
	<path style="fill:#FFFFFF;" d="M65.7,45.7c-0.3,0-0.9,0-1.2,0c-0.2,0-0.6,0-1,0c-0.1,0-0.2,0-0.2,0.1c0,0,0,0.1,0.1,0.1
		c0.1,0,0.2,0,0.3,0c0.2,0.1,0.3,0.1,0.3,0.4c0,0.2,0,0.4,0,1.4v1.2c0,0.6,0,1.2,0,1.5c0,0.2-0.1,0.3-0.2,0.4c-0.1,0-0.1,0-0.2,0
		c-0.1,0-0.1,0-0.1,0.1c0,0,0,0.1,0.1,0.1c0.3,0,0.7,0,0.9,0c0.2,0,0.7,0,1.2,0c0.1,0,0.1,0,0.1-0.1c0,0,0-0.1-0.1-0.1
		c-0.1,0-0.3,0-0.4,0c-0.2,0-0.2-0.2-0.3-0.4c0-0.3,0-0.8,0-1.5v-2.7c0-0.1,0-0.1,0.1-0.1c0.1,0,0.2,0,0.3,0c0.2,0,0.4,0,0.7,0.3
		c0.4,0.3,0.4,0.8,0.4,1c0,0.7-0.6,1.1-0.9,1.1c-0.2,0-0.2,0-0.2,0.1c0,0,0,0.1,0.1,0.1c0,0,0.2,0,0.2,0c1,0,1.8-0.7,1.8-1.7
		c0-0.4-0.2-0.7-0.4-0.8C66.9,45.9,66.5,45.7,65.7,45.7z"/>
	<path style="fill:#FFFFFF;" d="M70.6,45.7c-0.3,0-0.9,0-1.2,0c-0.2,0-0.6,0-1,0c-0.1,0-0.2,0-0.2,0.1c0,0,0,0.1,0.1,0.1
		c0.1,0,0.2,0,0.3,0c0.2,0.1,0.3,0.1,0.3,0.4c0,0.2,0,0.4,0,1.4v1.2c0,0.6,0,1.2,0,1.5c0,0.2-0.1,0.3-0.2,0.4c-0.1,0-0.1,0-0.2,0
		c-0.1,0-0.1,0-0.1,0.1c0,0,0,0.1,0.1,0.1c0.3,0,0.7,0,0.9,0c0.2,0,0.7,0,1.2,0c0.1,0,0.1,0,0.1-0.1c0,0,0-0.1-0.1-0.1
		c-0.1,0-0.3,0-0.4,0c-0.2,0-0.2-0.2-0.3-0.4c0-0.3,0-0.8,0-1.5v-2.7c0-0.1,0-0.1,0.1-0.1c0.1,0,0.2,0,0.3,0c0.2,0,0.4,0,0.7,0.3
		c0.4,0.3,0.4,0.8,0.4,1c0,0.7-0.6,1.1-0.9,1.1c-0.2,0-0.2,0-0.2,0.1c0,0,0,0.1,0.1,0.1c0,0,0.2,0,0.2,0c1,0,1.8-0.7,1.8-1.7
		c0-0.4-0.2-0.7-0.4-0.8C71.8,45.9,71.4,45.7,70.6,45.7z"/>
	<path style="fill:#FFFFFF;" d="M76.1,45.6c-2.1,0-3,1.5-3,2.7c0,1.2,0.8,2.7,2.9,2.7c1.8,0,3-1.2,3-2.8
		C79,46.5,77.9,45.6,76.1,45.6z M76.3,50.5c-1.3,0-2.1-1.1-2.1-2.5c0-1.7,0.9-2.1,1.7-2.1c1.1,0,2,0.9,2,2.4
		C77.9,50.3,76.8,50.5,76.3,50.5z"/>
	<path style="fill:#FFFFFF;" d="M85.3,50.7c-0.1,0-0.1,0-0.2,0c-0.1,0-0.4-0.1-0.8-0.4c-0.4-0.4-0.9-1-1.5-1.8c0.7-0.6,1-1,1-1.5
		c0-0.5-0.3-0.8-0.5-0.9c-0.4-0.2-0.9-0.3-1.3-0.3c-0.2,0-0.9,0-1.1,0c-0.1,0-0.6,0-1,0c-0.1,0-0.2,0-0.2,0.1c0,0,0,0.1,0.1,0.1
		c0.1,0,0.2,0,0.3,0c0.2,0.1,0.3,0.1,0.3,0.4c0,0.2,0,0.4,0,1.4v1.2c0,0.6,0,1.2,0,1.5c0,0.2-0.1,0.3-0.2,0.4c-0.1,0-0.1,0-0.2,0
		c-0.1,0-0.1,0-0.1,0.1c0,0,0,0.1,0.1,0.1c0.3,0,0.7,0,0.9,0c0.1,0,0.7,0,1.1,0c0.1,0,0.1,0,0.1-0.1c0,0,0-0.1-0.1-0.1
		c-0.1,0-0.2,0-0.3,0c-0.2,0-0.2-0.2-0.3-0.4c0-0.3,0-0.8,0-1.5v-0.1c0,0,0-0.1,0.1-0.1l0.6,0c0,0,0.1,0,0.1,0
		c0.1,0.1,0.4,0.6,0.7,0.9c0.4,0.5,0.7,0.9,1,1c0.2,0.1,0.4,0.1,0.8,0.1h0.7C85.4,50.8,85.4,50.8,85.3,50.7
		C85.4,50.7,85.4,50.7,85.3,50.7z M82.5,48.2c-0.1,0.1-0.2,0.1-0.5,0.1c-0.2,0-0.4,0-0.5-0.1c0,0-0.1,0-0.1-0.1v-2
		c0-0.1,0-0.1,0.1-0.1c0.1,0,0.2,0,0.4,0c0.4,0,1.1,0.2,1.1,1.2C83,47.8,82.7,48.1,82.5,48.2z"/>
	<path style="fill:#FFFFFF;" d="M89.6,45.6c0,0-0.1,0-0.2,0c-0.1,0-0.3,0-0.5,0h-2.9c-0.2,0-0.5,0-0.7,0c-0.2,0-0.2-0.1-0.3-0.1
		c0,0-0.1,0-0.1,0.1c0,0.1-0.2,0.7-0.2,0.8c0,0.1,0,0.1,0.1,0.1c0,0,0.1,0,0.1-0.1c0,0,0-0.1,0.1-0.2c0.1-0.2,0.3-0.2,0.7-0.2l1.1,0
		v2.8c0,0.6,0,1.2,0,1.5c0,0.2-0.1,0.3-0.2,0.4c-0.1,0-0.1,0-0.2,0c-0.1,0-0.1,0-0.1,0.1c0,0,0,0.1,0.1,0.1c0.3,0,0.8,0,0.9,0
		c0.2,0,0.7,0,1.1,0c0.1,0,0.1,0,0.1-0.1c0,0,0-0.1-0.1-0.1c-0.1,0-0.3,0-0.4,0c-0.2,0-0.2-0.2-0.3-0.4c0-0.3,0-0.8,0-1.5v-2.8
		l0.9,0c0.6,0,0.8,0.2,0.8,0.4l0,0.1c0,0.1,0,0.1,0.1,0.1c0,0,0.1,0,0.1-0.1c0-0.2,0-0.7,0-0.8C89.7,45.6,89.7,45.6,89.6,45.6z"/>
	<path style="fill:#FFFFFF;" d="M95.7,45.7c-0.3,0-0.7,0-0.8,0c0,0-0.5,0-0.8,0c-0.1,0-0.1,0-0.1,0.1c0,0,0,0.1,0.1,0.1
		c0.1,0,0.2,0,0.3,0c0.2,0.1,0.3,0.1,0.3,0.4c0,0.2,0,0.4,0,1.4v0.9c0,0.7,0,1.3-0.4,1.7c-0.3,0.3-0.6,0.4-0.9,0.4
		c-0.2,0-0.6,0-0.9-0.3c-0.3-0.3-0.5-0.7-0.5-1.7v-1c0-1,0-1.2,0-1.4c0-0.2,0.1-0.3,0.3-0.4c0.1,0,0.1,0,0.2,0c0.1,0,0.1,0,0.1-0.1
		c0,0,0-0.1-0.2-0.1c-0.3,0-0.7,0-0.9,0c-0.2,0-0.7,0-1.1,0c-0.1,0-0.2,0-0.2,0.1c0,0,0,0.1,0.1,0.1c0.1,0,0.2,0,0.3,0
		c0.2,0.1,0.3,0.1,0.3,0.4c0,0.2,0,0.4,0,1.4v1c0,1,0.3,1.5,0.6,1.8c0.5,0.4,1.2,0.5,1.6,0.5c0.5,0,1-0.1,1.5-0.5
		c0.6-0.5,0.7-1.3,0.7-2.1v-0.7c0-1,0-1.2,0-1.4c0-0.2,0.1-0.3,0.3-0.4c0.1,0,0.1,0,0.2,0c0.1,0,0.1,0,0.1-0.1
		C95.9,45.7,95.8,45.7,95.7,45.7z"/>
	<path style="fill:#FFFFFF;" d="M102.3,45.7c-0.3,0-0.6,0-0.7,0c-0.2,0-0.5,0-0.9,0c-0.1,0-0.2,0-0.2,0.1c0,0,0,0.1,0.1,0.1
		c0.1,0,0.3,0,0.4,0c0.2,0.1,0.2,0.2,0.2,0.6l0.1,3h0c-0.1-0.1-1-1.1-1.5-1.5c-1-1-2.1-2.1-2.2-2.2c-0.1-0.1-0.2-0.2-0.3-0.2
		c-0.1,0-0.1,0.1-0.1,0.2l-0.1,4c0,0.6,0,0.8-0.2,0.8c-0.1,0-0.2,0-0.3,0c-0.1,0-0.1,0-0.1,0.1c0,0.1,0.1,0.1,0.2,0.1
		c0.4,0,0.7,0,0.8,0c0.1,0,0.5,0,0.9,0c0.1,0,0.2,0,0.2-0.1c0,0,0-0.1-0.1-0.1c-0.1,0-0.2,0-0.4,0c-0.1,0-0.2-0.2-0.2-0.7l-0.1-2.8
		h0c0.1,0.1,0.9,0.9,1.7,1.7c0.7,0.7,1.6,1.6,2.1,2c0.1,0.1,0.2,0.1,0.3,0.1c0.1,0,0.1-0.1,0.1-0.2l0.1-4.3c0-0.4,0.1-0.5,0.3-0.6
		c0.1,0,0.1,0,0.2,0c0.1,0,0.1,0,0.1-0.1C102.5,45.7,102.4,45.7,102.3,45.7z"/>
	<path style="fill:#FFFFFF;" d="M105.9,50.7c-0.1,0-0.3,0-0.4,0c-0.2,0-0.3-0.1-0.3-0.3c0-0.3,0-0.8,0-1.5v-1.2c0-1,0-1.2,0-1.4
		c0-0.2,0.1-0.3,0.3-0.4c0.1,0,0.1,0,0.2,0s0.1,0,0.1-0.1c0,0-0.1-0.1-0.1-0.1c-0.3,0-0.7,0-0.9,0c-0.2,0-0.7,0-0.9,0
		c-0.1,0-0.2,0-0.2,0.1c0,0.1,0,0.1,0.1,0.1c0.1,0,0.2,0,0.3,0c0.2,0,0.2,0.1,0.2,0.4c0,0.2,0,0.4,0,1.4v1.2c0,0.7,0,1.2,0,1.5
		c0,0.2-0.1,0.3-0.2,0.3c-0.1,0-0.1,0-0.2,0c-0.1,0-0.1,0-0.1,0.1c0,0,0,0.1,0.1,0.1c0.3,0,0.8,0,0.9,0c0.2,0,0.7,0,1.1,0
		c0.1,0,0.1,0,0.1-0.1C106,50.7,106,50.7,105.9,50.7z"/>
	<path style="fill:#FFFFFF;" d="M111.4,45.6c0,0-0.1,0-0.2,0c-0.1,0-0.3,0-0.5,0h-2.9c-0.2,0-0.5,0-0.7,0c-0.2,0-0.2-0.1-0.3-0.1
		c0,0-0.1,0-0.1,0.1c0,0.1-0.2,0.7-0.2,0.8c0,0.1,0,0.1,0.1,0.1c0,0,0.1,0,0.1-0.1c0,0,0-0.1,0.1-0.2c0.1-0.2,0.3-0.2,0.7-0.2l1.1,0
		v2.8c0,0.6,0,1.2,0,1.5c0,0.2-0.1,0.3-0.2,0.4c-0.1,0-0.1,0-0.2,0c-0.1,0-0.1,0-0.1,0.1c0,0,0,0.1,0.1,0.1c0.3,0,0.8,0,0.9,0
		c0.2,0,0.7,0,1.1,0c0.1,0,0.1,0,0.1-0.1c0,0,0-0.1-0.1-0.1c-0.1,0-0.3,0-0.4,0c-0.2,0-0.2-0.2-0.3-0.4c0-0.3,0-0.8,0-1.5v-2.8
		l0.9,0c0.6,0,0.8,0.2,0.8,0.4l0,0.1c0,0.1,0,0.1,0.1,0.1c0,0,0.1,0,0.1-0.1c0-0.2,0-0.7,0-0.8C111.5,45.6,111.5,45.6,111.4,45.6z"
		/>
	<path style="fill:#FFFFFF;" d="M116.9,45.7c-0.1,0-0.6,0-0.8,0c-0.2,0-0.5,0-0.7,0c-0.1,0-0.1,0-0.1,0.1c0,0.1,0.1,0.1,0.1,0.1
		c0.1,0,0.2,0.1,0.2,0.2c0,0.1,0,0.2-0.1,0.4c-0.1,0.2-1,1.7-1.1,1.8c-0.1-0.2-1-1.8-1.2-2c-0.1-0.1-0.1-0.2-0.1-0.2
		c0-0.1,0-0.1,0.1-0.1c0.1,0,0.2,0,0.2-0.1c0,0,0-0.1-0.1-0.1c-0.3,0-0.6,0-0.8,0c-0.2,0-0.8,0-0.9,0c-0.1,0-0.1,0-0.1,0.1
		c0,0,0,0.1,0.1,0.1c0.1,0,0.2,0,0.3,0.1c0.1,0.1,0.3,0.2,0.5,0.5c0.2,0.4,1.2,1.9,1.3,2c0.1,0.2,0.2,0.3,0.2,0.7v0.6
		c0,0.1,0,0.4,0,0.7c0,0.2-0.1,0.3-0.2,0.4c-0.1,0-0.2,0-0.2,0c-0.1,0-0.1,0-0.1,0.1c0,0.1,0.1,0.1,0.2,0.1c0.3,0,0.7,0,0.9,0
		c0.2,0,0.7,0,1.1,0c0.1,0,0.2,0,0.2-0.1c0,0,0-0.1-0.1-0.1c-0.1,0-0.2,0-0.4,0c-0.2,0-0.3-0.2-0.3-0.4c0-0.3,0-0.6,0-0.7v-0.5
		c0-0.2,0-0.4,0.1-0.7c0.1-0.3,1.1-1.9,1.4-2.2c0.2-0.2,0.2-0.2,0.4-0.3c0.1,0,0.2-0.1,0.3-0.1c0.1,0,0.1,0,0.1-0.1
		C117,45.7,117,45.7,116.9,45.7z"/>
	<path style="fill:#FFFFFF;" d="M126.7,50.7c-0.2,0-0.6-0.1-0.9-0.3c-0.2-0.1-0.6-0.3-1.1-0.8c0.5-0.5,0.8-1.3,0.8-1.9
		c0-0.1-0.1-0.1-0.3-0.2c-0.4,0-0.8-0.1-1-0.1c-0.1,0-0.1,0-0.1,0.1c0,0,0,0.1,0.1,0.1c0.1,0,0.3,0,0.4,0.1c0.1,0.1,0.2,0.2,0.2,0.4
		c0,0.5-0.2,1-0.4,1.2c-0.2-0.1-1.1-1-1.4-1.3c-0.6-0.7-1.3-1.4-1.3-2.1c0-0.7,0.5-0.9,0.9-0.9c0.4,0,0.7,0.2,0.9,0.4
		c0.2,0.2,0.2,0.5,0.2,0.7c0,0.1,0,0.2,0.1,0.2c0,0,0.1,0,0.1-0.1c0-0.1,0.1-0.8,0.1-1c0-0.1,0-0.2-0.1-0.2c-0.2-0.1-0.6-0.2-1-0.2
		c-1.4,0-2,0.8-1.9,1.5c0,0.4,0.1,0.7,0.4,1.1c-0.5,0.2-1.3,1-1.3,1.9c0,0.7,0.5,1.8,2.2,1.8c1.1,0,1.6-0.5,1.9-0.7
		c0.7,0.5,1,0.6,1.9,0.6h0.6c0.2,0,0.2,0,0.2-0.1C126.9,50.7,126.8,50.7,126.7,50.7z M122.5,50.4c-0.8,0-1.5-0.6-1.5-1.6
		c0-0.6,0.3-1,0.6-1.2c0.1,0.2,0.6,0.8,0.9,1c0.2,0.2,1,1,1.4,1.4C123.6,50.1,123.1,50.4,122.5,50.4z"/>
	<path style="fill:#FFFFFF;" d="M133.6,49.6c-0.1,0-0.1,0-0.1,0.1c-0.1,0.3-0.2,0.5-0.4,0.6c-0.2,0.1-0.5,0.1-0.8,0.1
		c-0.8,0-0.9-0.1-1-0.7c0-0.2,0-1,0-1.2v-0.6c0,0,0-0.1,0-0.1c0.2,0,1,0,1.1,0c0.3,0,0.4,0.2,0.4,0.3c0,0.1,0,0.2,0,0.3
		c0,0,0,0.1,0.1,0.1c0.1,0,0.1-0.1,0.1-0.2c0-0.1,0-0.4,0-0.5c0-0.4,0.1-0.5,0.1-0.6c0,0,0-0.1-0.1-0.1c0,0-0.1,0-0.1,0.1
		c-0.1,0.1-0.2,0.1-0.4,0.1c-0.2,0-1.1,0-1.3,0c0,0-0.1,0-0.1-0.1v-2c0-0.1,0-0.1,0.1-0.1c0.2,0,1,0,1.1,0c0.4,0,0.5,0.1,0.5,0.3
		c0,0.1,0,0.2,0,0.3c0,0.1,0,0.1,0.1,0.1c0.1,0,0.1,0,0.1-0.1c0-0.1,0-0.4,0-0.5c0-0.4,0.1-0.5,0.1-0.5c0,0,0-0.1,0-0.1
		c0,0-0.1,0-0.1,0c-0.1,0-0.2,0-0.3,0c-0.2,0-1.7,0-2,0c-0.1,0-0.3,0-0.5,0c-0.2,0-0.4,0-0.6,0c-0.1,0-0.2,0-0.2,0.1
		c0,0.1,0,0.1,0.1,0.1c0.1,0,0.2,0,0.3,0c0.3,0.1,0.3,0.2,0.3,0.5c0,0.3,0,0.5,0,1.7v1.4c0,0.7,0,1.4,0,1.7c0,0.2-0.1,0.4-0.2,0.4
		c-0.1,0-0.2,0-0.3,0c-0.1,0-0.1,0-0.1,0.1c0,0.1,0.1,0.1,0.2,0.1c0.2,0,0.4,0,0.6,0c0.2,0,0.4,0,0.5,0c0.2,0,0.5,0,0.8,0
		c0.3,0,0.8,0,1.4,0c0.3,0,0.4,0,0.4-0.2c0-0.2,0.1-0.7,0.1-0.9C133.6,49.7,133.6,49.6,133.6,49.6z"/>
	<path style="fill:#FFFFFF;" d="M139.6,50.7c-0.1,0-0.2,0-0.3,0c-0.2,0-0.3-0.1-0.4-0.3c-0.2-0.2-1.3-2.1-1.6-2.4l1.2-1.6
		c0.2-0.3,0.3-0.5,0.5-0.5c0.1,0,0.2,0,0.3,0s0.1,0,0.1-0.1c0,0,0-0.1-0.1-0.1c-0.3,0-0.6,0-0.7,0c-0.1,0-0.5,0-0.7,0
		c-0.1,0-0.2,0-0.2,0.1c0,0,0,0.1,0.1,0.1c0.1,0,0.2,0,0.2,0c0.1,0,0.1,0.1,0.1,0.1c0,0.1,0,0.2-0.1,0.2c-0.1,0.2-0.7,1.1-1,1.4
		c-0.3-0.5-0.6-0.9-0.9-1.5c0-0.1-0.1-0.2-0.1-0.2c0,0,0-0.1,0.1-0.1c0.1,0,0.1,0,0.2,0c0.1,0,0.1,0,0.1-0.1c0,0,0-0.1-0.1-0.1
		c-0.3,0-0.7,0-0.8,0c-0.3,0-0.9,0-1.1,0c-0.1,0-0.1,0-0.1,0.1c0,0,0,0.1,0.1,0.1c0.1,0,0.2,0,0.3,0c0.2,0.1,0.4,0.2,0.6,0.5
		l1.2,1.9l-1.4,1.9c-0.2,0.3-0.4,0.4-0.6,0.5c-0.1,0-0.2,0-0.3,0c-0.1,0-0.1,0-0.1,0.1s0,0.1,0.1,0.1h0.1c0.1,0,0.5,0,0.6,0
		c0.2,0,0.6,0,0.7,0h0.1c0.1,0,0.1,0,0.1-0.1c0,0,0-0.1-0.1-0.1c-0.1,0-0.1,0-0.2,0c-0.1,0-0.1,0-0.1-0.1c0-0.1,0-0.2,0.1-0.3l1-1.6
		c0.3,0.5,0.7,1.2,1.1,1.8c0.1,0.1,0,0.1,0,0.1c-0.1,0-0.1,0-0.1,0.1c0,0,0.1,0.1,0.2,0.1c0.6,0,1.1,0,1.3,0h0.2
		C139.7,50.8,139.7,50.8,139.6,50.7C139.7,50.7,139.7,50.7,139.6,50.7z"/>
	<path style="fill:#FFFFFF;" d="M144.9,49.5c-0.1,0-0.1,0-0.1,0.1c0,0.1-0.1,0.3-0.2,0.5c-0.3,0.3-0.6,0.4-1.3,0.4
		c-0.9,0-2.2-0.8-2.2-2.4c0-0.7,0.1-1.3,0.6-1.8c0.3-0.3,0.7-0.4,1.3-0.4c0.6,0,1.1,0.2,1.4,0.4c0.2,0.2,0.3,0.4,0.3,0.6
		c0,0.1,0,0.1,0.1,0.1c0.1,0,0.1-0.1,0.1-0.2c0-0.1,0-0.5,0-0.7c0-0.2,0-0.3,0-0.4c0,0,0-0.1-0.1-0.1c-0.2,0-0.4-0.1-0.7-0.1
		c-0.3,0-0.6-0.1-1-0.1c-1.1,0-1.7,0.3-2.2,0.7c-0.7,0.6-0.8,1.4-0.8,1.9c0,0.7,0.2,1.4,0.9,2c0.6,0.5,1.5,0.7,2.4,0.7
		c0.5,0,1,0,1.3-0.2c0.1,0,0.2-0.1,0.2-0.2c0.1-0.2,0.2-0.8,0.2-0.9C145,49.6,145,49.5,144.9,49.5z"/>
	<path style="fill:#FFFFFF;" d="M149.6,49.8c0,0.3-0.1,0.4-0.3,0.5c-0.2,0.1-0.5,0.1-0.7,0.1c-0.7,0-0.9-0.1-1-0.6c0-0.2,0-0.8,0-1
		v-0.5c0,0,0-0.1,0-0.1c0.2,0,1,0,1.1,0c0.3,0,0.4,0.1,0.4,0.3c0,0.1,0,0.2,0,0.2c0,0,0,0.1,0.1,0.1c0.1,0,0.1-0.1,0.1-0.2
		c0,0,0-0.3,0-0.5c0-0.3,0.1-0.5,0.1-0.5s0-0.1-0.1-0.1c0,0-0.1,0-0.1,0.1c-0.1,0.1-0.2,0.1-0.3,0.1c-0.2,0-1.1,0-1.2,0
		c0,0,0,0,0-0.1v-1.7c0,0,0-0.1,0-0.1c0.1,0,1,0,1.1,0c0.4,0,0.4,0.1,0.5,0.2c0,0.1,0,0.2,0,0.2c0,0.1,0,0.1,0.1,0.1
		c0.1,0,0.1-0.1,0.1-0.1c0-0.1,0-0.4,0-0.4c0-0.3,0.1-0.4,0.1-0.4c0,0,0-0.1,0-0.1c0,0-0.1,0-0.1,0c-0.1,0-0.2,0-0.3,0
		c-0.1,0-1.7,0-1.9,0c-0.2,0-0.6,0-1,0c-0.1,0-0.2,0-0.2,0.1c0,0,0,0.1,0.1,0.1c0.1,0,0.2,0,0.3,0c0.2,0.1,0.3,0.1,0.3,0.4
		c0,0.2,0,0.4,0,1.4v1.2c0,0.6,0,1.2,0,1.5c0,0.2-0.1,0.3-0.2,0.4c-0.1,0-0.1,0-0.2,0c-0.1,0-0.1,0-0.1,0.1c0,0,0,0.1,0.1,0.1
		c0.1,0,0.3,0,0.5,0c0.2,0,0.3,0,0.4,0c0.2,0,0.5,0,0.8,0c0.3,0,0.8,0,1.3,0c0.3,0,0.3,0,0.4-0.2c0-0.1,0.1-0.6,0.1-0.8
		c0-0.1,0-0.2-0.1-0.2C149.6,49.7,149.6,49.8,149.6,49.8z"/>
	<path style="fill:#FFFFFF;" d="M154.5,49.7c-0.1,0-0.1,0-0.1,0.1c0,0.1-0.1,0.3-0.2,0.4c-0.2,0.2-0.4,0.2-0.8,0.2
		c-0.5,0-0.8,0-0.9-0.1c-0.2-0.1-0.2-0.6-0.2-1.4v-1.2c0-1,0-1.2,0-1.4c0-0.2,0.1-0.3,0.3-0.4c0.1,0,0.2,0,0.3,0
		c0.1,0,0.1,0,0.1-0.1c0,0,0-0.1-0.2-0.1c-0.3,0-0.9,0-1,0c-0.2,0-0.6,0-1,0c-0.1,0-0.2,0-0.2,0.1c0,0,0,0.1,0.1,0.1
		c0.1,0,0.2,0,0.2,0c0.2,0.1,0.3,0.1,0.3,0.4c0,0.2,0,0.4,0,1.4v1.2c0,0.6,0,1.2,0,1.5c0,0.2-0.1,0.3-0.2,0.4c-0.1,0-0.1,0-0.2,0
		c-0.1,0-0.1,0-0.1,0.1c0,0,0,0.1,0.1,0.1c0.1,0,0.3,0,0.5,0c0.2,0,0.3,0,0.4,0c0.3,0,0.6,0,0.9,0c0.4,0,0.8,0,1.3,0
		c0.4,0,0.4,0,0.4-0.2c0.1-0.2,0.1-0.7,0.1-0.8C154.6,49.8,154.5,49.7,154.5,49.7z"/>
	<path style="fill:#FFFFFF;" d="M159.1,49.7c-0.1,0-0.1,0-0.1,0.1c0,0.1-0.1,0.3-0.2,0.4c-0.2,0.2-0.4,0.2-0.8,0.2
		c-0.5,0-0.8,0-0.9-0.1c-0.2-0.1-0.2-0.6-0.2-1.4v-1.2c0-1,0-1.2,0-1.4c0-0.2,0.1-0.3,0.3-0.4c0.1,0,0.2,0,0.3,0
		c0.1,0,0.1,0,0.1-0.1c0,0,0-0.1-0.2-0.1c-0.3,0-0.9,0-1,0c-0.2,0-0.6,0-1,0c-0.1,0-0.2,0-0.2,0.1c0,0,0,0.1,0.1,0.1
		c0.1,0,0.2,0,0.2,0c0.2,0.1,0.3,0.1,0.3,0.4c0,0.2,0,0.4,0,1.4v1.2c0,0.6,0,1.2,0,1.5c0,0.2-0.1,0.3-0.2,0.4c-0.1,0-0.1,0-0.2,0
		c-0.1,0-0.1,0-0.1,0.1c0,0,0,0.1,0.1,0.1c0.1,0,0.3,0,0.5,0c0.2,0,0.3,0,0.4,0c0.3,0,0.6,0,0.9,0c0.4,0,0.8,0,1.3,0
		c0.4,0,0.4,0,0.4-0.2c0.1-0.2,0.1-0.7,0.1-0.8C159.2,49.8,159.2,49.7,159.1,49.7z"/>
	<path style="fill:#FFFFFF;" d="M163.5,49.8c0,0.3-0.1,0.4-0.3,0.5c-0.2,0.1-0.5,0.1-0.7,0.1c-0.7,0-0.9-0.1-1-0.6c0-0.2,0-0.8,0-1
		v-0.5c0,0,0-0.1,0-0.1c0.2,0,1,0,1.1,0c0.3,0,0.4,0.1,0.4,0.3c0,0.1,0,0.2,0,0.2c0,0,0,0.1,0.1,0.1c0.1,0,0.1-0.1,0.1-0.2
		c0,0,0-0.3,0-0.5c0-0.3,0.1-0.5,0.1-0.5s0-0.1-0.1-0.1c0,0-0.1,0-0.1,0.1c-0.1,0.1-0.2,0.1-0.3,0.1c-0.2,0-1.1,0-1.2,0
		c0,0,0,0,0-0.1v-1.7c0,0,0-0.1,0-0.1c0.1,0,1,0,1.1,0c0.4,0,0.4,0.1,0.5,0.2c0,0.1,0,0.2,0,0.2c0,0.1,0,0.1,0.1,0.1
		c0.1,0,0.1-0.1,0.1-0.1c0-0.1,0-0.4,0-0.4c0-0.3,0.1-0.4,0.1-0.4c0,0,0-0.1,0-0.1c0,0-0.1,0-0.1,0c-0.1,0-0.2,0-0.3,0
		c-0.1,0-1.7,0-1.9,0c-0.2,0-0.6,0-1,0c-0.1,0-0.2,0-0.2,0.1c0,0,0,0.1,0.1,0.1c0.1,0,0.2,0,0.3,0c0.2,0.1,0.3,0.1,0.3,0.4
		c0,0.2,0,0.4,0,1.4v1.2c0,0.6,0,1.2,0,1.5c0,0.2-0.1,0.3-0.2,0.4c-0.1,0-0.1,0-0.2,0c-0.1,0-0.1,0-0.1,0.1c0,0,0,0.1,0.1,0.1
		c0.1,0,0.3,0,0.5,0c0.2,0,0.3,0,0.4,0c0.2,0,0.5,0,0.8,0c0.3,0,0.8,0,1.3,0c0.3,0,0.3,0,0.4-0.2c0-0.1,0.1-0.6,0.1-0.8
		c0-0.1,0-0.2-0.1-0.2C163.5,49.7,163.5,49.8,163.5,49.8z"/>
	<path style="fill:#FFFFFF;" d="M170.3,45.7c-0.3,0-0.6,0-0.7,0c-0.2,0-0.5,0-0.9,0c-0.1,0-0.2,0-0.2,0.1c0,0,0,0.1,0.1,0.1
		c0.1,0,0.3,0,0.4,0c0.2,0.1,0.2,0.2,0.2,0.6l0.1,3h0c-0.1-0.1-1-1.1-1.5-1.5c-1-1-2.1-2.1-2.2-2.2c-0.1-0.1-0.2-0.2-0.3-0.2
		c-0.1,0-0.1,0.1-0.1,0.2l-0.1,4c0,0.6,0,0.8-0.2,0.8c-0.1,0-0.2,0-0.3,0c-0.1,0-0.1,0-0.1,0.1c0,0.1,0.1,0.1,0.2,0.1
		c0.4,0,0.7,0,0.8,0c0.1,0,0.5,0,0.9,0c0.1,0,0.2,0,0.2-0.1c0,0,0-0.1-0.1-0.1c-0.1,0-0.2,0-0.4,0c-0.1,0-0.2-0.2-0.2-0.7l-0.1-2.8
		h0c0.1,0.1,0.9,0.9,1.7,1.7c0.7,0.7,1.6,1.6,2.1,2c0.1,0.1,0.2,0.1,0.3,0.1c0.1,0,0.1-0.1,0.1-0.2l0.1-4.3c0-0.4,0.1-0.5,0.3-0.6
		c0.1,0,0.1,0,0.2,0c0.1,0,0.1,0,0.1-0.1C170.5,45.7,170.4,45.7,170.3,45.7z"/>
	<path style="fill:#FFFFFF;" d="M176.2,49.5c-0.1,0-0.1,0-0.1,0.1c0,0.1-0.1,0.3-0.2,0.5c-0.3,0.3-0.6,0.4-1.3,0.4
		c-0.9,0-2.2-0.8-2.2-2.4c0-0.7,0.1-1.3,0.6-1.8c0.3-0.3,0.7-0.4,1.3-0.4c0.6,0,1.1,0.2,1.4,0.4c0.2,0.2,0.3,0.4,0.3,0.6
		c0,0.1,0,0.1,0.1,0.1c0.1,0,0.1-0.1,0.1-0.2c0-0.1,0-0.5,0-0.7c0-0.2,0-0.3,0-0.4c0,0,0-0.1-0.1-0.1c-0.2,0-0.4-0.1-0.7-0.1
		c-0.3,0-0.6-0.1-1-0.1c-1.1,0-1.7,0.3-2.2,0.7c-0.7,0.6-0.8,1.4-0.8,1.9c0,0.7,0.2,1.4,0.9,2c0.6,0.5,1.5,0.7,2.4,0.7
		c0.5,0,1,0,1.3-0.2c0.1,0,0.2-0.1,0.2-0.2c0.1-0.2,0.2-0.8,0.2-0.9C176.3,49.6,176.3,49.5,176.2,49.5z"/>
	<path style="fill:#FFFFFF;" d="M180.9,49.8c0,0.3-0.1,0.4-0.3,0.5c-0.2,0.1-0.5,0.1-0.7,0.1c-0.7,0-0.9-0.1-1-0.6c0-0.2,0-0.8,0-1
		v-0.5c0,0,0-0.1,0-0.1c0.2,0,1,0,1.1,0c0.3,0,0.4,0.1,0.4,0.3c0,0.1,0,0.2,0,0.2c0,0,0,0.1,0.1,0.1c0.1,0,0.1-0.1,0.1-0.2
		c0,0,0-0.3,0-0.5c0-0.3,0.1-0.5,0.1-0.5s0-0.1-0.1-0.1c0,0-0.1,0-0.1,0.1c-0.1,0.1-0.2,0.1-0.3,0.1c-0.2,0-1.1,0-1.2,0
		c0,0,0,0,0-0.1v-1.7c0,0,0-0.1,0-0.1c0.1,0,1,0,1.1,0c0.4,0,0.4,0.1,0.5,0.2c0,0.1,0,0.2,0,0.2c0,0.1,0,0.1,0.1,0.1
		c0.1,0,0.1-0.1,0.1-0.1c0-0.1,0-0.4,0-0.4c0-0.3,0.1-0.4,0.1-0.4c0,0,0-0.1,0-0.1c0,0-0.1,0-0.1,0c-0.1,0-0.2,0-0.3,0
		c-0.1,0-1.7,0-1.9,0c-0.2,0-0.6,0-1,0c-0.1,0-0.2,0-0.2,0.1c0,0,0,0.1,0.1,0.1c0.1,0,0.2,0,0.3,0c0.2,0.1,0.3,0.1,0.3,0.4
		c0,0.2,0,0.4,0,1.4v1.2c0,0.6,0,1.2,0,1.5c0,0.2-0.1,0.3-0.2,0.4c-0.1,0-0.1,0-0.2,0c-0.1,0-0.1,0-0.1,0.1c0,0,0,0.1,0.1,0.1
		c0.1,0,0.3,0,0.5,0c0.2,0,0.3,0,0.4,0c0.2,0,0.5,0,0.8,0c0.3,0,0.8,0,1.3,0c0.3,0,0.3,0,0.4-0.2c0-0.1,0.1-0.6,0.1-0.8
		c0-0.1,0-0.2-0.1-0.2C180.9,49.7,180.9,49.8,180.9,49.8z"/>
</g>
<g id="numbers_1_">
	<g id="numbers">
		<path id="number-1" style="fill:#FFD600;" d="M1.2,7.9c3-1,4.1-1.8,4.9-1.8c0.7,0,0.8,0.5,0.8,1.3c0,1.4,0,3.9,0,6.3v7.6
			c0,4.3,0,7-0.2,9.9c-0.1,1.3-0.4,2-1.8,2.3c-0.8,0.2-2.8,0.3-3.3,0.3c-0.3,0-0.5,0.2-0.5,0.4c0,0.3,0.3,0.4,0.7,0.4
			c2.8,0,5.1-0.1,6.6-0.1c1.3,0,3.5,0.1,6.7,0.1c0.5,0,0.7-0.2,0.7-0.5c0-0.3-0.2-0.4-0.5-0.4c-0.4,0-3-0.2-3.6-0.3
			c-1.4-0.3-1.6-0.9-1.8-2.3c-0.2-1.8-0.2-5.6-0.1-10l0-8c0-6.6,0-10.9,0-11.2c0-0.4,0-0.7-0.3-0.8H9C8.9,1.2,8.7,1.3,8.4,1.5
			c-2,2.1-4.3,3.9-7.8,5.6c-0.1,0-0.1,0.1-0.2,0.1v0.6C0.6,7.9,0.6,8,0.7,8C0.9,8,1,7.9,1.2,7.9z"/>
		<path id="number-2" style="fill:#FFD600;" d="M30.1,33c-0.3,0-0.4,0.2-0.4,0.7c-0.3,2.3-1.3,3.9-4.4,4.2c-1.6,0.2-6.1,0.2-6.8,0.2
			h-3.2c-0.2,0-0.3-0.1-0.1-0.3c5.2-6.3,11.4-11.9,13.4-18.4c0.3-1,0.5-2.1,0.6-3.2c0-0.4,0.1-0.8,0.1-1.3c0-4.3-3.3-8.3-9.4-8.3
			c-3.3,0-5.5,1.2-7.1,1.9c-0.4,0.3-0.4,0.4-0.4,0.6c0.1,1.2,0.1,3.6,0,5.3c0,0.4,0.2,0.6,0.3,0.6c0.2,0,0.4-0.3,0.4-0.6
			c0-1.6,0.6-3.2,1.5-4.3c1-1.2,2.5-1.9,4.4-1.9c2.7,0,6.7,1.2,6.7,7c0,8.7-13.8,23.3-14.4,23.9c-0.3,0.3-0.8,0.7-0.8,1.1
			c0,0.4,0.3,0.6,0.6,0.6h16.4c1.8,0,2.8-0.1,2.8-1.1c-0.1-1.5-0.1-3.9,0.1-6C30.4,33.5,30.4,33,30.1,33z"/>
		<path id="number-5" style="fill:#FFD600;" d="M30.3,25.4l0-6.5h8.3c3.5,0,4.3,1.1,4.3,2.7c0,0.3,0.1,0.6,0.3,0.6
			c0.2,0,0.3-0.2,0.3-0.5c0-2.1-0.1-4.1,0-5.3c0-0.3-0.1-0.4-0.3-0.4c-0.1,0-0.4,0.1-0.9,0.2c-0.5,0.1-1.2,0.1-2.4,0.1H29.5
			c-0.1,0-0.2,0-0.3,0c-0.3,0-0.5,0.2-0.5,0.5l-0.1,2.6l-0.3,7.8c0,0.5,0.3,0.7,1.1,0.8c3.4,0.2,13,1,13,10c0,7.3-5.4,11-10.3,11
			c-4.3,0-7.7-0.7-7.7-6.1c0-0.7-0.1-1-0.5-1c-0.4,0-0.5,0.4-0.5,1.1c0.1,2,0.1,3.4,0,5.3c0,0.6,0.1,1.1,1.1,1.7
			c0.8,0.5,1.7,0.8,2.6,0.9h5.1c8.2-1,12.2-6.2,12.9-12.1V35C44.2,26.7,35.7,26.2,30.3,25.4z"/>
	</g>
	<rect x="0.5" y="1.1" style="fill:none;stroke:#FFFFFF;stroke-miterlimit:10;" width="44.8" height="49.8"/>
</g>
<g id="UNCG">
	<path style="fill:#FFFFFF;" d="M148.3,22c-4,4.2-7,6.5-11.1,5.9c-4.3-0.6-6.8-3.6-8.3-7.7c-1.4-4-1.5-12,2.4-16.2
		c2.6-2.7,7.7-2.9,9.9-2.2c4,1.2,5.5,3.2,6.7,7.4h0.8c0,0-0.1-2.2,0-3.7c0-1.1,0.2-2.9,0.2-2.9c-0.1-0.1-0.3-0.3-0.6-0.4
		c-4.1-2.3-13.4-3.2-18.9-0.1c-5.5,3.1-7.1,8.2-7,12.8c0.1,5.1,1.9,10.1,7.3,13c5,2.6,12.7,2.1,18.4-1.5c0.6-0.5,0.9-0.7,1-0.9
		c0,0,0-1.4,0.1-1.9c0-0.7-0.2-2.3-0.2-2.3L148.3,22z"/>
	<path style="fill:#FFFFFF;" d="M183.6,17.2h-10v0.9c1.2,0.3,2.7,0.4,2.7,3.1v5.3c-0.2,0.2-0.3,0.3-0.7,0.5
		c-2.2,1.2-6.1,1.2-8.5,0.1c-5.1-2.4-6.8-7-7.3-11.2c-0.3-3.1,0-9.4,3.8-12.5c3.2-2.5,8-2.4,11.3-1.2c3.9,1.5,4.7,3,5.5,6.6h1
		L181,2.2c-0.2-0.2-2.1-0.9-2.1-0.9c-5.7-1.5-14.3-2.6-20,2.1c-4.6,3.9-5.5,9.8-4.9,14c0.5,4.4,3.2,8.4,7.9,10.6
		c4.9,2.4,14.7,1.3,18.1-0.5c0.3-0.2,0.6-0.4,0.9-0.6v-5.5c0-2.5,0.4-2.9,2.6-3.4V17.2z"/>
	<path style="fill:#FFFFFF;" d="M57,5v11.3c0,3.6,0.4,8.6,5,11.3c3.9,2.4,8.8,2.5,12.8,0.3c4.9-2.6,5.3-7.7,5.4-11.1l0.3-10.6
		c0.1-1.6,0-3.2,1.4-4.1C82,2,83.3,1.6,83.6,1.6V0.8c0,0-2.8,0.1-4.5,0.1c-1.4,0-3.7-0.1-3.7-0.1v0.9c2.4,0.3,3,1.6,3,4.3v11.6
		c0,3.3-0.3,6.8-4.1,9c-2.4,1.4-6,1.6-8.4,0.2c-3.9-2.2-4.3-5.6-4.3-8.7V5c0-1.3,0.1-2.4,1.4-3.1c0.6-0.3,0.9-0.2,1.5-0.3V0.8
		c-1,0-3.1,0.1-5.1,0.1c-2.7,0-5.3-0.1-5.3-0.1v0.9c0.6,0.1,0.9,0,1.5,0.3C56.9,2.6,57,3.8,57,5z"/>
	<path style="fill:#FFFFFF;" d="M96.2,28.7v-0.9c-0.4,0-1.6-0.3-1.8-0.5c-1.5-0.9-1.5-2.5-1.5-4.1V5.7l18.4,20.9
		c1,1.2,2.3,3,2.9,2.8c0.6-0.2,0.5-1.9,0.5-3.2V6.2c0-1.6,0-3.2,1.5-4.1c0.2-0.1,1.4-0.5,1.8-0.5V0.8c0,0-2.7,0.1-4.4,0.1
		c-1.4,0-3.7-0.1-3.7-0.1v0.9c2.5,0.3,3,1.6,3,4.2v14.8L95.3,0.8c0,0-2,0.1-3.5,0.1c-1.4,0-3.5-0.1-3.5-0.1v0.9
		c0.4,0.1,1.5,0.1,2,0.4c1,0.7,0.9,1.8,0.9,3.8v17.7c0,2.6-0.6,3.9-3,4.2v0.9c0,0,2.2-0.1,3.6-0.1C93.5,28.6,96.2,28.7,96.2,28.7z"
		/>
</g>
</svg>
