<svg xmlns="http://www.w3.org/2000/svg" viewBox="0 0 150 150"><title>uncg_school_icons</title><path d="M143.14,46.26a72.72,72.72,0,0,0-39.4-39.4,73.37,73.37,0,0,0-57.48,0,72.72,72.72,0,0,0-39.4,39.4,73.37,73.37,0,0,0,0,57.48,72.72,72.72,0,0,0,39.4,39.4,73.37,73.37,0,0,0,57.48,0,72.72,72.72,0,0,0,39.4-39.4,73.37,73.37,0,0,0,0-57.48ZM138.43,75a61.7,61.7,0,0,1-5,24.61,62.68,62.68,0,0,1-33.78,33.78,62.64,62.64,0,0,1-49.22,0A62.68,62.68,0,0,1,16.61,99.61a61.72,61.72,0,0,1-5-24.61h0a61.7,61.7,0,0,1,5-24.61A62.68,62.68,0,0,1,50.39,16.61a62.64,62.64,0,0,1,49.22,0,62.68,62.68,0,0,1,33.78,33.78,61.72,61.72,0,0,1,5,24.61Z" fill="#fff"/><path d="M46.25,6.85a73.5,73.5,0,0,1,57.49,0,74.71,74.71,0,0,1,23.62,15.78,74,74,0,0,1,15.77,23.62,73.29,73.29,0,0,1,0,57.4,73.73,73.73,0,0,1-15.73,23.62,75,75,0,0,1-23.63,15.81,73.4,73.4,0,0,1-57.64,0,73.75,73.75,0,0,1-23.58-15.8A75.6,75.6,0,0,1,6.85,103.69a73.38,73.38,0,0,1,0-57.44,72.76,72.76,0,0,1,39.4-39.4Zm79.87,105.72a63.2,63.2,0,0,0,7.27-62.2A62.66,62.66,0,0,0,99.61,16.61a62.54,62.54,0,0,0-49.22,0A62.58,62.58,0,0,0,16.61,50.38a61.47,61.47,0,0,0-5,24.62,62.5,62.5,0,0,0,12.31,37.58q5.44-27,25.27-27A35.73,35.73,0,0,0,75,96.14a35.7,35.7,0,0,0,25.85-10.57Q120.67,85.56,126.12,112.58Zm-28.7-31a30.49,30.49,0,0,0,9.29-22.41,30.54,30.54,0,0,0-9.29-22.43A30.56,30.56,0,0,0,75,27.43a30.54,30.54,0,0,0-22.43,9.29,30.59,30.59,0,0,0-9.3,22.43,30.55,30.55,0,0,0,9.3,22.41A30.51,30.51,0,0,0,75,90.85,30.52,30.52,0,0,0,97.41,81.55Z" fill="#fff"/></svg>