<svg xmlns="http://www.w3.org/2000/svg" xmlns:xlink="http://www.w3.org/1999/xlink" viewBox="0 0 355 331.9"><path fill="#FFF" d="M105.4 17.5l40-1h6.5l6.5-2 6.5-3 3.5-1.5h3l1.7 2-1 2.7-2.4 2 68.4.3-.4 75.4 3.4 2.6 3 1.4-.7 2-4.3.3-1 20.7.3 19.6-1.3 10-2.7 10-10.3 21.7-9.4 12-16 15.3-15.3 9-7.7 5-7 .7-14.6-10.3-14.4-11-14.6-15.7-9.4-14.3-6.6-15.4-2.7-12.3-1-8z"/><defs><path id="a" d="M184.7 156.1c3.8-8.8 6.2-18.2 6.5-28 .1-2.8 0-7.5-.2-10.3 1.3 5.4 2 13 1.8 18.7-.2 6.8-1.4 13.5-3.4 19.9 20.2 1.5 38.3 4.6 38.3 4.6 2.8-7.7 4-16.1 4-25.7v-111H112.2s-.1 71.5 0 111.2c0 9.1 2 17.5 5.2 25.3 0 0 27.8-5.2 54.6-5.2 4.2 0 8.3.2 12.7.5z"/></defs><clipPath id="b"><use xlink:href="#a" overflow="visible"/></clipPath><g clip-path="url(#b)"><defs><path id="c" d="M184.7 156.1c3.8-8.8 6.2-18.2 6.5-28 .1-2.8 0-7.5-.2-10.3 1.3 5.4 2 13 1.8 18.7-.2 6.8-1.4 13.5-3.4 19.9 20.2 1.5 38.3 4.6 38.3 4.6 2.8-7.7 4-16.1 4-25.7v-111H112.2s-.1 71.5 0 111.2c0 9.1 2 17.5 5.2 25.3 0 0 27.8-5.2 54.6-5.2 4.2 0 8.3.2 12.7.5z"/></defs><clipPath id="d"><use xlink:href="#c" overflow="visible"/></clipPath><g clip-path="url(#d)"><path fill="#FFD200" d="M112.2 24.3h119.5v136.6H112.2V24.3z"/><ellipse fill="#FFD200" cx="170.7" cy="173.2" rx="90.7" ry="158.2"/><ellipse fill="#FFD301" cx="170.7" cy="173.2" rx="90.1" ry="157.2"/><ellipse fill="#FFD307" cx="170.7" cy="173.2" rx="89.5" ry="156.2"/><ellipse fill="#FFD30A" cx="170.7" cy="173.2" rx="88.9" ry="155.2"/><ellipse fill="#FFD30F" cx="170.7" cy="173.2" rx="88.4" ry="154.2"/><ellipse fill="#FFD414" cx="170.7" cy="173.2" rx="87.8" ry="153.2"/><ellipse fill="#FFD416" cx="170.7" cy="173.2" rx="87.2" ry="152.2"/><ellipse fill="#FFD41A" cx="170.7" cy="173.2" rx="86.6" ry="151.2"/><ellipse fill="#FFD41C" cx="170.7" cy="173.2" rx="86.1" ry="150.2"/><ellipse fill="#FFD420" cx="170.7" cy="173.2" rx="85.5" ry="149.2"/><ellipse fill="#FFD523" cx="170.7" cy="173.2" rx="84.9" ry="148.2"/><ellipse fill="#FFD525" cx="170.7" cy="173.2" rx="84.4" ry="147.2"/><ellipse fill="#FFD528" cx="170.7" cy="173.2" rx="83.8" ry="146.2"/><ellipse fill="#FFD52A" cx="170.7" cy="173.2" rx="83.2" ry="145.2"/><ellipse fill="#FFD62D" cx="170.7" cy="173.2" rx="82.6" ry="144.2"/><ellipse fill="#FFD630" cx="170.7" cy="173.2" rx="82.1" ry="143.2"/><ellipse fill="#FFD631" cx="170.7" cy="173.2" rx="81.5" ry="142.2"/><ellipse fill="#FFD633" cx="170.7" cy="173.2" rx="80.9" ry="141.2"/><ellipse fill="#FFD635" cx="170.7" cy="173.2" rx="80.3" ry="140.2"/><ellipse fill="#FFD737" cx="170.7" cy="173.2" rx="79.8" ry="139.2"/><ellipse fill="#FFD73A" cx="170.7" cy="173.2" rx="79.2" ry="138.2"/><ellipse fill="#FFD73B" cx="170.7" cy="173.2" rx="78.6" ry="137.2"/><ellipse fill="#FFD73E" cx="170.7" cy="173.2" rx="78" ry="136.2"/><ellipse fill="#FFD840" cx="170.7" cy="173.2" rx="77.5" ry="135.2"/><ellipse fill="#FFD841" cx="170.7" cy="173.2" rx="76.9" ry="134.2"/><ellipse fill="#FFD844" cx="170.7" cy="173.2" rx="76.3" ry="133.2"/><ellipse fill="#FFD845" cx="170.7" cy="173.2" rx="75.7" ry="132.2"/><ellipse fill="#FFD947" cx="170.7" cy="173.2" rx="75.2" ry="131.2"/><ellipse fill="#FFD949" cx="170.7" cy="173.2" rx="74.6" ry="130.2"/><ellipse fill="#FFD94B" cx="170.7" cy="173.2" rx="74" ry="129.2"/><ellipse fill="#FFD94D" cx="170.7" cy="173.2" rx="73.5" ry="128.2"/><ellipse fill="#FFD94E" cx="170.7" cy="173.2" rx="72.9" ry="127.2"/><ellipse fill="#FFDA50" cx="170.7" cy="173.2" rx="72.3" ry="126.2"/><ellipse fill="#FFDA52" cx="170.7" cy="173.2" rx="71.7" ry="125.2"/><ellipse fill="#FFDA54" cx="170.7" cy="173.2" rx="71.2" ry="124.2"/><ellipse fill="#FFDA56" cx="170.7" cy="173.2" rx="70.6" ry="123.2"/><ellipse fill="#FFDB57" cx="170.7" cy="173.2" rx="70" ry="122.2"/><ellipse fill="#FFDB59" cx="170.7" cy="173.2" rx="69.4" ry="121.2"/><ellipse fill="#FFDB5B" cx="170.7" cy="173.2" rx="68.9" ry="120.2"/><ellipse fill="#FFDB5C" cx="170.7" cy="173.2" rx="68.3" ry="119.2"/><ellipse fill="#FFDC5E" cx="170.7" cy="173.2" rx="67.7" ry="118.2"/><ellipse fill="#FFDC60" cx="170.7" cy="173.2" rx="67.1" ry="117.2"/><ellipse fill="#FFDC61" cx="170.7" cy="173.2" rx="66.6" ry="116.2"/><ellipse fill="#FFDC63" cx="170.7" cy="173.2" rx="66" ry="115.2"/><ellipse fill="#FFDD64" cx="170.7" cy="173.2" rx="65.4" ry="114.2"/><ellipse fill="#FD6" cx="170.7" cy="173.2" rx="64.8" ry="113.2"/><ellipse fill="#FFDD68" cx="170.7" cy="173.2" rx="64.3" ry="112.2"/><ellipse fill="#FFDD69" cx="170.7" cy="173.2" rx="63.7" ry="111.2"/><ellipse fill="#FFDE6B" cx="170.7" cy="173.2" rx="63.1" ry="110.2"/><ellipse fill="#FFDE6C" cx="170.7" cy="173.2" rx="62.5" ry="109.2"/><ellipse fill="#FFDE6E" cx="170.7" cy="173.2" rx="62" ry="108.2"/><ellipse fill="#FFDF70" cx="170.7" cy="173.2" rx="61.4" ry="107.1"/><ellipse fill="#FFDF70" cx="170.7" cy="173.2" rx="60.8" ry="106.1"/><ellipse fill="#FFDF72" cx="170.7" cy="173.2" rx="60.3" ry="105.1"/><ellipse fill="#FFDF73" cx="170.7" cy="173.2" rx="59.7" ry="104.1"/><ellipse fill="#FFDF75" cx="170.7" cy="173.2" rx="59.1" ry="103.1"/><ellipse fill="#FFE077" cx="170.7" cy="173.2" rx="58.5" ry="102.1"/><ellipse fill="#FFE077" cx="170.7" cy="173.2" rx="58" ry="101.1"/><ellipse fill="#FFE079" cx="170.7" cy="173.2" rx="57.4" ry="100.1"/><ellipse fill="#FFE17B" cx="170.7" cy="173.2" rx="56.8" ry="99.1"/><ellipse fill="#FFE17C" cx="170.7" cy="173.2" rx="56.2" ry="98.1"/><ellipse fill="#FFE17D" cx="170.7" cy="173.2" rx="55.7" ry="97.1"/><ellipse fill="#FFE17E" cx="170.7" cy="173.2" rx="55.1" ry="96.1"/><ellipse fill="#FFE280" cx="170.7" cy="173.2" rx="54.5" ry="95.1"/><ellipse fill="#FFE281" cx="170.7" cy="173.2" rx="53.9" ry="94.1"/><ellipse fill="#FFE282" cx="170.7" cy="173.2" rx="53.4" ry="93.1"/><ellipse fill="#FFE284" cx="170.7" cy="173.2" rx="52.8" ry="92.1"/><ellipse fill="#FFE384" cx="170.7" cy="173.2" rx="52.2" ry="91.1"/><ellipse fill="#FFE386" cx="170.7" cy="173.2" rx="51.6" ry="90.1"/><ellipse fill="#FFE388" cx="170.7" cy="173.2" rx="51.1" ry="89.1"/><ellipse fill="#FFE388" cx="170.7" cy="173.2" rx="50.5" ry="88.1"/><ellipse fill="#FFE48A" cx="170.7" cy="173.2" rx="49.9" ry="87.1"/><ellipse fill="#FFE48B" cx="170.7" cy="173.2" rx="49.3" ry="86.1"/><ellipse fill="#FFE48C" cx="170.7" cy="173.2" rx="48.8" ry="85.1"/><ellipse fill="#FFE58E" cx="170.7" cy="173.2" rx="48.2" ry="84.1"/><ellipse fill="#FFE58F" cx="170.7" cy="173.2" rx="47.6" ry="83.1"/><ellipse fill="#FFE590" cx="170.7" cy="173.2" rx="47.1" ry="82.1"/><ellipse fill="#FFE592" cx="170.7" cy="173.2" rx="46.5" ry="81.1"/><ellipse fill="#FFE693" cx="170.7" cy="173.2" rx="45.9" ry="80.1"/><ellipse fill="#FFE694" cx="170.7" cy="173.2" rx="45.3" ry="79.1"/><ellipse fill="#FFE695" cx="170.7" cy="173.2" rx="44.8" ry="78.1"/><ellipse fill="#FFE697" cx="170.7" cy="173.2" rx="44.2" ry="77.1"/><ellipse fill="#FFE798" cx="170.7" cy="173.2" rx="43.6" ry="76.1"/><ellipse fill="#FFE799" cx="170.7" cy="173.2" rx="43" ry="75.1"/><ellipse fill="#FFE79A" cx="170.7" cy="173.2" rx="42.5" ry="74.1"/><ellipse fill="#FFE79B" cx="170.7" cy="173.2" rx="41.9" ry="73.1"/><ellipse fill="#FFE89D" cx="170.7" cy="173.2" rx="41.3" ry="72.1"/><ellipse fill="#FFE89E" cx="170.7" cy="173.2" rx="40.7" ry="71.1"/><ellipse fill="#FFE89F" cx="170.7" cy="173.2" rx="40.2" ry="70.1"/><ellipse fill="#FFE8A1" cx="170.7" cy="173.2" rx="39.6" ry="69.1"/><ellipse fill="#FFE9A2" cx="170.7" cy="173.2" rx="39" ry="68.1"/><ellipse fill="#FFE9A3" cx="170.7" cy="173.2" rx="38.4" ry="67.1"/><ellipse fill="#FFE9A5" cx="170.7" cy="173.2" rx="37.9" ry="66.1"/><ellipse fill="#FFE9A6" cx="170.7" cy="173.2" rx="37.3" ry="65.1"/><ellipse fill="#FFEAA7" cx="170.7" cy="173.2" rx="36.7" ry="64.1"/><ellipse fill="#FFEAA9" cx="170.7" cy="173.2" rx="36.2" ry="63.1"/><ellipse fill="#FFEAAA" cx="170.7" cy="173.2" rx="35.6" ry="62.1"/><ellipse fill="#FFEBAB" cx="170.7" cy="173.2" rx="35" ry="61.1"/><ellipse fill="#FFEBAC" cx="170.7" cy="173.2" rx="34.4" ry="60.1"/><ellipse fill="#FFEBAE" cx="170.7" cy="173.2" rx="33.9" ry="59.1"/><ellipse fill="#FFECAF" cx="170.7" cy="173.2" rx="33.3" ry="58.1"/><ellipse fill="#FFECB0" cx="170.7" cy="173.2" rx="32.7" ry="57.1"/><ellipse fill="#FFECB2" cx="170.7" cy="173.2" rx="32.1" ry="56.1"/><ellipse fill="#FFECB3" cx="170.7" cy="173.2" rx="31.6" ry="55.1"/><ellipse fill="#FFEDB4" cx="170.7" cy="173.2" rx="31" ry="54.1"/><ellipse fill="#FFEDB6" cx="170.7" cy="173.2" rx="30.4" ry="53.1"/><ellipse fill="#FFEDB7" cx="170.7" cy="173.2" rx="29.8" ry="52.1"/><ellipse fill="#FFEDB8" cx="170.7" cy="173.2" rx="29.3" ry="51.1"/><ellipse fill="#FFEEB9" cx="170.7" cy="173.2" rx="28.7" ry="50.1"/><ellipse fill="#FEB" cx="170.7" cy="173.2" rx="28.1" ry="49.1"/><ellipse fill="#FFEEBC" cx="170.7" cy="173.2" rx="27.5" ry="48.1"/><ellipse fill="#FFEEBD" cx="170.7" cy="173.2" rx="27" ry="47.1"/><ellipse fill="#FFEFBF" cx="170.7" cy="173.2" rx="26.4" ry="46.1"/><ellipse fill="#FFEFC0" cx="170.7" cy="173.2" rx="25.8" ry="45.1"/><ellipse fill="#FFEFC1" cx="170.7" cy="173.2" rx="25.2" ry="44.1"/><ellipse fill="#FFF0C3" cx="170.7" cy="173.2" rx="24.7" ry="43.1"/><ellipse fill="#FFF0C4" cx="170.7" cy="173.2" rx="24.1" ry="42.1"/><ellipse fill="#FFF0C5" cx="170.7" cy="173.2" rx="23.5" ry="41.1"/><ellipse fill="#FFF1C7" cx="170.7" cy="173.2" rx="23" ry="40.1"/><ellipse fill="#FFF1C8" cx="170.7" cy="173.2" rx="22.4" ry="39.1"/><ellipse fill="#FFF1C9" cx="170.7" cy="173.2" rx="21.8" ry="38.1"/><ellipse fill="#FFF1CA" cx="170.7" cy="173.2" rx="21.2" ry="37.1"/><ellipse fill="#FFF2CC" cx="170.7" cy="173.2" rx="20.7" ry="36"/><ellipse fill="#FFF2CD" cx="170.7" cy="173.2" rx="20.1" ry="35"/><ellipse fill="#FFF2CE" cx="170.7" cy="173.2" rx="19.5" ry="34"/><ellipse fill="#FFF3CF" cx="170.7" cy="173.2" rx="18.9" ry="33"/><ellipse fill="#FFF3D0" cx="170.7" cy="173.2" rx="18.4" ry="32"/><ellipse fill="#FFF3D2" cx="170.7" cy="173.2" rx="17.8" ry="31"/><ellipse fill="#FFF3D3" cx="170.7" cy="173.2" rx="17.2" ry="30"/><ellipse fill="#FFF4D4" cx="170.7" cy="173.2" rx="16.6" ry="29"/><ellipse fill="#FFF4D6" cx="170.7" cy="173.2" rx="16.1" ry="28"/><ellipse fill="#FFF4D7" cx="170.7" cy="173.2" rx="15.5" ry="27"/><ellipse fill="#FFF5D8" cx="170.7" cy="173.2" rx="14.9" ry="26"/><ellipse fill="#FFF5DA" cx="170.7" cy="173.2" rx="14.3" ry="25"/><ellipse fill="#FFF5DB" cx="170.7" cy="173.2" rx="13.8" ry="24"/><ellipse fill="#FFF6DC" cx="170.7" cy="173.2" rx="13.2" ry="23"/><ellipse fill="#FFF6DE" cx="170.7" cy="173.2" rx="12.6" ry="22"/><ellipse fill="#FFF6DF" cx="170.7" cy="173.2" rx="12.1" ry="21"/><ellipse fill="#FFF7E0" cx="170.7" cy="173.2" rx="11.5" ry="20"/><ellipse fill="#FFF7E1" cx="170.7" cy="173.2" rx="10.9" ry="19"/><ellipse fill="#FFF7E3" cx="170.7" cy="173.2" rx="10.3" ry="18"/><ellipse fill="#FFF8E4" cx="170.7" cy="173.2" rx="9.8" ry="17"/><ellipse fill="#FFF8E5" cx="170.7" cy="173.2" rx="9.2" ry="16"/><ellipse fill="#FFF8E7" cx="170.7" cy="173.2" rx="8.6" ry="15"/><ellipse fill="#FFF9E8" cx="170.7" cy="173.2" rx="8" ry="14"/><ellipse fill="#FFF9EA" cx="170.7" cy="173.2" rx="7.5" ry="13"/><ellipse fill="#FFF9EB" cx="170.7" cy="173.2" rx="6.9" ry="12"/><ellipse fill="#FFFAEC" cx="170.7" cy="173.2" rx="6.3" ry="11"/><ellipse fill="#FFFAEE" cx="170.7" cy="173.2" rx="5.7" ry="10"/><ellipse fill="#FFFAEF" cx="170.7" cy="173.2" rx="5.2" ry="9"/><ellipse fill="#FFFBF0" cx="170.7" cy="173.2" rx="4.6" ry="8"/><ellipse fill="#FFFCF2" cx="170.7" cy="173.2" rx="4" ry="7"/><ellipse fill="#FFFCF3" cx="170.7" cy="173.2" rx="3.4" ry="6"/><ellipse fill="#FFFCF5" cx="170.7" cy="173.2" rx="2.9" ry="5"/><ellipse fill="#FFFDF7" cx="170.7" cy="173.2" rx="2.3" ry="4"/><ellipse fill="#FFFDF8" cx="170.7" cy="173.2" rx="1.7" ry="3"/><ellipse fill="#FFFEFA" cx="170.7" cy="173.2" rx="1.1" ry="2"/><ellipse fill="#FFFEFC" cx="170.7" cy="173.2" rx=".6" ry="1"/></g></g><defs><path id="e" d="M184.7 156.1c3.8-8.8 6.2-18.2 6.5-28 .1-2.8 0-7.5-.2-10.3 1.3 5.4 2 13 1.8 18.7-.2 6.8-1.4 13.5-3.4 19.9 20.2 1.5 38.3 4.6 38.3 4.6 2.8-7.7 4-16.1 4-25.7v-111H112.2s-.1 71.5 0 111.2c0 9.1 2 17.5 5.2 25.3 0 0 27.8-5.2 54.6-5.2 4.2 0 8.3.2 12.7.5z"/></defs><clipPath id="f"><use xlink:href="#e" overflow="visible"/></clipPath><g clip-path="url(#f)"><path fill="#FFD200" d="M172.3 156.1l69.6-50.2-.4 20.9-69.2 29.3 69.2-11.7-4.5 22.1-64.7-10.4-64 10.3-4.7-21.9 68.7 11.6-68.6-29.2-.3-20.7 68.9 49.9-68.9-78.3-.4-27.7 69.3 106-47.7-138 18.8-.1 28.9 138.1L202 17.8h18.9l-48.6 138.3 69.3-105.9.2 27.2z"/></g><path fill-rule="evenodd" clip-rule="evenodd" fill="#003E7E" d="M123.9 42.1v.2c0 .1-.1.1-.1.1h-5.3s-.1 0-.1-.1v-.4c0-.1.1-.1.1-.1.4-.1.8-.1 1-.2.3-.1.4-.4.4-1v-3.1c0-.5-.1-.9-.4-1-.3-.1-.6-.2-1-.2 0 0-.1 0-.1-.1v-.4c0-.1.1-.1.1-.1h5.3s.1 0 .1.1v.4c0 .1-.1.1-.1.1-.4 0-.7.1-1 .2-.3.1-.4.4-.4.9v3.1c0 .5.1.9.4 1 .3.1.6.2 1 .2 0 0 .1 0 .1.1v.3zm20.7-2.4c0 .8-.4 1.5-1.1 2-.7.6-1.6.9-2.6.9-.9 0-1.7-.2-2.2-.7-.6-.4-.9-1-.9-1.6 0-.6.2-1 .6-1.4.4-.4.9-.7 1.4-1-.6-.4-1-.8-1.3-1.2-.3-.4-.5-.9-.5-1.3 0-.8.3-1.4 1-2 .6-.5 1.5-.8 2.5-.8.8 0 1.5.2 2 .6.5.4.8.9.8 1.6 0 .5-.2.9-.5 1.2-.3.3-.7.6-1.3.9.7.4 1.2.8 1.5 1.3.4.4.6.9.6 1.5zm-1.6-5c0-.5-.1-.8-.4-1.1-.3-.3-.6-.4-1-.4s-.6.1-.9.3c-.2.2-.3.5-.3.9 0 .3.1.7.3.9.2.3.6.6 1.2 1 .4-.2.6-.5.8-.8.2-.2.3-.5.3-.8zm-1 5.9c0-.5-.2-.9-.5-1.3-.4-.4-.8-.7-1.2-1-.4.2-.7.5-.9.8-.2.3-.3.7-.3 1.2s.2.9.5 1.1c.4.3.8.4 1.2.4.4 0 .7-.1.9-.4.2-.1.3-.4.3-.8zm61.7-1.4c0 1.5-.6 2.8-1.9 3.9-1.3 1.1-2.9 2-4.9 2.5 0 0-.1 0-.1-.1s-.1-.1-.1-.2v-.2c0-.1 0-.1.1-.1 1.5-.6 2.6-1.3 3.3-2.3.8-1 1.1-2.1 1.1-3.5 0-1-.1-1.8-.2-2.3-.2-.5-.5-.7-1-.7-.4 0-.8.2-.9.6-.2.4-.3 1-.3 1.8 0 .7.1 1.2.2 1.5.1.3.4.4.7.4h.2c.1 0 .1 0 .2-.1h.2c.1 0 .1.1.1.1s.1.1.1.2v.1c-.2.2-.4.4-.6.5-.2.1-.5.2-.9.2-.7 0-1.3-.3-1.8-.8s-.8-1.1-.8-1.9c0-.9.4-1.7 1.1-2.4.7-.7 1.6-1 2.8-1 1.1 0 2 .3 2.7 1 .4.8.7 1.7.7 2.8zm21.8 2.9v.2c0 .1 0 .1-.1.1h-5.3s-.1 0-.1-.1v-.4c0-.1 0-.1.1-.1.4-.1.8-.1 1-.2.3-.1.4-.4.4-1v-3.1c0-.5-.1-.9-.4-1-.3-.1-.6-.2-1-.2 0 0-.1 0-.1-.1v-.4c0-.1 0-.1.1-.1h5.3s.1 0 .1.1v.4c0 .1 0 .1-.1.1-.4 0-.7.1-1 .2-.3.1-.4.4-.4.9v3.1c0 .5.1.9.4 1 .3.1.6.2 1 .2 0 0 .1 0 .1.1v.3z"/><path fill="#003E7E" d="M235.3 20.6h-53.4c3.5 4.3 6.2 7.6 6.2 7.6l-3.4 1c-.3 1.3-1.1 1.9-1.3 3.3-.2 1.4 1 4.6 1.2 5.3.2.5-.2.6-.2.6s-.5.1-1.1.2c-.5.1-.4.9-.3 1.5.1.7-.2.7-.2.7l-.6.2.2.4c.2.3.1.7-.2.9-.3.2-.8.3-1.1 1.1-.1.2-.1.4-.1.6 2 .1 3.2.5 3.2.5 12.8 4.5 11 12.4 13.6 17.2 1.8 3.4 6.5 10.8 8.4 12 1.6 1 19.3 13.6 27.4 18.1.8.4.5.2 1.6.7V20.6zm0 80.3c-.6-.5-.7-.5-1.3-.8-1.2-.7-4.3-1.5-4.3-1.5-22.5-7-34.8-20.4-37.4-23.3 0 0 .2 4.4.7 6.8.7 3.2 2 5.7 2 5.7-.9 0-2.4 0-5.5 1.5.1 1.2.3 2.6.4 4 0 .3 8.3 20.1 10.5 36.5 1.2 8.9 1.2 18.8.9 27.5 10.5 1.1 18.9 2.2 26.4 3.5-8.3 22.7-25 38-38.4 46.6 5.6-11.3 9.7-27.2 11.4-45.4-4.3 22.8-12.2 41.6-21.4 51.1-4.5 2.3-7.4 3.5-7.4 3.5s-8.8-4.6-19.7-13.1c23.6-16.1 39.4-40 40.3-67.1.2-5.7-.2-11.3-1.3-16.7.2 2.7.3 5.5.2 8.2-1 29.1-18.6 54.7-45.2 70.7l-.3-.2c-10.8-9.4-22.2-22.1-28.6-37.6 8.4-1.5 19.3-3.1 31.9-4.2l.1-.1c3.4-9.2 4.5-16 5.7-35.9-1.6-1.6-4.1-3.9-6.4-5.8-2.3-1.9-7.9-8-7.8-9.7-.6-.7.8-16.8.8-16.8s.9-8.6 1.8-14.2c2.1-12.3 6.2-16.2 7.3-17.1 1.1-.9 5.7-4.9 6.8-6.4 1.8-2.2 2.2-3.9 3.1-5.8-1-.5-1.3-1.5-1.3-3.1 0-2.2 2.1-4.2 3.1-5.6l-2.8-1.1s0 1.4-.4 2.1c-.5 1-.7 2-2 2-.8 0-1.5-.5-1.7-1.3-.2-.7-.9-2.6-1.9-4.1-2.1-3.2-5.6-3.4-8-5.8-2.4-2.6-3.5-4.3-3.9-7.4h-33.2v114.4c.1 53.3 63.4 85.6 63.4 85.6s63.3-24.2 63.3-85.8c.1-10.5.1-33.8.1-33.8zm6.2 6.4v27.2c0 66.5-69.5 93.1-69.5 93.1s-69.3-34.4-69.3-92.8V14.7l38.9.1c.6-6.4 4-11 10-13.2C157.4-.6 162.5.2 162.5.2c.5.1.9.5.9 1.1 0 .7-.7 1.1-1.1 3.2-.4 2.3.3 6.1.3 6.1s1.2-.9 3.9-1.5c3.6-.8 6.2-.2 7.5 1.3.5.6 1 1.2 1.6 1.9-.4.4-1.1 1-1 1.8 0 .4.2.5.6.6h66.2v79.8s2.1.1 3.4.2c2.3.2 3.2.4 4.8 1.5.4.3.6.5 1 .8 1.5 1 2.3 1.2 4.4 1.6.9.2 1.9.4 1.9 1s-.2 1.3-1.8 1.4c-1.3.1-4.3-.7-4.3-.7l-1.3-.2s-1.3 3.4 6.3 9.2c.4.3.6.9.4 1.3-.2.3-.5.5-.9.5-.7 0-1.3-.4-2.1-.8s-2-1.2-2-1.2-1.4.5-2.7.4c-1.2-.1-2.7-.9-3.7-1.4-.9-.5-1.1-.1-1.8-.3-.5-.2-1.5-.5-1.5-.5z"/><g fill="#FFF"><path fill-rule="evenodd" clip-rule="evenodd" d="M172.5 12.5s-4.4-1.3-8.6.9c-5.1 2.7-6.5 7.8-6.5 7.8s3.8-4.3 8.5-6.5c4-1.8 6.6-2.2 6.6-2.2z"/><path d="M174 60.6c-1 7.4 2.2 18.4 2.4 19-.9-.3-4-1.2-8 .3-4 1.4-4.8 5.6-9 7.1-1.3.5-3.2.7-4.6.9-3.2-6.4-4.4-8.4-5.3-14.7-.9-6-.9-10.7 3.3-14.2l.6-.5c2.3-1.6 2.8-1.3 5-2.2 2.3-.8 2.7-2.3 5.9-4.7 3.5-2.6 6.2-3.2 6.2-3.2 4.7-1.6 8.6-1.6 11.8-.8-2.2.1-4 .6-6 4-1.6 2.7-2.1 7-2.3 9z"/><path fill-rule="evenodd" clip-rule="evenodd" d="M186.8 94c-1.3.4-3.1 1-5.1 1.4-4.6 1.1-11.9 1.4-11.9 1.4s6.5-1.5 10.5-3.1c2.5-1 4.7-2.2 6.2-2.9l.3 3.2z"/><path d="M192.5 66.5l3.5-1.9 6.3 9.2s.9 1.6 2.1 2.3c1.2.8 14.5 10.5 26.5 16.9 2.7 1.5 4.1 2 7.3 3.1 1.8.6 3.6 1.1 4.8 1.4-1.3.1-12.7-2.4-17.7-4.8-9-4.5-12.9-6.8-20-13.4-4.3-4-8.5-4.8-11.5-9.4-.7-1.2-1.1-2.4-1.3-3.4z"/></g><defs><path id="g" d="M155.9 111.2c1.2-4.9 4-10 4-10s-.1-.4-.6-2.8c-1 0-1.7 0-2.2-.1-1.5-.2-2.6-.4-3.4-.6 0-1.1-.2-2.8-.6-4.5-.3-1.2-.7-2.3-1.1-3.3-.6 2.5-1.5 6.4-1.5 6.4l-1.3 5.8c2 2.6 3.3 4.4 4.8 6.3.6.9 1.3 1.8 1.9 2.8z"/></defs><clipPath id="h"><use xlink:href="#g" overflow="visible"/></clipPath><g clip-path="url(#h)"><defs><path id="i" d="M184.8 156c3.8-8.8 6.2-18.2 6.5-28 .1-2.8 0-7.5-.2-10.3 1.3 5.4 2 13 1.8 18.7-.2 6.8-1.4 13.5-3.4 19.9 20.2 1.5 38.3 4.6 38.3 4.6 2.8-7.7 4-16.1 4-25.7v-111H112.2s-.1 71.5 0 111.2c0 9.1 2 17.5 5.2 25.3 0 0 27.8-5.2 54.6-5.2 4.2.1 8.3.3 12.8.5z"/></defs><clipPath id="j"><use xlink:href="#i" overflow="visible"/></clipPath><g clip-path="url(#j)"><defs><path id="k" d="M184.8 156c3.8-8.8 6.2-18.2 6.5-28 .1-2.8 0-7.5-.2-10.3 1.3 5.4 2 13 1.8 18.7-.2 6.8-1.4 13.5-3.4 19.9 20.2 1.5 38.3 4.6 38.3 4.6 2.8-7.7 4-16.1 4-25.7v-111H112.2s-.1 71.5 0 111.2c0 9.1 2 17.5 5.2 25.3 0 0 27.8-5.2 54.6-5.2 4.2.1 8.3.3 12.8.5z"/></defs><clipPath id="l"><use xlink:href="#k" overflow="visible"/></clipPath><g clip-path="url(#l)"><path fill="#FFD200" d="M112.2 24.2h119.5v136.7H112.2V24.2z"/><ellipse fill="#FFD200" cx="170.7" cy="173.2" rx="90.7" ry="158.2"/><ellipse fill="#FFD301" cx="170.7" cy="173.2" rx="90.1" ry="157.2"/><ellipse fill="#FFD307" cx="170.8" cy="173.2" rx="89.5" ry="156.2"/><ellipse fill="#FFD30A" cx="170.7" cy="173.2" rx="88.9" ry="155.2"/><ellipse fill="#FFD30F" cx="170.7" cy="173.2" rx="88.4" ry="154.2"/><ellipse fill="#FFD414" cx="170.7" cy="173.2" rx="87.8" ry="153.2"/><ellipse fill="#FFD416" cx="170.8" cy="173.2" rx="87.2" ry="152.2"/><ellipse fill="#FFD41A" cx="170.7" cy="173.2" rx="86.7" ry="151.2"/><ellipse fill="#FFD41C" cx="170.7" cy="173.2" rx="86.1" ry="150.2"/><ellipse fill="#FFD420" cx="170.7" cy="173.2" rx="85.5" ry="149.2"/><ellipse fill="#FFD523" cx="170.8" cy="173.2" rx="84.9" ry="148.2"/><ellipse fill="#FFD525" cx="170.7" cy="173.2" rx="84.4" ry="147.2"/><ellipse fill="#FFD528" cx="170.7" cy="173.2" rx="83.8" ry="146.2"/><ellipse fill="#FFD52A" cx="170.8" cy="173.2" rx="83.2" ry="145.2"/><ellipse fill="#FFD62D" cx="170.7" cy="173.2" rx="82.6" ry="144.2"/><ellipse fill="#FFD630" cx="170.7" cy="173.2" rx="82.1" ry="143.2"/><ellipse fill="#FFD631" cx="170.7" cy="173.2" rx="81.5" ry="142.2"/><ellipse fill="#FFD633" cx="170.8" cy="173.2" rx="80.9" ry="141.2"/><ellipse fill="#FFD635" cx="170.7" cy="173.2" rx="80.3" ry="140.2"/><ellipse fill="#FFD737" cx="170.7" cy="173.2" rx="79.8" ry="139.2"/><ellipse fill="#FFD73A" cx="170.7" cy="173.2" rx="79.2" ry="138.2"/><ellipse fill="#FFD73B" cx="170.7" cy="173.2" rx="78.6" ry="137.2"/><ellipse fill="#FFD73E" cx="170.7" cy="173.2" rx="78" ry="136.2"/><ellipse fill="#FFD840" cx="170.7" cy="173.2" rx="77.5" ry="135.2"/><ellipse fill="#FFD841" cx="170.8" cy="173.2" rx="76.9" ry="134.2"/><ellipse fill="#FFD844" cx="170.7" cy="173.2" rx="76.3" ry="133.2"/><ellipse fill="#FFD845" cx="170.7" cy="173.2" rx="75.7" ry="132.2"/><ellipse fill="#FFD947" cx="170.7" cy="173.2" rx="75.2" ry="131.2"/><ellipse fill="#FFD949" cx="170.8" cy="173.2" rx="74.6" ry="130.2"/><ellipse fill="#FFD94B" cx="170.7" cy="173.2" rx="74" ry="129.2"/><ellipse fill="#FFD94D" cx="170.7" cy="173.2" rx="73.5" ry="128.2"/><ellipse fill="#FFD94E" cx="170.8" cy="173.2" rx="72.9" ry="127.2"/><ellipse fill="#FFDA50" cx="170.7" cy="173.2" rx="72.3" ry="126.2"/><ellipse fill="#FFDA52" cx="170.7" cy="173.2" rx="71.7" ry="125.2"/><ellipse fill="#FFDA54" cx="170.7" cy="173.2" rx="71.2" ry="124.2"/><ellipse fill="#FFDA56" cx="170.8" cy="173.2" rx="70.6" ry="123.2"/><ellipse fill="#FFDB57" cx="170.7" cy="173.2" rx="70" ry="122.2"/><ellipse fill="#FFDB59" cx="170.7" cy="173.2" rx="69.4" ry="121.2"/><ellipse fill="#FFDB5B" cx="170.7" cy="173.2" rx="68.9" ry="120.2"/><ellipse fill="#FFDB5C" cx="170.8" cy="173.2" rx="68.3" ry="119.2"/><ellipse fill="#FFDC5E" cx="170.7" cy="173.2" rx="67.7" ry="118.2"/><ellipse fill="#FFDC60" cx="170.7" cy="173.2" rx="67.1" ry="117.2"/><ellipse fill="#FFDC61" cx="170.8" cy="173.2" rx="66.6" ry="116.2"/><ellipse fill="#FFDC63" cx="170.7" cy="173.2" rx="66" ry="115.2"/><ellipse fill="#FFDD64" cx="170.7" cy="173.2" rx="65.4" ry="114.2"/><ellipse fill="#FD6" cx="170.7" cy="173.2" rx="64.8" ry="113.2"/><ellipse fill="#FFDD68" cx="170.8" cy="173.2" rx="64.3" ry="112.2"/><ellipse fill="#FFDD69" cx="170.7" cy="173.2" rx="63.7" ry="111.2"/><ellipse fill="#FFDE6B" cx="170.7" cy="173.2" rx="63.1" ry="110.2"/><ellipse fill="#FFDE6C" cx="170.7" cy="173.2" rx="62.5" ry="109.2"/><ellipse fill="#FFDE6E" cx="170.7" cy="173.2" rx="62" ry="108.2"/><ellipse fill="#FFDF70" cx="170.7" cy="173.2" rx="61.4" ry="107.2"/><ellipse fill="#FFDF70" cx="170.7" cy="173.2" rx="60.8" ry="106.2"/><ellipse fill="#FFDF72" cx="170.8" cy="173.2" rx="60.3" ry="105.1"/><ellipse fill="#FFDF73" cx="170.7" cy="173.2" rx="59.7" ry="104.1"/><ellipse fill="#FFDF75" cx="170.7" cy="173.2" rx="59.1" ry="103.1"/><ellipse fill="#FFE077" cx="170.7" cy="173.2" rx="58.5" ry="102.1"/><ellipse fill="#FFE077" cx="170.8" cy="173.2" rx="58" ry="101.1"/><ellipse fill="#FFE079" cx="170.7" cy="173.2" rx="57.4" ry="100.1"/><ellipse fill="#FFE17B" cx="170.7" cy="173.2" rx="56.8" ry="99.1"/><ellipse fill="#FFE17C" cx="170.8" cy="173.2" rx="56.2" ry="98.1"/><ellipse fill="#FFE17D" cx="170.7" cy="173.2" rx="55.7" ry="97.1"/><ellipse fill="#FFE17E" cx="170.7" cy="173.2" rx="55.1" ry="96.1"/><ellipse fill="#FFE280" cx="170.7" cy="173.2" rx="54.5" ry="95.1"/><ellipse fill="#FFE281" cx="170.8" cy="173.2" rx="53.9" ry="94.1"/><ellipse fill="#FFE282" cx="170.7" cy="173.2" rx="53.4" ry="93.1"/><ellipse fill="#FFE284" cx="170.7" cy="173.2" rx="52.8" ry="92.1"/><ellipse fill="#FFE384" cx="170.7" cy="173.2" rx="52.2" ry="91.1"/><ellipse fill="#FFE386" cx="170.8" cy="173.2" rx="51.6" ry="90.1"/><ellipse fill="#FFE388" cx="170.7" cy="173.2" rx="51.1" ry="89.1"/><ellipse fill="#FFE388" cx="170.7" cy="173.2" rx="50.5" ry="88.1"/><ellipse fill="#FFE48A" cx="170.8" cy="173.2" rx="49.9" ry="87.1"/><ellipse fill="#FFE48B" cx="170.7" cy="173.2" rx="49.4" ry="86.1"/><ellipse fill="#FFE48C" cx="170.7" cy="173.2" rx="48.8" ry="85.1"/><ellipse fill="#FFE58E" cx="170.7" cy="173.2" rx="48.2" ry="84.1"/><ellipse fill="#FFE58F" cx="170.8" cy="173.2" rx="47.6" ry="83.1"/><ellipse fill="#FFE590" cx="170.7" cy="173.2" rx="47.1" ry="82.1"/><ellipse fill="#FFE592" cx="170.7" cy="173.2" rx="46.5" ry="81.1"/><ellipse fill="#FFE693" cx="170.7" cy="173.2" rx="45.9" ry="80.1"/><ellipse fill="#FFE694" cx="170.8" cy="173.2" rx="45.3" ry="79.1"/><ellipse fill="#FFE695" cx="170.7" cy="173.2" rx="44.8" ry="78.1"/><ellipse fill="#FFE697" cx="170.7" cy="173.2" rx="44.2" ry="77.1"/><ellipse fill="#FFE798" cx="170.8" cy="173.2" rx="43.6" ry="76.1"/><ellipse fill="#FFE799" cx="170.7" cy="173.2" rx="43" ry="75.1"/><ellipse fill="#FFE79A" cx="170.7" cy="173.2" rx="42.5" ry="74.1"/><ellipse fill="#FFE79B" cx="170.7" cy="173.2" rx="41.9" ry="73.1"/><ellipse fill="#FFE89D" cx="170.8" cy="173.2" rx="41.3" ry="72.1"/><ellipse fill="#FFE89E" cx="170.7" cy="173.2" rx="40.7" ry="71.1"/><ellipse fill="#FFE89F" cx="170.7" cy="173.2" rx="40.2" ry="70.1"/><ellipse fill="#FFE8A1" cx="170.7" cy="173.2" rx="39.6" ry="69.1"/><ellipse fill="#FFE9A2" cx="170.7" cy="173.2" rx="39" ry="68.1"/><ellipse fill="#FFE9A3" cx="170.7" cy="173.2" rx="38.4" ry="67.1"/><ellipse fill="#FFE9A5" cx="170.7" cy="173.2" rx="37.9" ry="66.1"/><ellipse fill="#FFE9A6" cx="170.8" cy="173.2" rx="37.3" ry="65.1"/><ellipse fill="#FFEAA7" cx="170.7" cy="173.2" rx="36.7" ry="64.1"/><ellipse fill="#FFEAA9" cx="170.7" cy="173.2" rx="36.2" ry="63.1"/><ellipse fill="#FFEAAA" cx="170.7" cy="173.2" rx="35.6" ry="62.1"/><ellipse fill="#FFEBAB" cx="170.8" cy="173.2" rx="35" ry="61.1"/><ellipse fill="#FFEBAC" cx="170.7" cy="173.2" rx="34.4" ry="60.1"/><ellipse fill="#FFEBAE" cx="170.7" cy="173.2" rx="33.9" ry="59.1"/><ellipse fill="#FFECAF" cx="170.8" cy="173.2" rx="33.3" ry="58.1"/><ellipse fill="#FFECB0" cx="170.7" cy="173.2" rx="32.7" ry="57.1"/><ellipse fill="#FFECB2" cx="170.7" cy="173.2" rx="32.1" ry="56.1"/><ellipse fill="#FFECB3" cx="170.7" cy="173.2" rx="31.6" ry="55.1"/><ellipse fill="#FFEDB4" cx="170.8" cy="173.2" rx="31" ry="54.1"/><ellipse fill="#FFEDB6" cx="170.7" cy="173.2" rx="30.4" ry="53.1"/><ellipse fill="#FFEDB7" cx="170.7" cy="173.2" rx="29.8" ry="52.1"/><ellipse fill="#FFEDB8" cx="170.7" cy="173.2" rx="29.3" ry="51.1"/><ellipse fill="#FFEEB9" cx="170.8" cy="173.2" rx="28.7" ry="50.1"/><ellipse fill="#FEB" cx="170.7" cy="173.2" rx="28.1" ry="49.1"/><ellipse fill="#FFEEBC" cx="170.7" cy="173.2" rx="27.5" ry="48.1"/><ellipse fill="#FFEEBD" cx="170.8" cy="173.2" rx="27" ry="47.1"/><ellipse fill="#FFEFBF" cx="170.7" cy="173.2" rx="26.4" ry="46.1"/><ellipse fill="#FFEFC0" cx="170.7" cy="173.2" rx="25.8" ry="45.1"/><ellipse fill="#FFEFC1" cx="170.7" cy="173.2" rx="25.2" ry="44.1"/><ellipse fill="#FFF0C3" cx="170.8" cy="173.2" rx="24.7" ry="43.1"/><ellipse fill="#FFF0C4" cx="170.7" cy="173.2" rx="24.1" ry="42.1"/><ellipse fill="#FFF0C5" cx="170.7" cy="173.2" rx="23.5" ry="41.1"/><ellipse fill="#FFF1C7" cx="170.7" cy="173.2" rx="23" ry="40.1"/><ellipse fill="#FFF1C8" cx="170.7" cy="173.2" rx="22.4" ry="39.1"/><ellipse fill="#FFF1C9" cx="170.7" cy="173.2" rx="21.8" ry="38.1"/><ellipse fill="#FFF1CA" cx="170.7" cy="173.2" rx="21.2" ry="37.1"/><ellipse fill="#FFF2CC" cx="170.8" cy="173.2" rx="20.7" ry="36.1"/><ellipse fill="#FFF2CD" cx="170.7" cy="173.2" rx="20.1" ry="35"/><ellipse fill="#FFF2CE" cx="170.7" cy="173.2" rx="19.5" ry="34"/><ellipse fill="#FFF3CF" cx="170.7" cy="173.2" rx="18.9" ry="33"/><ellipse fill="#FFF3D0" cx="170.8" cy="173.2" rx="18.4" ry="32"/><ellipse fill="#FFF3D2" cx="170.7" cy="173.2" rx="17.8" ry="31"/><ellipse fill="#FFF3D3" cx="170.7" cy="173.2" rx="17.2" ry="30"/><ellipse fill="#FFF4D4" cx="170.8" cy="173.2" rx="16.6" ry="29"/><ellipse fill="#FFF4D6" cx="170.7" cy="173.2" rx="16.1" ry="28"/><ellipse fill="#FFF4D7" cx="170.7" cy="173.2" rx="15.5" ry="27"/><ellipse fill="#FFF5D8" cx="170.7" cy="173.2" rx="14.9" ry="26"/><ellipse fill="#FFF5DA" cx="170.8" cy="173.2" rx="14.3" ry="25"/><ellipse fill="#FFF5DB" cx="170.7" cy="173.2" rx="13.8" ry="24"/><ellipse fill="#FFF6DC" cx="170.7" cy="173.2" rx="13.2" ry="23"/><ellipse fill="#FFF6DE" cx="170.7" cy="173.2" rx="12.6" ry="22"/><ellipse fill="#FFF6DF" cx="170.8" cy="173.2" rx="12.1" ry="21"/><ellipse fill="#FFF7E0" cx="170.7" cy="173.2" rx="11.5" ry="20"/><ellipse fill="#FFF7E1" cx="170.7" cy="173.2" rx="10.9" ry="19"/><ellipse fill="#FFF7E3" cx="170.8" cy="173.2" rx="10.3" ry="18"/><ellipse fill="#FFF8E4" cx="170.7" cy="173.2" rx="9.8" ry="17"/><ellipse fill="#FFF8E5" cx="170.7" cy="173.2" rx="9.2" ry="16"/><ellipse fill="#FFF8E7" cx="170.7" cy="173.2" rx="8.6" ry="15"/><ellipse fill="#FFF9E8" cx="170.8" cy="173.2" rx="8" ry="14"/><ellipse fill="#FFF9EA" cx="170.7" cy="173.2" rx="7.5" ry="13"/><ellipse fill="#FFF9EB" cx="170.7" cy="173.2" rx="6.9" ry="12"/><ellipse fill="#FFFAEC" cx="170.7" cy="173.2" rx="6.3" ry="11"/><ellipse fill="#FFFAEE" cx="170.7" cy="173.2" rx="5.7" ry="10"/><ellipse fill="#FFFAEF" cx="170.7" cy="173.2" rx="5.2" ry="9"/><ellipse fill="#FFFBF0" cx="170.7" cy="173.2" rx="4.6" ry="8"/><ellipse fill="#FFFCF2" cx="170.8" cy="173.2" rx="4" ry="7"/><ellipse fill="#FFFCF3" cx="170.7" cy="173.2" rx="3.4" ry="6"/><ellipse fill="#FFFCF5" cx="170.7" cy="173.2" rx="2.9" ry="5"/><ellipse fill="#FFFDF7" cx="170.7" cy="173.2" rx="2.3" ry="4"/><ellipse fill="#FFFDF8" cx="170.8" cy="173.2" rx="1.7" ry="3"/><ellipse fill="#FFFEFA" cx="170.7" cy="173.2" rx="1.1" ry="2"/><ellipse fill="#FFFEFC" cx="170.7" cy="173.2" rx=".6" ry="1"/></g></g><defs><path id="m" d="M184.8 156c3.8-8.8 6.2-18.2 6.5-28 .1-2.8 0-7.5-.2-10.3 1.3 5.4 2 13 1.8 18.7-.2 6.8-1.4 13.5-3.4 19.9 20.2 1.5 38.3 4.6 38.3 4.6 2.8-7.7 4-16.1 4-25.7v-111H112.2s-.1 71.5 0 111.2c0 9.1 2 17.5 5.2 25.3 0 0 27.8-5.2 54.6-5.2 4.2.1 8.3.3 12.8.5z"/></defs><clipPath id="n"><use xlink:href="#m" overflow="visible"/></clipPath><g clip-path="url(#n)"><path fill="#FFD200" d="M172.3 156.1l69.7-50.2-.5 20.9-69.2 29.3 69.2-11.7-4.5 22.1-64.7-10.4-63.9 10.3-4.8-21.9 68.7 11.6-68.5-29.2-.4-20.8 68.9 50-68.9-78.3-.4-27.7 69.3 106-47.7-138 18.8-.1 28.9 138.1L202 17.7h18.9l-48.6 138.4 69.3-105.9.3 27.2z"/></g></g><path fill-rule="evenodd" clip-rule="evenodd" fill="#FFF" d="M8 264.9v30.9c0 9.8 1.2 23.6 13.6 31.1 10.8 6.5 24.2 6.8 35.2.8 13.5-7.1 14.5-21 14.7-30.5l.8-29.2c.2-4.5-.1-8.8 3.8-11.1.5-.3 3.9-1.3 4.9-1.3v-2.3s-7.7.3-12.4.3c-3.9 0-10.1-.3-10.1-.3v2.3c6.7 1 8.2 4.5 8.2 11.7V299c0 9-.8 18.7-11.2 24.7-6.5 3.8-16.4 4.3-23.1.5-10.8-6.2-11.8-15.3-11.8-23.9v-35.4c0-3.5.3-6.7 3.9-8.5 1.6-.8 2.4-.6 4.1-.8v-2.3c-2.9 0-8.5.3-14.1.3-7.4 0-14.5-.3-14.5-.3v2.3c1.6.2 2.5 0 4 .8 3.7 1.8 4 5 4 8.5zm158.5 57.8v-54.5c0-4.4-.1-8.7 4.2-11.1.5-.4 4-1.3 4.9-1.3v-2.3s-7.4.3-12.1.3c-4 0-10.1-.3-10.1-.3v2.3c6.8.9 8.2 4.4 8.2 11.7V308l-48.3-54.5s-5.6.2-9.7.2c-3.8 0-9.7-.2-9.7-.2v2.3c1 .2 4.1.4 5.4 1.1 2.8 1.8 2.5 4.9 2.5 10.5v48.5c0 7.2-1.5 10.7-8.2 11.6v2.3s6.1-.3 9.9-.3c4.8 0 12.2.3 12.2.3v-2.3c-1 0-4.3-.8-4.9-1.3-4.2-2.4-4.1-6.8-4.1-11.1v-48.3l50.6 57.3c2.8 3.2 6.3 8.1 7.9 7.6 1.6-.7 1.3-5.4 1.3-9zm93.1-46.8s-.2-6.2-.1-10.1c0-3.1.5-7.8.5-7.8-.3-.3-.8-.7-1.7-1.2-11.2-6.3-36.7-8.8-52-.2-15.1 8.5-19.4 22.6-19.1 35 .2 14 5.1 27.8 20.2 35.7 13.6 7.1 34.8 5.8 50.5-4.1 1.7-1.3 2.4-1.9 2.8-2.5 0 0 .1-3.8.2-5.2.1-2-.4-6.3-.4-6.3l-2 2.1c-10.9 11.5-19.3 17.7-30.4 16.1-11.7-1.7-18.8-10-22.7-21.1-3.7-10.9-4.2-33 6.6-44.5 7-7.4 21.1-7.8 27.3-6.2 11 3.3 15.1 8.7 18.3 20.3h2zm88.5-18.8c-.5-.6-5.7-2.4-5.7-2.4-15.6-4.2-39.3-7.2-54.8 5.8-12.7 10.8-15.1 26.9-13.6 38.4 1.5 12.2 8.8 22.9 21.7 29.2 13.6 6.7 40.4 3.6 49.7-1.4.8-.4 1.7-1.2 2.3-1.7v-15.2c0-6.9 1.2-7.8 7.2-9.2v-2.4h-27.5v2.4c3.3.7 7.3 1.2 7.3 8.6v14.6c-.5.4-1 .8-1.9 1.5-6 3.4-16.8 3.4-23.3.3-14-6.5-18.8-19.2-20-30.8-1-8.6-.1-25.9 10.3-34.1 8.8-6.9 22.1-6.6 30.9-3.4 10.7 4 12.8 8.2 15 18h2.7l-.3-18.2z"/></svg>