<svg xmlns="http://www.w3.org/2000/svg" viewBox="0 0 150 150"><title>uncg_school_icons</title><path d="M57 102a2.48 2.48 0 0 0-2.57 2.57v12.86A2.48 2.48 0 0 0 57 120h36a2.48 2.48 0 0 0 2.57-2.57v-12.86A2.48 2.48 0 0 0 93 102h-7.71V60.86a2.48 2.48 0 0 0-2.57-2.57H57a2.48 2.48 0 0 0-2.57 2.57v12.85A2.48 2.48 0 0 0 57 76.29h7.71V102zm25.71-54a2.48 2.48 0 0 0 2.57-2.57V32.57A2.48 2.48 0 0 0 82.71 30H67.29a2.48 2.48 0 0 0-2.57 2.57v12.86A2.48 2.48 0 0 0 67.29 48z" fill="#fff"/><path d="M143.14 46.26a72.72 72.72 0 0 0-39.4-39.4 73.37 73.37 0 0 0-57.48 0 72.72 72.72 0 0 0-39.4 39.4 73.37 73.37 0 0 0 0 57.48 72.72 72.72 0 0 0 39.4 39.4 73.37 73.37 0 0 0 57.48 0 72.72 72.72 0 0 0 39.4-39.4 73.37 73.37 0 0 0 0-57.48zM138.43 75a61.7 61.7 0 0 1-5 24.61 62.68 62.68 0 0 1-33.78 33.78 62.64 62.64 0 0 1-49.22 0 62.68 62.68 0 0 1-33.82-33.78 61.72 61.72 0 0 1-5-24.61 61.7 61.7 0 0 1 5-24.61 62.68 62.68 0 0 1 33.78-33.78 62.64 62.64 0 0 1 49.22 0 62.68 62.68 0 0 1 33.78 33.78 61.72 61.72 0 0 1 5 24.61z" fill="#fff"/></svg>